<?xml version="1.0" encoding="UTF-8" standalone="no"?>
<!-- Created with Inkscape (http://www.inkscape.org/) -->
<svg
   xmlns:i="http://ns.adobe.com/AdobeIllustrator/10.0/"
   xmlns:dc="http://purl.org/dc/elements/1.1/"
   xmlns:cc="http://creativecommons.org/ns#"
   xmlns:rdf="http://www.w3.org/1999/02/22-rdf-syntax-ns#"
   xmlns:svg="http://www.w3.org/2000/svg"
   xmlns="http://www.w3.org/2000/svg"
   xmlns:xlink="http://www.w3.org/1999/xlink"
   xmlns:sodipodi="http://sodipodi.sourceforge.net/DTD/sodipodi-0.dtd"
   xmlns:inkscape="http://www.inkscape.org/namespaces/inkscape"
   width="120"
   height="30"
   id="svg2923"
   sodipodi:version="0.32"
   inkscape:version="0.46"
   sodipodi:docname="button.svg"
   inkscape:output_extension="org.inkscape.output.svg.inkscape"
   version="1.0"
   inkscape:export-filename="/home/michael/private/www/mih-voxindeserto.de/_static/neurodebian.png"
   inkscape:export-xdpi="90"
   inkscape:export-ydpi="90">
  <sodipodi:namedview
     inkscape:document-units="mm"
     pagecolor="#ffffff"
     bordercolor="#666666"
     borderopacity="1.0"
     inkscape:pageopacity="0.0"
     inkscape:pageshadow="2"
     inkscape:zoom="12.458885"
     inkscape:cx="59.997343"
     inkscape:cy="5.9379893"
     inkscape:current-layer="layer4"
     id="namedview2927"
     showgrid="false"
     showguides="false"
     showborder="true"
     inkscape:showpageshadow="true"
     inkscape:object-paths="true"
     inkscape:object-nodes="true"
     inkscape:guide-bbox="true"
     inkscape:window-width="1920"
     inkscape:window-height="1200"
     inkscape:window-x="0"
     inkscape:window-y="0"
     units="mm">
    <inkscape:grid
       enabled="true"
       visible="true"
       id="grid2948"
       type="xygrid" />
    <sodipodi:guide
       id="guide3883"
       position="63.947902,899.36909"
       orientation="0,1" />
    <sodipodi:guide
       id="guide3968"
       position="41.662773,934.7925"
       orientation="1,0" />
    <sodipodi:guide
       id="guide3972"
       position="73.932253,920.79841"
       orientation="1,0" />
  </sodipodi:namedview>
  <defs
     id="defs2925">
    <linearGradient
       id="linearGradient3869">
      <stop
         style="stop-color:#b4b4b4;stop-opacity:1;"
         offset="0"
         id="stop3871" />
      <stop
         id="stop3877"
         offset="1"
         style="stop-color:#ffffff;stop-opacity:1;" />
    </linearGradient>
    <filter
       inkscape:collect="always"
       id="filter3843"
       x="-0.013084506"
       width="1.026169"
       y="-0.14477929"
       height="1.2895586">
      <feGaussianBlur
         inkscape:collect="always"
         stdDeviation="0.41312651"
         id="feGaussianBlur3845" />
    </filter>
    <filter
       inkscape:collect="always"
       id="filter3865">
      <feGaussianBlur
         inkscape:collect="always"
         stdDeviation="0.62976233"
         id="feGaussianBlur3867" />
    </filter>
    <radialGradient
       inkscape:collect="always"
       xlink:href="#linearGradient3869"
       id="radialGradient3875"
       cx="100.04167"
       cy="131.0509"
       fx="100.04167"
       fy="131.0509"
       r="59.997342"
       gradientTransform="matrix(1.7813142,-6.9458686e-8,0,0.2863315,-78.163976,41.044003)"
       gradientUnits="userSpaceOnUse" />
  </defs>
  <metadata
     id="metadata2929">
    <rdf:RDF>
      <cc:Work
         rdf:about="">
        <dc:format>image/svg+xml</dc:format>
        <dc:type
           rdf:resource="http://purl.org/dc/dcmitype/StillImage" />
      </cc:Work>
    </rdf:RDF>
  </metadata>
  <g
     transform="translate(-40.044329,-50.107571)"
     id="layer1"
     inkscape:groupmode="layer"
     inkscape:label="Base">
    <rect
       style="fill:url(#radialGradient3875);fill-opacity:1;stroke:#000000;stroke-width:0.71823239000000005;stroke-linecap:round;stroke-linejoin:miter;stroke-miterlimit:4;stroke-dasharray:none;stroke-opacity:1"
       id="rect6677"
       width="119.27645"
       height="29.26721"
       x="40.403446"
       y="50.466686"
       rx="4.5252466"
       ry="4.5252466"
       inkscape:export-filename="/home/alrferreira/Desktop/debian-gnu-banner.png"
       inkscape:export-xdpi="64.494591"
       inkscape:export-ydpi="64.494591" />
  </g>
  <g
     transform="translate(-40.044329,-50.107571)"
     style="display:inline"
     inkscape:label="NeuroDebian-brain"
     id="layer4"
     inkscape:groupmode="layer">
    <g
       id="g3883"
       transform="translate(1.117096,0)">
      <path
         style="fill:#d70751;display:inline"
         i:knockout="Off"
         d="M 49.461451,66.35437 L 49.08797,66.377906 C 48.725296,66.831657 48.306646,67.22677 48.068296,67.745147 C 48.581815,67.280361 48.767192,66.988016 49.461451,66.35437"
         id="path2596" />
      <path
         style="fill:#d70751;display:inline"
         i:knockout="Off"
         d="M 49.70239,67.131728 C 49.850176,66.903504 50.056626,66.737188 50.258096,66.557697 C 49.878171,66.779201 49.587158,67.102389 49.285272,67.410717 L 49.70239,67.131728"
         id="path2598" />
      <path
         style="fill:#d70751;display:inline"
         i:knockout="Off"
         d="M 61.951746,63.595951 C 62.420276,63.139798 62.102452,63.92058 61.591833,64.617503 C 61.293818,64.654332 61.012201,64.673515 60.749149,64.680328 C 61.21645,64.396856 61.601116,64.016518 61.951746,63.595951"
         id="path2584" />
      <path
         style="fill:#d70751;display:inline"
         i:knockout="Off"
         d="M 60.192087,65.157114 C 59.566834,65.383201 58.923012,65.492299 58.310765,65.419645 C 58.75143,65.455458 59.175927,65.334433 59.617742,65.230723 C 60.69675,64.270214 59.210891,64.992845 58.730436,64.973321 C 60.685808,64.170928 59.734311,65.074897 60.192087,65.157114"
         id="path2586" />
      <path
         style="fill:#d70751;display:inline"
         i:knockout="Off"
         d="M 57.643279,65.414743 C 56.464692,65.480365 56.841253,65.173649 57.291065,65.074402 C 57.353509,65.196827 58.119064,65.302668 57.643279,65.414743"
         id="path2588" />
      <path
         style="fill:#d70751;display:inline"
         i:knockout="Off"
         d="M 69.736807,57.827184 C 71.250503,58.788138 71.031,60.214199 70.939257,58.397014 C 69.778037,56.568088 70.317732,58.28497 69.736807,57.827184"
         id="path2604" />
      <path
         style="fill:#d70751;display:inline"
         i:knockout="Off"
         d="M 62.399204,54.616284 C 63.772776,55.064583 64.596728,55.144874 65.39296,55.315973 C 63.811966,54.080046 63.474548,54.746281 62.399204,54.616284"
         id="path2606" />
      <path
         style="fill:#d70751"
         d="M 61.274503,74.789603 C 60.279049,75.077015 57.720516,76.134796 56.764749,76.102912 L 56.33382,75.718257 C 55.344653,75.565728 55.803679,75.893203 55.027706,75.80111 C 54.208184,75.377983 52.484395,74.534303 52.229776,74.188499 C 52.137911,73.911766 52.682592,74.276351 52.852237,74.298919 C 51.941985,73.686001 52.134653,74.828 51.324069,73.742575 L 51.403817,73.684866 C 48.935478,71.958319 51.124687,67.885286 55.387141,66.299328 C 55.096018,66.339769 55.14517,66.264186 55.009454,66.228365 C 57.033415,66.128845 56.385144,65.834897 58.303238,65.33059 C 59.24202,65.020111 58.992943,64.713302 59.284821,64.62472 C 58.193332,64.626448 57.868886,64.535748 56.438333,65.043727 C 52.203647,65.612264 50.929568,67.39846 49.678209,70.190633 C 49.520455,70.619063 49.384664,70.374593 49.184269,70.477516 C 49.332483,69.618082 49.717743,68.767889 50.289084,68.003502 C 49.87368,68.437838 49.481301,68.891865 49.232361,69.413448 C 49.26205,68.630355 50.682448,67.233889 50.654653,66.939359 C 48.487438,68.826128 47.868537,73.066646 49.549612,74.778545 C 49.183134,73.881775 48.786437,72.725539 48.867777,71.593385 C 48.975471,71.09778 49.308475,70.379061 49.447145,70.457294 C 49.221758,73.433201 49.595811,74.152072 52.635106,75.904412 C 53.393055,76.354577 54.552549,76.761573 54.631994,76.944396 C 54.030359,76.791943 54.408351,77.053529 53.888813,76.950985 C 55.225145,77.250287 54.255367,76.57913 56.050498,77.062693 L 55.644031,77.513086 C 56.536334,77.156301 60.03367,76.75044 61.47126,76.263469 C 62.013366,76.399714 59.570555,77.575794 58.435448,77.5739 C 59.721493,77.650165 61.323806,76.422512 62.30964,76.275132 C 62.026241,76.458333 61.735422,76.680235 61.422336,76.835111 C 62.450279,76.310803 64.902101,75.998399 65.593709,75.954852 C 65.613096,75.819135 64.967385,75.708487 66.262442,75.315805 C 66.837342,75.179256 66.610366,75.373817 66.7685,75.385936 C 66.799248,75.275665 67.148535,74.916685 67.93496,74.552781 C 68.171857,74.610718 67.527737,74.97432 67.552426,75.130104 C 68.185944,74.864731 68.636488,74.570957 69.146937,74.4335 C 70.069911,73.724929 68.947453,74.316414 69.428442,73.810433 C 70.976376,72.912375 69.964338,74.092317 70.763411,73.951905 C 69.808855,74.958187 68.08143,75.832693 67.372936,76.213408 C 68.267207,75.833222 69.101421,75.374651 69.887467,74.873289 C 69.857098,75.113747 71.707213,74.0365 70.572636,75.001431 C 73.22864,73.604209 78.875889,72.306804 79.426479,69.990166 C 79.24858,70.30098 79.026071,70.693586 78.933979,70.59695 C 79.278873,69.426097 79.397094,69.58635 79.64255,69.368765 C 79.743276,68.46215 79.300533,68.515845 79.139522,67.973891 C 79.552955,66.206175 78.803068,65.441787 78.900158,63.887037 L 78.568063,64.041079 C 78.60487,62.930512 77.993997,62.903853 77.751572,61.775638 C 77.788985,61.693922 78.100783,62.068351 78.282772,62.395902 C 77.77823,61.459296 78.177198,61.40757 77.562235,60.522008 C 77.843134,60.707026 78.063294,60.923247 78.320261,61.131594 C 77.976427,60.350999 77.085563,59.372284 77.657435,59.598806 C 76.501122,58.47665 74.704323,56.418115 72.795666,55.491731 L 73.104436,55.368967 C 72.044836,54.991582 69.646405,53.427593 68.492138,53.547935 L 68.39126,53.400404 C 67.659136,53.250525 66.883312,53.229547 66.15649,53.147526 C 65.193377,52.952435 65.628622,52.636471 65.521002,52.726594 C 63.321905,52.419871 61.572138,52.433881 60.130383,52.429261 C 59.650786,52.871557 57.535573,53.09542 55.835412,53.627379 C 47.131187,55.405849 41.568555,60.449769 41.838507,68.381887 C 42.141957,69.529883 43.694029,70.426921 44.598786,71.168826 C 43.805447,69.98008 44.291319,70.479541 43.379688,69.411049 C 42.840857,68.59143 42.947572,68.242295 43.383802,67.423608 L 42.936515,67.817426 C 43.014447,66.410205 43.332985,66.909826 43.350252,65.776385 C 43.524972,65.831672 43.699691,65.887033 43.874409,65.942395 C 43.763534,65.520707 43.550038,64.640975 43.921213,64.344021 L 43.737557,63.8984 C 44.336919,63.155143 44.503838,62.266022 44.956124,62.174309 L 44.594492,62.107282 C 44.872285,61.856602 46.859934,59.356232 46.585397,60.461045 C 46.712858,60.236342 46.748983,59.971499 47.207175,59.577907 L 47.538816,59.704232 C 48.073576,59.071017 48.830845,58.459235 49.139765,58.412809 C 48.836524,58.755507 48.823952,58.942949 48.817136,59.127363 C 51.804327,57.110178 48.566001,57.8626 51.52782,56.157668 C 51.555766,56.217574 51.583637,56.27748 51.611583,56.337385 C 51.815383,56.13154 52.05887,55.975223 52.288496,55.793006 C 52.615594,55.739235 52.942614,55.685388 53.26971,55.631542 C 54.111272,54.51249 58.412198,54.831783 60.491106,54.434405 C 61.348343,54.306337 62.449294,54.692281 63.998289,54.80414 L 63.954211,54.507337 C 65.268733,54.762486 69.56393,56.44553 69.814688,57.667579 C 70.87262,58.021259 69.777123,57.553221 69.951085,57.387136 C 71.945397,58.248085 71.634281,58.757171 72.216678,59.532159 C 73.188576,60.27996 71.683206,58.813516 72.335883,59.119256 C 73.38238,60.574341 73.82732,59.959378 74.810655,61.954145 C 74.742115,62.208536 74.402826,61.508598 74.147298,61.376292 C 75.3851,62.494963 76.911693,66.060021 76.562103,68.165436 C 76.141019,70.61052 69.626942,72.176086 66.347115,73.113828 L 66.351431,73.230762 C 65.014113,73.511131 60.541546,75.637298 59.002168,75.603974"
         id="path2490"
         sodipodi:nodetypes="ccccccccccccccccccccccccccccccccccccccccccccccccccccccccccccccccccccccccccccccccccccccccccccc" />
    </g>
  </g>
  <g
     transform="translate(-40.044329,-50.107571)"
     style="display:inline"
     inkscape:label="NeuroDebian-text"
     id="layer3"
     inkscape:groupmode="layer">
    <path
       d="M 86.753547,78.335502 C 86.891564,77.96761 87.378187,77.296759 88.213424,76.322947 C 88.41648,76.090308 89.065749,75.370769 90.161221,74.164322 C 90.765438,73.498878 91.305684,72.957869 91.781956,72.541294 C 91.425767,72.573753 91.157836,72.589985 90.978152,72.589985 C 90.757619,72.589985 90.53958,72.573753 90.32403,72.541294 C 89.48661,73.02279 88.398187,73.623308 87.058752,74.342852 C 85.972812,74.92714 84.886872,75.51143 83.800935,76.095722 C 83.347925,76.333764 82.894919,76.571807 82.441914,76.809856 C 81.908766,77.091176 81.478607,77.34004 81.151424,77.556448 C 81.673566,77.080357 82.235085,76.520411 82.835999,75.876615 C 82.64116,76.082194 83.145508,75.522249 84.34905,74.19678 C 85.031869,73.444777 85.637484,72.890242 86.1659,72.533176 C 85.767219,72.57646 85.469869,72.5981 85.273847,72.5981 C 85.069657,72.5981 84.79935,72.57646 84.462946,72.533176 C 84.310069,72.971393 83.619578,73.866763 82.391478,75.219289 C 81.580934,76.111951 80.923559,76.804442 80.419356,77.296766 C 80.141068,77.567263 79.938919,77.753912 79.812907,77.85671 C 79.567471,78.046055 79.286959,78.211065 78.971378,78.351733 C 79.401068,78.319265 79.775182,78.303035 80.093714,78.303042 C 80.534774,78.303035 80.928422,78.319265 81.274653,78.351733 C 81.906109,77.935151 82.593903,77.523984 83.338045,77.118231 C 83.338045,77.118231 87.248481,74.983949 87.248481,74.983949 C 87.670409,74.762133 88.096429,74.54032 88.526537,74.318509 C 89.033518,74.048001 89.429348,73.809958 89.714039,73.604376 C 89.560149,73.755857 88.84214,74.537615 87.56001,75.949651 C 86.410501,77.215606 85.565865,78.010892 85.02609,78.335502 C 85.249931,78.313856 85.56604,78.303035 85.974428,78.303042 C 86.162284,78.303035 86.421986,78.313856 86.753547,78.335502 M 95.732078,75.276097 C 95.864714,75.130021 95.997378,74.970424 96.130075,74.797302 C 96.130075,74.797302 91.707287,74.797302 91.707287,74.797302 C 92.884317,73.644952 94.232414,73.068777 95.751604,73.068777 C 96.51119,73.068777 96.965796,73.22026 97.115423,73.523225 C 97.222188,73.252719 97.386957,72.976807 97.609741,72.69548 C 97.144416,72.587276 96.613639,72.533176 96.017405,72.533176 C 94.906597,72.533176 93.845989,72.738762 92.835577,73.149929 C 91.825153,73.561095 90.985901,74.134564 90.31781,74.870339 C 89.689026,75.562827 89.441986,76.109247 89.576691,76.509598 C 89.730935,76.942401 90.318531,77.158806 91.339485,77.15881 C 92.213429,77.158806 93.031375,76.991092 93.793333,76.655671 C 94.555285,76.320241 95.201539,75.860383 95.732078,75.276097 M 94.445675,75.276097 C 93.59417,76.222857 92.666108,76.696244 91.661485,76.696245 C 90.624193,76.696244 90.490463,76.222857 91.260289,75.276097 C 91.260289,75.276097 94.445675,75.276097 94.445675,75.276097 M 113.77349,74.89468 C 114.41702,74.185957 114.66654,73.623306 114.52207,73.206731 C 114.3744,72.757694 113.77375,72.533176 112.72013,72.533176 C 111.65831,72.533176 110.65244,72.741463 109.70244,73.158041 C 108.7917,73.558385 108.01455,74.11292 107.37102,74.821645 C 106.72259,75.535773 106.4747,76.101127 106.62734,76.517709 C 106.79299,76.955922 107.40673,77.175031 108.46852,77.175033 C 109.50581,77.175031 110.50191,76.964037 111.45682,76.542052 C 112.37247,76.136294 113.1447,75.587168 113.77349,74.89468 M 112.51905,74.845989 C 111.42358,76.052436 110.2551,76.655662 109.01362,76.655667 C 107.65779,76.655662 107.52761,76.052436 108.62307,74.845989 C 109.71362,73.644948 110.92048,73.044428 112.24365,73.044428 C 113.5178,73.044428 113.6096,73.644948 112.51905,74.845989 M 104.99285,77.126347 C 105.07997,76.877478 105.23821,76.604268 105.46754,76.306717 C 105.32539,76.328352 105.2053,76.339173 105.10729,76.339177 C 104.6254,76.339173 104.36027,76.190395 104.31193,75.892846 C 104.26842,75.616928 104.50948,75.189532 105.0351,74.610653 C 105.0351,74.610653 105.94144,73.612492 105.94144,73.612492 C 106.30496,73.212143 106.6929,72.852372 107.10525,72.533176 C 106.7033,72.571044 106.43291,72.589985 106.29408,72.589985 C 106.16339,72.589985 105.91513,72.571044 105.54929,72.533176 C 105.40329,72.819911 105.10923,73.206734 104.66711,73.693641 C 104.66711,73.693641 102.80285,75.746773 102.80285,75.746773 C 102.28706,76.31483 101.76343,76.720584 101.23201,76.964043 C 101.81352,76.980269 102.31646,77.056012 102.74089,77.191268 C 103.01605,76.861248 103.20766,76.636728 103.31574,76.517712 C 103.31574,76.517712 103.80206,75.982113 103.80206,75.982113 C 103.64202,76.707059 104.03896,77.088472 104.99285,77.126347 M 104.68291,72.557522 C 104.4084,72.589985 104.14455,72.606215 103.89137,72.606215 C 103.70351,72.606215 103.44461,72.589985 103.11472,72.557522 C 103.11472,72.557522 102.21825,73.531337 102.21825,73.531337 C 102.40592,72.865897 101.99744,72.533176 100.99282,72.533176 C 99.694171,72.533176 98.659213,72.957867 97.887975,73.807253 C 97.887975,73.807253 96.045823,75.836037 96.045823,75.836037 C 95.539848,76.393273 95.056299,76.77739 94.595183,76.988389 C 95.371108,76.988385 95.8757,77.066829 96.108947,77.223726 C 96.220519,77.001909 96.453141,76.696238 96.806843,76.306715 C 96.806843,76.306715 98.840573,74.066936 98.840573,74.066936 C 99.371105,73.482644 100.04068,73.190501 100.84926,73.190501 C 101.94373,73.190501 101.99236,73.739624 100.99514,74.837876 C 100.99514,74.837876 100.15512,75.763 100.15512,75.763 C 99.570539,76.406798 99.068985,76.815262 98.650414,76.988389 C 99.320166,76.988385 99.828841,77.066829 100.17644,77.223726 C 100.3486,76.926167 100.62627,76.566395 101.00944,76.144413 C 101.00944,76.144413 103.06528,73.880288 103.06528,73.880288 C 103.66459,73.220258 104.2038,72.779333 104.68291,72.557522 M 124.07896,75.451825 C 123.45282,76.167976 123.12988,76.816627 124.21773,76.816627 C 125.42654,76.816627 126.19813,76.073366 126.73837,75.451825 C 126.73837,75.451825 124.07896,75.451825 124.07896,75.451825 C 124.07896,75.451825 124.07896,75.451825 124.07896,75.451825 M 128.37149,75.357252 C 127.43906,76.384135 126.16842,77.384154 123.87157,77.384154 C 120.68039,77.384154 122.47178,75.411264 122.85208,74.992432 C 124.44709,73.235839 126.51145,72.533174 128.88076,72.533174 C 129.94449,72.533174 130.36642,72.627645 130.61949,72.668348 C 130.31328,72.979082 130.22581,73.181859 130.05309,73.451929 C 129.84935,73.33031 129.57301,73.181859 128.63024,73.181859 C 126.21269,73.181859 125.03545,74.42494 124.65517,74.843735 C 124.65517,74.843735 128.78931,74.843735 128.78931,74.843735 C 128.78931,74.843735 128.37149,75.357252 128.37149,75.357252 C 128.37149,75.357252 128.37149,75.357252 128.37149,75.357252 M 133.75546,74.992432 C 134.4916,74.181702 135.21962,73.087074 133.43058,73.087074 C 133.16468,73.087074 132.82576,73.114254 132.60796,73.141123 C 132.30164,73.451929 131.81077,73.992517 131.23416,74.627543 C 130.55931,75.370771 130.32431,75.762559 130.2735,75.951746 C 130.04743,76.573426 130.77272,76.573426 130.91781,76.573426 C 132.07811,76.573426 133.14205,75.667985 133.75546,74.992432 C 133.75546,74.992432 133.75546,74.992432 133.75546,74.992432 M 130.14177,74.0466 C 130.73079,73.397913 131.06201,73.033131 131.15044,72.749404 C 131.90166,72.614333 132.77308,72.533208 133.71597,72.533208 C 134.32032,72.533208 136.08509,72.533208 136.03431,73.627698 C 136.03978,74.127655 135.57118,74.803314 135.10501,75.316721 C 134.82272,75.627597 134.14873,76.316739 133.29676,76.749094 C 132.48136,77.167888 131.59602,77.370633 130.84667,77.370633 C 129.34781,77.370633 129.53836,76.681489 129.65197,76.316739 C 129.24707,76.76265 127.83616,78.316499 127.26969,79.100151 C 126.48736,78.843463 125.89563,78.802936 125.25554,78.762372 C 125.98259,78.627234 126.51016,78.046221 128.20332,76.181531 C 128.20332,76.181531 130.14185,74.0466 130.14185,74.0466 C 130.14185,74.0466 130.14177,74.0466 130.14177,74.0466 C 130.14177,74.0466 130.14177,74.0466 130.14177,74.0466 M 140.58125,72.587221 C 140.24227,72.614333 140.01259,72.627645 139.55321,72.627645 C 139.06982,72.627645 138.74342,72.614333 138.40547,72.587221 C 138.40317,72.749404 138.40224,72.830353 137.93527,73.397913 C 137.28419,74.168183 135.43104,76.235581 134.92945,76.681489 C 134.53833,77.005815 134.36843,77.059827 134.07728,77.140849 C 135.27307,77.208453 135.58663,77.262433 136.04371,77.424612 C 136.24229,77.046273 136.42638,76.843529 136.95392,76.262552 C 139.65348,73.262774 139.9238,72.938554 140.58125,72.587221 C 140.58125,72.587221 140.58125,72.587221 140.58125,72.587221 M 143.32836,75.046479 C 143.79515,74.505961 144.12667,74.114136 144.13079,73.816816 C 144.17209,73.42506 143.71425,73.31686 143.30344,73.31686 C 142.38472,73.31686 141.79858,73.749212 141.41816,74.168148 C 140.6697,74.992432 141.92628,75.046479 142.50649,75.046479 C 142.50649,75.046479 143.32836,75.046479 143.32836,75.046479 C 143.32836,75.046479 143.32836,75.046479 143.32836,75.046479 C 143.32836,75.046479 143.32836,75.046479 143.32836,75.046479 M 140.01849,73.978995 C 140.50926,73.438511 141.30256,72.884402 142.38152,72.654757 C 142.87815,72.560181 143.26502,72.560181 143.38592,72.560181 C 144.81233,72.560181 144.76823,73.141159 144.72703,73.506046 C 145.04656,73.127705 145.27917,72.897958 145.60965,72.587221 C 145.88757,72.600777 146.14111,72.614333 146.62469,72.614333 C 146.86654,72.614333 147.14476,72.600777 147.42285,72.587221 C 147.11864,72.735918 146.94849,72.816936 146.58106,73.168304 C 146.26236,73.492595 145.96795,73.816816 145.5385,74.289765 C 145.5385,74.289765 143.93116,76.05995 143.93116,76.05995 C 143.3301,76.721911 142.42692,77.370598 140.10594,77.370598 C 138.55883,77.370598 137.89729,77.113806 137.56081,76.978668 C 137.92594,76.789481 138.21821,76.62744 138.70664,76.249101 C 139.04111,76.546316 139.69181,76.708496 140.4896,76.708496 C 141.79517,76.708496 142.23692,76.221989 142.85036,75.546401 C 142.54786,75.559992 142.26944,75.573548 141.85857,75.573548 C 139.8762,75.573548 138.96341,75.140953 140.01849,73.978995 C 140.01849,73.978995 140.01849,73.978995 140.01849,73.978995 M 153.74568,73.451929 C 154.01558,73.154679 154.29769,72.843977 154.7483,72.587221 C 154.39757,72.600777 154.17959,72.627645 153.55098,72.627645 C 153.16423,72.627645 152.98304,72.614333 152.71768,72.587221 C 152.66775,72.695355 152.64261,72.749404 152.55624,72.897958 C 152.433,73.087109 151.84352,73.762663 151.63478,73.99255 C 151.63478,73.99255 150.7759,74.938452 150.7759,74.938452 C 150.40792,75.343693 149.86797,75.938367 149.63578,76.140936 C 149.47664,76.289559 149.01168,76.695044 148.11728,76.695044 C 147.22265,76.695044 147.2639,76.330121 147.43728,76.032805 C 147.59851,75.722032 147.89301,75.397706 149.05852,74.114136 C 150.07684,72.992638 150.16283,72.897922 150.6142,72.587188 C 150.33609,72.600743 149.97335,72.62761 149.51394,72.62761 C 149.12702,72.62761 148.89719,72.614299 148.60776,72.587188 C 148.60601,72.722326 148.58061,72.803451 148.18721,73.289852 C 147.78232,73.762627 145.7195,76.113927 145.07169,76.667862 C 144.66832,77.005743 144.44938,77.0868 144.20666,77.167822 C 145.42698,77.208384 145.73992,77.316515 146.01616,77.438134 C 146.01616,77.438134 146.86272,76.505822 146.86272,76.505822 C 146.81083,76.775892 146.64524,77.384118 148.1926,77.384118 C 150.15084,77.384118 150.8749,76.586703 151.36541,76.073329 C 151.36541,76.073329 153.74568,73.451929 153.74568,73.451929 C 153.74568,73.451929 153.74568,73.451929 153.74568,73.451929 C 153.74568,73.451929 153.74568,73.451929 153.74568,73.451929 M 135.19329,78.65424 C 135.19329,78.65424 134.56235,77.938056 134.56235,77.938056 C 134.56235,77.938056 132.63053,78.65424 132.63053,78.65424 C 132.63053,78.65424 133.26174,79.37043 133.26174,79.37043 C 133.26174,79.37043 135.19329,78.65424 135.19329,78.65424 C 135.19329,78.65424 135.19329,78.65424 135.19329,78.65424 M 121.86203,75.508424 C 123.66978,73.517505 122.95239,72.52205 119.70984,72.52205 C 119.50564,72.52205 119.19854,72.527459 118.7885,72.53828 C 118.38663,72.549102 118.0836,72.554511 117.8794,72.554511 C 117.80589,72.554511 117.45634,72.543691 116.83075,72.52205 C 116.8907,72.743866 116.20347,73.644645 114.76905,75.224392 C 113.8799,76.203615 113.40178,76.72569 113.33466,76.790616 C 112.73705,77.412772 112.16503,77.921321 111.61857,78.31626 C 112.0385,78.267565 112.50165,78.24322 113.00804,78.243224 C 113.26124,78.24322 113.62713,78.254041 114.1057,78.275685 C 114.58753,78.30273 114.95506,78.316256 115.20825,78.31626 C 116.65391,78.316256 117.9057,78.089032 118.96358,77.634591 C 120.02147,77.180137 120.98762,76.471416 121.86203,75.508424 M 120.4311,75.492193 C 119.05561,77.007015 117.3306,77.764427 115.25601,77.764432 C 114.94564,77.764427 114.46789,77.737375 113.82277,77.683281 C 114.34685,77.061116 114.86188,76.471416 115.36786,75.914179 C 115.36786,75.914179 117.43844,73.633823 117.43844,73.633823 C 117.66441,73.384959 117.93839,73.222658 118.26036,73.146915 C 118.46792,73.098224 118.78405,73.073879 119.20878,73.073879 C 120.40941,73.073879 121.09831,73.282168 121.27547,73.698746 C 121.4445,74.088271 121.16304,74.686088 120.4311,75.492193"
       style="font-size:8px;font-style:normal;font-variant:normal;font-weight:bold;font-stretch:normal;text-align:start;line-height:700%;writing-mode:lr-tb;text-anchor:start;fill:#808080;fill-opacity:1;stroke:none;stroke-width:1px;stroke-linecap:butt;stroke-linejoin:miter;stroke-opacity:1;filter:url(#filter3843);font-family:LaudatioC;-inkscape-font-specification:LaudatioC Bold"
       id="path2568"
       transform="matrix(1,0,0,0.654575,-2,25.050932)" />
    <g
       transform="matrix(2.1897665,0,0,2.1897665,-7.035413,-127.9746)"
       id="g2552">
      <path
         id="text2950"
         d="M 45.190173,86.122477 C 45.100565,86.407995 45.044562,86.928638 45.022165,87.684406 C 45.018427,87.864955 45.016561,88.423386 45.016564,89.359701 C 45.016561,89.876147 45.038962,90.29602 45.083768,90.619321 C 44.934423,90.594129 44.818684,90.581532 44.73655,90.581532 C 44.635741,90.581532 44.529336,90.594129 44.417334,90.619321 C 44.234388,90.245635 43.986109,89.779576 43.672495,89.221143 C 43.418613,88.767682 43.164734,88.314219 42.910856,87.860753 C 42.802582,87.676012 42.694311,87.491268 42.58604,87.30652 C 42.459098,87.08819 42.365761,86.895048 42.306025,86.727095 C 42.347093,87.096587 42.371361,87.531156 42.378829,88.030802 C 42.375094,87.871253 42.373227,88.305822 42.373229,89.334509 C 42.373227,89.918134 42.419896,90.348504 42.513236,90.625619 C 42.34896,90.592027 42.22202,90.575234 42.132416,90.575234 C 42.039077,90.575234 41.906537,90.592027 41.734796,90.625619 C 41.846801,90.285523 41.902804,89.590633 41.902804,88.540948 C 41.902804,87.84816 41.889736,87.310722 41.863602,86.928634 C 41.848668,86.718702 41.833733,86.573845 41.8188,86.494065 C 41.785198,86.347114 41.725461,86.219053 41.639591,86.109881 C 41.822533,86.135078 41.986808,86.147674 42.132416,86.147669 C 42.334025,86.147674 42.520702,86.135078 42.692445,86.109881 C 42.808183,86.433187 42.951923,86.752291 43.123667,87.067192 L 44.025314,88.723593 C 44.126116,88.895743 44.228787,89.067891 44.333329,89.240037 C 44.452799,89.449976 44.534936,89.63472 44.579742,89.79427 C 44.572272,89.676707 44.568538,89.06999 44.568541,87.974119 C 44.568538,86.991619 44.512535,86.374406 44.400533,86.122477 C 44.493868,86.139276 44.633874,86.147674 44.820554,86.147669 C 44.906422,86.147674 45.029628,86.139276 45.190173,86.122477"
         style="font-size:8px;font-style:normal;font-variant:normal;font-weight:bold;font-stretch:normal;text-align:start;line-height:700%;writing-mode:lr-tb;text-anchor:start;fill:#d70a53;fill-opacity:1;stroke:none;stroke-width:1px;stroke-linecap:butt;stroke-linejoin:miter;stroke-opacity:1;font-family:LaudatioC;-inkscape-font-specification:LaudatioC Bold" />
      <path
         id="text2971"
         d="M 48.024521,88.49686 C 48.024518,88.610228 48.018918,88.73409 48.00772,88.868448 L 45.986016,88.868448 C 46.045752,89.762779 46.422837,90.209944 47.117275,90.209944 C 47.46449,90.209944 47.73517,90.09238 47.929316,89.85725 C 47.865843,90.067188 47.826641,90.281322 47.81171,90.499657 C 47.554094,90.583634 47.289014,90.625619 47.016469,90.625619 C 46.508708,90.625619 46.109221,90.466067 45.818008,90.146963 C 45.526792,89.82786 45.381185,89.382794 45.381185,88.811765 C 45.381185,88.27433 45.495057,87.850257 45.722803,87.539548 C 45.972948,87.203653 46.331366,87.035704 46.798058,87.0357 C 47.197543,87.035704 47.501825,87.165864 47.710905,87.426182 C 47.919979,87.686507 48.024518,88.0434 48.024521,88.49686 M 47.436491,88.49686 C 47.440222,87.762085 47.212477,87.394695 46.753256,87.394692 C 46.279097,87.394695 46.021484,87.762085 45.980416,88.49686 L 47.436491,88.49686"
         style="font-size:8px;font-style:normal;font-variant:normal;font-weight:bold;font-stretch:normal;text-align:start;line-height:700%;writing-mode:lr-tb;text-anchor:start;fill:#d70a53;fill-opacity:1;stroke:none;stroke-width:1px;stroke-linecap:butt;stroke-linejoin:miter;stroke-opacity:1;font-family:LaudatioC;-inkscape-font-specification:LaudatioC Bold" />
      <path
         id="text2975"
         d="M 56.113145,88.792875 C 56.113142,89.34291 55.993669,89.779578 55.754726,90.10288 C 55.500844,90.451375 55.133092,90.625619 54.651469,90.625619 C 54.16611,90.625619 53.792758,90.463971 53.531412,90.140668 C 53.281266,89.829963 53.156192,89.399593 53.156192,88.849557 C 53.156192,88.295327 53.277532,87.856559 53.520211,87.533254 C 53.777824,87.19316 54.149309,87.023111 54.634669,87.023108 C 55.108825,87.023111 55.476576,87.186862 55.737925,87.51436 C 55.988068,87.829267 56.113142,88.255439 56.113145,88.792875 M 55.519514,88.830663 C 55.519512,87.894348 55.235764,87.426189 54.66827,87.426186 C 54.048504,87.426189 53.738622,87.894348 53.738622,88.830663 C 53.738622,89.762783 54.041037,90.228842 54.645869,90.228842 C 55.228297,90.228842 55.519512,89.762783 55.519514,88.830663"
         style="font-size:8px;font-style:normal;font-variant:normal;font-weight:bold;font-stretch:normal;text-align:start;line-height:700%;writing-mode:lr-tb;text-anchor:start;fill:#d70a53;fill-opacity:1;stroke:none;stroke-width:1px;stroke-linecap:butt;stroke-linejoin:miter;stroke-opacity:1;font-family:LaudatioC;-inkscape-font-specification:LaudatioC Bold" />
      <path
         id="text2979"
         d="M 53.025693,87.060894 C 52.962221,87.254039 52.921153,87.466075 52.902487,87.697002 C 52.846482,87.680211 52.796079,87.671813 52.751279,87.67181 C 52.530999,87.671813 52.348057,87.787279 52.202451,88.018206 C 52.068043,88.232343 52.000839,88.564043 52.00084,89.013306 L 52.00084,89.787972 C 52.000839,90.09868 52.028841,90.377895 52.084845,90.625619 C 51.916835,90.596231 51.801096,90.581532 51.737627,90.581532 C 51.67789,90.581532 51.55655,90.596231 51.373608,90.625619 C 51.425877,90.403088 51.452012,90.102878 51.452012,89.724991 L 51.452012,88.131571 C 51.452012,87.690707 51.381075,87.375803 51.239201,87.186856 C 51.511748,87.174264 51.773094,87.115481 52.023242,87.010509 C 52.01204,87.266636 52.006439,87.440883 52.006441,87.533252 L 52.006441,87.948926 C 52.234184,87.3863 52.573935,87.090289 53.025693,87.060894"
         style="font-size:8px;font-style:normal;font-variant:normal;font-weight:bold;font-stretch:normal;text-align:start;line-height:700%;writing-mode:lr-tb;text-anchor:start;fill:#d70a53;fill-opacity:1;stroke:none;stroke-width:1px;stroke-linecap:butt;stroke-linejoin:miter;stroke-opacity:1;font-family:LaudatioC;-inkscape-font-specification:LaudatioC Bold" />
      <path
         id="text2983"
         d="M 50.987679,90.606725 C 50.87567,90.581532 50.761798,90.568936 50.646062,90.568936 C 50.560187,90.568936 50.435115,90.581532 50.270842,90.606725 L 50.265242,89.850955 C 50.07483,90.367399 49.750013,90.625619 49.290792,90.625619 C 48.69716,90.625619 48.400345,90.296021 48.400346,89.636819 L 48.400346,88.062294 C 48.400345,87.629827 48.338742,87.331717 48.215537,87.167963 C 48.57022,87.167966 48.833434,87.107085 49.005177,86.985318 C 48.964107,87.15747 48.943573,87.394698 48.943574,87.697004 L 48.943574,89.43528 C 48.943573,89.888744 49.128382,90.115475 49.498002,90.115475 C 49.998292,90.115475 50.248438,89.689304 50.248441,88.83696 L 50.248441,88.118977 C 50.248438,87.61933 50.188702,87.302325 50.069232,87.167963 C 50.375378,87.167966 50.640458,87.107085 50.864473,86.985318 C 50.819667,87.216252 50.797266,87.495468 50.797269,87.822966 L 50.797269,89.580137 C 50.797266,90.092382 50.860736,90.434579 50.987679,90.606725"
         style="font-size:8px;font-style:normal;font-variant:normal;font-weight:bold;font-stretch:normal;text-align:start;line-height:700%;writing-mode:lr-tb;text-anchor:start;fill:#d70a53;fill-opacity:1;stroke:none;stroke-width:1px;stroke-linecap:butt;stroke-linejoin:miter;stroke-opacity:1;font-family:LaudatioC;-inkscape-font-specification:LaudatioC Bold" />
      <path
         inkscape:export-ydpi="64.494591"
         inkscape:export-xdpi="64.494591"
         inkscape:export-filename="/home/alrferreira/Desktop/debian-gnu-banner.png"
         style="fill:#000000"
         id="path3777"
         d="M 61.055138,88.360478 C 61.066168,87.804678 61.187778,87.301265 61.685049,87.301265 C 62.23761,87.301265 62.281813,87.878105 62.270784,88.360478 L 61.055138,88.360478 z M 62.978044,88.433877 C 62.978044,87.636919 62.812287,86.860812 61.76237,86.860812 C 60.303646,86.860812 60.303646,88.391958 60.303646,88.71701 C 60.303646,90.080289 60.955644,90.625622 62.038679,90.625622 C 62.52492,90.625622 62.756997,90.552304 62.889579,90.520715 C 62.878578,90.279556 62.922754,90.122182 62.955899,89.912584 C 62.812287,90.006971 62.624357,90.122182 62.193406,90.122182 C 61.088312,90.122182 61.066139,89.157436 61.066139,88.832411 L 62.955899,88.832411 L 62.978044,88.433877 z"
         class="st1" />
      <path
         inkscape:export-ydpi="64.494591"
         inkscape:export-xdpi="64.494591"
         inkscape:export-filename="/home/alrferreira/Desktop/debian-gnu-banner.png"
         style="fill:#000000"
         id="path3779"
         d="M 65.287697,88.71701 C 65.287697,89.34621 65.166144,90.195744 64.34836,90.195744 C 64.226807,90.195744 64.083166,90.174649 63.994759,90.153797 C 63.98373,89.912584 63.98373,89.493036 63.98373,89.000197 C 63.98373,88.423384 64.038934,88.119319 64.094225,87.972492 C 64.248923,87.490011 64.580466,87.490011 64.646786,87.490011 C 65.177173,87.490011 65.287697,88.192718 65.287697,88.71701 z M 63.243267,89.451063 C 63.243267,89.954504 63.243267,90.237609 63.165917,90.457808 C 63.453256,90.562635 63.817915,90.625595 64.248923,90.625595 C 64.525175,90.625595 65.331872,90.625595 65.762938,89.77617 C 65.972955,89.388157 66.03919,88.863783 66.03919,88.465331 C 66.03919,88.224063 66.01713,87.689224 65.807141,87.353677 C 65.608239,87.028653 65.287697,86.871305 64.945154,86.871305 C 64.26001,86.871305 64.061078,87.406145 63.961613,87.689224 C 63.961613,87.343157 63.961613,86.137225 64.027934,85.52904 C 63.56378,85.728253 63.276469,85.759706 62.967043,85.791186 C 63.243295,85.896066 63.243295,86.346986 63.243295,87.794158 L 63.243295,89.451063 L 63.243267,89.451063 z"
         class="st1" />
      <path
         inkscape:export-ydpi="64.494591"
         inkscape:export-xdpi="64.494591"
         inkscape:export-filename="/home/alrferreira/Desktop/debian-gnu-banner.png"
         style="fill:#000000"
         id="path3781"
         d="M 67.409534,90.583676 C 67.265837,90.562635 67.166371,90.552304 66.956382,90.552304 C 66.73542,90.552304 66.580693,90.562635 66.414965,90.583676 C 66.481227,90.457808 66.514401,90.394984 66.536517,89.954504 C 66.558605,89.356703 66.569606,87.752211 66.525403,87.406145 C 66.481227,87.154438 66.425994,87.112519 66.326528,87.049639 C 66.901205,86.997172 67.066934,86.955279 67.343186,86.829413 C 67.276924,87.123039 67.276924,87.280386 67.276924,87.731278 C 67.265837,90.059384 67.254836,90.31101 67.409534,90.583676 z"
         class="st1" />
      <path
         inkscape:export-ydpi="64.494591"
         inkscape:export-xdpi="64.494591"
         inkscape:export-filename="/home/alrferreira/Desktop/debian-gnu-banner.png"
         style="fill:#000000"
         id="path3783"
         d="M 69.686013,88.675064 C 69.675041,89.094557 69.663954,89.39865 69.54243,89.629397 C 69.398703,89.933435 69.14451,90.01741 68.956723,90.01741 C 68.536772,90.01741 68.448279,89.681864 68.448279,89.35673 C 68.448279,88.71701 69.045102,88.675064 69.310324,88.675064 L 69.686013,88.675064 L 69.686013,88.675064 z M 67.729962,89.50353 C 67.729962,89.922996 67.862601,90.353037 68.260492,90.531263 C 68.448251,90.604662 68.625095,90.604662 68.680356,90.604662 C 69.332383,90.604662 69.553373,90.15377 69.685985,89.870583 C 69.675012,90.16421 69.685985,90.342517 69.708072,90.583676 C 69.840741,90.573155 69.962265,90.562635 70.183313,90.562635 C 70.293864,90.562635 70.415417,90.573155 70.536914,90.583676 C 70.459564,90.468275 70.415417,90.405396 70.393302,90.132702 C 70.382215,89.881022 70.382215,89.629397 70.382215,89.262344 L 70.382215,87.888518 C 70.382215,87.374773 70.238603,86.871332 69.177656,86.871332 C 68.470453,86.871332 68.061475,87.070626 67.851572,87.175506 C 67.939951,87.322333 68.006299,87.448092 68.072534,87.741718 C 68.348785,87.511052 68.713531,87.385185 69.078219,87.385185 C 69.675012,87.385185 69.675012,87.762759 69.675012,88.287078 C 69.542372,88.276531 69.420734,88.26601 69.232917,88.26601 C 68.326755,88.26601 67.729962,88.601745 67.729962,89.50353 z"
         class="st1" />
      <path
         inkscape:export-ydpi="64.494591"
         inkscape:export-xdpi="64.494591"
         inkscape:export-filename="/home/alrferreira/Desktop/debian-gnu-banner.png"
         style="fill:#000000"
         id="path3785"
         d="M 73.786047,89.912584 C 73.786047,90.143277 73.786047,90.384409 73.885455,90.583676 C 73.730756,90.573155 73.642263,90.552304 73.354924,90.552304 C 73.178138,90.552304 73.089788,90.562635 72.957234,90.583676 C 72.979292,90.499755 72.990236,90.457808 73.01241,90.342517 C 73.034583,90.195717 73.045527,89.671425 73.045527,89.49301 L 73.045527,88.758903 C 73.045527,88.444398 73.045527,87.982877 73.023468,87.825665 C 73.01241,87.710319 72.968177,87.395624 72.559342,87.395624 C 72.150394,87.395624 72.017783,87.678839 71.973636,87.909585 C 71.918346,88.150772 71.918346,88.402479 71.918346,89.39865 C 71.918346,90.269035 71.918346,90.342544 71.995695,90.583702 C 71.874199,90.573182 71.719529,90.552331 71.509539,90.552331 C 71.332667,90.552331 71.222086,90.562662 71.078531,90.583702 C 71.133821,90.478823 71.155881,90.415862 71.17794,90.03837 C 71.189083,89.671452 71.222086,87.846625 71.155881,87.41672 C 71.111734,87.154493 71.0453,87.091586 70.96798,87.028706 C 71.542628,86.997226 71.730558,86.913306 71.907316,86.818919 L 71.907316,87.542478 C 71.995695,87.33288 72.172453,86.860839 72.87977,86.860839 C 73.774903,86.860839 73.774903,87.479707 73.786047,87.878133 L 73.786047,89.912584 L 73.786047,89.912584 z"
         class="st1" />
      <path
         inkscape:export-ydpi="64.494591"
         inkscape:export-xdpi="64.494591"
         inkscape:export-filename="/home/alrferreira/Desktop/debian-gnu-banner.png"
         style="fill:#d70751;fill-opacity:1"
         id="path3787"
         d="M 67.464825,85.875107 L 66.879147,86.430933 L 66.293354,85.875107 L 66.879147,85.31928 L 67.464825,85.875107 z"
         class="st0" />
      <path
         style="font-size:5.93895483px;font-style:normal;font-variant:normal;font-weight:bold;font-stretch:normal;text-align:start;line-height:700%;writing-mode:lr-tb;text-anchor:start;fill:#000000;fill-opacity:1;stroke:none;stroke-width:1px;stroke-linecap:butt;stroke-linejoin:miter;stroke-opacity:1;font-family:LaudatioC;-inkscape-font-specification:LaudatioC Bold"
         d="M 60.065246,88.316553 C 60.065243,89.861689 59.324139,90.634255 57.841932,90.634255 C 57.748593,90.634255 57.610453,90.630056 57.427512,90.621659 C 57.248301,90.613261 57.112028,90.609063 57.01869,90.609063 C 56.985087,90.609063 56.820813,90.617459 56.525865,90.634255 C 56.645337,90.462106 56.705074,89.763018 56.705075,88.536987 C 56.705074,87.777019 56.703207,87.371841 56.699474,87.321452 C 56.68454,86.838602 56.634137,86.443921 56.548266,86.13741 C 56.720008,86.175203 56.921618,86.194097 57.153097,86.194093 C 57.268835,86.194097 57.440578,86.185699 57.668324,86.1689 C 57.899801,86.147911 58.073409,86.137414 58.189151,86.13741 C 58.849981,86.137414 59.327873,86.313761 59.622824,86.66645 C 59.917769,87.019148 60.065243,87.569181 60.065246,88.316553 M 59.404413,88.329149 C 59.404409,87.153507 58.930252,86.565685 57.98194,86.565681 C 57.840064,86.565685 57.610453,86.586678 57.293105,86.628661 C 57.274436,87.11152 57.265102,87.569181 57.265103,88.001648 L 57.265103,89.771415 C 57.265102,89.964557 57.322972,90.090519 57.438712,90.149301 C 57.513381,90.18709 57.647788,90.205984 57.841932,90.205984 C 58.390759,90.205984 58.792112,90.044333 59.045995,89.72103 C 59.284937,89.418723 59.404409,88.954762 59.404413,88.329149"
         id="text3769" />
    </g>
  </g>
  <g
     transform="translate(-40.044329,-50.107571)"
     style="display:none"
     inkscape:label="Debian-text"
     id="layer5"
     inkscape:groupmode="layer">
    <g
       transform="matrix(4.5857343e-2,0,0,5.0700384e-2,37.456067,81.452516)"
       id="g6679"
       style="display:inline;enable-background:new">
      <path
         class="st1"
         d="M 269.84799,136.25108 C 269.54248,136.51535 269.54248,163.5741 269.2346,170.66961 C 268.62358,176.44861 268.01097,188.798 253.93053,188.798 C 239.2375,188.798 235.86894,174.34815 234.64532,168.30286 C 233.4209,161.20802 233.4209,155.42834 233.4209,153.06499 C 233.4209,144.92195 233.72641,122.32431 256.07385,122.32431 C 262.80699,122.32431 266.48024,123.90238 269.54248,125.21618 L 269.84799,136.25108 z M 212.60575,156.2184 C 212.60575,203.77229 241.99183,203.77229 246.58322,203.77229 C 258.82742,203.77229 266.48024,198.25416 269.84799,188.26948 L 270.45981,203.2465 C 274.13308,202.98292 277.80712,202.71935 283.92843,202.71935 C 286.07177,202.71935 287.90798,202.71935 289.43871,202.98292 C 290.96865,202.98292 292.50018,202.98292 294.33641,203.2465 C 291.27496,197.72904 288.82612,185.64255 288.82612,159.37113 C 288.82612,133.62347 288.82612,90.01031 291.27574,76.872225 C 284.23473,79.762749 278.11264,81.601673 264.64321,82.653262 C 270.1535,87.645591 270.1535,90.01031 270.1535,112.34234 C 266.47947,111.29009 261.58176,110.23917 253.62343,110.23917 C 218.42075,110.23917 212.60575,136.51535 212.60575,156.2184 z"
         id="path6681"
         style="fill:#000000"
         inkscape:export-filename="/home/alrferreira/Desktop/debian-gnu-banner.png"
         inkscape:export-xdpi="64.494591"
         inkscape:export-ydpi="64.494591" />
      <path
         class="st1"
         d="M 319.43741,147.54753 C 319.74293,133.62278 323.11146,121.0105 336.8856,121.0105 C 352.19124,121.0105 353.41566,135.46239 353.11015,147.54753 L 319.43741,147.54753 z M 372.70088,149.38645 C 372.70088,129.41983 368.1095,109.97559 339.02735,109.97559 C 298.62147,109.97559 298.62147,148.33622 298.62147,156.47993 C 298.62147,190.63489 316.68148,204.29741 346.68096,204.29741 C 360.14957,204.29741 366.578,202.46052 370.25045,201.66912 C 369.94573,195.62723 371.16936,191.68444 372.08748,186.43327 C 368.1095,188.798 362.90394,191.68444 350.96683,191.68444 C 320.35632,191.68444 319.74213,167.51416 319.74213,159.37113 L 372.08748,159.37113 L 372.70088,149.38645 z"
         id="path6683"
         style="fill:#000000"
         inkscape:export-filename="/home/alrferreira/Desktop/debian-gnu-banner.png"
         inkscape:export-xdpi="64.494591"
         inkscape:export-ydpi="64.494591" />
      <path
         class="st1"
         d="M 436.67703,156.47993 C 436.67703,172.2436 433.31008,193.52744 410.6579,193.52744 C 407.29095,193.52744 403.31217,192.99893 400.86334,192.47652 C 400.55783,186.43327 400.55783,175.92213 400.55783,163.57477 C 400.55783,149.12356 402.08696,141.50564 403.61848,137.82711 C 407.90355,125.73925 417.0871,125.73925 418.92414,125.73925 C 433.61558,125.73925 436.67703,143.34456 436.67703,156.47993 z M 380.0474,174.87054 C 380.0474,187.48352 380.0474,194.57631 377.90487,200.09308 C 385.86398,202.71935 395.96486,204.29673 407.90355,204.29673 C 415.55559,204.29673 437.90065,204.29673 449.84094,183.01562 C 455.65831,173.29452 457.49297,160.15711 457.49297,150.17447 C 457.49297,144.12987 456.88194,130.73024 451.06536,122.32362 C 445.55587,114.1806 436.67703,110.23848 427.18878,110.23848 C 408.21065,110.23848 402.70035,123.63811 399.94521,130.73024 C 399.94521,122.06006 399.94521,91.847198 401.78226,76.610014 C 388.92544,81.600991 380.9671,82.389007 372.39615,83.177693 C 380.04819,85.805315 380.04819,97.102442 380.04819,133.35922 L 380.04819,174.87054 L 380.0474,174.87054 z"
         id="path35079"
         style="fill:#000000"
         inkscape:export-filename="/home/alrferreira/Desktop/debian-gnu-banner.png"
         inkscape:export-xdpi="64.494591"
         inkscape:export-ydpi="64.494591" />
      <path
         class="st1"
         d="M 495.45079,203.2465 C 491.47044,202.71935 488.71529,202.46052 482.8987,202.46052 C 476.77818,202.46052 472.49232,202.71935 467.90174,203.2465 C 469.73717,200.09308 470.65607,198.5191 471.26868,187.48352 C 471.8805,172.5065 472.18523,132.30831 470.96081,123.63811 C 469.73717,117.33197 468.20725,116.28175 465.4521,114.70639 C 481.37035,113.3919 485.96094,112.34234 493.61297,109.18894 C 491.77754,116.54532 491.77754,120.48741 491.77754,131.78386 C 491.47044,190.11113 491.16572,196.41525 495.45079,203.2465 z"
         id="path6687"
         style="fill:#000000"
         inkscape:export-filename="/home/alrferreira/Desktop/debian-gnu-banner.png"
         inkscape:export-xdpi="64.494591"
         inkscape:export-ydpi="64.494591" />
      <path
         class="st1"
         d="M 558.50803,155.42903 C 558.2041,165.93882 557.89701,173.55742 554.53085,179.33845 C 550.54969,186.95568 543.50869,189.05953 538.30708,189.05953 C 526.67468,189.05953 524.22347,180.65293 524.22347,172.50717 C 524.22347,156.47993 540.75513,155.42903 548.10164,155.42903 L 558.50803,155.42903 L 558.50803,155.42903 z M 504.32645,176.18503 C 504.32645,186.69413 508.00049,197.46819 519.02186,201.93337 C 524.22269,203.77229 529.12117,203.77229 530.65187,203.77229 C 548.71267,203.77229 554.83397,192.47584 558.50725,185.38101 C 558.20332,192.7374 558.50725,197.20461 559.11905,203.2465 C 562.7939,202.98292 566.16007,202.71935 572.28296,202.71935 C 575.34519,202.71935 578.71214,202.98292 582.07753,203.2465 C 579.93498,200.35531 578.71214,198.77996 578.09955,191.94801 C 577.79246,185.64255 577.79246,179.33845 577.79246,170.14246 L 577.79246,135.72326 C 577.79246,122.85214 573.81449,110.23917 544.4268,110.23917 C 524.83767,110.23917 513.5092,115.23219 507.69499,117.8598 C 510.14304,121.53834 511.98085,124.68903 513.81551,132.0454 C 521.46754,126.26642 531.57079,123.113 541.67246,123.113 C 558.20332,123.113 558.20332,132.57257 558.20332,145.70861 C 554.52926,145.44436 551.15994,145.18077 545.95752,145.18077 C 520.85731,145.18077 504.32645,153.59213 504.32645,176.18503 z"
         id="path6689"
         style="fill:#000000"
         inkscape:export-filename="/home/alrferreira/Desktop/debian-gnu-banner.png"
         inkscape:export-xdpi="64.494591"
         inkscape:export-ydpi="64.494591" />
      <path
         class="st1"
         d="M 672.07677,186.43327 C 672.07677,192.21295 672.07677,198.25416 674.83034,203.2465 C 670.54526,202.98292 668.09404,202.46052 660.13491,202.46052 C 655.23803,202.46052 652.79077,202.71935 649.11909,203.2465 C 649.73011,201.144 650.03325,200.09308 650.64744,197.20461 C 651.26162,193.52676 651.56476,180.39139 651.56476,175.92146 L 651.56476,157.52948 C 651.56476,149.65003 651.56476,138.0873 650.95375,134.14858 C 650.64744,131.25875 649.42222,123.37454 638.09771,123.37454 C 626.77006,123.37454 623.0968,130.47006 621.87396,136.25108 C 620.34245,142.29366 620.34245,148.59981 620.34245,173.55742 C 620.34245,195.36363 620.34245,197.2053 622.48498,203.24717 C 619.11961,202.9836 614.83533,202.46121 609.01873,202.46121 C 604.11947,202.46121 601.05644,202.72003 597.08004,203.24717 C 598.61155,200.61956 599.22258,199.04217 599.83361,189.58466 C 600.14227,180.39206 601.05644,134.6737 599.22258,123.90305 C 597.99974,117.33334 596.15955,115.75731 594.01782,114.18195 C 609.93527,113.39326 615.14084,111.29076 620.03693,108.92604 L 620.03693,127.05374 C 622.48498,121.80258 627.38108,109.97627 646.97338,109.97627 C 671.7681,109.97627 671.7681,125.48111 672.07677,135.46308 L 672.07677,186.43327 L 672.07677,186.43327 z"
         id="path6691"
         style="fill:#000000"
         inkscape:export-filename="/home/alrferreira/Desktop/debian-gnu-banner.png"
         inkscape:export-xdpi="64.494591"
         inkscape:export-ydpi="64.494591" />
      <path
         class="st0"
         d="M 496.9823,85.280203 L 480.75933,99.205621 L 464.53319,85.280203 L 480.75933,71.354772 L 496.9823,85.280203 z"
         id="path6693"
         style="fill:#d70751;fill-opacity:1"
         inkscape:export-filename="/home/alrferreira/Desktop/debian-gnu-banner.png"
         inkscape:export-xdpi="64.494591"
         inkscape:export-ydpi="64.494591" />
    </g>
  </g>
</svg>
