<?xml version="1.0" encoding="UTF-8" standalone="no"?>
<!-- Created with Inkscape (http://www.inkscape.org/) -->

<svg
   xmlns:dc="http://purl.org/dc/elements/1.1/"
   xmlns:cc="http://creativecommons.org/ns#"
   xmlns:rdf="http://www.w3.org/1999/02/22-rdf-syntax-ns#"
   xmlns:svg="http://www.w3.org/2000/svg"
   xmlns="http://www.w3.org/2000/svg"
   xmlns:xlink="http://www.w3.org/1999/xlink"
   xmlns:sodipodi="http://sodipodi.sourceforge.net/DTD/sodipodi-0.dtd"
   xmlns:inkscape="http://www.inkscape.org/namespaces/inkscape"
   inkscape:export-ydpi="18.728489"
   inkscape:export-xdpi="18.728489"
   inkscape:export-filename="/home/michael/hacking/neurodebian/sphinx/_static/machine.png"
   sodipodi:docname="workarea.svg"
   inkscape:version="0.48.3.1 r9886"
   version="1.1"
   id="svg2"
   height="240.27565"
   width="241.22">
  <defs
     id="defs4">
    <inkscape:perspective
       sodipodi:type="inkscape:persp3d"
       inkscape:vp_x="0 : 120.13783 : 1"
       inkscape:vp_y="0 : 1000 : 0"
       inkscape:vp_z="241.22 : 120.13783 : 1"
       inkscape:persp3d-origin="120.61 : 80.091883 : 1"
       id="perspective3283" />
    <linearGradient
       inkscape:collect="always"
       id="linearGradient3182">
      <stop
         style="stop-color:#ffffff;stop-opacity:1"
         offset="0"
         id="stop3184" />
      <stop
         style="stop-color:#ffffff;stop-opacity:0"
         offset="1"
         id="stop3186" />
    </linearGradient>
    <linearGradient
       id="linearGradient3157">
      <stop
         style="stop-color:#ffffff;stop-opacity:1"
         offset="0"
         id="stop3159" />
      <stop
         style="stop-color:#31494f;stop-opacity:1"
         offset="1"
         id="stop3161" />
    </linearGradient>
    <radialGradient
       inkscape:collect="always"
       xlink:href="#linearGradient3157"
       id="radialGradient3297"
       gradientUnits="userSpaceOnUse"
       gradientTransform="matrix(1.5951398,-0.2633269,0.1199966,0.7441248,23.784203,13.054503)"
       cx="271.95456"
       cy="227.65692"
       fx="271.95456"
       fy="227.65692"
       r="153.54318" />
    <linearGradient
       inkscape:collect="always"
       xlink:href="#linearGradient3182"
       id="linearGradient3299"
       gradientUnits="userSpaceOnUse"
       gradientTransform="matrix(1.0002415,0,0,1,196.38123,-91.428569)"
       x1="281.60837"
       y1="119.86061"
       x2="281.60837"
       y2="161.84015" />
    <linearGradient
       inkscape:collect="always"
       xlink:href="#linearGradient3182"
       id="linearGradient3301"
       gradientUnits="userSpaceOnUse"
       gradientTransform="matrix(1.0021732,0,0,1,193.14533,-94.285722)"
       x1="257.53381"
       y1="197.40852"
       x2="200.00002"
       y2="123.79076" />
    <inkscape:perspective
       id="perspective3601"
       inkscape:persp3d-origin="256 : 151.33333 : 1"
       inkscape:vp_z="512 : 227 : 1"
       inkscape:vp_y="0 : 1000 : 0"
       inkscape:vp_x="0 : 227 : 1"
       sodipodi:type="inkscape:persp3d" />
  </defs>
  <sodipodi:namedview
     id="base"
     pagecolor="#ffffff"
     bordercolor="#666666"
     borderopacity="1.0"
     inkscape:pageopacity="0.0"
     inkscape:pageshadow="2"
     inkscape:zoom="0.34407039"
     inkscape:cx="-76.297386"
     inkscape:cy="-66.597219"
     inkscape:document-units="px"
     inkscape:current-layer="layer1"
     showgrid="false"
     inkscape:window-width="1377"
     inkscape:window-height="846"
     inkscape:window-x="61"
     inkscape:window-y="27"
     inkscape:window-maximized="0" />
  <metadata
     id="metadata7">
    <rdf:RDF>
      <cc:Work
         rdf:about="">
        <dc:format>image/svg+xml</dc:format>
        <dc:type
           rdf:resource="http://purl.org/dc/dcmitype/StillImage" />
        <dc:title></dc:title>
      </cc:Work>
    </rdf:RDF>
  </metadata>
  <g
     inkscape:label="Layer 1"
     inkscape:groupmode="layer"
     id="layer1"
     transform="translate(-210.10584,-400.79583)">
    <g
       id="g3240"
       transform="matrix(2.7112743,0,0,2.7112743,-845.76238,332.54413)"
       inkscape:export-filename="C:\Users\Anne Menini\Desktop\interface.png"
       inkscape:export-xdpi="200"
       inkscape:export-ydpi="200">
      <rect
         rx="12.121831"
         style="fill:#1a1a1a;fill-opacity:0.44705882;stroke:#000000;stroke-width:0.73766053;stroke-linecap:round;stroke-linejoin:round;stroke-miterlimit:4;stroke-opacity:1;stroke-dasharray:none;stroke-dashoffset:0"
         id="rect3165"
         width="88.266106"
         height="87.88327"
         x="389.91888"
         y="25.542122"
         ry="12.121831" />
      <path
         id="path3155"
         d="m 476.22748,52.879463 c -83.45204,0.48174 -33.78189,4.12964 -82.40158,28.1875 l 0,20.093747 c 0,2.48247 1.10767,4.69086 2.84375,6.1875 l 76.71408,0 c 1.73843,-1.49668 2.84375,-3.70309 2.84375,-6.1875 l 0,-48.281247 z"
         style="fill:url(#radialGradient3297);fill-opacity:1;fill-rule:evenodd;stroke:none"
         sodipodi:nodetypes="ccccccc" />
      <rect
         rx="8.1736317"
         ry="8.1736317"
         y="29.545734"
         x="393.83136"
         height="79.784973"
         width="80.311104"
         id="rect3194"
         style="opacity:0.6143791;fill:none;stroke:#ffffff;stroke-width:4.04099989;stroke-linecap:round;stroke-linejoin:round;stroke-miterlimit:4;stroke-opacity:1;stroke-dasharray:none;stroke-dashoffset:0" />
      <rect
         rx="8.1736317"
         style="opacity:0.6143791;fill:none;stroke:#ffffff;stroke-width:4.04099989;stroke-linecap:round;stroke-linejoin:round;stroke-miterlimit:4;stroke-opacity:1;stroke-dasharray:none;stroke-dashoffset:0"
         id="rect3196"
         width="80.311104"
         height="79.784973"
         x="393.83136"
         y="29.545734"
         ry="8.1736317" />
      <path
         id="rect3190"
         d="m 402.73214,30.959821 c -4.52819,0 -8.1875,3.65931 -8.1875,8.1875 l 0,63.437499 c 0,4.52819 3.65931,8.18749 8.1875,8.1875 l 64.19427,0 c 4.52819,0 8.15627,-3.6593 8.15625,-8.1875 l 0,-63.437499 c 0,-4.52819 -3.62806,-8.1875 -8.15625,-8.1875 l -64.19427,0 z"
         style="opacity:0.6143791;fill:url(#linearGradient3299);fill-opacity:1;stroke:none"
         sodipodi:nodetypes="ccccccccc" />
      <path
         id="rect3178"
         d="m 400.20536,28.107138 c -4.52819,0 -8.15625,3.65931 -8.15625,8.1875 l 0,63.437502 c 0,4.52819 3.62806,8.15625 8.15625,8.15625 l 67.25381,0 c 4.52819,0 8.15625,-3.62806 8.15625,-8.15625 l 0,-63.437502 c 0,-4.52819 -3.62804,-8.1875 -8.15625,-8.1875 l -67.25381,0 z"
         style="opacity:0.6143791;fill:url(#linearGradient3301);fill-opacity:1;stroke:none"
         sodipodi:nodetypes="ccccccccc" />
    </g>
    <g
       id="g3029"
       transform="matrix(1.0145998,0,0,1.0145998,391.72271,-134.98686)">
      <path
         style="font-size:medium;font-style:normal;font-variant:normal;font-weight:normal;font-stretch:normal;text-indent:0;text-align:start;text-decoration:none;line-height:normal;letter-spacing:normal;word-spacing:normal;text-transform:none;direction:ltr;block-progression:tb;writing-mode:lr-tb;text-anchor:start;color:#000000;fill:#4d4d4d;fill-opacity:1;fill-rule:nonzero;stroke:none;stroke-width:3;marker:none;visibility:visible;display:inline;overflow:visible;enable-background:accumulate;font-family:Sans;-inkscape-font-specification:Sans"
         id="path3908"
         d="m -110.91944,549.89961 c -4.83543,0 -9.52218,1.10917 -13.84396,2.61212 l 22.8238,22.7612 c 4.690372,4.6773 4.690372,12.11336 0,16.79102 l -8.60567,8.58205 c -4.69038,4.67743 -12.1469,4.67743 -16.83729,0 l -22.82379,-22.76119 c -1.50683,4.30967 -2.61916,8.9837 -2.61916,13.80595 0,23.0805 18.762,41.79091 41.90607,41.79091 4.83545,0 9.52219,-1.10917 13.843975,-2.61189 l 14.218133,14.17914 a 29.935877,29.85374 0 0 1 0.748329,0 l 25.068784,-25 -14.592297,-14.55221 c 1.50683,-4.3098 2.619152,-8.98371 2.619152,-13.80595 0,-23.08063 -18.761992,-41.79115 -41.906076,-41.79115 z m 79.32217,95.52251 -25.068905,24.99989 a 29.935877,29.85374 0 0 1 0.374164,1.11886 l 13.843968,13.80594 c -1.506829,4.31028 -2.619152,8.98431 -2.619152,13.80644 0,23.08062 18.761993,41.79127 41.9060687,41.79127 5.2487176,0 10.3361449,-1.22797 14.9664623,-2.9852 l -24.320455,-24.25374 c -4.690378,-4.67753 -4.690378,-12.48656 0,-17.16423 l 8.231499,-8.20885 c 2.3451279,-2.33883 5.5451431,-3.73148 8.6056641,-3.73148 3.0606419,0 6.2605359,1.39265 8.6057859,3.73148 l 23.572125,23.50735 c 1.269617,-3.99085 2.244988,-8.27655 2.244988,-12.6866 0,-23.08051 -18.761992,-41.79092 -41.9060693,-41.79092 -4.8354414,0 -9.5223067,1.10917 -13.8439677,2.61189 l -14.592298,-14.55234 z"
         inkscape:connector-curvature="0" />
      <path
         style="font-size:medium;font-style:normal;font-variant:normal;font-weight:normal;font-stretch:normal;text-indent:0;text-align:start;text-decoration:none;line-height:normal;letter-spacing:normal;word-spacing:normal;text-transform:none;direction:ltr;block-progression:tb;writing-mode:lr-tb;text-anchor:start;color:#000000;fill:#df3672;fill-opacity:1;fill-rule:nonzero;stroke:none;stroke-width:3;marker:none;visibility:visible;display:inline;overflow:visible;enable-background:accumulate;font-family:Sans;-inkscape-font-specification:Sans"
         id="path3910"
         d="M 13.912403,548.80302 -4.7650693,566.2099 c -5.4672827,5.09531 -6.4080217,13.91106 -3.2245964,20.66346 l -71.2997833,72.60185 a 18.062497,18.012903 0 0 0 -0.376587,0.003 18.062497,18.012903 0 0 0 -10.173401,-1.79696 18.062497,18.012903 0 0 0 -10.493923,5.33506 l -47.78409,48.40333 a 18.092094,18.042421 0 1 0 25.78502,25.3158 l 47.784094,-48.40332 a 18.062497,18.012903 0 0 0 3.597914,-21.04174 l 71.30268887,-72.2266 c 6.75457873,3.00748 15.41763913,1.77965 20.66756713,-3.53821 l 17.160835,-18.8959 -24.268387,-23.82665 z"
         inkscape:connector-curvature="0" />
    </g>
  </g>
</svg>
