<?xml version="1.0" encoding="UTF-8" standalone="no"?>
<!-- Generator: Adobe Illustrator 10.0, SVG Export Plug-In . SVG Version: 3.0.0 Build 77)  -->

<svg
   xmlns:ns0="http://ns.adobe.com/SaveForWeb/1.0/"
   xmlns:ns="http://ns.adobe.com/Variables/1.0/"
   xmlns:i="http://ns.adobe.com/AdobeIllustrator/10.0/"
   xmlns:dc="http://purl.org/dc/elements/1.1/"
   xmlns:cc="http://creativecommons.org/ns#"
   xmlns:rdf="http://www.w3.org/1999/02/22-rdf-syntax-ns#"
   xmlns:svg="http://www.w3.org/2000/svg"
   xmlns="http://www.w3.org/2000/svg"
   xmlns:sodipodi="http://sodipodi.sourceforge.net/DTD/sodipodi-0.dtd"
   xmlns:inkscape="http://www.inkscape.org/namespaces/inkscape"
   i:viewOrigin="251 467"
   i:rulerOrigin="0 0"
   i:pageBounds="0 792 612 0"
   width="149.9664"
   height="194.13371"
   viewBox="0 0 149.9664 194.13373"
   overflow="visible"
   enable-background="new 0 0 108.758 144.133"
   xml:space="preserve"
   id="svg2"
   version="1.1"
   inkscape:version="0.48.1 r9760"
   sodipodi:docname="debian_pocket.svg"
   style="overflow:visible"><defs
   id="defs49"><inkscape:perspective
     sodipodi:type="inkscape:persp3d"
     inkscape:vp_x="0 : 72.066498 : 1"
     inkscape:vp_y="0 : 1000 : 0"
     inkscape:vp_z="108.758 : 72.066498 : 1"
     inkscape:persp3d-origin="54.379002 : 48.044332 : 1"
     id="perspective51" /></defs><sodipodi:namedview
   pagecolor="#ffffff"
   bordercolor="#666666"
   borderopacity="1"
   objecttolerance="10"
   gridtolerance="10"
   guidetolerance="10"
   inkscape:pageopacity="0"
   inkscape:pageshadow="2"
   inkscape:window-width="1857"
   inkscape:window-height="1179"
   id="namedview47"
   showgrid="false"
   units="mm"
   inkscape:zoom="3.8841863"
   inkscape:cx="74.983199"
   inkscape:cy="97.066862"
   inkscape:window-x="61"
   inkscape:window-y="19"
   inkscape:window-maximized="0"
   inkscape:current-layer="Layer_1"
   inkscape:document-units="mm"
   fit-margin-top="2"
   fit-margin-left="2"
   fit-margin-right="2"
   fit-margin-bottom="2"
   showguides="false" />
	<metadata
   id="metadata4">
		<ns:variableSets>
			<ns:variableSet
   varSetName="binding1"
   locked="none">
				<ns:variables />
				<ns:sampleDataSets />
			</ns:variableSet>
		</ns:variableSets>
		<ns0:sfw>
			<ns0:slices />
			<ns0:sliceSourceBounds
   y="322.867"
   x="251"
   width="108.758"
   height="144.133"
   bottomLeftOrigin="true" />
		</ns0:sfw>
	<rdf:RDF><cc:Work
     rdf:about=""><dc:format>image/svg+xml</dc:format><dc:type
       rdf:resource="http://purl.org/dc/dcmitype/StillImage" /><dc:title /></cc:Work></rdf:RDF></metadata>
	<g
   id="Layer_1"
   i:layer="yes"
   i:dimmedPercent="50"
   i:rgbTrio="#4F008000FFFF"
   transform="translate(-106.80998,132.89535)">
		<g
   id="g7"
   transform="matrix(0.5,0,0,0.5,90.896591,-17.914245)">
			<path
   i:knockout="Off"
   d="m 188.24948,-96.811687 c -3.73076,0.04994 0.7017,1.917821 5.57367,2.669466 1.35096,-1.053802 2.56458,-2.112599 3.65334,-3.146424 -3.02905,0.741657 -6.11555,0.759137 -9.22701,0.476958"
   id="path9"
   style="fill:#d70751"
   inkscape:connector-curvature="0" />
			<path
   i:knockout="Off"
   d="m 208.26923,-101.80351 c 2.22997,-3.06902 3.84813,-6.4252 4.41998,-9.89626 -0.50193,2.47219 -1.83791,4.60727 -3.10647,6.8647 -6.97458,4.39251 -0.65925,-2.60704 -0.005,-5.27151 -7.49648,9.44677 -1.03382,5.66357 -1.30851,8.30307"
   id="path11"
   style="fill:#d70751"
   inkscape:connector-curvature="0" />
			<path
   i:knockout="Off"
   d="m 215.66832,-121.04165 c 0.45448,-6.71986 -1.321,-4.59228 -1.91782,-2.03269 0.69421,0.36458 1.24608,4.73961 1.91782,2.03269"
   id="path13"
   style="fill:#d70751"
   inkscape:connector-curvature="0" />
			<path
   i:knockout="Off"
   d="m 174.09557,-212.88478 c 1.99273,0.3546 4.3051,0.62929 3.97298,1.10624 2.18751,-0.48195 2.67946,-0.91645 -3.97298,-1.10624"
   id="path15"
   style="fill:#d70751"
   inkscape:connector-curvature="0" />
			<path
   i:knockout="Off"
   d="m 178.07105,-211.77854 -1.40091,0.29217 1.30602,-0.11986 0.0949,-0.17231"
   id="path17"
   style="fill:#d70751"
   inkscape:connector-curvature="0" />
			<path
   i:knockout="Off"
   d="m 268.29063,-101.54567 c 0.26455,7.101684 -2.07231,10.552586 -4.18576,16.654848 l -3.80069,1.890064 c -3.10699,6.037604 0.30865,3.833027 -1.91652,8.633128 -4.85595,4.312155 -14.71482,13.48908 -17.87177,14.329758 -2.30746,-0.04997 1.56084,-2.721919 2.06642,-3.765419 -6.49322,4.456187 -5.21163,6.690159 -15.14399,9.403261 l -0.28806,-0.649616 c -24.48551,11.522595 -58.50068,-11.308017 -58.05389,-42.454299 -0.25867,1.975298 -0.74367,1.481476 -1.28453,2.275132 -1.26396,-16.022887 7.4015,-32.116307 22.01638,-38.697697 14.29449,-7.0723 31.05223,-4.174 41.28441,5.37623 -5.62021,-7.36623 -16.81653,-15.17632 -30.07633,-14.45322 -12.99525,0.21164 -25.15571,8.46852 -29.21213,17.43674 -6.65489,4.1887 -7.4309,16.15516 -10.32918,18.34797 -3.90652,28.688917 7.33977,41.078646 26.36675,55.661196 2.98647,2.016454 0.84068,2.325095 1.24044,3.859482 -6.31978,-2.957074 -12.1046,-7.42502 -16.86649,-12.895314 2.52792,3.694874 5.25278,7.286866 8.77716,10.108727 -5.96412,-2.013515 -13.92705,-14.441458 -16.24627,-14.947041 10.27333,18.395001 41.67534,32.260328 58.12738,25.379105 -7.61315,0.282185 -17.28096,0.15579 -25.82884,-3.004105 -3.60082,-1.848907 -8.47734,-5.673115 -7.60432,-6.387399 22.44554,8.380337 45.62595,6.343306 65.04387,-9.221015 4.94413,-3.850664 10.34094,-10.396791 11.90178,-10.484974 -2.34861,3.533204 0.4027,1.698995 -1.40211,4.817738 4.91474,-7.939421 -2.14284,-3.233381 5.08523,-13.709537 l 2.66901,3.674297 c -0.99941,-6.596102 8.18633,-14.597245 7.25159,-25.020494 2.10757,-3.186346 2.34861,3.433269 0.11465,10.764223 3.1011,-8.133426 0.82011,-9.441479 1.61375,-16.155149 0.85538,2.25749 1.99294,4.65312 2.57201,7.03701 -2.02233,-7.863 2.06642,-13.23629 3.08347,-17.80711 -1.00529,-0.44092 -3.11875,3.47442 -3.60669,-5.80833 0.0734,-4.03291 1.12581,-2.11346 1.52851,-3.10699 -0.78777,-0.45561 -2.86596,-3.54789 -4.12698,-9.47674 0.90829,-1.39623 2.44562,3.61256 3.69194,3.81539 -0.80247,-4.71191 -2.18107,-8.30685 -2.23985,-11.9253 -3.6449,-7.61314 -1.29041,1.01705 -4.24162,-3.26866 -3.88005,-12.09284 3.21575,-2.80716 3.69782,-8.29802 5.87299,8.50966 9.22102,21.70774 10.76422,27.17215 -1.17577,-6.6637 -3.07171,-13.12165 -5.39092,-19.36795 1.79011,0.75543 -2.87771,-13.7066 2.32509,-4.12991 -5.5526,-20.41439 -23.74477,-39.49135 -40.48487,-48.439 2.04291,1.87243 4.62667,4.22399 3.70368,4.59435 -8.33036,-4.95295 -6.86652,-5.3439 -8.05994,-7.43678 -6.7754,-2.76013 -7.22807,0.22634 -11.71071,0.006 -12.78656,-6.78422 -15.24981,-6.06405 -27.01637,-10.30861 l 0.53498,2.50441 c -8.46852,-2.82187 -9.8677,1.06407 -19.01816,0.006 -0.55556,-0.4321 2.93355,-1.57554 5.80833,-1.99001 -8.18929,1.08172 -7.80715,-1.61669 -15.82006,0.2969 1.97237,-1.38449 4.06525,-2.30453 6.16987,-3.48031 -6.67545,0.40564 -15.9435,3.88594 -13.08342,0.71723 -10.89062,4.86183 -30.23506,11.68426 -41.0904,21.86353 l -0.34098,-2.28099 c -4.97353,5.96999 -21.69011,17.83062 -23.02167,25.57016 l -1.33157,0.30864 c -2.58376,4.3827 -4.26218,9.34741 -6.31391,13.85357 -3.38329,5.77012 -4.96177,2.22221 -4.4797,3.12756 -6.657831,13.4979 -9.970581,24.83825 -12.824771,34.1445 2.03409,3.04233 0.05,18.318585 0.81717,30.543709 -3.33921,60.387801 42.380801,119.014885 92.357131,132.548056 7.32507,2.624917 18.21569,2.530855 27.48079,2.789526 -10.92882,-3.127562 -12.33975,-1.654904 -22.99228,-5.367413 -7.68074,-3.621387 -9.36211,-7.751297 -14.80594,-12.474973 l 2.15461,3.806571 c -10.67016,-3.777177 -6.20516,-4.673705 -14.88826,-7.42208 l 2.30158,-3.001166 c -3.45971,-0.264548 -9.16223,-5.825964 -10.72013,-8.915314 l -3.78599,0.149912 c -4.54437,-5.602789 -6.96941,-9.6503941 -6.7901,-12.786774 l -1.22281,2.1810623 c -1.38447,-2.3780048 -16.72834,-21.0404933 -8.76834,-16.6960053 -1.47854,-1.346262 -3.44502,-2.19576 -5.57611,-6.072878 l 1.61963,-1.848906 c -3.82421,-4.929437 -7.04878,-11.246288 -6.80186,-13.350925 2.04291,2.757192 3.45972,3.274533 4.86477,3.747782 -9.67369,-23.997569 -10.21749,-1.319807 -17.53963,-24.426726 l 1.54615,-0.123456 c -1.1846,-1.795997 -1.91064,-3.733086 -2.86302,-5.640781 l 0.67608,-6.716615 c -6.96059,-8.042302 -1.94591,-34.229746 -0.93769,-48.588906 0.69077,-5.83772 5.81127,-12.05463 9.70015,-21.80475 l -2.36919,-0.40564 c 4.53262,-7.90121 25.87293,-31.74298 35.7612,-30.52018 4.78834,-6.01408 -0.95238,-0.0235 -1.89006,-1.53439 10.52025,-10.88473 13.82711,-7.68957 20.92586,-9.65017 7.65135,-4.54143 -6.56965,1.77542 -2.94238,-1.73133 13.23628,-3.37741 9.37681,-7.68368 26.64012,-9.39738 1.82245,1.03468 -4.22397,1.59906 -5.74072,2.94238 11.02289,-5.39681 34.88818,-4.16519 50.39666,2.99234 17.98054,8.40973 38.19505,33.2568 38.99457,56.63415 l 0.9083,0.24397 c -0.45856,9.29451 1.42268,20.04403 -1.84303,29.91466 l 2.20751,-4.67665"
   id="path19"
   style="fill:#d70751"
   inkscape:connector-curvature="0" />
			<path
   i:knockout="Off"
   d="m 147.51827,-91.692504 -0.5269,2.614528 c 2.45471,3.333712 4.40249,6.944608 7.53144,9.541657 -2.25244,-4.392508 -3.92304,-6.207945 -7.00454,-12.156185"
   id="path21"
   style="fill:#d70751"
   inkscape:connector-curvature="0" />
			<path
   i:knockout="Off"
   d="m 153.31418,-91.917249 c -1.29852,-1.438365 -2.06265,-3.166402 -2.92667,-4.884449 0.82406,3.024063 2.51214,5.623609 4.07786,8.270601 l -1.15119,-3.386152"
   id="path23"
   style="fill:#d70751"
   inkscape:connector-curvature="0" />
			<path
   i:knockout="Off"
   d="m 255.90759,-114.21691 -0.54688,1.37844 c -1.00385,7.13689 -3.17888,14.19886 -6.5051,20.748917 3.67582,-6.909648 6.04563,-14.468557 7.05198,-22.127357"
   id="path25"
   style="fill:#d70751"
   inkscape:connector-curvature="0" />
			<path
   i:knockout="Off"
   d="m 174.83722,-214.67524 c 2.51964,-0.92146 6.19796,-0.50693 8.87991,-1.11374 -3.49103,0.29217 -6.96458,0.46697 -10.39319,0.90397 l 1.51328,0.20977"
   id="path27"
   style="fill:#d70751"
   inkscape:connector-curvature="0" />
			<path
   i:knockout="Off"
   d="m 86.260389,-167.57377 c 0.58183,5.37889 -4.04541,7.46901 1.02383,3.91805 2.721911,-6.12804 -1.05879,-1.69058 -1.02383,-3.91805"
   id="path29"
   style="fill:#d70751"
   inkscape:connector-curvature="0" />
			<path
   i:knockout="Off"
   d="m 80.297159,-142.66708 c 1.17117,-3.58842 1.38093,-5.74097 1.82793,-7.82111 -3.22884,4.13031 -1.48831,5.01181 -1.82793,7.82111"
   id="path31"
   style="fill:#d70751"
   inkscape:connector-curvature="0" />
			<path
   i:knockout="Off"
   d="m 79.55437,97.619857 c -0.112372,0.117367 -0.112372,18.743703 -0.344608,23.605673 -0.229739,3.93053 -0.579342,12.37843 -8.909875,12.37843 -8.562769,0 -10.645402,-9.83632 -11.339613,-14.11396 -0.809081,-4.7446 -0.809081,-8.68263 -0.809081,-10.41316 0,-5.55619 0.347106,-21.066063 13.422247,-21.066063 3.935527,0 6.13303,1.161181 7.868558,2.082634 l 0.112372,7.526446 z M 46.000002,111.27684 c 0,32.62792 17.357774,32.62792 19.902383,32.62792 7.174346,0 11.804085,-3.93553 13.769352,-10.76027 l 0.232236,10.2958 c 2.2,-0.11737 4.397502,-0.34711 7.983426,-0.34711 1.27355,0 2.31237,0 3.24132,0.11737 0.92644,0 1.85039,0.11237 2.89171,0.22974 -1.8504,-3.7008 -3.23882,-12.03133 -3.23882,-30.08831 0,-17.587514 0,-47.323721 1.50329,-56.350963 -4.16277,1.970261 -7.753685,3.243814 -15.622243,3.935528 3.12395,3.356186 3.12395,5.091714 3.12395,20.36186 -2.195005,-0.691714 -4.974347,-1.503291 -9.718955,-1.503291 -20.711463,0.0025 -24.067649,18.054482 -24.067649,31.481726"
   id="path33"
   inkscape:connector-curvature="0" />
			<path
   i:knockout="Off"
   d="m 108.75369,105.36855 c 0.11736,-9.604084 2.08513,-18.166853 10.29829,-18.166853 9.02724,0 9.71646,9.948694 9.48672,18.166853 h -19.78501 z m 31.23949,1.16118 c 0,-13.539611 -2.65947,-26.849486 -19.78501,-26.849486 -23.603181,0 -23.603181,26.157776 -23.603181,31.706466 0,23.48831 10.528041,32.74529 28.232921,32.74529 7.86356,0 11.68672,-1.15119 13.76935,-1.73553 -0.11487,-4.16526 0.46197,-6.82724 1.16118,-10.41316 -2.43473,1.50828 -5.55868,3.47355 -12.50079,3.47355 -18.05199,0 -18.28422,-16.43632 -18.28422,-22.10488 h 30.78501 l 0.22474,-6.82225"
   id="path35"
   inkscape:connector-curvature="0" />
			<path
   i:knockout="Off"
   d="m 177.6379,111.50408 c 0,10.76027 -1.96526,25.22633 -15.38751,25.22633 -1.85289,0 -4.16527,-0.3521 -5.66856,-0.69671 -0.23223,-4.16526 -0.23223,-11.33961 -0.23223,-19.67014 0,-9.95369 1.03882,-15.15278 1.85289,-17.704883 2.42724,-8.213167 7.86606,-8.325539 8.90488,-8.325539 8.79501,0 10.53053,12.148692 10.53053,21.170942 z m -33.20726,12.61317 c 0,8.56526 0,13.42224 -1.38842,17.12304 4.74461,1.85289 10.6429,2.89171 17.70488,2.89171 4.51237,0 17.58751,0 24.64449,-14.46107 3.35619,-6.71237 4.51237,-15.73961 4.51237,-22.56685 0,-4.16527 -0.46447,-13.304881 -3.81816,-19.093303 -3.23632,-5.433825 -8.4454,-8.213166 -13.99659,-8.213166 -11.10987,0 -14.34869,9.25698 -16.08172,14.001588 0,-5.900794 0.11237,-26.497388 1.03632,-37.027921 -7.51896,3.473553 -12.15119,4.0479 -17.12304,4.512372 4.51237,1.8479 4.51237,9.491714 4.51237,34.370941 v 28.462659"
   id="path37"
   inkscape:connector-curvature="0" />
			<path
   i:knockout="Off"
   d="m 212.14869,143.44029 c -2.31737,-0.34711 -3.94053,-0.57935 -7.29671,-0.57935 -3.6958,0 -6.2479,0.23474 -8.90488,0.57935 1.15618,-2.2 1.61816,-3.24382 1.96526,-10.76028 0.46448,-10.30079 0.57935,-37.841991 -0.22974,-43.627916 -0.57934,-4.4 -1.61816,-5.091714 -3.23881,-6.2479 9.48671,-0.926447 12.14869,-1.618161 16.54369,-3.700794 -0.92145,5.086719 -1.04381,7.638819 -1.04381,15.387513 -0.22724,39.927127 -0.34461,44.204767 2.205,48.949377"
   id="path39"
   inkscape:connector-curvature="0" />
			<path
   i:knockout="Off"
   d="m 249.20158,110.69 c -0.22974,7.29172 -0.34711,12.38343 -2.31737,16.43133 -2.42974,5.20908 -6.47764,6.71237 -9.48672,6.71237 -6.9496,0 -8.4479,-5.78342 -8.4479,-11.45198 0,-10.87514 9.72145,-11.69172 14.11396,-11.69172 h 6.13803 z m -31.82384,14.23633 c 0,7.29171 2.2,14.57843 8.68264,17.70488 2.89171,1.27355 5.78342,1.27355 6.71237,1.27355 10.6479,0 14.23133,-7.87106 16.43132,-12.73053 -0.11736,5.09171 0,8.21316 0.34711,12.26606 2.08263,-0.11737 4.16527,-0.34711 7.63882,-0.34711 1.96527,0 3.81816,0.22974 5.78343,0.34711 -1.27356,-1.96527 -1.96527,-3.12645 -2.31737,-7.63882 -0.22974,-4.39501 -0.22974,-8.79251 -0.22974,-14.92554 l 0.11737,-23.605675 c 0,-8.797503 -2.31737,-17.475141 -19.67514,-17.475141 -11.45199,0 -18.16186,3.473552 -21.51805,5.20908 1.39092,2.547105 2.54711,4.739614 3.58593,9.721452 4.51736,-3.935527 10.41816,-6.018161 16.43132,-6.018161 9.60908,0 9.60908,6.365267 9.60908,15.387515 -2.2,-0.11237 -4.05289,-0.34211 -7.17934,-0.34211 -14.70079,0.002 -24.41975,5.66356 -24.41975,21.17344"
   id="path41"
   inkscape:connector-curvature="0" />
			<path
   i:knockout="Off"
   d="m 315.85084,131.9858 c 0.11736,3.93553 0.11736,8.1008 1.73552,11.45698 -2.5496,-0.22974 -4.05289,-0.57934 -8.7925,-0.57934 -2.77935,0 -4.28264,0.23473 -6.48264,0.57934 0.45948,-1.50329 0.69671,-2.08263 0.92645,-4.05289 0.34711,-2.65698 0.57934,-11.56935 0.57934,-14.6958 v -12.4958 c 0,-5.43882 0,-13.309874 -0.3521,-16.084221 -0.22974,-1.965267 -0.80408,-7.28672 -7.52145,-7.28672 -6.59501,0 -8.79251,4.856981 -9.60409,8.792508 -0.92145,4.047903 -0.92145,8.447903 -0.92145,25.570943 0.11237,14.81316 0.11237,16.19659 1.26856,20.24949 -1.96527,-0.22974 -4.39501,-0.45948 -7.86606,-0.45948 -2.77934,0 -4.62974,0.11237 -6.93962,0.45948 0.80909,-1.8529 1.27356,-2.77935 1.5033,-9.25698 0.23473,-6.36527 0.6967,-37.609764 -0.3521,-45.011352 -0.57435,-4.517367 -1.73553,-5.556186 -3.00409,-6.712372 9.37435,-0.464472 12.37843,-1.970261 15.27514,-3.468559 v 12.261067 c 1.38593,-3.590919 4.27764,-11.574347 15.85199,-11.574347 14.46606,0 14.57843,10.530533 14.6958,17.470147 V 131.9858"
   id="path43"
   inkscape:connector-curvature="0" />
			<path
   i:knockout="Off"
   d="m 213.12508,62.72701 -9.58411,9.579114 -9.57912,-9.579114 9.57912,-9.579114 9.58411,9.579114"
   id="path45"
   style="fill:#d70751"
   inkscape:connector-curvature="0" />
		</g>
	</g>
</svg>