<?xml version="1.0" encoding="UTF-8" standalone="no"?>
<!-- Created with Inkscape (http://www.inkscape.org/) -->

<svg
   xmlns:i="http://ns.adobe.com/AdobeIllustrator/10.0/"
   xmlns:dc="http://purl.org/dc/elements/1.1/"
   xmlns:cc="http://creativecommons.org/ns#"
   xmlns:rdf="http://www.w3.org/1999/02/22-rdf-syntax-ns#"
   xmlns:svg="http://www.w3.org/2000/svg"
   xmlns="http://www.w3.org/2000/svg"
   xmlns:xlink="http://www.w3.org/1999/xlink"
   xmlns:sodipodi="http://sodipodi.sourceforge.net/DTD/sodipodi-0.dtd"
   xmlns:inkscape="http://www.inkscape.org/namespaces/inkscape"
   width="514.38"
   height="240.27565"
   id="svg2"
   version="1.1"
   inkscape:version="0.47 r22583"
   sodipodi:docname="debianmed.svg"
   inkscape:export-filename="/home/michael/hacking/neurodebian/sphinx/_static/debianmed.png"
   inkscape:export-xdpi="9.4499998"
   inkscape:export-ydpi="9.4499998">
  <defs
     id="defs4">
    <radialGradient
       inkscape:collect="always"
       xlink:href="#linearGradient3157"
       id="radialGradient3981"
       gradientUnits="userSpaceOnUse"
       gradientTransform="matrix(1.5951398,-0.2633269,0.1199966,0.7441248,23.784203,13.054503)"
       cx="271.95456"
       cy="227.65692"
       fx="271.95456"
       fy="227.65692"
       r="153.54318" />
    <linearGradient
       id="linearGradient3157">
      <stop
         id="stop3159"
         offset="0"
         style="stop-color:#ffffff;stop-opacity:1" />
      <stop
         id="stop3161"
         offset="1"
         style="stop-color:#31494f;stop-opacity:1" />
    </linearGradient>
    <linearGradient
       inkscape:collect="always"
       xlink:href="#linearGradient3182"
       id="linearGradient3983"
       gradientUnits="userSpaceOnUse"
       gradientTransform="matrix(1.0002415,0,0,1,196.38123,-91.428569)"
       x1="281.60837"
       y1="119.86061"
       x2="281.60837"
       y2="161.84015" />
    <linearGradient
       id="linearGradient3182"
       inkscape:collect="always">
      <stop
         id="stop3184"
         offset="0"
         style="stop-color:#ffffff;stop-opacity:1" />
      <stop
         id="stop3186"
         offset="1"
         style="stop-color:#ffffff;stop-opacity:0" />
    </linearGradient>
    <linearGradient
       y2="123.79076"
       x2="200.00002"
       y1="199.50504"
       x1="375.84592"
       gradientTransform="matrix(1.0021732,0,0,1,193.14533,-94.285722)"
       gradientUnits="userSpaceOnUse"
       id="linearGradient6079"
       xlink:href="#linearGradient3182"
       inkscape:collect="always" />
    <filter
       id="filter10749"
       inkscape:label="Drop shadow"
       inkscape:menu="Shadows and Glows"
       inkscape:menu-tooltip="Adds a colorizable drop shadow inside"
       color-interpolation-filters="sRGB"
       width="1.5"
       height="1.5"
       x="-0.25"
       y="-0.25">
      <feGaussianBlur
         id="feGaussianBlur10751"
         stdDeviation="4"
         result="result8" />
      <feOffset
         id="feOffset10753"
         dx="4"
         dy="4"
         result="result11" />
      <feComposite
         id="feComposite10755"
         in2="result11"
         result="result6"
         in="SourceGraphic"
         operator="in" />
      <feFlood
         id="feFlood10757"
         result="result10"
         in="result6"
         flood-opacity="1"
         flood-color="rgb(0,0,0)" />
      <feBlend
         id="feBlend10759"
         in2="result10"
         mode="normal"
         in="result6"
         result="result12" />
      <feComposite
         id="feComposite10761"
         in2="SourceGraphic"
         result="fbSourceGraphic"
         operator="in" />
      <feColorMatrix
         result="fbSourceGraphicAlpha"
         in="fbSourceGraphic"
         values="0 0 0 -1 0 0 0 0 -1 0 0 0 0 -1 0 0 0 0 1 0"
         id="feColorMatrix10791" />
      <feGaussianBlur
         id="feGaussianBlur10793"
         in="fbSourceGraphicAlpha"
         stdDeviation="5.000000"
         result="blur" />
      <feColorMatrix
         id="feColorMatrix10795"
         result="bluralpha"
         type="matrix"
         values="1 0 0 0 0 0 1 0 0 0 0 0 1 0 0 0 0 0 0.500000 0 " />
      <feOffset
         id="feOffset10797"
         in="bluralpha"
         dx="10.000000"
         dy="5.000000"
         result="offsetBlur" />
      <feMerge
         id="feMerge10799">
        <feMergeNode
           id="feMergeNode10801"
           in="offsetBlur" />
        <feMergeNode
           id="feMergeNode10803"
           in="fbSourceGraphic" />
      </feMerge>
    </filter>
    <filter
       id="filter10763"
       inkscape:label="Drop shadow"
       inkscape:menu="Shadows and Glows"
       inkscape:menu-tooltip="Adds a colorizable drop shadow inside"
       color-interpolation-filters="sRGB"
       width="1.5"
       height="1.5"
       x="-0.25"
       y="-0.25">
      <feGaussianBlur
         id="feGaussianBlur10765"
         stdDeviation="4"
         result="result8" />
      <feOffset
         id="feOffset10767"
         dx="4"
         dy="4"
         result="result11" />
      <feComposite
         id="feComposite10769"
         in2="result11"
         result="result6"
         in="SourceGraphic"
         operator="in" />
      <feFlood
         id="feFlood10771"
         result="result10"
         in="result6"
         flood-opacity="1"
         flood-color="rgb(0,0,0)" />
      <feBlend
         id="feBlend10773"
         in2="result10"
         mode="normal"
         in="result6"
         result="result12" />
      <feComposite
         id="feComposite10775"
         in2="SourceGraphic"
         result="fbSourceGraphic"
         operator="in" />
      <feColorMatrix
         result="fbSourceGraphicAlpha"
         in="fbSourceGraphic"
         values="0 0 0 -1 0 0 0 0 -1 0 0 0 0 -1 0 0 0 0 1 0"
         id="feColorMatrix10777" />
      <feGaussianBlur
         id="feGaussianBlur10779"
         in="fbSourceGraphicAlpha"
         stdDeviation="5.000000"
         result="blur" />
      <feColorMatrix
         id="feColorMatrix10781"
         result="bluralpha"
         type="matrix"
         values="1 0 0 0 0 0 1 0 0 0 0 0 1 0 0 0 0 0 0.500000 0 " />
      <feOffset
         id="feOffset10783"
         in="bluralpha"
         dx="10.000000"
         dy="5.000000"
         result="offsetBlur" />
      <feMerge
         id="feMerge10785">
        <feMergeNode
           id="feMergeNode10787"
           in="offsetBlur" />
        <feMergeNode
           id="feMergeNode10789"
           in="fbSourceGraphic" />
      </feMerge>
    </filter>
  </defs>
  <sodipodi:namedview
     id="base"
     pagecolor="#ffffff"
     bordercolor="#666666"
     borderopacity="1.0"
     inkscape:pageopacity="0.0"
     inkscape:pageshadow="2"
     inkscape:zoom="1.2617131"
     inkscape:cx="257.19"
     inkscape:cy="120.13783"
     inkscape:document-units="px"
     inkscape:current-layer="layer1"
     showgrid="false"
     inkscape:window-width="1377"
     inkscape:window-height="879"
     inkscape:window-x="61"
     inkscape:window-y="19"
     inkscape:window-maximized="0" />
  <metadata
     id="metadata7">
    <rdf:RDF>
      <cc:Work
         rdf:about="">
        <dc:format>image/svg+xml</dc:format>
        <dc:type
           rdf:resource="http://purl.org/dc/dcmitype/StillImage" />
        <dc:title />
      </cc:Work>
    </rdf:RDF>
  </metadata>
  <g
     inkscape:label="Layer 1"
     inkscape:groupmode="layer"
     id="layer1"
     transform="translate(-140.93525,-347.03688)">
    <g
       id="g3240"
       transform="matrix(2.7112743,0,0,2.7112743,-915.2418,278.78518)"
       inkscape:export-filename="C:\Users\Anne Menini\Desktop\interface.png"
       inkscape:export-xdpi="200"
       inkscape:export-ydpi="200">
      <rect
         rx="12.121831"
         style="fill:#1a1a1a;fill-opacity:0.44705882;stroke:#000000;stroke-width:0.73766053;stroke-linecap:round;stroke-linejoin:round;stroke-miterlimit:4;stroke-opacity:1;stroke-dasharray:none;stroke-dashoffset:0"
         id="rect3165"
         width="188.89853"
         height="87.88327"
         x="389.91888"
         y="25.542122"
         ry="12.121831" />
      <path
         id="path3155"
         d="m 574.7634,52.879463 c -83.45204,0.48174 -132.31781,4.12964 -180.9375,28.1875 l 0,20.093747 c 0,2.48247 1.10767,4.69086 2.84375,6.1875 l 175.25,0 c 1.73843,-1.49668 2.84375,-3.70309 2.84375,-6.1875 l 0,-48.281247 z"
         style="fill:url(#radialGradient3981);fill-opacity:1;fill-rule:evenodd;stroke:none" />
      <rect
         rx="8.1736317"
         ry="8.1736317"
         y="29.545734"
         x="393.83136"
         height="79.784973"
         width="180.94353"
         id="rect3194"
         style="opacity:0.6143791;fill:none;stroke:#ffffff;stroke-width:4.04099989;stroke-linecap:round;stroke-linejoin:round;stroke-miterlimit:4;stroke-opacity:1;stroke-dasharray:none;stroke-dashoffset:0" />
      <rect
         rx="8.1736317"
         style="opacity:0.6143791;fill:none;stroke:#ffffff;stroke-width:4.04099989;stroke-linecap:round;stroke-linejoin:round;stroke-miterlimit:4;stroke-opacity:1;stroke-dasharray:none;stroke-dashoffset:0"
         id="rect3196"
         width="180.94353"
         height="79.784973"
         x="393.83136"
         y="29.545734"
         ry="8.1736317" />
      <path
         id="rect3190"
         d="m 402.73214,30.959821 c -4.52819,0 -8.1875,3.65931 -8.1875,8.1875 l 0,63.437499 c 0,4.52819 3.65931,8.18749 8.1875,8.1875 l 164.59375,0 c 4.52819,0 8.15627,-3.6593 8.15625,-8.1875 l 0,-63.437499 c 0,-4.52819 -3.62806,-8.1875 -8.15625,-8.1875 l -164.59375,0 z"
         style="opacity:0.6143791;fill:url(#linearGradient3983);fill-opacity:1;stroke:none" />
      <path
         id="rect3178"
         d="m 400.20536,28.107138 c -4.52819,0 -8.15625,3.65931 -8.15625,8.1875 l 0,63.437502 c 0,4.52819 3.62806,8.15625 8.15625,8.15625 l 164.625,0 c 4.52819,0 8.15625,-3.62806 8.15625,-8.15625 l 0,-63.437502 c 0,-4.52819 -3.62804,-8.1875 -8.15625,-8.1875 l -164.625,0 z"
         style="opacity:0.6143791;fill:url(#linearGradient6079);fill-opacity:1;stroke:none" />
    </g>
    <g
       id="g5253"
       transform="matrix(0.52541378,0,0,0.52541378,83.973706,221.95403)">
      <g
         id="g4381"
         transform="matrix(4.4331047,-0.46141815,0.46141815,4.4331047,71.19216,289.57838)">
        <path
           style="fill:#d70751"
           i:knockout="Off"
           d="m 81.762,38.962 c 0.09,2.416 -0.705,3.59 -1.424,5.666 l -1.293,0.643 c -1.057,2.054 0.105,1.304 -0.652,2.937 -1.652,1.467 -5.006,4.589 -6.08,4.875 -0.785,-0.017 0.531,-0.926 0.703,-1.281 -2.209,1.516 -1.773,2.276 -5.152,3.199 L 67.766,54.78 c -8.33,3.92 -19.902,-3.847 -19.75,-14.443 -0.088,0.672 -0.253,0.504 -0.437,0.774 -0.43,-5.451 2.518,-10.926 7.49,-13.165 4.863,-2.406 10.564,-1.42 14.045,1.829 -1.912,-2.506 -5.721,-5.163 -10.232,-4.917 -4.421,0.072 -8.558,2.881 -9.938,5.932 -2.264,1.425 -2.528,5.496 -3.514,6.242 -1.329,9.76 2.497,13.975 8.97,18.936 1.016,0.686 0.286,0.791 0.422,1.313 -2.15,-1.006 -4.118,-2.526 -5.738,-4.387 0.86,1.257 1.787,2.479 2.986,3.439 -2.029,-0.685 -4.738,-4.913 -5.527,-5.085 3.495,6.258 14.178,10.975 19.775,8.634 -2.59,0.096 -5.879,0.053 -8.787,-1.022 -1.225,-0.629 -2.884,-1.93 -2.587,-2.173 7.636,2.851 15.522,2.158 22.128,-3.137 1.682,-1.31 3.518,-3.537 4.049,-3.567 -0.799,1.202 0.137,0.578 -0.477,1.639 1.672,-2.701 -0.729,-1.1 1.73,-4.664 l 0.908,1.25 c -0.34,-2.244 2.785,-4.966 2.467,-8.512 0.717,-1.084 0.799,1.168 0.039,3.662 1.055,-2.767 0.279,-3.212 0.549,-5.496 0.291,0.768 0.678,1.583 0.875,2.394 -0.688,-2.675 0.703,-4.503 1.049,-6.058 -0.342,-0.15 -1.061,1.182 -1.227,-1.976 0.025,-1.372 0.383,-0.719 0.52,-1.057 -0.268,-0.155 -0.975,-1.207 -1.404,-3.224 0.309,-0.475 0.832,1.229 1.256,1.298 -0.273,-1.603 -0.742,-2.826 -0.762,-4.057 -1.24,-2.59 -0.439,0.346 -1.443,-1.112 -1.32,-4.114 1.094,-0.955 1.258,-2.823 1.998,2.895 3.137,7.385 3.662,9.244 -0.4,-2.267 -1.045,-4.464 -1.834,-6.589 0.609,0.257 -0.979,-4.663 0.791,-1.405 C 87.189,15.552 81,9.062 75.305,6.018 76,6.655 76.879,7.455 76.565,7.581 73.731,5.896 74.229,5.763 73.823,5.051 71.518,4.112 71.364,5.128 69.839,5.053 65.489,2.745 64.651,2.99 60.648,1.546 L 60.83,2.398 C 57.949,1.438 57.473,2.76 54.36,2.4 54.171,2.253 55.358,1.864 56.336,1.723 53.55,2.091 53.68,1.173 50.954,1.824 51.625,1.353 52.337,1.04 53.053,0.64 50.782,0.778 47.629,1.962 48.602,0.884 44.897,2.538 38.316,4.859 34.623,8.322 L 34.507,7.546 c -1.692,2.031 -7.379,6.066 -7.832,8.699 l -0.453,0.105 c -0.879,1.491 -1.45,3.18 -2.148,4.713 -1.151,1.963 -1.688,0.756 -1.524,1.064 -2.265,4.592 -3.392,8.45 -4.363,11.616 0.692,1.035 0.017,6.232 0.278,10.391 -1.136,20.544 14.418,40.489 31.42,45.093 2.492,0.893 6.197,0.861 9.349,0.949 -3.718,-1.064 -4.198,-0.563 -7.822,-1.826 -2.613,-1.232 -3.185,-2.637 -5.037,-4.244 l 0.733,1.295 c -3.63,-1.285 -2.111,-1.59 -5.065,-2.525 l 0.783,-1.021 c -1.177,-0.09 -3.117,-1.982 -3.647,-3.033 l -1.288,0.051 c -1.546,-1.906 -2.371,-3.283 -2.31,-4.35 l -0.416,0.742 c -0.471,-0.809 -5.691,-7.158 -2.983,-5.68 -0.503,-0.458 -1.172,-0.747 -1.897,-2.066 l 0.551,-0.629 c -1.301,-1.677 -2.398,-3.826 -2.314,-4.542 0.695,0.938 1.177,1.114 1.655,1.275 -3.291,-8.164 -3.476,-0.449 -5.967,-8.31 l 0.526,-0.042 c -0.403,-0.611 -0.65,-1.27 -0.974,-1.919 l 0.23,-2.285 c -2.368,-2.736 -0.662,-11.645 -0.319,-16.53 0.235,-1.986 1.977,-4.101 3.3,-7.418 l -0.806,-0.138 c 1.542,-2.688 8.802,-10.799 12.166,-10.383 1.629,-2.046 -0.324,-0.008 -0.643,-0.522 3.579,-3.703 4.704,-2.616 7.119,-3.283 2.603,-1.545 -2.235,0.604 -1.001,-0.589 4.503,-1.149 3.19,-2.614 9.063,-3.197 0.62,0.352 -1.437,0.544 -1.953,1.001 3.75,-1.836 11.869,-1.417 17.145,1.018 6.117,2.861 12.994,11.314 13.266,19.267 l 0.309,0.083 c -0.156,3.162 0.484,6.819 -0.627,10.177 l 0.751,-1.591"
           id="path4393" />
        <path
           style="fill:#d70751"
           i:knockout="Off"
           d="m 60.969,47.645 c -1.494,0.02 0.281,0.768 2.232,1.069 0.541,-0.422 1.027,-0.846 1.463,-1.26 -1.213,0.297 -2.449,0.304 -3.695,0.191"
           id="path4383" />
        <path
           style="fill:#d70751"
           i:knockout="Off"
           d="m 68.986,45.646 c 0.893,-1.229 1.541,-2.573 1.77,-3.963 -0.201,0.99 -0.736,1.845 -1.244,2.749 -2.793,1.759 -0.264,-1.044 -0.002,-2.111 -3.002,3.783 -0.414,2.268 -0.524,3.325"
           id="path4385" />
        <path
           style="fill:#d70751"
           i:knockout="Off"
           d="m 71.949,37.942 c 0.182,-2.691 -0.529,-1.839 -0.768,-0.814 0.278,0.146 0.499,1.898 0.768,0.814"
           id="path4387" />
        <path
           style="fill:#d70751"
           i:knockout="Off"
           d="m 55.301,1.163 c 0.798,0.142 1.724,0.252 1.591,0.443 0.876,-0.193 1.073,-0.367 -1.591,-0.443"
           id="path4389" />
        <path
           style="fill:#d70751"
           i:knockout="Off"
           d="M 56.893,1.606 56.332,1.723 56.855,1.675 56.893,1.606"
           id="path4391" />
        <path
           style="fill:#d70751"
           i:knockout="Off"
           d="m 44.658,49.695 -0.211,1.047 c 0.983,1.335 1.763,2.781 3.016,3.821 -0.902,-1.759 -1.571,-2.486 -2.805,-4.868"
           id="path4395" />
        <path
           style="fill:#d70751"
           i:knockout="Off"
           d="m 46.979,49.605 c -0.52,-0.576 -0.826,-1.268 -1.172,-1.956 0.33,1.211 1.006,2.252 1.633,3.312 l -0.461,-1.356"
           id="path4397" />
        <path
           style="fill:#d70751"
           i:knockout="Off"
           d="m 88.063,40.675 -0.219,0.552 c -0.402,2.858 -1.273,5.686 -2.605,8.309 1.472,-2.767 2.421,-5.794 2.824,-8.861"
           id="path4399" />
        <path
           style="fill:#d70751"
           i:knockout="Off"
           d="M 55.598,0.446 C 56.607,0.077 58.08,0.243 59.154,0 57.756,0.117 56.365,0.187 54.992,0.362 l 0.606,0.084"
           id="path4401" />
        <path
           style="fill:#d70751"
           i:knockout="Off"
           d="m 20.127,19.308 c 0.233,2.154 -1.62,2.991 0.41,1.569 1.09,-2.454 -0.424,-0.677 -0.41,-1.569"
           id="path4403" />
        <path
           style="fill:#d70751"
           i:knockout="Off"
           d="m 17.739,29.282 c 0.469,-1.437 0.553,-2.299 0.732,-3.132 -1.293,1.654 -0.596,2.007 -0.732,3.132"
           id="path4405" />
      </g>
      <path
         id="path4455"
         d="m 338.5725,672.27153 c -0.9882,-1.19075 -1.2875,-8.98891 -2.6059,-67.8979 -0.46,-20.55388 -1.3694,-59.54671 -2.0208,-86.65072 -0.6515,-27.10402 -1.5611,-68.68405 -2.0215,-92.40006 -0.4604,-23.71602 -1.0324,-47.6451 -1.271,-53.17575 l -0.434,-10.05572 11.3061,0.51928 c 6.2183,0.28561 11.4366,0.62925 11.5962,0.76366 0.1596,0.13441 -0.6783,32.51543 -1.862,71.95781 -2.1088,70.26834 -3.5612,122.60181 -5.5007,198.19885 -0.5578,21.74124 -1.3099,38.21723 -1.7716,38.80802 -1.0574,1.35305 -4.2691,1.31303 -5.4148,-0.0675 l 0,4e-5 z"
         style="fill:#4d4d4d;fill-opacity:1;stroke:#202020;stroke-width:1.68793809;stroke-linecap:round;stroke-linejoin:miter;stroke-miterlimit:4;stroke-opacity:0.99607843;stroke-dasharray:none;stroke-dashoffset:0" />
      <path
         d="m 329.5908,370.2448 c 6.379,4.863 17.458,4.604 24.184,0.59"
         id="path4234"
         style="fill:none;stroke:#000000;stroke-width:1.00015509;stroke-linecap:round;stroke-linejoin:round;stroke-miterlimit:10;stroke-dasharray:none" />
      <path
         d="m 341.9768,366.1138 c 28.518,1.82 29.358,-44.244 0.918,-44.244 -13.583,0 -21.407,8.878 -23.243,21.773 -1.306,9.181 12.91366,21.15253 22.325,22.471"
         id="path4236"
         style="fill:#ffffff"
         sodipodi:nodetypes="cscz" />
      <path
         d="m 341.9763,366.4093 c 28.518,1.82 29.3585,-44.5395 0.9185,-44.5395 -13.583,0 -21.407,8.878 -23.243,21.773 -1.914,13.445 11.3135,20.9215 22.3245,22.7665 z"
         id="path4238"
         style="fill:#f2f2f2;fill-opacity:1;stroke:#000000;stroke-width:1.93294227;stroke-linecap:square;stroke-miterlimit:10;stroke-dasharray:none"
         sodipodi:nodetypes="cssc" />
      <path
         id="path4479"
         d="m 334.1177,428.93492 c -3.5758,-1.85032 -9.7683,-2.42911 -18.4504,-1.72448 -8.7344,0.70887 -48.3078,-0.39499 -53.66,-1.49679 -5.1082,-1.05158 -8.2755,-2.34342 -8.7449,-3.56683 -0.2288,-0.59609 0.3011,-1.61681 1.4601,-2.81254 1.0005,-1.03228 1.8191,-2.05714 1.8191,-2.27748 0,-0.22033 -1.5027,0.29429 -3.3394,1.14359 -2.8384,1.31248 -4.1673,1.55103 -8.8568,1.58979 -4.8178,0.0398 -5.9355,-0.15041 -8.8154,-1.50046 -3.4123,-1.5996 -4.6058,-3.08983 -5.3897,-6.72991 -0.2235,-1.03813 -0.5817,-1.88729 -0.7959,-1.88703 -0.2142,2.6e-4 -2.3495,0.41783 -4.7452,0.92794 -5.3127,1.13124 -11.42,0.79814 -16.9974,-0.92705 -6.1373,-1.89842 -9.5804,-5.71437 -7.2546,-8.04019 1.0901,-1.09014 -0.167,-1.61598 -4.9191,-2.05764 -9.0466,-0.84079 -18.3218,-3.58748 -21.1791,-6.27182 -1.7517,-1.64565 -1.7082,-4.01078 0.1135,-6.17586 0.7986,-0.94903 1.452,-1.85013 1.452,-2.00244 0,-0.1523 -1.3101,-0.45071 -2.9114,-0.66312 -13.8114,-1.83215 -34.7264,-13.26285 -32.9131,-17.9881 0.7012,-1.82722 4.98,-2.30684 21.5956,-2.42065 26.396,-0.1808 42.8997,-2.91668 66.424,-11.01135 11.8106,-4.06401 19.6686,-7.45376 35.0211,-15.10721 6.9172,-3.44836 13.3625,-6.26692 15.2058,-6.64959 5.3005,-1.10039 8.3891,0.22495 16.2004,6.9518 4.8393,4.16743 7.8256,8.00515 9.6542,12.40653 1.3172,3.17053 1.4966,4.47837 1.6228,11.82827 0.078,4.54498 0.4131,9.24922 0.7447,10.45387 1.6802,6.10394 6.441,11.22322 13.6262,14.65242 8.1417,3.88565 26.0927,6.70945 33.845,5.32402 7.7375,-1.38276 17.7554,-6.8014 21.8573,-11.82252 3.1998,-3.91685 4.1065,-7.54247 3.7197,-14.87419 -0.4,-7.5832 0.149,-10.8077 2.7351,-16.0626 2.4893,-5.05845 6.5653,-9.66928 12.5023,-14.14296 7.9083,-5.95907 11.2982,-5.58675 29.0594,3.19169 41.708,20.61411 54.7022,24.07903 94.3752,25.16537 23.4675,0.6426 29.1693,1.82654 27.4085,5.69117 -0.8431,1.85034 -8.0109,6.60425 -12.4785,8.27606 -5.3354,1.99661 -20.9477,6.9553 -21.8985,6.9553 -0.9794,0 -1.1879,1.47848 -0.287,2.03525 0.3217,0.19882 0.9818,1.12896 1.4669,2.06697 0.787,1.52202 0.7876,1.88792 0.01,3.40131 -1.5498,2.99699 -8.8084,5.68694 -18.8991,7.00378 -9.2944,1.21292 -8.7492,1.03618 -8.0346,2.6047 1.4597,3.20369 -1.1553,5.88254 -7.7541,7.94348 -4.0389,1.26145 -13.8929,1.53408 -18.1864,0.50316 -1.2777,-0.30679 -2.8866,-0.56403 -3.5755,-0.57165 -1.16,-0.0128 -1.2071,0.13359 -0.6382,1.98699 1.3585,4.42662 -3.26,7.31878 -12.3383,7.72623 -4.3956,0.1973 -6.2552,0.0135 -9.1471,-0.90381 -3.785,-1.20066 -4.1966,-1.08303 -2.7771,0.79364 1.0531,1.39232 1.1316,3.40234 0.1636,4.18728 -3.3528,2.71877 -20.6538,4.36186 -43.1222,4.09533 -26.6269,-0.31585 -31.3619,-0.16219 -37.0466,1.20231 -7.0958,1.70318 -13.1072,1.55398 -16.9219,-0.41998 l -2e-4,0 z"
         style="fill:#000000;fill-opacity:1;stroke:none" />
      <path
         d="m 357.3178,344.8788 c 2.229,6.339 -5.438,13.634 -10.623,15.926 5.182,-0.476 16.92,-11.865 10.623,-15.926"
         id="path4252" />
      <path
         id="path4409"
         d="m 355.23431,379.3058 c 13.16204,-0.84071 26.14163,2.86133 36.08616,10.37782 -7.69586,-8.17096 -20.80411,-16.21049 -35.90454,-17.49523"
         i:knockout="Off"
         style="fill:#d70751"
         sodipodi:nodetypes="ccc" />
      <g
         transform="translate(-940,6.9282237e-8)"
         id="g4471"
         style="fill:#f2f2f2;stroke:#525252;stroke-opacity:0.77828058">
        <path
           style="fill:#f2f2f2;fill-opacity:1;stroke:#525252;stroke-width:0.84396905;stroke-linecap:round;stroke-linejoin:miter;stroke-miterlimit:4;stroke-opacity:0.77828058;stroke-dasharray:none;stroke-dashoffset:0"
           d="m 1275.4837,429.58338 c -3.6681,-2.12671 -6.5777,-2.64537 -13.7556,-2.45201 -14.2019,0.38258 -47.4913,0.1546 -52.5653,-0.35999 -9.1354,-0.92646 -14.9544,-2.59067 -16.0199,-4.58153 -0.3795,-0.70913 -0.1492,-1.13561 1.6289,-3.01567 1.139,-1.20436 2.071,-2.31314 2.071,-2.46397 0,-0.15083 -1.1075,0.28484 -2.4612,0.96816 -6.108,3.08331 -13.9339,3.32843 -19.3042,0.60465 -3.347,-1.6976 -4.928,-4.02302 -4.928,-7.24852 0,-1.52944 -0.075,-1.64263 -0.924,-1.4014 -4.7885,1.36002 -6.6785,1.6323 -11.396,1.64169 -4.0947,0.008 -5.7814,-0.17462 -8.3362,-0.90334 -4.1398,-1.1808 -7.7007,-2.99251 -9.0623,-4.61074 -1.2931,-1.53669 -1.3397,-2.23106 -0.268,-3.98878 l 0.8104,-1.32919 -0.9146,-0.18429 c -0.503,-0.10136 -2.8506,-0.38502 -5.2168,-0.63036 -10.1285,-1.05017 -19.6037,-4.20642 -21.3816,-7.12241 -1.1248,-1.84466 -1.0114,-2.76855 0.6331,-5.15925 0.7905,-1.14924 1.4373,-2.16257 1.4373,-2.25184 0,-0.0893 -0.9702,-0.28594 -2.156,-0.43703 -3.1001,-0.39499 -10.9027,-2.51831 -14.4888,-3.94289 -7.4981,-2.97855 -14.2283,-7.06112 -17.6226,-10.68985 -2.4445,-2.6134 -2.44,-3.36765 0.028,-4.63163 2.3915,-1.22488 6.5442,-1.52595 20.5818,-1.49217 14.448,0.0348 20.2292,-0.34503 31.1671,-2.04756 19.3658,-3.01436 38.5602,-9.10407 59.7642,-18.96107 2.8608,-1.32989 5.2842,-2.41797 5.3854,-2.41797 0.1011,0 0.1838,0.74666 0.1838,1.65925 0,4.30349 6.1916,6.43315 17.5654,6.0418 3.1621,-0.10881 6.0462,-0.32484 6.409,-0.48008 0.55,-0.23532 0.6969,0.11394 0.8831,2.10039 0.6721,7.16919 5.1856,12.21572 10.2467,11.45676 0.9694,-0.14537 1.9473,-0.23175 2.1732,-0.19196 0.2259,0.0398 0.6455,1.47638 0.9326,3.19243 1.6928,10.11978 5.2554,17.5625 11.2977,23.60217 6.5295,6.52667 13.6171,9.98595 24.6329,12.02261 5.2701,0.97438 17.2002,0.96781 22.2211,-0.0122 13.2585,-2.58795 23.9266,-9.42299 29.2766,-18.75735 2.1692,-3.78473 4.1808,-10.86375 4.8656,-17.1231 l 0.2809,-2.56667 2.022,0 c 2.4673,0 6.9128,-1.90069 8.9316,-3.81876 1.8387,-1.74692 2.5297,-3.48802 2.5718,-6.48055 0.035,-2.45547 0.044,-2.47509 1.1197,-2.24781 0.5967,0.12611 2.9329,0.41706 5.1916,0.64657 7.4129,0.75324 13.4335,-0.37735 15.5775,-2.92526 1.137,-1.35123 2.0522,-4.16742 1.741,-5.35729 -0.1094,-0.4185 -0.1492,-0.76091 -0.088,-0.76091 0.061,0 3.6933,1.68294 8.0722,3.73986 15.2616,7.16887 29.3998,12.81281 37.4915,14.9665 5.3168,1.41512 11.2189,2.44547 19.5449,3.41201 3.9527,0.45885 7.9259,0.93623 8.8293,1.06084 0.9035,0.12461 8.7575,0.40282 17.4534,0.61824 20.4242,0.50596 25.3132,1.10684 27.8227,3.41952 1.1686,1.07697 1.1575,1.3513 -0.1219,3.02865 -1.2997,1.70403 -4.687,4.02607 -9.1308,6.25929 -3.1388,1.57742 -17.6329,6.56751 -23.2299,7.99772 -1.3207,0.33747 -2.4942,0.70659 -2.6079,0.82027 -0.1137,0.11368 0.373,0.92803 1.0815,1.80966 0.7085,0.88164 1.3934,2.25122 1.522,3.04351 0.1986,1.22387 0.026,1.67698 -1.1443,3.01257 -2.9376,3.351 -10.9158,5.65232 -24.2429,6.99286 l -2.7422,0.27582 0.8244,1.58158 c 0.9479,1.8186 0.783,2.71004 -0.7928,4.28581 -1.5212,1.52122 -4.3581,2.89604 -8.1776,3.96305 -4.09,1.14259 -12.6691,1.24236 -17.2992,0.20117 -4.2713,-0.9605 -4.6675,-0.92462 -4.1723,0.37785 1.9765,5.1988 -2.2364,8.30396 -11.8083,8.70331 -5.463,0.22791 -9.1094,-0.2677 -11.7025,-1.5906 -0.8525,-0.43494 -1.5501,-0.69475 -1.5501,-0.57734 0,0.11741 0.5026,1.11362 1.1168,2.21381 0.9773,1.7503 1.0546,2.13699 0.6187,3.09366 -0.9897,2.17231 -4.8704,3.21401 -15.3486,4.12012 -15.7855,1.36507 -20.6423,1.50813 -34.5647,1.01817 -18.5334,-0.65222 -24.4689,-0.4224 -31.3522,1.21396 -7.4293,1.76619 -12.1402,1.78085 -15.1305,0.0471 l 0,0 z m 47.3312,-2.71708 c 1.4142,-0.379 1.1041,-0.87053 -0.7464,-1.18317 -1.9029,-0.3215 -2.3717,-0.0858 -1.6232,0.81608 0.5658,0.68182 0.9646,0.7436 2.3696,0.36709 z m -75.767,-1.26674 c 0.4582,-0.24743 -0.4583,-1.75976 -1.0664,-1.75976 -0.2877,0 -0.8818,0.2772 -1.3202,0.616 -0.7732,0.59745 -0.7743,0.6337 -0.039,1.2038 0.6683,0.51785 1.3882,0.50003 2.4252,-0.06 l 0,0 z m 114.5826,-0.27328 c 2.9774,-0.89606 4.407,-2.10983 4.407,-3.7416 0,-2.67986 -3.2524,-5.08426 -12.7935,-9.45772 -2.3174,-1.06227 -4.6359,-2.20817 -5.1521,-2.54644 -0.9451,-0.61921 -2.177,-0.47613 -2.177,0.25284 0,0.21597 3.2312,1.96658 7.1804,3.89023 12.1658,5.92585 13.7777,7.61128 9.336,9.76152 -2.542,1.23052 -7.0457,1.21779 -10.7157,-0.0303 -3.7764,-1.28425 -8.9822,-4.00046 -14.6301,-7.63352 -2.7104,-1.74349 -5.257,-3.37836 -5.6592,-3.63307 -0.5682,-0.35989 -0.814,-0.32993 -1.1029,0.13444 -0.2878,0.46255 0.4834,1.16939 3.4137,3.12893 7.8473,5.24768 15.0818,8.95609 19.5234,10.00773 2.3278,0.55116 6.3067,0.48791 8.37,-0.13305 l 0,2e-5 z m -59.5143,-0.4447 c 0.1353,-0.35257 -0.2108,-0.94814 -0.8376,-1.44113 -1.0126,-0.79655 -1.0319,-0.88029 -0.3714,-1.61016 0.9478,-1.04728 3.8258,-1.79444 6.251,-1.62282 1.5687,0.111 2.002,0.008 2.002,-0.47434 0,-0.4779 -0.6476,-0.64265 -2.8884,-0.73486 -4.357,-0.17929 -7.173,1.23583 -7.173,3.60461 0,0.7966 0.3594,1.43655 1.1294,2.01099 1.3596,1.01442 1.589,1.04694 1.888,0.26771 l 0,0 z m -88.2294,-0.63146 c 4.2594,-1.08936 10.674,-4.2232 15.0071,-7.33162 4.4938,-3.22374 6.4785,-5.22537 5.8271,-5.87678 -0.3615,-0.36153 -0.9013,-0.0859 -2.2373,1.14231 -6.0298,5.54329 -14.8906,10.09563 -22.035,11.32075 -3.4136,0.58538 -6.8523,-0.0152 -8.5758,-1.4976 -0.9857,-0.84787 -1.0485,-1.05694 -0.6078,-2.02413 0.6748,-1.48116 5.1573,-4.28924 12.022,-7.53132 4.2313,-1.99833 5.7255,-2.89345 5.6206,-3.36696 -0.1974,-0.89026 -0.428,-0.80642 -7.8736,2.86276 -7.2072,3.5517 -10.1355,5.48791 -11.0892,7.33221 -1.1343,2.19337 0.3984,4.35977 3.8146,5.39179 2.0373,0.61548 6.8573,0.41492 10.1273,-0.42141 l 0,0 z m 51.2069,-0.69248 c 2.5218,-2.41607 0.7478,-4.9476 -3.7532,-5.35573 -3.4279,-0.31083 -5.3617,0.11588 -5.3617,1.1831 0,0.64295 0.1729,0.77695 0.7187,0.55693 2.2727,-0.91625 5.9038,-0.54951 7.7127,0.77895 0.7928,0.58228 0.7865,0.61703 -0.3207,1.77621 -2.0123,2.10672 -1.0969,3.07351 1.0042,1.06054 l 0,0 z m 64.2877,-2.26078 c 1.4772,-0.27219 2.7524,-0.7379 2.8717,-1.04875 0.3432,-0.8943 -1.1441,-3.7344 -2.6462,-5.05331 -2.1776,-1.91197 -5.2147,-3.24853 -9.3959,-4.13504 -3.6336,-0.77038 -4.0179,-0.78074 -6.431,-0.17328 -3.8241,0.96267 -4.7387,2.45119 -3.33,5.41977 1.3918,2.93301 4.7143,4.36107 11.6462,5.00574 2.1457,0.19955 4.0648,0.38794 4.2646,0.41865 0.1999,0.0307 1.5591,-0.16449 3.0206,-0.43378 l 0,0 z m -86.4322,-0.75191 c 4.7867,-0.45392 7.683,-1.4509 10.067,-3.46541 2.7495,-2.3233 3.0341,-4.68671 0.745,-6.18661 -1.0843,-0.71046 -5.6489,-1.51115 -5.9957,-1.05174 -0.113,0.14959 -1.4066,0.47623 -2.8747,0.72587 -5.5475,0.94328 -9.953,3.31946 -11.2597,6.07315 -0.909,1.91564 -0.5871,3.30807 0.8895,3.84733 1.5003,0.5479 3.1386,0.55906 8.4286,0.0574 l 0,0 z m -54.8158,-3.9187 c 4.7139,-0.95739 12.1292,-3.53157 17.8252,-6.18794 5.8826,-2.74334 5.7419,-2.65209 5.2693,-3.41678 -0.2995,-0.48455 -1.2327,-0.17965 -5.2189,1.70513 -9.7611,4.6153 -15.809,6.52203 -21.4862,6.774 -3.4072,0.15122 -4.0711,0.0665 -5.2413,-0.66905 -1.7047,-1.07142 -2.7732,-3.22906 -2.3811,-4.80848 0.7839,-3.15831 6.6454,-6.95041 17.6837,-11.44041 3.1621,-1.28624 5.8802,-2.46054 6.0402,-2.60955 0.16,-0.149 0.15,-0.49898 -0.022,-0.77772 -0.4891,-0.79141 -14.2949,4.92594 -19.1906,7.94734 -5.2143,3.21806 -7.1815,7.3352 -5.1201,10.71603 1.9312,3.1672 5.6243,4.03026 11.8421,2.76743 l 0,0 z m 199.1775,0.0689 c 2.1785,-1.12653 2.6626,-2.04486 2.4713,-4.68836 -0.2909,-4.02231 -3.1038,-7.03714 -9.5766,-10.26425 -3.4514,-1.72073 -14.6081,-6.23879 -15.4058,-6.23879 -0.2558,0 -0.4054,0.30249 -0.3324,0.67218 0.088,0.44311 2.3021,1.53646 6.4982,3.20821 9.0589,3.6092 12.7297,5.61546 15.1802,8.29669 4.1428,4.53291 2.7663,8.35627 -3.0085,8.35627 -5.1393,0 -17.7826,-3.79 -25.4054,-7.61562 -2.2572,-1.13284 -2.9881,-1.34149 -3.2475,-0.92711 -0.5144,0.8218 0.9566,1.73024 6.4198,3.96465 6.0786,2.4861 10.4432,3.9285 14.9896,4.95373 4.2393,0.95599 9.8463,1.09467 11.4171,0.2824 l 0,0 z m -84.9383,-2.0894 c 2.807,-1.45157 2.0462,-6.17403 -1.8453,-11.4535 -0.3506,-0.47563 -0.8278,-0.67035 -1.2479,-0.50915 -0.6261,0.24026 -0.6214,0.35053 0.059,1.38618 2.3852,3.63014 3.1345,5.10623 3.3292,6.55796 0.1885,1.4054 0.07,1.73908 -0.8831,2.48893 -0.6055,0.47626 -1.9195,0.98869 -2.92,1.13873 -1.6131,0.2419 -2.254,0.8397 -1.6008,1.49298 0.3397,0.33966 3.7387,-0.39361 5.1088,-1.10213 l 0,0 z m -33.792,-0.0294 c 0.08,-0.23876 -0.9937,-0.97796 -2.3849,-1.64267 -4.2267,-2.01956 -4.4922,-3.30448 -1.5715,-7.6054 1.738,-2.55934 1.9119,-3.08656 1.108,-3.36003 -0.2837,-0.0965 -1.325,1.03067 -2.3276,2.51962 -3.225,4.78926 -2.7438,7.49334 1.7197,9.66398 2.1983,1.06906 3.2007,1.19217 3.4563,0.4245 l 0,0 z m 52.7969,-6.23498 c 1.0247,-0.91953 0.8794,-2.45783 -0.462,-4.89039 -1.4449,-2.6203 -5.7845,-7.94723 -6.4743,-7.94723 -1.1996,0 -0.798,0.9111 1.7432,3.95427 3.3327,3.99115 4.9406,6.9407 4.2422,7.78218 -1.1121,1.33996 -6.1281,0.16896 -9.3182,-2.17534 -1.3113,-0.96369 -2.1543,-0.95933 -2.1528,0.0111 0,0.92719 4.7746,3.39005 8.0073,4.13155 1.2961,0.29731 3.6279,-0.16019 4.4146,-0.86618 l 0,10e-6 z m 93.576,0.71636 c 3.2312,-0.59699 5.3957,-3.29674 4.1565,-5.18416 -1.1238,-1.71152 -7.3789,-4.39964 -21.8618,-9.39497 -5.082,-1.75285 -10.1959,-3.60878 -11.3642,-4.12427 -2.1072,-0.92975 -2.5984,-0.92333 -2.5984,0.034 0,0.67762 2.231,1.5815 14.0512,5.69272 13.8237,4.80806 18.1863,6.61673 20.1236,8.34289 1.6929,1.50847 -1.2896,3.39986 -5.3612,3.39986 -4.2328,0 -12.9944,-1.84307 -19.6546,-4.13452 -2.7868,-0.95881 -2.5884,-0.95445 -2.5884,-0.0568 0,0.56089 0.8085,0.99669 3.388,1.82629 4.7304,1.5213 9.6981,2.73511 13.8307,3.37937 4.4738,0.69747 5.185,0.7173 7.8786,0.21962 l 0,0 z m -164.2025,-1.28744 c 2.9835,-1.16112 6.0491,-2.79021 6.0491,-3.21454 0,-0.91385 -0.9534,-0.72346 -4.3514,0.86888 -3.9975,1.87329 -6.69,2.41821 -7.4463,1.50699 -0.7057,-0.85036 0.5912,-3.4152 3.8133,-7.54163 1.7438,-2.23321 2.6384,-3.72386 2.4809,-4.13418 -0.1354,-0.35293 -0.4084,-0.58012 -0.6067,-0.50487 -0.5941,0.22547 -5.6228,7.01061 -6.5658,8.85915 -2.4039,4.71196 0.5096,6.54096 6.6269,4.1602 l 0,0 z m -87.3776,-0.73668 c 8.7771,-1.76007 13.4026,-3.39754 12.4077,-4.39241 -0.1205,-0.12052 -2.1818,0.3435 -4.5806,1.03116 -12.7017,3.64112 -23.1183,4.08163 -23.5595,0.9963 -0.2504,-1.7504 1.8223,-2.68328 14.9111,-6.71127 3.7717,-1.1607 11.1559,-4.08815 15.7941,-6.26149 2.8697,-1.34467 3.6225,-1.86585 3.3384,-2.31132 -0.2978,-0.467 -1.4363,-0.10656 -6.0536,1.91642 -6.0241,2.63935 -11.6934,4.70535 -20.5577,7.49161 -3.2122,1.00969 -6.1019,2.19545 -7.084,2.90682 -1.4409,1.04384 -1.6586,1.40832 -1.6586,2.77792 0,1.74471 0.8074,2.7405 2.7279,3.36438 1.7588,0.57138 9.66,0.12533 14.3148,-0.80812 l 0,0 z m 175.9708,-2.90585 c 1.0657,-1.06566 1.0739,-3.50338 0.017,-5.13334 -0.4392,-0.6776 -3.7171,-4.04464 -7.2843,-7.48231 -5.2835,-5.09177 -6.5835,-6.15248 -7.0135,-5.72249 -0.43,0.42998 0.064,1.09365 2.667,3.58045 11.1346,10.63894 12.0874,11.86761 10.5339,13.58414 -1.4651,1.61891 -4.8204,0.52643 -11.781,-3.83585 -2.4492,-1.53497 -3.3677,-1.9214 -3.7175,-1.56399 -0.3476,0.35514 -0.1825,0.69968 0.6556,1.36804 1.5962,1.27302 7.8521,4.79569 9.6671,5.44356 2.3808,0.84979 5.2777,0.73947 6.2554,-0.23821 z m -104.5147,-1.42484 c 3.049,-1.49775 7.8026,-5.15782 7.8026,-6.00766 0,-1.07842 -0.9395,-0.71064 -3.298,1.29097 -3.4534,2.93078 -7.7524,5.00107 -10.038,4.83397 -1.0658,-0.0779 -1.9389,-0.39151 -2.1853,-0.78488 -0.8947,-1.42858 0.2066,-3.00566 6.6125,-9.46872 3.5431,-3.57472 6.4985,-6.66932 6.5677,-6.87688 0.069,-0.20755 -0.075,-0.50177 -0.3215,-0.6538 -0.4842,-0.29928 -9.3499,7.99689 -12.2336,11.44777 -0.9652,1.15504 -1.9666,2.7996 -2.2254,3.65458 -0.4118,1.36095 -0.3677,1.6921 0.3546,2.65956 1.6004,2.14347 4.4695,2.11309 8.9644,-0.0949 l 0,0 z m 204.9023,-5.60839 c 2.6991,-0.65505 5.5516,-1.51196 6.3388,-1.90422 3.2971,-1.64291 4.1545,-5.21388 1.8141,-7.55437 -1.2863,-1.2863 -1.3343,-1.29745 -7.7934,-1.80979 -5.3189,-0.4219 -18.2722,-2.258 -23.2337,-3.29334 -0.914,-0.19072 -1.1294,-0.089 -1.1294,0.53378 0,0.67139 0.7458,0.89132 5.852,1.72598 11.6812,1.90935 13.3339,2.1262 18.6962,2.45315 4.8905,0.29818 5.5567,0.43072 6.468,1.28681 1.8223,1.71197 1.1983,3.97843 -1.47,5.33972 -2.7622,1.40919 -11.4226,3.27417 -15.2041,3.27417 -6.8597,0 -13.7274,-1.52277 -24.9475,-5.53157 -7.9352,-2.83517 -13.4051,-5.23187 -16.4878,-7.22435 -1.9757,-1.27694 -2.5033,-1.46185 -2.8791,-1.00902 -1.0491,1.264 6.9027,5.3347 18.484,9.46242 10.9844,3.91501 15.347,4.98908 22.371,5.50774 4.9962,0.36893 7.3501,0.1434 13.1209,-1.25711 l 0,0 z m -292.6799,-0.59837 c 8.1954,-1.6253 16.5842,-4.67308 25.9722,-9.43611 6.1518,-3.12117 6.9408,-3.65354 6.3317,-4.27237 -0.3216,-0.32681 -1.8515,0.28208 -5.544,2.20644 -9.9397,5.18021 -19.1992,8.62981 -27.6907,10.31602 -5.2016,1.03293 -14.2141,1.26439 -17.449,0.44812 -4.888,-1.23338 -11.4461,-5.13496 -10.9803,-6.53244 0.2671,-0.8012 2.1769,-1.98121 3.8254,-2.36354 0.886,-0.20548 3.4589,-0.38446 5.7175,-0.39773 2.2587,-0.0133 5.5851,-0.29688 7.392,-0.63024 1.807,-0.33336 5.5954,-0.98256 8.4187,-1.44265 2.8233,-0.4601 5.5491,-0.92362 6.0573,-1.03005 1.0641,-0.22284 1.2658,-1.40986 0.2396,-1.40986 -1.1003,0 -13.4269,2.09673 -13.8447,2.35496 -0.2092,0.12931 -3.5083,0.37553 -7.3312,0.54717 -6.4903,0.29138 -7.1051,0.38923 -9.2799,1.47696 -2.1266,1.06365 -2.3399,1.29457 -2.4537,2.65654 -0.091,1.09539 0.1267,1.77426 0.8214,2.55554 2.2178,2.49456 8.6487,5.38191 13.4597,6.04319 3.5529,0.48834 10.8262,0.003 16.338,-1.08995 l 0,0 z m 208.5293,0.47244 c 2.4925,-1.63313 0.8698,-4.07763 -7.3611,-11.08943 -2.736,-2.33078 -5.326,-4.62931 -5.7556,-5.10782 -0.6051,-0.6741 -0.908,-0.76462 -1.345,-0.40194 -0.7486,0.62133 -0.4504,0.9406 6.5286,6.98887 3.099,2.68572 6.1399,5.54571 6.7576,6.35553 1.0866,1.42468 1.0978,1.49086 0.3443,2.04184 -3.1433,2.29845 -11.2416,-1.83469 -20.3101,-10.36569 -2.9116,-2.73901 -3.4336,-3.07901 -3.9437,-2.56892 -0.5101,0.51009 -0.059,1.05974 3.4114,4.15291 10.5756,9.4273 17.5975,12.66539 21.6736,9.99465 l 0,0 z m -140.6317,-0.38112 c 5.2777,-1.62923 10.887,-5.31055 17.9796,-11.7998 2.5524,-2.33518 2.8737,-2.77959 2.334,-3.22752 -0.5288,-0.43887 -1.057,-0.1079 -3.4044,2.13328 -6.2696,5.98572 -12.3701,9.96396 -17.7123,11.55042 -2.4759,0.73525 -3.9154,0.3711 -3.4619,-0.8757 0.7204,-1.98 3.1441,-4.65494 8.1583,-9.00381 5.1182,-4.43914 5.9268,-5.397 4.8569,-5.75364 -0.2206,-0.0735 -2.8,1.95983 -5.7319,4.5186 -8.1376,7.10195 -10.1075,10.07583 -8.1254,12.26611 0.8113,0.8964 2.6068,0.96393 5.1071,0.19206 z m 157.4406,-9.17502 c 1.513,-1.1007 2.0389,-3.0075 1.3103,-4.75117 -1.0582,-2.53275 -6.2967,-6.21128 -14.4389,-10.13913 -7.2839,-3.51386 -17.8833,-8.22909 -18.4982,-8.22909 -2.0449,0 0.4827,1.55148 8.3342,5.11581 16.4913,7.48643 23.5107,11.86641 23.5107,14.67025 0,1.45431 -1.8306,2.80062 -3.8081,2.80062 -4.0657,0 -12.2395,-3.62352 -22.619,-10.02718 -4.3877,-2.70701 -6.6451,-3.88086 -6.925,-3.60097 -0.2284,0.22838 -0.3043,0.59485 -0.1686,0.81436 0.4836,0.78255 13.3643,8.32878 18.1185,10.61486 7.843,3.77135 12.5829,4.62407 15.1841,2.73164 l 0,0 z m -171.0019,-0.37304 c 7.8009,-2.31403 28.1117,-14.53301 24.1573,-14.53301 -0.2501,0 -2.9759,1.6096 -6.0574,3.5769 -6.3218,4.03602 -14.3201,8.20479 -17.9528,9.35706 -1.3386,0.42462 -3.4201,0.78359 -4.6255,0.79771 -1.8252,0.0214 -2.3229,-0.1364 -2.9773,-0.94383 -2.8829,-3.55718 2.0241,-7.22656 20.9796,-15.68803 8.5853,-3.83235 10.2891,-4.77691 9.9957,-5.54146 -0.2965,-0.77283 -0.1346,-0.8127 -3.4215,0.84253 -1.5678,0.78956 -5.5826,2.65906 -8.9217,4.15446 -14.5008,6.49406 -20.0334,10.08574 -20.9088,13.57367 -0.3527,1.40507 0.8743,3.81219 2.3123,4.53647 1.4218,0.71609 4.7605,0.65649 7.4201,-0.13247 l 0,0 z m 250.3744,-4.6833 c 8.9692,-0.68423 14.7793,-2.27284 23.3779,-6.39205 5.4163,-2.59474 7.9371,-4.71934 7.9371,-6.68958 0,-1.01352 -0.2288,-1.39275 -1.0225,-1.69451 -0.6208,-0.23602 -7.2765,-0.29205 -16.94,-0.14261 -17.0518,0.2637 -24.567,-0.17158 -32.7548,-1.89717 -2.2835,-0.48125 -3.8451,-0.63298 -4.0862,-0.39703 -0.7139,0.69884 0.3162,1.12951 4.7022,1.96583 9.2975,1.77289 18.2085,2.09183 44.0242,1.57572 2.6853,-0.0537 4.1474,0.0838 4.4848,0.4217 1.8073,1.80988 -11.8789,8.63517 -21.6589,10.80127 -3.1749,0.70318 -6.0866,0.96009 -13.3781,1.18041 -11.4814,0.34692 -13.842,0.15173 -24.0447,-1.98812 -14.4295,-3.02634 -15.8802,-3.39038 -18.238,-4.57653 -2.0265,-1.0195 -2.355,-1.08417 -2.5763,-0.5073 -0.1396,0.36363 -0.2032,0.71159 -0.1414,0.77324 0.7137,0.71217 4.9873,2.33319 7.915,3.00228 7.027,1.60592 19.9023,4.2084 22.4718,4.54221 3.762,0.48875 13.6677,0.4998 19.9279,0.0222 l 0,2e-5 z m -313.4399,-1.41913 c 11.9782,-1.1271 19.3394,-2.8738 24.2573,-5.75587 1.2329,-0.72254 1.7137,-1.24219 1.5482,-1.67337 -0.132,-0.34396 -0.3558,-0.57138 -0.4974,-0.50537 -0.1415,0.066 -1.6797,0.82116 -3.4181,1.6781 -6.2625,3.08715 -15.8546,4.68244 -34.095,5.67044 -14.0421,0.7606 -20.7462,-0.21539 -30.8279,-4.48788 -6.8866,-2.91844 -11.3804,-5.79815 -11.3804,-7.29269 0,-1.22005 1.6852,-1.23494 16.0487,-0.14175 7.8318,0.59607 24.1652,0.0134 29.5184,-1.05294 4.9391,-0.98389 7.4089,-1.80997 7.4089,-2.47806 0,-0.75749 -0.5619,-0.75855 -3.1081,-0.006 -5.2276,1.54523 -9.3856,1.96741 -21.3685,2.16962 -9.3659,0.15805 -13.3936,0.0538 -18.618,-0.48182 -7.5495,-0.77402 -10.0361,-0.59489 -10.9424,0.78827 -1.3902,2.12167 1.413,4.93866 8.144,8.18425 5.4742,2.63958 11.9021,4.84131 16.7357,5.73245 4.4862,0.82712 19.982,0.65112 30.5946,-0.34748 z m 248.3008,-4.57753 c 2.3601,-0.91716 2.8221,-1.30915 2.8221,-2.39442 0,-1.23048 -1.311,-2.35537 -4.7227,-4.05237 -2.4244,-1.2059 -12.8462,-5.20893 -13.5614,-5.20893 -0.1253,0 -1.7142,-0.67944 -3.5308,-1.50985 -2.7323,-1.24895 -3.3657,-1.40862 -3.6657,-0.924 -0.4777,0.7716 2.6028,2.33805 9.2287,4.69286 9.3981,3.34005 14.118,5.50755 14.5021,6.65965 0.3174,0.95221 -2.4799,1.90429 -6.1351,2.08814 -7.3759,0.371 -14.4175,-2.44186 -31.6396,-12.63884 -1.3763,-0.81489 -1.565,-0.83983 -1.7961,-0.23753 -0.1421,0.37014 -0.1892,0.73501 -0.1049,0.81083 0.7613,0.68407 12.547,7.30196 15.7588,8.84886 9.5441,4.59675 17.4992,5.94286 22.8446,3.8656 l 0,0 z m -192.4501,-1.48506 c 7.419,-2.57812 23.2534,-10.8961 23.5408,-12.36621 0.073,-0.37352 -0.081,-0.67912 -0.3425,-0.67912 -0.2614,0 -3.2484,1.58924 -6.6378,3.53165 -14.5795,8.3554 -24.3233,11.34375 -30.8247,9.45373 -1.2793,-0.37189 -2.459,-0.89134 -2.6215,-1.15432 -0.3812,-0.61681 1.8941,-2.52794 4.5657,-3.83506 1.1294,-0.55252 4.9178,-1.85273 8.4187,-2.88935 7.961,-2.35725 12.0144,-4.45403 10.8539,-5.61459 -0.1288,-0.12879 -1.6534,0.4724 -3.388,1.33598 -1.7347,0.86357 -5.5563,2.24598 -8.4926,3.07201 -2.9362,0.82603 -6.5285,2.06813 -7.9828,2.76023 -2.924,1.39148 -6.9583,5.0509 -6.2972,5.71201 0.2203,0.22021 1.4905,0.85971 2.8229,1.42112 2.231,0.94005 2.812,1.00724 7.3505,0.84988 4.3048,-0.14926 5.4473,-0.35134 9.0346,-1.59796 l 0,0 z m 206.5655,-8.32167 c 5.4177,-1.821 6.7093,-4.39603 3.6347,-7.2462 -1.6333,-1.51402 -3.9075,-2.58402 -14.7227,-6.92697 -5.1949,-2.08607 -10.131,-4.13973 -10.969,-4.56368 -1.8374,-0.92955 -2.3777,-0.96663 -2.3777,-0.16317 0,0.81823 1.4957,1.52981 12.5254,5.95885 10.5384,4.23182 12.6486,5.21914 14.5201,6.79393 1.63,1.37157 1.6219,1.95934 -0.044,3.18505 -2.7957,2.05681 -6.6392,2.76034 -12.5153,2.29085 -6.3999,-0.51135 -14.5116,-3.02076 -28.5894,-8.84432 -5.6437,-2.33464 -7.459,-2.9285 -7.7101,-2.52224 -0.1806,0.29225 -0.1975,0.65486 -0.038,0.80579 0.3838,0.36202 14.8784,6.24675 19.5923,7.95433 4.333,1.56964 10.884,3.33634 14.3733,3.87627 3.4591,0.53524 9.8742,0.22361 12.32,-0.59849 l 0,0 z m -223.8135,-1.30048 c 12.2805,-2.32523 34.9736,-9.62799 34.418,-11.07589 -0.3007,-0.78362 -0.4483,-0.75279 -4.9444,1.03295 -7.8113,3.10249 -22.5892,7.33082 -31.1162,8.90314 -5.008,0.92344 -9.658,0.67232 -12.3343,-0.66609 -1.1012,-0.55071 -2.062,-1.20184 -2.135,-1.44696 -0.4611,-1.54783 6.0079,-5.08251 16.1119,-8.80356 4.5049,-1.65903 11.238,-4.74658 12.0217,-5.51275 0.062,-0.0604 0,-0.39054 -0.1271,-0.73365 -0.1948,-0.50788 -1.0172,-0.23212 -4.4243,1.48352 -2.3017,1.15905 -6.2177,2.81845 -8.7023,3.68756 -5.9692,2.0881 -13.2235,5.56514 -14.8866,7.13534 -3.0989,2.92566 -0.7064,5.76811 5.5756,6.62409 2.8619,0.38997 6.2262,0.18967 10.543,-0.6277 z"
           id="path4461" />
        <path
           style="fill:#f2f2f2;fill-opacity:1;stroke:#525252;stroke-width:0.84396905;stroke-linecap:round;stroke-linejoin:miter;stroke-miterlimit:4;stroke-opacity:0.77828058;stroke-dasharray:none;stroke-dashoffset:0"
           d="m 1234.7842,418.73664 c -1.0113,-2.63556 4.5252,-5.89481 11.8677,-6.98623 4.6199,-0.68672 7.2736,-0.0551 7.2736,1.73126 0,1.09334 -3.147,3.67621 -5.6241,4.61587 -3.3321,1.26405 -13.1001,1.72589 -13.5172,0.6391 z"
           id="path4463" />
        <path
           style="fill:#f2f2f2;fill-opacity:1;stroke:#525252;stroke-width:0.84396905;stroke-linecap:round;stroke-linejoin:miter;stroke-miterlimit:4;stroke-opacity:0.77828058;stroke-dasharray:none;stroke-dashoffset:0"
           d="m 1320.2482,419.69431 c -4.9341,-0.65846 -7.1855,-1.66947 -8.2343,-3.69777 -1.5949,-3.08403 0.3932,-4.19796 6.499,-3.64145 4.6632,0.42503 9.1601,2.47345 10.9971,5.00934 0.8723,1.20414 1.1002,1.82165 0.7878,2.13422 -0.5718,0.57207 -6.3815,0.68518 -10.0496,0.19566 z"
           id="path4465" />
        <path
           style="fill:#f2f2f2;fill-opacity:1;stroke:#525252;stroke-width:0.84396905;stroke-linecap:round;stroke-linejoin:miter;stroke-miterlimit:4;stroke-opacity:0.77828058;stroke-dasharray:none;stroke-dashoffset:0"
           d="m 1273.473,398.55196 c -15.2493,-2.37083 -26.6652,-10.42462 -31.9706,-22.55485 -1.4865,-3.3987 -3.1353,-9.23778 -3.6732,-13.00835 -0.5812,-4.07376 -0.7087,-4.26912 -2.4009,-3.67921 -1.8424,0.64227 -4.3137,0.58376 -5.7036,-0.13504 -2.7318,-1.41266 -4.8421,-5.67629 -5.2566,-10.62054 -0.2186,-2.60789 -0.2954,-2.78641 -1.0969,-2.55083 -2.8143,0.82723 -9.1375,1.15446 -13.6897,0.70846 -7.9232,-0.77627 -11.2135,-3.03184 -9.3825,-6.43186 0.6236,-1.15795 1.7962,-1.92832 6.9017,-4.53411 9.2147,-4.70313 11.8989,-5.46057 16.1864,-4.56759 2.8278,0.58896 5.4501,2.19756 10.7326,6.58362 4.373,3.63088 6.9377,6.67225 8.9543,10.61833 2.3275,4.55446 2.732,6.6646 2.6797,13.97734 -0.076,10.68887 1.3044,14.79683 6.6913,19.90709 5.6727,5.38135 13.49,8.40606 26.3258,10.18614 6.9653,0.96594 13.6422,0.971 17.248,0.0131 10.0816,-2.67825 20.0156,-9.64527 22.434,-15.73365 0.8793,-2.21341 0.946,-2.99215 0.9774,-11.41021 0.032,-8.61563 0.082,-9.15955 1.0647,-11.72706 2.5119,-6.56032 6.3654,-11.48418 13.3221,-17.02248 5.4393,-4.33023 5.8754,-4.52085 10.2499,-4.47976 2.8453,0.0267 4.4994,0.29496 7.1866,1.16541 3.5409,1.14696 12.6772,5.65781 13.2349,6.53445 0.5951,0.93549 0.3093,3.77197 -0.5167,5.1267 -0.5164,0.84704 -1.5647,1.69046 -2.7704,2.22909 -2.6911,1.20213 -9.4514,1.44782 -15.4015,0.55974 -2.4349,-0.36342 -4.5749,-0.66076 -4.7554,-0.66076 -0.1806,0 -0.1492,0.98838 0.07,2.19641 0.5231,2.88583 0.1452,4.67782 -1.3753,6.52248 -1.7116,2.0765 -6.0526,4.1603 -9.2128,4.42245 l -2.4752,0.20533 -0.4842,3.08 c -1.6799,10.68745 -3.2164,14.95633 -7.3902,20.53335 -3.9248,5.24423 -12.4705,10.81397 -20.051,13.06837 -7.2057,2.14294 -18.3886,2.76329 -26.6525,1.47848 l 0,0 z"
           id="path4469" />
      </g>
      <path
         d="m 414.5348,337.7988 c -4.788,0.364 -8.36,-0.699 -12.974,1.181 -4.562,1.859 -7.758,5.982 -11.211,9.437 2.995,-4.342 5.145,-9.909 9.418,-13.108 6.249,-4.679 11.846,3.865 14.767,2.49"
         id="path3982" />
      <path
         d="m 270.5988,337.2078 c 4.677,0.377 8.987,-1.511 13.567,0.59 4.137,1.897 8.006,6.439 10.618,10.03 -1.695,-4.085 -5.679,-11.04 -9.437,-13.57 -5.25,-3.533 -9.974,0.224 -14.748,2.95"
         id="path4012" />
      <path
         d="m 357.3178,344.8788 c 2.229,6.339 -5.438,13.634 -10.623,15.926 5.182,-0.476 16.92,-11.865 10.623,-15.926"
         id="path4044" />
      <g
         style="fill:#333333;stroke:#363636;stroke-opacity:1"
         transform="translate(-940,0)"
         id="g4372">
        <path
           style="fill:#333333;fill-opacity:1;stroke:#363636;stroke-width:1.05109406;stroke-linecap:round;stroke-linejoin:miter;stroke-miterlimit:4;stroke-opacity:1;stroke-dasharray:none;stroke-dashoffset:0"
           d="m 1282.6526,664.35055 c -2.6724,-1.70901 -6.5077,-3.87077 -8.5229,-4.80392 -4.5,-2.08372 -5.5314,-3.46669 -5.5081,-7.38539 0.017,-2.78036 1.3986,-7.93741 2.2718,-8.47706 0.2406,-0.1487 1.9089,0.82961 3.7074,2.17401 1.7985,1.3444 5.9874,3.91946 9.3086,5.72236 5.5778,3.02782 6.1159,3.45267 7.0511,5.56676 1.3579,3.06985 1.0634,7.23423 -0.6399,9.04728 -0.6586,0.70109 -1.5601,1.27212 -2.0034,1.26897 -0.4432,-0.003 -2.9923,-1.40401 -5.6646,-3.11301 z"
           id="path4344" />
        <path
           style="fill:#333333;fill-opacity:1;stroke:#363636;stroke-width:1.05109406;stroke-linecap:round;stroke-linejoin:miter;stroke-miterlimit:4;stroke-opacity:1;stroke-dasharray:none;stroke-dashoffset:0"
           d="m 1283.4197,649.43753 c -3.0943,-1.75719 -6.4315,-3.76005 -7.416,-4.45079 -3.6493,-2.56029 -8.323,-7.52094 -10.1349,-10.75714 -2.5992,-4.64252 -2.5907,-7.602 0.037,-12.83475 1.0474,-2.08567 2.7169,-4.8888 3.71,-6.2292 1.7875,-2.41254 1.8204,-2.42949 3.2627,-1.68364 1.4555,0.75267 1.4574,0.76026 1.8246,7.39972 0.2021,3.65545 0.2228,6.88047 0.046,7.16672 -0.486,0.78629 0.9854,3.27696 2.96,5.01073 0.9668,0.84885 3.648,2.55051 5.9583,3.78146 2.3199,1.23612 5.0937,3.20723 6.1958,4.40283 1.6688,1.81037 1.9958,2.52242 1.9979,4.34982 0,2.49046 -1.4701,7.04508 -2.2772,7.04151 -0.2961,-0.001 -3.07,-1.44008 -6.1643,-3.19727 z"
           id="path4346" />
        <path
           style="fill:#333333;fill-opacity:1;stroke:#363636;stroke-width:1.05109406;stroke-linecap:round;stroke-linejoin:miter;stroke-miterlimit:4;stroke-opacity:1;stroke-dasharray:none;stroke-dashoffset:0"
           d="m 1287.5192,627.83624 c 0.3099,-6.61198 0.2451,-8.1158 -0.3919,-9.08797 -0.7609,-1.16122 -1.8641,-1.73524 -10.1007,-5.25551 -7.836,-3.34905 -12.9596,-7.21279 -15.0322,-11.33605 -1.7781,-3.53728 -0.5492,-14.10415 2.2882,-19.67491 1.2314,-2.41769 3.048,-5.03549 4.9623,-7.15093 1.1936,-1.31891 1.2672,-1.33279 2.7115,-0.51145 1.9502,1.10901 2.1851,2.54396 1.8806,11.48956 -0.1384,4.06632 -0.03,7.87944 0.2472,8.67497 0.7237,2.0787 4.1697,4.19343 10.7109,6.57316 6.7323,2.44923 10.5579,4.85714 13.5629,8.53675 3.0264,3.70589 3.5118,5.87413 2.4712,11.03846 -0.8854,4.39425 -2.3464,7.3769 -4.7054,9.60596 -1.7848,1.68653 -7.2654,5.02099 -8.2526,5.02099 -0.6082,0 -0.6642,-1.26012 -0.352,-7.92303 z"
           id="path4348" />
        <path
           style="fill:#333333;fill-opacity:1;stroke:#363636;stroke-width:1.05109406;stroke-linecap:round;stroke-linejoin:miter;stroke-miterlimit:4;stroke-opacity:1;stroke-dasharray:none;stroke-dashoffset:0"
           d="m 1294.1602,603.77405 c -0.8439,-0.69372 -2.5022,-1.6334 -3.6852,-2.08817 l -2.1508,-0.82686 0.076,-6.50814 c 0.072,-6.13958 0,-6.67077 -1.3287,-9.37987 -1.6169,-3.30488 -4.4446,-5.57195 -14.1368,-11.33424 -11.6048,-6.89932 -13.6018,-8.1479 -16.9839,-10.61893 -12.7169,-9.29127 -14.9892,-19.82554 -6.573,-30.47277 1.149,-1.45368 3.2423,-3.55455 4.6517,-4.66861 l 2.5625,-2.02556 2.1618,0.77339 c 2.5413,0.90917 10.861,2.73343 12.5186,2.74498 0.9254,0.006 1.1508,0.29675 1.1508,1.48235 0,1.27566 -0.3715,1.65611 -2.757,2.82322 -3.7263,1.82311 -5.2959,3.13314 -7.03,5.86764 -1.7342,2.73457 -1.8973,5.46065 -0.5086,8.50279 1.2953,2.83746 7.2201,8.20602 12.3733,11.21171 9.1631,5.34448 11.9668,7.19303 15.6255,10.30232 8.729,7.41831 11.5135,12.48308 11.5135,20.94242 0,4.58877 -2.0936,10.88115 -4.5501,13.6754 -0.994,1.13066 -1.0783,1.11907 -2.9299,-0.40307 z"
           id="path4350" />
        <path
           style="fill:#333333;fill-opacity:1;stroke:#363636;stroke-width:1.05109406;stroke-linecap:round;stroke-linejoin:miter;stroke-miterlimit:4;stroke-opacity:1;stroke-dasharray:none;stroke-dashoffset:0"
           d="m 1292.498,569.46354 c -3.0581,-2.72417 -3.1964,-2.95073 -3.1923,-5.22832 l 0,-2.38074 3.3728,-1.79009 c 3.789,-2.01095 8.7878,-6.29683 10.4148,-8.92939 0.5934,-0.9601 1.2907,-3.04714 1.5496,-4.63786 0.4039,-2.48175 0.3213,-3.21015 -0.5822,-5.13226 -2.5667,-5.4608 -9.8522,-9.29354 -22.1794,-11.66815 -2.2504,-0.4335 -7.0836,-1.27804 -10.7405,-1.87677 -15.3206,-2.50838 -27.3432,-8.25151 -34.9972,-16.71807 -3.9317,-4.34904 -7.7896,-11.82569 -8.1128,-15.72251 -0.5283,-6.37148 3.4268,-13.53936 10.4324,-18.90643 2.29,-1.75437 2.6969,-1.88945 4.8035,-1.59438 6.7076,0.93958 21.1922,2.31533 24.452,2.32245 4.5093,0.01 4.4739,0.76106 -0.056,1.18405 -4.8879,0.45644 -9.8604,1.80845 -14.4228,3.92148 -5.8986,2.73188 -8.8876,6.15823 -9.6366,11.04673 -0.2632,1.71778 -0.011,2.72119 1.4517,5.77308 4.5971,9.59262 13.1691,14.59779 30.8303,18.00181 4.4229,0.85248 10.9432,2.11854 14.4894,2.81346 17.9981,3.52693 26.3687,9.26931 29.9498,20.54606 1.0581,3.33201 1.1431,4.17922 0.6976,6.95453 -1.2242,7.62731 -6.177,13.67802 -15.1027,18.45079 -3.0943,1.65458 -6.5703,3.78185 -7.7244,4.72728 -1.1542,0.94542 -2.1899,1.71262 -2.3016,1.70489 -0.1117,-0.008 -1.6415,-1.29547 -3.3996,-2.86164 z"
           id="path4352" />
        <path
           style="fill:#333333;fill-opacity:1;stroke:#363636;stroke-width:1.05109406;stroke-linecap:round;stroke-linejoin:miter;stroke-miterlimit:4;stroke-opacity:1;stroke-dasharray:none;stroke-dashoffset:0"
           d="m 1304.9007,522.38675 c -1.6878,-0.7274 -5.6004,-1.96079 -8.6947,-2.74086 -4.7672,-1.20182 -5.6509,-1.58226 -5.7894,-2.49234 -0.1126,-0.74004 0.1116,-1.07402 0.7211,-1.07402 1.9602,0 13.5199,-3.79078 17.5321,-5.74931 10.0363,-4.89914 14.6386,-12.64943 12.082,-20.34649 -3.1162,-9.38204 -15.5816,-13.1632 -46.2825,-14.03902 -28.8928,-0.82424 -52.4507,-5.75789 -61.0802,-12.79185 -4.3817,-3.5715 -5.7524,-6.31843 -6.275,-12.57493 -1.2714,-15.22113 14.4183,-29.16831 32.8322,-29.18586 10.6923,-0.0102 21.7372,3.51617 23.6632,7.55503 0.7799,1.63543 0.7687,1.80376 -0.2091,3.13066 -1.9772,2.68302 -4.7219,3.16633 -17.8281,3.13939 -9.6292,-0.0198 -12.2738,0.13224 -14.5764,0.838 -4.3683,1.33889 -6.5308,2.641 -8.1901,4.93158 -3.8386,5.29912 -0.5827,14.11742 6.5575,17.76007 3.2442,1.65504 7.1309,2.53241 16.9762,3.83212 11.1067,1.46623 12.9547,1.61634 32.4772,2.63788 20.1705,1.05546 32.1536,2.89493 41.2464,6.33159 6.7112,2.53651 12.6256,7.80104 15.4245,13.72981 1.4387,3.0474 1.6202,3.93331 1.5953,7.786 -0.02,3.14078 -0.3379,5.19347 -1.1444,7.39604 -3.3817,9.23608 -12.6572,17.80766 -23.8145,22.00725 -1.8759,0.7061 -3.5781,1.27437 -3.7827,1.26282 -0.2045,-0.0116 -1.7528,-0.61616 -3.4406,-1.34356 l 0,0 z m -57.7941,-97.33865 c 0,-0.99221 -1.6268,-1.29059 -2.606,-0.47797 -0.6158,0.51111 -0.6362,0.72139 -0.1033,1.06806 0.9961,0.64802 2.7093,0.27488 2.7093,-0.59009 z"
           id="path4354" />
        <path
           style="fill:#333333;fill-opacity:1;stroke:#363636;stroke-width:1.05109406;stroke-linecap:round;stroke-linejoin:miter;stroke-miterlimit:4;stroke-opacity:1;stroke-dasharray:none;stroke-dashoffset:0"
           d="m 1324.8473,472.07301 c -3.4673,-2.03992 -9.132,-3.86894 -16.4247,-5.30324 -5.1271,-1.00838 -5.7988,-1.24441 -4.2891,-1.5071 3.938,-0.68521 13.3648,-1.87697 18.9238,-2.39238 9.7508,-0.90408 13.6914,-2.53951 17.5936,-7.30165 5.9718,-7.28776 4.7802,-14.85102 -2.8857,-18.31598 -2.5637,-1.15881 -3.1409,-1.20994 -12.4064,-1.09909 -10.8306,0.12957 -16.705,-0.45207 -20.337,-2.01363 -7.6993,-3.31025 1.0142,-10.38776 14.9384,-12.1337 4.693,-0.58847 9.3478,0.0741 16.6127,2.36456 8.584,2.70637 13.5903,6.15717 17.5743,12.1137 6.3232,9.45405 6.5789,17.04539 0.8013,23.79521 -2.2573,2.63708 -7.0146,6.05509 -11.6917,8.40019 -3.4723,1.74097 -13.3429,4.97563 -15.0237,4.92336 -0.4557,-0.0142 -1.9793,-0.70279 -3.3858,-1.53025 z m -1.2786,-45.44284 c 0,-0.55403 -1.2628,-1.07762 -2.5991,-1.07762 -0.9827,0 -1.2797,0.55376 -0.6401,1.19339 0.5093,0.50927 3.2392,0.41171 3.2392,-0.11577 z"
           id="path4356" />
      </g>
      <path
         sodipodi:nodetypes="ccccccccccccccc"
         id="path4407"
         d="m 416.25673,491.53434 c -3.48784,0.28682 1.9267,-4.35006 2.52539,-6.00317 -9.09322,7.73985 -6.80971,10.90783 -21.36327,16.55872 l -0.53643,-0.9345 c -21.17562,12.79581 -49.53711,7.29904 -69.64405,-9.39571 -13.0124,-6.88477 -12.32413,2.95424 -7.58675,8.34278 5.53905,4.26545 11.74315,8.32614 18.52609,12.48678 4.82057,2.57231 1.63285,3.37462 2.47662,5.62594 -9.99537,-3.46766 -19.42108,-9.2979 -27.46141,-16.80041 4.39248,5.17559 9.06582,10.16511 14.82408,13.86765 -9.31085,-2.10046 -23.271,-19.59364 -26.84809,-19.99207 18.38126,26.12971 67.91662,42.11133 91.64853,29.15088 -11.43745,1.62064 -26.03777,2.94763 -39.42526,-0.47615 -5.72079,-2.22319 -13.67561,-7.22517 -12.4711,-8.43945 35.16669,9.11539 69.80639,2.4045 96.64827,-24.11692"
         i:knockout="Off"
         style="fill:#d70751;fill-opacity:1" />
      <path
         style="fill:#d70751"
         d="m 333.49247,662.10786 c 6.67402,1.63591 15.05017,1.69722 23.63115,1.24778 -0.0675,-0.89031 -0.16787,-1.81571 -0.28469,-2.73522 -0.0194,-0.18669 -0.0657,-0.37 -0.0891,-0.55627 -4.43237,-0.25746 -9.00718,-0.68856 -16.88559,-2.54685 l -20.44338,-11.06806 c -0.13305,5.48138 3.18898,10.95906 14.07158,15.65862 z m 24.0161,-1.99701 c 0.21859,0.0948 0.44148,0.17878 0.65723,0.2772 0.59235,0.27013 1.17522,0.56227 1.75406,0.85425 1.10377,0.55672 2.17633,1.1382 3.2907,1.73113 1.26365,-0.0921 2.48542,-0.19545 3.73955,-0.29502 -0.0178,-0.17076 -0.004,-0.32865 -0.0209,-0.50052 -0.0488,-0.46875 -0.0966,-0.92828 -0.14558,-1.3987 -3.63765,-0.38834 -6.47081,-0.51521 -9.27533,-0.66836 l 3e-4,2e-5 z m 15.29538,1.45561 c -0.0534,0.23037 -0.10928,0.46274 -0.18072,0.67861 0.91354,-0.0731 1.87685,-0.15775 2.77273,-0.22576 -0.91579,-0.16195 -1.75926,-0.32075 -2.59201,-0.45285 z"
         id="path4457"
         sodipodi:nodetypes="ccscccccssccsccccccc" />
    </g>
    <g
       id="g10568"
       transform="matrix(0.52940251,0,0,0.52940251,276.18639,381.61239)"
       style="filter:url(#filter10749)">
      <path
         class="st1"
         d="m 310.52883,94.606543 c 0.29987,-15.110423 3.60605,-28.796612 17.12526,-28.796612 15.02237,0 16.2241,15.682434 15.92426,28.796612 l -33.04952,0 z m 52.27766,1.995511 c 0,-21.666737 -4.50641,-42.766603 -33.05029,-42.766603 -39.65804,0 -39.65804,41.62696 -39.65804,50.464079 0,37.0632 17.72574,51.88906 47.17,51.88906 13.21934,0 19.52877,-1.99334 23.13325,-2.85209 -0.29906,-6.55634 0.90178,-10.83484 1.80302,-16.53313 -3.90435,2.56616 -9.01356,5.69829 -20.72974,5.69829 -30.04397,0 -30.64678,-26.22835 -30.64678,-35.06474 l 51.37652,0 0.60192,-10.834866 z"
         id="path3777"
         style="fill:#000000"
         inkscape:export-filename="/home/alrferreira/Desktop/debian-gnu-banner.png"
         inkscape:export-xdpi="64.494591"
         inkscape:export-ydpi="64.494591" />
      <path
         class="st1"
         d="m 425.59856,104.29951 c 0,17.10593 -3.30464,40.20204 -25.53757,40.20204 -3.30463,0 -7.20977,-0.57364 -9.61328,-1.14048 -0.29987,-6.55781 -0.29987,-17.96398 -0.29987,-31.3627 0,-15.681695 1.50071,-23.94825 3.00401,-27.940006 4.20574,-13.117115 13.21934,-13.117115 15.02236,-13.117115 14.41953,0 17.42432,19.104355 17.42432,33.358181 z m -55.58151,19.95655 c 0,13.68695 0,21.38367 -2.1029,27.37017 7.81183,2.84992 17.72574,4.5616 29.44347,4.5616 7.51041,0 29.44192,0 41.16122,-23.09315 5.70969,-10.54883 7.51041,-24.80488 7.51041,-35.637519 0,-6.559305 -0.59974,-21.099866 -6.30867,-30.222315 -5.40751,-8.836363 -14.12202,-13.114151 -23.43467,-13.114151 -18.62687,0 -24.03519,14.540588 -26.73933,22.2366 0,-9.408454 0,-42.193886 1.80303,-58.72849 -12.61886,5.415964 -20.42993,6.27107 -28.84223,7.126911 7.51041,2.851351 7.51041,15.110423 7.51041,54.454399 l 0,45.045945 -7.7e-4,0 z"
         id="path3779"
         style="fill:#000000"
         inkscape:export-filename="/home/alrferreira/Desktop/debian-gnu-banner.png"
         inkscape:export-xdpi="64.494591"
         inkscape:export-ydpi="64.494591" />
      <path
         class="st1"
         d="m 483.28452,155.04818 c -3.90666,-0.57201 -6.61082,-0.85285 -12.31975,-0.85285 -6.00725,0 -10.21379,0.28084 -14.7194,0.85285 1.8014,-3.42195 2.70346,-5.12993 3.30461,-17.10517 0.60056,-16.2523 0.89961,-59.8733 -0.30204,-69.281727 -1.20112,-6.843108 -2.70264,-7.982751 -5.40678,-9.692257 15.62363,-1.426492 20.12927,-2.565347 27.63968,-5.987241 -1.8014,7.982752 -1.8014,12.260513 -1.8014,24.518824 -0.3015,63.293751 -0.60056,70.134661 3.60524,77.547571 z"
         id="path3781"
         style="fill:#000000"
         inkscape:export-filename="/home/alrferreira/Desktop/debian-gnu-banner.png"
         inkscape:export-xdpi="64.494591"
         inkscape:export-ydpi="64.494591" />
      <path
         class="st1"
         d="m 545.1747,103.15913 c -0.29824,11.40467 -0.59974,19.67199 -3.90356,25.94526 -3.90748,8.26582 -10.81818,10.54883 -15.9235,10.54883 -11.41713,0 -13.82297,-9.12242 -13.82297,-17.96177 0,-17.39194 16.22571,-18.53232 23.43625,-18.53232 l 10.21378,0 0,0 z m -53.17877,22.52334 c 0,11.40394 3.60603,23.09538 14.42341,27.94077 5.10457,1.99551 9.91239,1.99551 11.41476,1.99551 17.72653,0 23.73454,-12.25831 27.33984,-19.95726 -0.29824,7.98278 0,12.83038 0.60055,19.38672 3.60685,-0.28601 6.9107,-0.57201 12.92029,-0.57201 3.00552,0 6.31016,0.286 9.61328,0.57201 -2.1029,-3.13738 -3.30312,-4.84686 -3.90436,-12.26054 -0.3015,-6.84237 -0.3015,-13.68325 -0.3015,-23.66225 l 0,-37.349932 c 0,-13.967082 -3.90435,-27.654032 -32.7481,-27.654032 -19.22659,0 -30.34539,5.418166 -36.05198,8.269518 2.40277,3.991756 4.20653,7.410741 6.00725,15.393492 7.51038,-6.27107 17.42665,-9.692991 27.34135,-9.692991 16.2249,0 16.2249,10.265029 16.2249,24.519584 -3.60606,-0.28682 -6.91301,-0.572826 -12.01915,-0.572826 -24.63565,0 -40.86054,9.127557 -40.86054,33.644207 z"
         id="path3783"
         style="fill:#000000"
         inkscape:export-filename="/home/alrferreira/Desktop/debian-gnu-banner.png"
         inkscape:export-xdpi="64.494591"
         inkscape:export-ydpi="64.494591" />
      <path
         class="st1"
         d="m 656.6415,136.80334 c 0,6.2718 0,12.82741 2.70264,18.24484 -4.20577,-0.286 -6.61161,-0.85285 -14.42344,-0.85285 -4.80624,0 -7.2082,0.28084 -10.81192,0.85285 0.59974,-2.28151 0.89717,-3.42195 1.50017,-6.55634 0.60273,-3.99102 0.90043,-18.24484 0.90043,-23.09538 l 0,-19.95802 c 0,-8.55038 0,-21.09766 -0.59974,-25.371751 -0.30069,-3.135888 -1.50316,-11.691438 -12.6181,-11.691438 -11.11799,0 -14.72326,7.699709 -15.92348,13.972954 -1.50315,6.557103 -1.50315,13.400211 -1.50315,40.482915 0,23.66298 0,25.66146 2.1029,32.21777 -3.30309,-0.28601 -7.50807,-0.85285 -13.21703,-0.85285 -4.80858,0 -7.81493,0.28084 -11.71773,0.85285 1.50316,-2.85132 2.1029,-4.56303 2.70264,-14.82583 0.30286,-9.97533 1.2003,-59.586535 -0.59974,-71.274277 -1.2003,-7.129113 -3.00634,-8.839353 -5.10843,-10.548859 15.62284,-0.85584 20.73206,-3.137356 25.53754,-5.703437 l 0,19.671254 c 2.40277,-5.698299 7.20823,-18.531583 26.43792,-18.531583 24.3358,0 24.3358,16.82504 24.63877,27.656968 l 0,55.310214 0,0 z"
         id="path3785"
         style="fill:#000000"
         inkscape:export-filename="/home/alrferreira/Desktop/debian-gnu-banner.png"
         inkscape:export-xdpi="64.494591"
         inkscape:export-ydpi="64.494591" />
      <path
         class="st0"
         d="m 484.7877,27.037259 -15.92271,15.11113 -15.92583,-15.11113 15.92583,-15.111157 15.92271,15.111157 z"
         id="path3787"
         style="fill:#d70751;fill-opacity:1"
         inkscape:export-filename="/home/alrferreira/Desktop/debian-gnu-banner.png"
         inkscape:export-xdpi="64.494591"
         inkscape:export-ydpi="64.494591" />
      <path
         id="text3769"
         d="m 283.61683,93.412363 c -8e-5,42.007307 -20.14833,63.010897 -60.44479,63.010897 -2.53762,0 -6.29318,-0.11418 -11.26676,-0.34255 -4.87217,-0.22837 -8.577,-0.34255 -11.11456,-0.34255 -0.91348,0 -5.37964,0.22837 -13.39833,0.68483 3.24806,-4.68018 4.87212,-23.68614 4.87214,-57.018004 -2e-5,-20.661098 -0.0516,-31.676591 -0.15224,-33.046507 -0.4059,-13.127146 -1.77639,-23.857259 -4.11086,-32.190313 4.66911,1.027389 10.15024,1.54122 16.44341,1.540948 3.14655,1.09e-4 7.81569,-0.228369 14.00738,-0.684835 6.29312,-0.570651 11.01296,-0.856113 14.15962,-0.856113 17.96585,1.09e-4 30.9582,4.79442 38.97698,14.382905 8.01861,9.58873 12.02796,24.542367 12.02804,44.86102 m -17.96594,0.342554 C 265.65081,61.792701 252.76,45.811702 226.97843,45.811593 c -3.85715,1.09e-4 -10.09954,0.570923 -18.72722,1.712225 -0.50757,13.127391 -0.76123,25.569729 -0.76123,37.327123 l 0,48.114299 c -2e-5,5.25092 1.5733,8.67542 4.71988,10.27351 2.03004,1.02739 5.6841,1.54095 10.96226,1.54095 14.92085,0 25.83235,-4.39477 32.73462,-13.18435 6.49607,-8.21876 9.74413,-20.83237 9.74424,-37.840787"
         style="font-size:5.93895483px;font-style:normal;font-variant:normal;font-weight:bold;font-stretch:normal;text-align:start;line-height:700%;writing-mode:lr-tb;text-anchor:start;fill:#000000;fill-opacity:1;stroke:none;font-family:LaudatioC;-inkscape-font-specification:LaudatioC Bold" />
    </g>
    <text
       xml:space="preserve"
       style="font-size:84.63179016px;font-style:normal;font-variant:normal;font-weight:bold;font-stretch:normal;text-align:start;line-height:125%;writing-mode:lr-tb;text-anchor:start;fill:#d70751;fill-opacity:1;stroke:none;filter:url(#filter10763);font-family:LaudatioC;-inkscape-font-specification:LaudatioC Bold"
       x="418.50784"
       y="548.07361"
       id="text10577"
       sodipodi:linespacing="125%"><tspan
         sodipodi:role="line"
         id="tspan10579"
         x="418.50784"
         y="548.07361">Med</tspan></text>
  </g>
</svg>
