<?xml version="1.0" encoding="UTF-8" standalone="no"?>
<!-- Created with Inkscape (http://www.inkscape.org/) -->

<svg
   xmlns:dc="http://purl.org/dc/elements/1.1/"
   xmlns:cc="http://creativecommons.org/ns#"
   xmlns:rdf="http://www.w3.org/1999/02/22-rdf-syntax-ns#"
   xmlns:svg="http://www.w3.org/2000/svg"
   xmlns="http://www.w3.org/2000/svg"
   xmlns:xlink="http://www.w3.org/1999/xlink"
   xmlns:sodipodi="http://sodipodi.sourceforge.net/DTD/sodipodi-0.dtd"
   xmlns:inkscape="http://www.inkscape.org/namespaces/inkscape"
   version="1.0"
   width="256"
   height="256"
   id="svg2"
   inkscape:version="0.47 r22583"
   sodipodi:docname="icon.svg">
  <metadata
     id="metadata2981">
    <rdf:RDF>
      <cc:Work
         rdf:about="">
        <dc:format>image/svg+xml</dc:format>
        <dc:type
           rdf:resource="http://purl.org/dc/dcmitype/StillImage" />
      </cc:Work>
    </rdf:RDF>
  </metadata>
  <sodipodi:namedview
     pagecolor="#ffffff"
     bordercolor="#666666"
     borderopacity="1"
     objecttolerance="10"
     gridtolerance="10"
     guidetolerance="10"
     inkscape:pageopacity="0"
     inkscape:pageshadow="2"
     inkscape:window-width="1857"
     inkscape:window-height="1179"
     id="namedview2979"
     showgrid="false"
     inkscape:zoom="1.3575898"
     inkscape:cx="149.9999"
     inkscape:cy="118.16996"
     inkscape:window-x="61"
     inkscape:window-y="19"
     inkscape:window-maximized="0"
     inkscape:current-layer="svg2"
     showguides="true"
     inkscape:guide-bbox="true" />
  <defs
     id="defs4" />
  <g
     style="opacity:0.75319148"
     id="g3504"
     transform="matrix(2.3258198,-6.3905532e-4,6.3905532e-4,2.3258198,-1332.2742,-1113.7565)">
    <path
       id="path3402"
       d="m 586.7443,568.51986 c -0.045,0.047 -0.045,7.506 -0.138,9.453 -0.092,1.574 -0.232,4.957 -3.568,4.957 -3.429,0 -4.263,-3.939 -4.541,-5.652 -0.324,-1.9 -0.324,-3.477 -0.324,-4.17 0,-2.225 0.139,-8.436 5.375,-8.436 1.576,0 2.456,0.465 3.151,0.834 l 0.045,3.014 z m -13.437,5.469 c 0,13.066 6.951,13.066 7.97,13.066 2.873,0 4.727,-1.576 5.514,-4.309 l 0.093,4.123 c 0.881,-0.047 1.761,-0.139 3.197,-0.139 0.51,0 0.926,0 1.298,0.047 0.371,0 0.741,0.045 1.158,0.092 -0.741,-1.482 -1.297,-4.818 -1.297,-12.049 0,-7.043 0,-18.951 0.602,-22.566 -1.667,0.789 -3.105,1.299 -6.256,1.576 1.251,1.344 1.251,2.039 1.251,8.154 -0.879,-0.277 -1.992,-0.602 -3.892,-0.602 -8.294,0.001 -9.638,7.23 -9.638,12.607" />
    <path
       id="path3404"
       d="m 598.4373,571.62286 c 0.047,-3.846 0.835,-7.275 4.124,-7.275 3.615,0 3.891,3.984 3.799,7.275 l -7.923,0 z m 12.51,0.465 c 0,-5.422 -1.065,-10.752 -7.923,-10.752 -9.452,0 -9.452,10.475 -9.452,12.697 0,9.406 4.216,13.113 11.306,13.113 3.149,0 4.68,-0.461 5.514,-0.695 -0.046,-1.668 0.185,-2.734 0.465,-4.17 -0.975,0.604 -2.226,1.391 -5.006,1.391 -7.229,0 -7.322,-6.582 -7.322,-8.852 l 12.328,0 0.09,-2.732" />
    <path
       id="path3406"
       d="m 626.0223,574.07986 c 0,4.309 -0.787,10.102 -6.162,10.102 -0.742,0 -1.668,-0.141 -2.27,-0.279 -0.093,-1.668 -0.093,-4.541 -0.093,-7.877 0,-3.986 0.416,-6.068 0.742,-7.09 0.972,-3.289 3.15,-3.334 3.566,-3.334 3.522,0 4.217,4.865 4.217,8.478 z m -13.298,5.051 c 0,3.43 0,5.375 -0.556,6.857 1.9,0.742 4.262,1.158 7.09,1.158 1.807,0 7.043,0 9.869,-5.791 1.344,-2.688 1.807,-6.303 1.807,-9.037 0,-1.668 -0.186,-5.328 -1.529,-7.646 -1.296,-2.176 -3.382,-3.289 -5.605,-3.289 -4.449,0 -5.746,3.707 -6.44,5.607 0,-2.363 0.045,-10.611 0.415,-14.828 -3.011,1.391 -4.866,1.621 -6.857,1.807 1.807,0.74 1.807,3.801 1.807,13.764 l 0,11.398" />
    <path
       id="path3408"
       d="m 639.8423,586.86886 c -0.928,-0.139 -1.578,-0.232 -2.922,-0.232 -1.48,0 -2.502,0.094 -3.566,0.232 0.463,-0.881 0.648,-1.299 0.787,-4.309 0.186,-4.125 0.232,-15.154 -0.092,-17.471 -0.232,-1.762 -0.648,-2.039 -1.297,-2.502 3.799,-0.371 4.865,-0.648 6.625,-1.482 -0.369,2.037 -0.418,3.059 -0.418,6.162 -0.091,15.989 -0.138,17.702 0.883,19.602" />
    <path
       id="path3410"
       d="m 654.6803,573.75386 c -0.092,2.92 -0.139,4.959 -0.928,6.58 -0.973,2.086 -2.594,2.688 -3.799,2.688 -2.783,0 -3.383,-2.316 -3.383,-4.586 0,-4.355 3.893,-4.682 5.652,-4.682 l 2.458,0 z m -12.744,5.701 c 0,2.92 0.881,5.838 3.477,7.09 1.158,0.51 2.316,0.51 2.688,0.51 4.264,0 5.699,-3.152 6.58,-5.098 -0.047,2.039 0,3.289 0.139,4.912 0.834,-0.047 1.668,-0.139 3.059,-0.139 0.787,0 1.529,0.092 2.316,0.139 -0.51,-0.787 -0.787,-1.252 -0.928,-3.059 -0.092,-1.76 -0.092,-3.521 -0.092,-5.977 l 0.047,-9.453 c 0,-3.523 -0.928,-6.998 -7.879,-6.998 -4.586,0 -7.273,1.391 -8.617,2.086 0.557,1.02 1.02,1.898 1.436,3.893 1.809,-1.576 4.172,-2.41 6.58,-2.41 3.848,0 3.848,2.549 3.848,6.162 -0.881,-0.045 -1.623,-0.137 -2.875,-0.137 -5.887,10e-4 -9.779,2.268 -9.779,8.479" />
    <path
       id="path3412"
       d="m 681.3703,582.28186 c 0.047,1.576 0.047,3.244 0.695,4.588 -1.021,-0.092 -1.623,-0.232 -3.521,-0.232 -1.113,0 -1.715,0.094 -2.596,0.232 0.184,-0.602 0.279,-0.834 0.371,-1.623 0.139,-1.064 0.232,-4.633 0.232,-5.885 l 0,-5.004 c 0,-2.178 0,-5.33 -0.141,-6.441 -0.092,-0.787 -0.322,-2.918 -3.012,-2.918 -2.641,0 -3.521,1.945 -3.846,3.521 -0.369,1.621 -0.369,3.383 -0.369,10.24 0.045,5.932 0.045,6.486 0.508,8.109 -0.787,-0.092 -1.76,-0.184 -3.15,-0.184 -1.113,0 -1.854,0.045 -2.779,0.184 0.324,-0.742 0.51,-1.113 0.602,-3.707 0.094,-2.549 0.279,-15.061 -0.141,-18.025 -0.23,-1.809 -0.695,-2.225 -1.203,-2.688 3.754,-0.186 4.957,-0.789 6.117,-1.389 l 0,4.91 c 0.555,-1.438 1.713,-4.635 6.348,-4.635 5.793,0 5.838,4.217 5.885,6.996 l 0,13.951" />
    <path
       style="fill:#d70751"
       id="path3414"
       d="m 640.2333,554.54686 -3.838,3.836 -3.836,-3.836 3.836,-3.836 3.838,3.836" />
  </g>
  <g
     id="layer3"
     style="display:none"
     transform="translate(0,-146.87399)">
    <rect
       width="548.07941"
       height="31.793367"
       rx="0.70528102"
       ry="0.89940047"
       x="11.388664"
       y="365.11572"
       id="rect3255"
       style="fill:#000000;fill-opacity:0.05882353;fill-rule:nonzero;stroke:none" />
    <rect
       width="548.07941"
       height="31.793367"
       rx="0.70528102"
       ry="0.89940047"
       x="11.388723"
       y="333.32236"
       id="rect3257"
       style="fill:#000000;fill-opacity:0.21568627;fill-rule:nonzero;stroke:none" />
    <use
       transform="translate(0,-63.586745)"
       id="use3261"
       x="0"
       y="0"
       width="570.47241"
       height="402.87399"
       xlink:href="#rect3255" />
    <use
       transform="translate(0,-63.58674)"
       id="use3263"
       x="0"
       y="0"
       width="570.47241"
       height="402.87399"
       xlink:href="#rect3257" />
    <use
       transform="translate(0,-63.58674)"
       id="use3265"
       x="0"
       y="0"
       width="570.47241"
       height="402.87399"
       xlink:href="#use3261" />
    <use
       transform="translate(0,-63.58674)"
       id="use3267"
       x="0"
       y="0"
       width="570.47241"
       height="402.87399"
       xlink:href="#use3263" />
    <use
       transform="translate(0,-63.586752)"
       id="use3269"
       x="0"
       y="0"
       width="570.47241"
       height="402.87399"
       xlink:href="#use3265" />
    <use
       transform="translate(0,-63.586734)"
       id="use3271"
       x="0"
       y="0"
       width="570.47241"
       height="402.87399"
       xlink:href="#use3267" />
    <use
       transform="translate(0,-63.586729)"
       id="use3273"
       x="0"
       y="0"
       width="570.47241"
       height="402.87399"
       xlink:href="#use3269" />
    <use
       transform="translate(0,-63.586729)"
       id="use3275"
       x="0"
       y="0"
       width="570.47241"
       height="402.87399"
       xlink:href="#use3271" />
    <use
       transform="translate(0,-63.586733)"
       id="use3277"
       x="0"
       y="0"
       width="570.47241"
       height="402.87399"
       xlink:href="#use3273" />
    <use
       transform="translate(0,-63.586737)"
       id="use3279"
       x="0"
       y="0"
       width="570.47241"
       height="402.87399"
       xlink:href="#use3275" />
  </g>
  <g
     id="layer5"
     style="display:none"
     transform="translate(0,-146.87399)">
    <path
       d="M 144.4234,78.975388 C 266.02989,-77.854986 517.89394,31.598913 544.30928,206.19246 M 235.52123,47.182022 C 346.11429,-52.460919 514.87505,31.449949 544.30928,206.19246 M 332.17381,47.182022 C 422.50525,-23.52659 511.10143,30.082837 544.30928,206.19246 M 429.58867,66.478997 C 483.92989,13.647221 520.15812,42.230553 544.30928,206.19246"
       id="path3525"
       style="fill:none;stroke:#000000;stroke-width:2.65748024;stroke-linecap:butt;stroke-linejoin:miter;stroke-miterlimit:4;stroke-opacity:1;stroke-dasharray:none" />
    <path
       d="m 139.95489,62.706883 c -5.85467,2.570988 -7.09795,12.718367 -2.97518,22.983152 l -9.29976,4.083851 c -1.62417,0.713228 -2.35632,2.591831 -1.64308,4.216006 l 0.88109,2.006431 c 0.71323,1.62417 2.59184,2.356307 4.21601,1.643077 l 38.61807,-16.958534 c 1.62417,-0.713229 2.35631,-2.591833 1.64308,-4.216005 l -0.88109,-2.006431 c -0.71323,-1.62417 -2.59184,-2.356307 -4.21601,-1.643078 l -7.40014,3.249658 C 154.12984,66.083576 145.80956,60.135897 139.95489,62.706883 z"
       id="path3514"
       style="fill:#ffffff;fill-opacity:1;fill-rule:nonzero;stroke:#000000;stroke-width:3.77901149;stroke-linecap:butt;stroke-linejoin:round;stroke-miterlimit:4;stroke-opacity:1;stroke-dasharray:none;stroke-dashoffset:0" />
    <path
       d="m 232.97728,34.179007 c -6.25476,1.328559 -9.53269,11.012061 -7.58021,21.900167 l -9.93528,2.110333 c -1.73517,0.36856 -2.83354,2.059351 -2.46497,3.79452 l 0.45531,2.143545 c 0.36856,1.735162 2.05936,2.833521 3.79452,2.464959 l 41.25714,-8.763326 c 1.73516,-0.368561 2.83352,-2.059355 2.46496,-3.794519 l -0.4553,-2.143545 c -0.36857,-1.735162 -2.05937,-2.833521 -3.79453,-2.46496 l -7.90585,1.679261 C 246.17123,40.363753 239.23205,32.850451 232.97728,34.179007 z"
       id="path3519"
       style="fill:#ffffff;fill-opacity:1;fill-rule:nonzero;stroke:#000000;stroke-width:3.77901149;stroke-linecap:butt;stroke-linejoin:round;stroke-miterlimit:4;stroke-opacity:1;stroke-dasharray:none;stroke-dashoffset:0" />
    <path
       d="m 333.85888,26.48456 c -6.3721,-0.532394 -12.3043,7.793715 -13.57599,18.782155 l -10.12167,-0.845669 c -1.76772,-0.147698 -3.30717,1.154329 -3.45486,2.922052 l -0.18245,2.183759 c -0.1477,1.767713 1.15434,3.307158 2.92205,3.454851 l 42.03112,3.51174 c 1.76772,0.147694 3.30716,-1.15434 3.45486,-2.922055 l 0.18246,-2.183756 c 0.14768,-1.767716 -1.15436,-3.307161 -2.92207,-3.454855 l -8.05416,-0.672934 c 0.5694,-11.047125 -3.90718,-20.242889 -10.27929,-20.775288 z"
       id="path3521"
       style="fill:#ffffff;fill-opacity:1;fill-rule:nonzero;stroke:#000000;stroke-width:3.77901149;stroke-linecap:butt;stroke-linejoin:round;stroke-miterlimit:4;stroke-opacity:1;stroke-dasharray:none;stroke-dashoffset:0" />
    <path
       d="m 436.78602,52.620877 c -5.74315,-2.811278 -14.29516,2.790344 -19.47253,12.565713 l -9.12264,-4.46553 c -1.59323,-0.779895 -3.50056,-0.126207 -4.28044,1.467038 l -0.96344,1.968216 c -0.7799,1.593232 -0.1262,3.500553 1.46704,4.280441 l 37.88251,18.543527 c 1.59324,0.779892 3.50056,0.126194 4.28045,-1.46704 l 0.96345,-1.96821 c 0.77988,-1.593242 0.12617,-3.500563 -1.46706,-4.280452 l -7.25919,-3.553381 c 4.54441,-10.085216 3.71501,-20.279036 -2.02815,-23.090322 z"
       id="path3523"
       style="fill:#ffffff;fill-opacity:1;fill-rule:nonzero;stroke:#000000;stroke-width:3.77901149;stroke-linecap:butt;stroke-linejoin:round;stroke-miterlimit:4;stroke-opacity:1;stroke-dasharray:none;stroke-dashoffset:0" />
    <path
       d="m 544.30928,206.19246 c 11.2601,72.34335 23.16011,139.63781 -29.38309,159.0433 l -95.76795,31.92265"
       id="path3538"
       style="fill:none;stroke:#000000;stroke-width:2.65748024;stroke-linecap:butt;stroke-linejoin:miter;stroke-miterlimit:4;stroke-opacity:1;stroke-dasharray:none" />
  </g>
  <path
     d="m 131.57708,155.02684 c -6.65568,1.92166 -23.76224,8.99408 -30.15258,8.7809 l -2.881217,-2.57184 c -6.613649,-1.01982 -3.544564,1.16971 -8.73279,0.55397 -5.479387,-2.82907 -17.004785,-8.46999 -18.707187,-10.78205 -0.614222,-1.85026 3.027562,0.58738 4.161822,0.73828 -6.086013,-4.09802 -4.797819,3.53747 -10.217455,-3.71977 l 0.533204,-0.38585 c -16.503508,-11.54383 -1.866283,-38.77646 26.632829,-49.38031 -1.946472,0.2704 -1.61784,-0.23495 -2.525249,-0.47446 13.532363,-0.66539 9.197985,-2.63076 22.022503,-6.00259 6.27677,-2.07589 4.61142,-4.12724 6.56294,-4.71951 -7.29778,0.0115 -9.46705,-0.59487 -19.031838,2.80152 -28.313454,3.80129 -36.83205,15.74393 -45.198736,34.41264 -1.05476,2.86451 -1.962674,1.22996 -3.302519,1.91811 0.990958,-5.74624 3.566842,-11.43071 7.386868,-16.54146 -2.777418,2.90401 -5.4009,5.93968 -7.065326,9.42702 0.198496,-5.23583 9.695391,-14.57271 9.509555,-16.54197 -14.490171,12.6151 -18.628194,40.96755 -7.388387,52.41344 -2.450305,-5.99588 -5.102651,-13.72657 -4.558814,-21.29623 0.720053,-3.31366 2.946544,-8.11907 3.873701,-7.596 -1.506946,19.89715 0.993996,24.70357 21.314972,36.41987 5.067711,3.00984 12.820175,5.73105 13.351353,6.95342 -4.022572,-1.01931 -1.495299,0.72967 -4.96897,0.044 8.93483,2.00116 2.450812,-2.48625 14.453206,0.74689 l -2.717667,3.01136 c 5.966004,-2.38549 29.349472,-5.0991 38.961312,-8.35504 3.62457,0.91096 -12.70826,8.77431 -20.29768,8.76166 8.5986,0.50991 19.31179,-7.69829 25.90316,-8.68368 -1.89483,1.2249 -3.83927,2.70856 -5.93259,3.74407 6.87291,-3.50557 23.266,-5.59433 27.89014,-5.88549 0.12963,-0.90741 -4.18765,-1.64721 4.47121,-4.27271 3.84382,-0.91298 2.32625,0.38787 3.38354,0.46889 0.20558,-0.73727 2.54094,-3.13744 7.79905,-5.57053 1.58391,0.38737 -2.72273,2.81843 -2.55766,3.86003 4.23575,-1.77431 7.24813,-3.7385 10.66103,-4.65756 6.17109,-4.73756 -1.33377,-0.78284 1.88217,-4.16587 10.34961,-6.00449 3.58304,1.88469 8.92571,0.94589 -6.38224,6.72809 -17.93194,12.57509 -22.669,15.1206 5.97917,-2.54196 11.5568,-5.60801 16.81237,-8.96015 -0.20305,1.60771 12.16696,-5.59484 4.58109,0.85677 17.75826,-9.34195 55.51623,-18.0165 59.19752,-33.50573 -1.18946,2.07813 -2.67716,4.70313 -3.2929,4.05701 2.30599,-7.82842 3.09643,-6.75695 4.73756,-8.21174 0.67346,-6.06171 -2.28675,-5.7027 -3.36329,-9.32625 2.76426,-11.81909 -2.24956,-16.92985 -1.6004,-27.32504 l -2.22041,1.02995 c 0.24609,-7.42535 -3.83826,-7.60359 -5.45913,-15.14693 0.25014,-0.54637 2.33485,1.95711 3.55165,4.14714 -3.37341,-6.26223 -0.70588,-6.60808 -4.81757,-12.529012 1.87811,1.237052 3.35012,2.682722 5.06822,4.075742 -2.2989,-5.219119 -8.25529,-11.762889 -4.43172,-10.248349 -7.73119,-7.50282 -19.74473,-21.26636 -32.50616,-27.46023 l 2.06445,-0.82082 C 203.5884,22.655623 187.5523,12.198658 179.83477,13.003274 l -0.67448,-0.986401 C 174.26525,11.014774 169.07804,10.874511 164.21844,10.326117 157.77899,9.021718 160.68907,6.909159 159.96953,7.511734 145.26618,5.460952 133.56709,5.554629 123.9274,5.523741 120.72077,8.480964 106.57829,9.977737 95.210886,13.534452 37.01373,25.425501 -0.1784754,59.149548 1.626439,112.18433 c 2.0288948,7.6756 12.406173,13.67327 18.455449,18.63371 -5.304335,-7.94806 -2.055749,-4.60862 -8.150989,-11.75264 -3.6026675,-5.48003 -2.8891575,-7.81438 0.0275,-13.2882 l -2.9905975,2.63311 c 0.52105,-9.40879 2.6508255,-6.0683 2.7662775,-13.64657 1.168185,0.36965 2.336372,0.7398 3.504558,1.10996 -0.74132,-2.81945 -2.168765,-8.7014 0.312934,-10.68686 l -1.227937,-2.97946 c 4.007381,-4.96947 5.123411,-10.91421 8.147429,-11.52742 l -2.417897,-0.44813 c 1.85735,-1.67608 15.146927,-18.393749 13.31135,-11.006882 0.852214,-1.502387 1.093751,-3.273147 4.157265,-5.904737 l 2.217377,0.84462 c 3.575451,-4.23373 8.638605,-8.32415 10.704072,-8.63455 -2.02749,2.2913 -2.111547,3.54456 -2.157119,4.77756 19.972596,-13.48706 -1.67911,-8.45631 18.123853,-19.85562 0.186849,0.40053 0.373193,0.80107 0.560041,1.2016 1.362631,-1.3763 2.990597,-2.42144 4.525899,-3.63976 2.186995,-0.35952 4.373484,-0.71954 6.560479,-1.07957 5.626739,-7.482064 34.383077,-5.34725 48.282827,-8.004153 5.73156,-0.856265 13.0926,1.724177 23.44931,2.472079 l -0.29471,-1.984448 c 8.789,1.705947 37.50704,12.958922 39.18362,21.129642 7.07342,2.36473 -0.25116,-0.76461 0.91196,-1.87507 13.33414,5.75637 11.25399,9.16016 15.14794,14.3418 6.4982,4.99986 -3.56684,-4.80491 0.79702,-2.76071 6.99697,9.728817 9.97187,5.61712 16.54653,18.954299 -0.45827,1.70088 -2.72679,-2.97895 -4.43526,-3.86358 8.27604,7.47954 18.48296,31.31581 16.14558,45.39278 -2.8154,16.34803 -46.36905,26.81553 -68.29825,33.08535 l 0.0289,0.78183 c -8.94141,1.87457 -38.84536,16.09029 -49.13776,15.86749"
     id="path2490"
     style="fill:#d70751" />
</svg>
