<?xml version="1.0" encoding="UTF-8" standalone="no"?>
<!-- Created with Inkscape (http://www.inkscape.org/) -->

<svg
   xmlns:i="http://ns.adobe.com/AdobeIllustrator/10.0/"
   xmlns:dc="http://purl.org/dc/elements/1.1/"
   xmlns:cc="http://creativecommons.org/ns#"
   xmlns:rdf="http://www.w3.org/1999/02/22-rdf-syntax-ns#"
   xmlns:svg="http://www.w3.org/2000/svg"
   xmlns="http://www.w3.org/2000/svg"
   xmlns:xlink="http://www.w3.org/1999/xlink"
   xmlns:sodipodi="http://sodipodi.sourceforge.net/DTD/sodipodi-0.dtd"
   xmlns:inkscape="http://www.inkscape.org/namespaces/inkscape"
   inkscape:export-ydpi="18.728489"
   inkscape:export-xdpi="18.728489"
   inkscape:export-filename="/home/michael/hacking/neurodebian/sphinx/_static/machine.png"
   sodipodi:docname="machine.svg"
   inkscape:version="0.47 r22583"
   version="1.1"
   id="svg2"
   height="240.27565"
   width="241.22">
  <defs
     id="defs4">
    <linearGradient
       inkscape:collect="always"
       id="linearGradient3182">
      <stop
         style="stop-color:#ffffff;stop-opacity:1"
         offset="0"
         id="stop3184" />
      <stop
         style="stop-color:#ffffff;stop-opacity:0"
         offset="1"
         id="stop3186" />
    </linearGradient>
    <linearGradient
       id="linearGradient3157">
      <stop
         style="stop-color:#ffffff;stop-opacity:1"
         offset="0"
         id="stop3159" />
      <stop
         style="stop-color:#31494f;stop-opacity:1"
         offset="1"
         id="stop3161" />
    </linearGradient>
    <radialGradient
       inkscape:collect="always"
       xlink:href="#linearGradient3157"
       id="radialGradient3297"
       gradientUnits="userSpaceOnUse"
       gradientTransform="matrix(1.5951398,-0.2633269,0.1199966,0.7441248,23.784203,13.054503)"
       cx="271.95456"
       cy="227.65692"
       fx="271.95456"
       fy="227.65692"
       r="153.54318" />
    <linearGradient
       inkscape:collect="always"
       xlink:href="#linearGradient3182"
       id="linearGradient3299"
       gradientUnits="userSpaceOnUse"
       gradientTransform="matrix(1.0002415,0,0,1,196.38123,-91.428569)"
       x1="281.60837"
       y1="119.86061"
       x2="281.60837"
       y2="161.84015" />
    <linearGradient
       inkscape:collect="always"
       xlink:href="#linearGradient3182"
       id="linearGradient3301"
       gradientUnits="userSpaceOnUse"
       gradientTransform="matrix(1.0021732,0,0,1,193.14533,-94.285722)"
       x1="257.53381"
       y1="197.40852"
       x2="200.00002"
       y2="123.79076" />
  </defs>
  <sodipodi:namedview
     id="base"
     pagecolor="#ffffff"
     bordercolor="#666666"
     borderopacity="1.0"
     inkscape:pageopacity="0.0"
     inkscape:pageshadow="2"
     inkscape:zoom="0.68814077"
     inkscape:cx="120.61"
     inkscape:cy="120.13783"
     inkscape:document-units="px"
     inkscape:current-layer="layer1"
     showgrid="false"
     inkscape:window-width="1361"
     inkscape:window-height="1179"
     inkscape:window-x="61"
     inkscape:window-y="19"
     inkscape:window-maximized="0" />
  <metadata
     id="metadata7">
    <rdf:RDF>
      <cc:Work
         rdf:about="">
        <dc:format>image/svg+xml</dc:format>
        <dc:type
           rdf:resource="http://purl.org/dc/dcmitype/StillImage" />
        <dc:title></dc:title>
      </cc:Work>
    </rdf:RDF>
  </metadata>
  <g
     inkscape:label="Layer 1"
     inkscape:groupmode="layer"
     id="layer1"
     transform="translate(-210.10584,-400.79583)">
    <g
       id="g3240"
       transform="matrix(2.7112743,0,0,2.7112743,-845.76238,332.54413)"
       inkscape:export-filename="C:\Users\Anne Menini\Desktop\interface.png"
       inkscape:export-xdpi="200"
       inkscape:export-ydpi="200">
      <rect
         rx="12.121831"
         style="fill:#1a1a1a;fill-opacity:0.44705882;stroke:#000000;stroke-width:0.73766053;stroke-linecap:round;stroke-linejoin:round;stroke-miterlimit:4;stroke-opacity:1;stroke-dasharray:none;stroke-dashoffset:0"
         id="rect3165"
         width="88.266106"
         height="87.88327"
         x="389.91888"
         y="25.542122"
         ry="12.121831" />
      <path
         id="path3155"
         d="m 476.22748,52.879463 c -83.45204,0.48174 -33.78189,4.12964 -82.40158,28.1875 l 0,20.093747 c 0,2.48247 1.10767,4.69086 2.84375,6.1875 l 76.71408,0 c 1.73843,-1.49668 2.84375,-3.70309 2.84375,-6.1875 l 0,-48.281247 z"
         style="fill:url(#radialGradient3297);fill-opacity:1;fill-rule:evenodd;stroke:none"
         sodipodi:nodetypes="ccccccc" />
      <rect
         rx="8.1736317"
         ry="8.1736317"
         y="29.545734"
         x="393.83136"
         height="79.784973"
         width="80.311104"
         id="rect3194"
         style="opacity:0.6143791;fill:none;stroke:#ffffff;stroke-width:4.04099989;stroke-linecap:round;stroke-linejoin:round;stroke-miterlimit:4;stroke-opacity:1;stroke-dasharray:none;stroke-dashoffset:0" />
      <rect
         rx="8.1736317"
         style="opacity:0.6143791;fill:none;stroke:#ffffff;stroke-width:4.04099989;stroke-linecap:round;stroke-linejoin:round;stroke-miterlimit:4;stroke-opacity:1;stroke-dasharray:none;stroke-dashoffset:0"
         id="rect3196"
         width="80.311104"
         height="79.784973"
         x="393.83136"
         y="29.545734"
         ry="8.1736317" />
      <path
         id="rect3190"
         d="m 402.73214,30.959821 c -4.52819,0 -8.1875,3.65931 -8.1875,8.1875 l 0,63.437499 c 0,4.52819 3.65931,8.18749 8.1875,8.1875 l 64.19427,0 c 4.52819,0 8.15627,-3.6593 8.15625,-8.1875 l 0,-63.437499 c 0,-4.52819 -3.62806,-8.1875 -8.15625,-8.1875 l -64.19427,0 z"
         style="opacity:0.6143791;fill:url(#linearGradient3299);fill-opacity:1;stroke:none"
         sodipodi:nodetypes="ccccccccc" />
      <path
         id="rect3178"
         d="m 400.20536,28.107138 c -4.52819,0 -8.15625,3.65931 -8.15625,8.1875 l 0,63.437502 c 0,4.52819 3.62806,8.15625 8.15625,8.15625 l 67.25381,0 c 4.52819,0 8.15625,-3.62806 8.15625,-8.15625 l 0,-63.437502 c 0,-4.52819 -3.62804,-8.1875 -8.15625,-8.1875 l -67.25381,0 z"
         style="opacity:0.6143791;fill:url(#linearGradient3301);fill-opacity:1;stroke:none"
         sodipodi:nodetypes="ccccccccc" />
    </g>
    <g
       id="g7806"
       transform="translate(-460,0)">
      <path
         id="path7780"
         d="m 855.68,566.87685 c -0.8461,3.73404 -2.8589,4.96891 -5.7065,7.31922 -10.65783,8.79806 -20.5331,17.70312 -31.26124,26.54769 -9.06064,7.46964 -17.78737,15.03904 -27.04391,22.57795 -2.21282,1.80241 -4.41583,3.82967 -6.69895,5.70651 -1.2054,0.99089 -2.73127,2.49091 -4.46597,2.7292 -2.48522,0.34115 -3.99507,-0.78413 -5.83056,-1.3646 -14.76767,-11.79914 -30.52675,-23.0049 -46.02427,-35.10798 -7.43294,-5.8042 -15.27009,-11.66423 -23.07416,-17.4917 -3.67719,-2.74574 -7.46292,-5.8316 -11.53708,-8.80788 -0.92473,-0.67558 -1.85359,-1.43903 -2.85326,-2.23246 -4.11603,-3.26729 -9.9223,-5.39018 -9.18004,-13.14979 0.43057,-1.59669 2.62789,-2.42682 4.83813,-3.59759 10.87339,-5.75924 21.66769,-12.15425 32.2542,-17.98792 11.22385,-6.18516 21.40666,-11.7273 32.37826,-17.98792 0.75622,-0.43109 1.57756,-0.78982 2.35704,-1.24055 1.91613,-1.1077 5.11312,-2.91476 8.06355,-1.24054 10.52604,-27.2698 20.59307,-54.99601 31.13771,-82.24822 3.25902,-2.55191 7.81027,0.15248 11.16492,1.3646 6.364,2.29863 13.12911,4.44736 19.47658,6.57489 8.25066,2.76487 16.81815,6.211 25.55525,9.05599 13.0257,4.24215 25.5031,8.98983 38.705,13.3979 1.8779,0.62699 4.1373,1.54965 6.3268,2.35704 2.2485,0.8291 5.2233,1.38631 6.2028,2.35704 0.6213,0.61613 0.9604,1.65044 0.8683,3.22542 -0.1209,2.06964 -1.3118,4.51352 -2.2329,6.69895 -9.5926,22.76299 -19.8436,45.6154 -29.401,68.47815 -2.6206,6.27045 -5.37,12.38686 -8.0635,18.6082 -0.8622,1.99159 -1.6412,4.07312 -3.2255,5.58246 -0.7856,0.41971 -2.1301,0.55204 -2.7297,-0.12406 z"
         style="fill:#e6e6e6;fill-opacity:1;fill-rule:evenodd;stroke:#000000;stroke-width:1.8;stroke-miterlimit:4;stroke-opacity:1;stroke-dasharray:none" />
      <path
         id="path7778"
         d="m 799.60733,429.92106 c 3.26677,1.18782 6.80853,2.45628 9.80032,3.47353 13.52505,4.59725 26.1626,9.05753 39.44937,13.64601 15.28043,5.27645 30.68543,10.53533 45.90021,16.00304 2.32654,0.83634 5.50596,1.75538 5.70651,3.59759 0.35408,3.25953 -1.52587,5.69514 -2.60514,8.1876 -11.5469,26.66761 -23.14291,53.43964 -34.48771,79.76713 -1.75382,4.07054 -3.1422,8.34216 -5.58245,12.0333 2.56069,-1.805 3.11532,-5.14052 4.46648,-8.18761 0.89733,-2.02467 1.8541,-4.0509 2.72868,-6.07867 11.49832,-26.6428 22.88653,-53.04525 34.23908,-79.64359 0.86787,-2.03347 2.16475,-5.28111 1.48866,-7.07112 -0.4957,-1.31291 -3.78677,-2.34101 -5.70652,-2.97731 -15.35279,-5.09037 -30.1706,-10.48003 -45.15536,-15.75494 -15.1755,-5.3421 -30.22075,-10.30945 -45.15589,-15.63088 -2.85015,-1.01518 -5.5349,-2.46455 -8.68382,-2.48109 1.28396,0.10855 2.2795,0.63733 3.59758,1.11701 z"
         style="fill:#e6e6e6;fill-opacity:1;fill-rule:evenodd;stroke:#000000;stroke-width:0.80000001;stroke-miterlimit:4;stroke-opacity:1;stroke-dasharray:none" />
      <path
         id="path7776"
         d="m 858.53328,564.64438 c 0.57168,-0.96607 0.98365,-2.16785 1.3646,-3.10136 0.83737,-2.05207 1.87891,-4.21889 2.7292,-6.20273 5.34676,-12.46801 10.82118,-25.379 16.1271,-37.71261 3.46837,-8.06303 7.3978,-16.62435 10.91681,-24.93498 2.66563,-6.29629 5.22735,-12.42562 8.06355,-18.73225 0.90405,-2.01072 2.50901,-4.71201 2.35704,-6.69895 -0.18298,-2.38392 -3.76247,-3.14272 -6.45032,-4.0938 -6.44102,-2.27899 -13.25886,-4.61794 -19.35253,-6.82301 -13.15134,-4.75904 -26.24685,-8.89833 -38.82909,-13.52195 -10.72039,-3.93977 -21.59068,-7.27064 -32.50232,-11.16492 -2.21541,-0.79085 -4.51093,-2.07636 -6.45032,-2.35704 -3.96665,-0.57375 -4.28402,3.3655 -5.33435,6.07868 -7.28563,18.8196 -14.25129,37.62008 -21.08929,56.19675 -2.21747,6.02337 -4.70684,11.97075 -6.823,17.73981 -0.28481,0.77637 -0.69936,1.62253 -0.62028,2.48109 0.46831,0.22588 1.22815,-1.36408 2.35704,-0.37216 0.34942,0.53602 -0.0822,1.49537 0,1.73676 4.35535,1.93009 8.14316,4.4272 12.40547,6.45084 -0.19384,0.53499 -0.076,1.12321 0,1.73677 2.27381,0.4957 2.4294,-1.12683 3.10136,-2.23298 16.58352,8.72931 34.27371,18.30839 51.11051,27.29201 1.9673,1.0493 4.78437,1.81585 2.60515,3.96975 6.45342,3.63635 13.12963,7.04992 19.47657,10.79275 0.7464,-0.21502 1.41268,-0.62751 2.10893,-0.24759 1.20747,0.65801 0.15869,1.70524 0,2.48109 -0.24604,1.20644 -0.11216,2.4568 0.37217,3.10137 1.2483,0.25173 1.91767,-1.12166 2.356,-1.86134 z"
         style="fill:#e6e6e6;fill-opacity:1;fill-rule:evenodd;stroke:#000000;stroke-width:0.80000001;stroke-miterlimit:4;stroke-opacity:1;stroke-dasharray:none" />
      <path
         id="path7772"
         d="m 763.50743,512.41739 c 0.49364,-0.0801 0.49881,0.32822 0.99244,0.24759 0.22692,-0.35718 0.20159,-0.38767 0.12406,-0.86838 -0.47038,-0.20986 -1.3522,-0.23467 -1.1165,0.62079 z"
         style="fill:#e6e6e6;fill-opacity:1;fill-rule:evenodd;stroke:#000000;stroke-width:0.80000001;stroke-miterlimit:4;stroke-opacity:1;stroke-dasharray:none" />
      <path
         id="path7770"
         d="m 753.33495,513.90604 c -0.79136,0.69781 -1.99469,0.9821 -2.7292,1.73677 2.12599,1.26484 4.32382,2.45783 6.5749,3.59758 0.79808,-0.73192 1.94197,-1.11804 2.60514,-1.98487 -2.1601,-1.10667 -4.2592,-2.27434 -6.45084,-3.34948 z"
         style="fill:#e6e6e6;fill-opacity:1;fill-rule:evenodd;stroke:#000000;stroke-width:0.80000001;stroke-miterlimit:4;stroke-opacity:1;stroke-dasharray:none" />
      <path
         id="path7768"
         d="m 749.86142,515.89091 c -1.60599,1.20592 -3.74645,1.87736 -5.33434,3.10137 0.79705,0.59805 1.71608,0.9423 2.7292,1.48866 0.82083,0.44246 1.87064,1.52225 2.7292,1.48865 0.73244,-0.0284 1.89907,-1.06273 2.60515,-1.48865 0.9149,-0.55205 1.61116,-1.17387 2.60514,-1.48866 -1.55326,-1.25915 -3.43734,-2.18646 -5.33435,-3.10137 z"
         style="fill:#e6e6e6;fill-opacity:1;fill-rule:evenodd;stroke:#000000;stroke-width:0.80000001;stroke-miterlimit:4;stroke-opacity:1;stroke-dasharray:none" />
      <path
         id="path7766"
         d="m 760.15796,517.62768 c -0.65749,0.83065 -1.83756,1.14027 -2.48109,1.98487 2.06551,0.78723 3.55468,2.15132 5.58245,2.97731 0.77483,-0.71383 1.78019,-1.19712 2.4811,-1.98487 -2.02623,-0.82703 -3.57846,-2.12805 -5.58246,-2.97731 z"
         style="fill:#e6e6e6;fill-opacity:1;fill-rule:evenodd;stroke:#000000;stroke-width:0.80000001;stroke-miterlimit:4;stroke-opacity:1;stroke-dasharray:none" />
      <path
         id="path7764"
         d="m 755.69199,519.11634 c -1.67112,1.18213 -3.74541,1.96109 -5.21029,3.34947 1.80758,0.88027 3.36395,2.01124 5.21029,2.85326 1.86082,-0.99244 3.6777,-2.02881 5.58246,-2.97731 -1.48969,-1.44679 -3.66943,-2.20249 -5.58246,-3.22542 z"
         style="fill:#e6e6e6;fill-opacity:1;fill-rule:evenodd;stroke:#000000;stroke-width:0.80000001;stroke-miterlimit:4;stroke-opacity:1;stroke-dasharray:none" />
      <path
         id="path7762"
         d="m 743.65869,519.24039 c -1.65251,1.20075 -3.69941,2.0071 -5.33435,3.22542 2.74936,1.5512 5.34366,3.25747 8.18761,4.71408 1.93473,-0.95988 3.64255,-2.14615 5.58246,-3.10137 -2.59791,-1.8267 -5.45169,-3.39755 -8.43572,-4.83813 z"
         style="fill:#e6e6e6;fill-opacity:1;fill-rule:evenodd;stroke:#000000;stroke-width:0.80000001;stroke-miterlimit:4;stroke-opacity:1;stroke-dasharray:none" />
      <path
         id="path7760"
         d="m 780.62697,519.73661 c -0.11888,0.79085 -0.58719,1.23227 -0.86838,1.86082 17.55942,9.44417 35.1912,18.81288 52.72322,28.28445 0.56961,-0.199 0.79963,0.0341 1.48865,0 0.21555,-0.40472 0.60735,-0.63319 0.49622,-1.3646 -17.81993,-9.72019 -35.87246,-19.20779 -53.83971,-28.78067 z"
         style="fill:#e6e6e6;fill-opacity:1;fill-rule:evenodd;stroke:#000000;stroke-width:0.80000001;stroke-miterlimit:4;stroke-opacity:1;stroke-dasharray:none" />
      <path
         id="path7758"
         d="m 775.04451,521.84554 c 0.36907,0.0444 0.62906,0.19745 0.86839,0.37216 0.12715,-0.41093 0.36906,-0.70659 0.86838,-0.74433 -0.0765,-0.3365 0.15765,-0.98416 -0.12406,-1.11649 -0.44866,0.58513 -1.29275,0.77431 -1.61271,1.48866 z"
         style="fill:#e6e6e6;fill-opacity:1;fill-rule:evenodd;stroke:#000000;stroke-width:0.80000001;stroke-miterlimit:4;stroke-opacity:1;stroke-dasharray:none" />
      <path
         id="path7756"
         d="m 766.11258,520.97715 c -0.63319,0.81411 -1.7869,1.10771 -2.35704,1.98488 1.71764,1.01156 3.47146,1.98694 5.33435,2.85326 0.78516,-0.7035 1.93319,-1.04413 2.48109,-1.98488 -1.89596,-0.87458 -3.48024,-2.06137 -5.4584,-2.85326 z"
         style="fill:#e6e6e6;fill-opacity:1;fill-rule:evenodd;stroke:#000000;stroke-width:0.80000001;stroke-miterlimit:4;stroke-opacity:1;stroke-dasharray:none" />
      <path
         id="path7754"
         d="m 779.13832,521.72148 c -1.25916,0.28636 -1.70524,0.0176 -2.72921,0.37217 0.73555,1.02655 2.03037,1.54344 3.10137,2.10892 17.03322,8.99448 33.74131,18.54462 50.73886,27.41608 -0.0956,-0.59185 0.17523,-0.81721 0.49622,-0.99244 0.55049,-0.0693 1.45609,0.21606 1.48866,-0.37216 -17.68244,-9.5274 -35.53028,-18.88939 -53.0959,-28.53257 z"
         style="fill:#e6e6e6;fill-opacity:1;fill-rule:evenodd;stroke:#000000;stroke-width:0.80000001;stroke-miterlimit:4;stroke-opacity:1;stroke-dasharray:none" />
      <path
         id="path7752"
         d="m 756.31226,525.44312 c 1.51864,1.37649 3.72009,2.06913 5.33435,3.34948 1.77399,-1.16198 3.64514,-2.2273 5.2103,-3.59759 -1.76364,-0.88285 -3.50041,-1.79259 -5.08624,-2.85325 -1.56567,1.28758 -3.53452,2.17199 -5.45841,3.10136 z"
         style="fill:#e6e6e6;fill-opacity:1;fill-rule:evenodd;stroke:#000000;stroke-width:0.80000001;stroke-miterlimit:4;stroke-opacity:1;stroke-dasharray:none" />
      <path
         id="path7750"
         d="m 737.82813,522.71392 c -1.958,1.01983 -3.9284,2.02623 -5.70652,3.22542 2.97783,2.06706 6.35884,3.73094 9.3041,5.83057 1.95593,-1.18628 4.0111,-2.27382 5.83057,-3.59707 -3.29107,-1.67164 -6.24615,-3.67925 -9.42815,-5.45892 z"
         style="fill:#e6e6e6;fill-opacity:1;fill-rule:evenodd;stroke:#000000;stroke-width:0.80000001;stroke-miterlimit:4;stroke-opacity:1;stroke-dasharray:none" />
      <path
         id="path7746"
         d="m 752.59063,524.20257 c -1.69904,1.2788 -3.92323,2.03192 -5.45841,3.47353 1.94921,0.78051 3.30451,2.1539 5.33435,2.85378 1.7807,-1.23796 4.09535,-1.94197 5.70651,-3.34948 -1.98125,-0.87251 -3.73301,-1.97402 -5.58245,-2.97783 z"
         style="fill:#e6e6e6;fill-opacity:1;fill-rule:evenodd;stroke:#000000;stroke-width:0.80000001;stroke-miterlimit:4;stroke-opacity:1;stroke-dasharray:none" />
      <path
         id="path7744"
         d="m 775.04451,525.81529 c -0.88544,-0.47141 -2.17922,-1.50882 -2.85325,-1.48866 -1.00484,0.0305 -1.68508,1.34909 -2.60515,1.86082 1.89493,0.99967 3.58725,2.20197 5.58246,3.10136 0.826,-0.6213 1.56309,-1.33151 2.48109,-1.86081 -0.56135,-0.57479 -1.54861,-1.05033 -2.60515,-1.61271 z"
         style="fill:#e6e6e6;fill-opacity:1;fill-rule:evenodd;stroke:#000000;stroke-width:0.80000001;stroke-miterlimit:4;stroke-opacity:1;stroke-dasharray:none" />
      <path
         id="path7742"
         d="m 770.33044,527.17989 c -0.68592,-0.39905 -2.50952,-1.82929 -3.22542,-1.48866 -1.652,0.7862 -3.32673,2.48161 -4.83813,3.47353 1.83652,0.9759 3.54744,2.07688 5.4584,2.97783 1.72591,-1.1687 3.65186,-2.13788 5.2103,-3.47353 -0.85081,-0.48847 -1.66596,-0.9423 -2.60515,-1.48917 z"
         style="fill:#e6e6e6;fill-opacity:1;fill-rule:evenodd;stroke:#000000;stroke-width:0.80000001;stroke-miterlimit:4;stroke-opacity:1;stroke-dasharray:none" />
      <path
         id="path7740"
         d="m 731.37728,526.18745 c -1.96885,1.13303 -3.88859,2.31465 -5.95462,3.34947 2.50022,1.87788 6.20842,4.08657 9.3041,5.95463 0.81928,0.49415 2.4723,1.87994 3.22542,1.86082 0.34839,-0.009 1.05136,-0.57582 1.48866,-0.86839 1.57187,-1.04929 2.88943,-1.89545 4.21785,-2.85325 -4.07519,-2.50022 -8.07906,-5.07074 -12.28141,-7.44328 z"
         style="fill:#e6e6e6;fill-opacity:1;fill-rule:evenodd;stroke:#000000;stroke-width:0.80000001;stroke-miterlimit:4;stroke-opacity:1;stroke-dasharray:none" />
      <path
         id="path7736"
         d="m 778.14588,527.55205 c -0.76707,0.76294 -1.81482,1.2452 -2.48109,2.10893 1.92388,1.01259 3.80847,2.06396 5.70651,3.10136 0.8751,-0.6549 1.90579,-1.15422 2.60515,-1.98487 -1.96317,-1.0555 -3.81158,-2.22575 -5.83057,-3.22542 z"
         style="fill:#e6e6e6;fill-opacity:1;fill-rule:evenodd;stroke:#000000;stroke-width:0.80000001;stroke-miterlimit:4;stroke-opacity:1;stroke-dasharray:none" />
      <path
         id="path7734"
         d="m 758.6693,527.6761 c -1.88511,1.17439 -4.15893,1.9611 -5.83056,3.34948 2.03914,1.10357 4.01885,2.26658 6.07867,3.34896 1.80758,-1.16973 3.72423,-2.2304 5.45841,-3.47353 -1.95593,-1.02139 -3.59914,-2.35549 -5.70652,-3.22491 z"
         style="fill:#e6e6e6;fill-opacity:1;fill-rule:evenodd;stroke:#000000;stroke-width:0.80000001;stroke-miterlimit:4;stroke-opacity:1;stroke-dasharray:none" />
      <path
         id="path7732"
         d="m 747.62844,528.54449 c -1.79931,1.178 -3.61464,2.33998 -5.58246,3.34947 1.44627,1.32429 3.46009,2.0805 5.08624,3.22542 2.18233,-0.96039 4.10931,-2.17612 5.95462,-3.47353 -1.88924,-0.96401 -3.43631,-2.2702 -5.4584,-3.10136 z"
         style="fill:#e6e6e6;fill-opacity:1;fill-rule:evenodd;stroke:#000000;stroke-width:0.80000001;stroke-miterlimit:4;stroke-opacity:1;stroke-dasharray:none" />
      <path
         id="path7730"
         d="m 773.30775,529.04071 c -1.63442,1.13613 -3.22129,2.3193 -5.08624,3.2249 1.70162,1.3584 3.72371,2.39684 5.70651,3.47405 1.8846,-1.13459 3.76351,-2.27382 5.58246,-3.47405 -2.13839,-1.00433 -3.95993,-2.32499 -6.20273,-3.2249 z"
         style="fill:#e6e6e6;fill-opacity:1;fill-rule:evenodd;stroke:#000000;stroke-width:0.80000001;stroke-miterlimit:4;stroke-opacity:1;stroke-dasharray:none" />
      <path
         id="path7728"
         d="m 724.80239,529.90909 c -2.14046,1.29172 -4.51559,2.34877 -6.5749,3.72164 1.65096,0.36803 3.36912,2.99437 5.08624,2.97731 1.00019,-0.0103 2.40356,-1.20178 3.34948,-1.73677 1.17231,-0.66266 2.31207,-1.15009 3.10136,-1.98487 -1.80913,-0.83737 -3.22697,-2.06603 -4.96218,-2.97731 z"
         style="fill:#e6e6e6;fill-opacity:1;fill-rule:evenodd;stroke:#000000;stroke-width:0.80000001;stroke-miterlimit:4;stroke-opacity:1;stroke-dasharray:none" />
      <path
         id="path7726"
         d="m 764.87203,531.14912 c -1.70161,1.31756 -3.80279,2.23453 -5.4584,3.5981 1.71971,0.88544 3.14995,2.05982 4.96219,2.85325 1.84686,-1.21315 3.96768,-2.15234 5.70651,-3.47352 -1.70368,-1.02604 -3.51747,-1.94094 -5.2103,-2.97783 z"
         style="fill:#e6e6e6;fill-opacity:1;fill-rule:evenodd;stroke:#000000;stroke-width:0.80000001;stroke-miterlimit:4;stroke-opacity:1;stroke-dasharray:none" />
      <path
         id="path7724"
         d="m 784.34861,531.14912 c -0.68695,0.80273 -1.75382,1.22349 -2.48109,1.98539 2.22626,1.08186 4.12792,2.48833 6.45084,3.47353 0.77534,-0.71332 1.80034,-1.17697 2.35704,-2.10893 -2.12599,-1.09943 -4.02454,-2.42682 -6.32679,-3.34999 z"
         style="fill:#e6e6e6;fill-opacity:1;fill-rule:evenodd;stroke:#000000;stroke-width:0.80000001;stroke-miterlimit:4;stroke-opacity:1;stroke-dasharray:none" />
      <path
         id="path7722"
         d="m 753.58306,532.01802 c -1.86909,1.19092 -3.89014,2.22988 -5.70651,3.47353 1.89442,1.08341 3.62395,2.33067 5.58246,3.34947 1.94972,-1.27569 4.36776,-2.08308 6.20273,-3.47405 -2.06137,-1.08134 -3.99456,-2.29087 -6.07868,-3.34895 z"
         style="fill:#e6e6e6;fill-opacity:1;fill-rule:evenodd;stroke:#000000;stroke-width:0.80000001;stroke-miterlimit:4;stroke-opacity:1;stroke-dasharray:none" />
      <path
         id="path7720"
         d="m 779.88264,532.51424 c -1.62511,1.39354 -3.79245,2.24487 -5.4584,3.59758 2.10376,1.08031 3.99404,2.37409 6.20273,3.34896 1.84893,-1.12838 3.79039,-2.16424 5.45841,-3.47353 -2.13116,-1.09375 -4.11552,-2.33481 -6.20274,-3.47301 z"
         style="fill:#e6e6e6;fill-opacity:1;fill-rule:evenodd;stroke:#000000;stroke-width:0.80000001;stroke-miterlimit:4;stroke-opacity:1;stroke-dasharray:none" />
      <path
         id="path7716"
         d="m 721.57697,536.60804 c 0.21761,0.32978 0.73089,0.85184 1.11649,0.62027 -1.61995,-1.44007 -3.51281,-2.60721 -5.58246,-3.59758 1.16767,1.31343 2.83052,2.13167 4.46597,2.97731 z"
         style="fill:#e6e6e6;fill-opacity:1;fill-rule:evenodd;stroke:#000000;stroke-width:0.80000001;stroke-miterlimit:4;stroke-opacity:1;stroke-dasharray:none" />
      <path
         id="path7714"
         d="m 744.03086,534.00289 c -1.75744,1.34393 -3.962,2.24125 -5.45841,3.84569 1.69748,1.11391 3.33294,2.29088 5.2103,3.22491 1.8877,-1.41991 4.22147,-2.39477 5.95462,-3.96975 -2.01124,-0.92421 -3.55985,-2.31207 -5.70651,-3.10085 z"
         style="fill:#e6e6e6;fill-opacity:1;fill-rule:evenodd;stroke:#000000;stroke-width:0.80000001;stroke-miterlimit:4;stroke-opacity:1;stroke-dasharray:none" />
      <path
         id="path7712"
         d="m 716.61478,534.12695 c -0.0827,0 -0.1654,0 -0.24811,0 -10.40508,5.68066 -20.53672,11.63477 -31.13771,17.11953 -0.45383,0.95833 -1.64631,1.15061 -1.73676,2.23247 -0.11424,1.36874 1.53776,2.1477 2.7292,2.97783 2.71318,1.88821 5.14413,3.73766 7.56733,5.58246 9.91145,7.54304 20.86754,15.71565 30.02122,22.20578 -0.51793,-2.53382 2.01899,-0.56239 3.22542,0.37216 1.51192,1.17128 3.72474,2.87083 0.99244,3.10137 9.89542,7.38125 20.55017,15.41585 30.76606,22.9501 5.11106,3.76919 10.34151,7.71103 15.38278,11.53657 1.8143,1.377 4.0814,3.65495 6.94706,2.7292 11.02432,-9.11388 21.8331,-18.44331 33.12258,-27.29202 -32.35654,-21.35497 -65.11369,-42.3202 -97.63151,-63.51545 z"
         style="fill:#e6e6e6;fill-opacity:1;fill-rule:evenodd;stroke:#000000;stroke-width:0.80000001;stroke-miterlimit:4;stroke-opacity:1;stroke-dasharray:none" />
      <path
         id="path7710"
         d="m 770.57855,534.49911 c -1.90217,1.07566 -3.64618,2.30897 -5.70652,3.22542 1.76468,1.62615 4.18426,2.59688 6.32679,3.84518 1.64527,-1.37339 3.71182,-2.32499 5.21029,-3.84518 -2.07171,-0.94747 -3.77281,-2.26503 -5.83056,-3.22542 z"
         style="fill:#e6e6e6;fill-opacity:1;fill-rule:evenodd;stroke:#000000;stroke-width:0.80000001;stroke-miterlimit:4;stroke-opacity:1;stroke-dasharray:none" />
      <path
         id="path7708"
         d="m 791.29567,534.87127 c -0.826,0.70401 -1.78225,1.27828 -2.48109,2.10893 0.72985,0.4528 1.71815,0.97073 2.85325,1.61271 0.89371,0.50552 2.23661,1.5755 2.97732,1.48866 0.94695,-0.11062 1.51863,-1.54293 2.35755,-2.10893 -1.94559,-0.99089 -3.76971,-2.10324 -5.70703,-3.10137 z"
         style="fill:#e6e6e6;fill-opacity:1;fill-rule:evenodd;stroke:#000000;stroke-width:0.80000001;stroke-miterlimit:4;stroke-opacity:1;stroke-dasharray:none" />
      <path
         id="path7706"
         d="m 760.0339,535.73966 c -1.80086,1.3832 -4.28505,2.08308 -6.07867,3.47353 2.02364,1.16042 4.03953,2.3286 6.07867,3.47352 1.77709,-1.28241 3.87258,-2.24745 5.45841,-3.72163 -1.83808,-1.05654 -3.51954,-2.26969 -5.45841,-3.22542 z"
         style="fill:#e6e6e6;fill-opacity:1;fill-rule:evenodd;stroke:#000000;stroke-width:0.80000001;stroke-miterlimit:4;stroke-opacity:1;stroke-dasharray:none" />
      <path
         id="path7704"
         d="m 786.58159,536.35941 c -1.75123,1.26794 -3.89273,2.1446 -5.4584,3.5981 0.95832,0.54481 1.85875,0.97228 2.97731,1.6122 0.80946,0.46313 2.08464,1.6737 2.97731,1.61271 0.82858,-0.0563 1.99883,-1.26226 2.7292,-1.73625 0.99968,-0.64974 1.92078,-1.08961 2.60515,-1.86134 -1.90424,-1.11442 -3.84362,-2.19266 -5.83057,-3.22542 z"
         style="fill:#e6e6e6;fill-opacity:1;fill-rule:evenodd;stroke:#000000;stroke-width:0.80000001;stroke-miterlimit:4;stroke-opacity:1;stroke-dasharray:none" />
      <path
         id="path7702"
         d="m 736.09136,536.9802 c -2.08205,1.34961 -4.39463,2.46921 -6.5749,3.72164 1.606,1.49538 3.68081,2.52193 5.58246,3.72164 2.01744,-1.45609 4.31555,-2.63203 6.20273,-4.21786 -1.70626,-1.10563 -3.34689,-2.27692 -5.21029,-3.22542 z"
         style="fill:#e6e6e6;fill-opacity:1;fill-rule:evenodd;stroke:#000000;stroke-width:0.80000001;stroke-miterlimit:4;stroke-opacity:1;stroke-dasharray:none" />
      <path
         id="path7700"
         d="m 750.10953,537.60047 c -1.84996,1.37546 -4.10827,2.34257 -5.83056,3.8457 0.84719,0.58977 1.70626,1.00846 2.7292,1.61271 0.69419,0.4099 1.93163,1.62615 2.7292,1.61219 0.52155,-0.009 1.29585,-0.8658 1.86082,-1.24003 1.50261,-0.99657 2.9954,-1.57497 4.0938,-2.7292 -2.04845,-0.84616 -3.48542,-2.3038 -5.58246,-3.10137 z"
         style="fill:#e6e6e6;fill-opacity:1;fill-rule:evenodd;stroke:#000000;stroke-width:0.80000001;stroke-miterlimit:4;stroke-opacity:1;stroke-dasharray:none" />
      <path
         id="path7698"
         d="m 780.0067,539.7094 c -0.58409,-0.33856 -2.82018,-1.73159 -3.22542,-1.48865 -1.70885,1.02345 -3.52936,2.5364 -5.2103,3.72164 2.01641,1.16766 3.96458,2.40356 6.07868,3.47353 1.54655,-1.38942 3.38049,-2.49143 4.96219,-3.8457 -0.63682,-0.73812 -1.57808,-1.26535 -2.60515,-1.86082 z"
         style="fill:#e6e6e6;fill-opacity:1;fill-rule:evenodd;stroke:#000000;stroke-width:0.80000001;stroke-miterlimit:4;stroke-opacity:1;stroke-dasharray:none" />
      <path
         id="path7696"
         d="m 797.37435,538.3448 c -0.66369,0.82445 -1.68766,1.28965 -2.23299,2.23247 2.48627,1.23641 4.77611,2.66717 7.19517,3.97026 0.60735,-0.92317 1.7254,-1.33513 2.35756,-2.23298 -2.47438,-1.28913 -4.68203,-2.84499 -7.31974,-3.96975 z"
         style="fill:#e6e6e6;fill-opacity:1;fill-rule:evenodd;stroke:#000000;stroke-width:0.80000001;stroke-miterlimit:4;stroke-opacity:1;stroke-dasharray:none" />
      <path
         id="path7694"
         d="m 765.98853,539.33724 c -1.68249,1.37752 -3.82295,2.29656 -5.45841,3.72164 1.84273,1.17542 3.74387,2.29346 5.58246,3.47353 1.9704,-1.21419 4.11345,-2.25469 5.83057,-3.72164 -1.8417,-1.30154 -3.79297,-2.49246 -5.95462,-3.47353 z"
         style="fill:#e6e6e6;fill-opacity:1;fill-rule:evenodd;stroke:#000000;stroke-width:0.80000001;stroke-miterlimit:4;stroke-opacity:1;stroke-dasharray:none" />
      <path
         id="path7692"
         d="m 792.90838,539.95751 c -0.89371,0.64974 -1.84635,1.32377 -2.85326,1.98488 -0.86011,0.56445 -2.00296,0.92834 -2.35703,1.73624 2.08825,1.13717 4.03229,2.41855 6.20273,3.47405 1.81998,-1.24054 3.8369,-2.28312 5.33383,-3.84569 -2.18233,-1.04258 -4.06486,-2.38547 -6.32627,-3.34948 z"
         style="fill:#e6e6e6;fill-opacity:1;fill-rule:evenodd;stroke:#000000;stroke-width:0.80000001;stroke-miterlimit:4;stroke-opacity:1;stroke-dasharray:none" />
      <path
         id="path7690"
         d="m 741.67382,540.57779 c -1.97195,1.50157 -4.23388,2.71317 -6.20273,4.21785 2.44232,1.36202 4.48974,3.11894 6.94706,4.46649 2.24745,-1.43283 4.74922,-2.61187 6.69895,-4.34192 -2.50746,-1.42145 -4.81487,-3.04295 -7.44328,-4.34242 z"
         style="fill:#e6e6e6;fill-opacity:1;fill-rule:evenodd;stroke:#000000;stroke-width:0.80000001;stroke-miterlimit:4;stroke-opacity:1;stroke-dasharray:none" />
      <path
         id="path7688"
         d="m 756.31226,541.074 c -2.06344,1.24469 -4.00127,2.61549 -6.07867,3.8457 1.78794,1.51967 3.97492,2.64081 6.07867,3.84517 2.03553,-1.23072 4.09019,-2.44335 5.95463,-3.84517 -1.67216,-1.59462 -4.0323,-2.50177 -5.95463,-3.8457 z"
         style="fill:#e6e6e6;fill-opacity:1;fill-rule:evenodd;stroke:#000000;stroke-width:0.80000001;stroke-miterlimit:4;stroke-opacity:1;stroke-dasharray:none" />
      <path
         id="path7686"
         d="m 786.58159,543.55458 c -0.63164,-0.35045 -3.19337,-2.03501 -3.59758,-1.73625 -1.58738,1.17232 -3.36446,2.58292 -4.83813,3.96975 0.99295,0.56031 1.96627,1.05188 3.10137,1.73677 0.85442,0.51534 2.15234,1.80137 3.10136,1.73676 0.83272,-0.0569 2.01641,-1.36098 2.7292,-1.86134 1.01001,-0.70866 1.92182,-1.15629 2.60515,-1.98487 -0.96194,-0.59288 -1.93629,-1.21367 -3.10137,-1.86082 z"
         style="fill:#e6e6e6;fill-opacity:1;fill-rule:evenodd;stroke:#000000;stroke-width:0.80000001;stroke-miterlimit:4;stroke-opacity:1;stroke-dasharray:none" />
      <path
         id="path7684"
         d="m 805.06573,542.68671 c -0.69677,0.79189 -1.68507,1.29224 -2.35703,2.10893 2.01382,1.17025 4.14032,2.22782 6.07867,3.47353 1.01518,-0.63888 2.02726,-1.28086 2.72921,-2.23246 -2.21955,-1.04826 -4.08089,-2.45318 -6.45085,-3.35 z"
         style="fill:#e6e6e6;fill-opacity:1;fill-rule:evenodd;stroke:#000000;stroke-width:0.80000001;stroke-miterlimit:4;stroke-opacity:1;stroke-dasharray:none" />
      <path
         id="path7682"
         d="m 772.56342,543.18293 c -1.9063,1.19506 -3.89893,2.3038 -5.70651,3.59759 1.89597,1.28861 3.8736,2.49505 5.95462,3.59758 1.59669,-1.48607 4.268,-2.57827 5.33435,-4.0938 -1.98022,-0.91439 -3.58053,-2.20869 -5.58246,-3.10137 z"
         style="fill:#e6e6e6;fill-opacity:1;fill-rule:evenodd;stroke:#000000;stroke-width:0.80000001;stroke-miterlimit:4;stroke-opacity:1;stroke-dasharray:none" />
      <path
         id="path7680"
         d="m 799.85544,543.80321 c -1.88718,1.17231 -3.68494,2.43509 -5.4584,3.72164 2.26348,1.21004 4.37654,2.57103 6.69895,3.72163 1.76674,-1.29327 3.67201,-2.44749 5.33435,-3.84569 -2.27072,-1.12011 -4.29798,-2.48368 -6.5749,-3.59758 z"
         style="fill:#e6e6e6;fill-opacity:1;fill-rule:evenodd;stroke:#000000;stroke-width:0.80000001;stroke-miterlimit:4;stroke-opacity:1;stroke-dasharray:none" />
      <path
         id="path7678"
         d="m 762.88716,545.16729 c -2.05776,1.29172 -4.07209,2.62686 -6.07868,3.97027 2.20507,1.02034 3.87154,2.5793 6.07868,3.59758 2.00141,-1.38941 4.20649,-2.57465 6.20273,-3.97027 -2.07998,-1.18627 -4.07313,-2.4599 -6.20273,-3.59758 z"
         style="fill:#e6e6e6;fill-opacity:1;fill-rule:evenodd;stroke:#000000;stroke-width:0.80000001;stroke-miterlimit:4;stroke-opacity:1;stroke-dasharray:none" />
      <path
         id="path7676"
         d="m 749.73737,545.41592 c -2.27227,1.36667 -4.67738,2.59997 -6.69895,4.21785 10.81808,7.12798 21.79536,14.09778 32.62637,21.21335 2.53588,-1.55844 5.05781,-3.13032 7.31922,-4.96271 -11.04603,-6.85815 -22.03727,-13.77316 -33.24664,-20.46849 z"
         style="fill:#e6e6e6;fill-opacity:1;fill-rule:evenodd;stroke:#000000;stroke-width:0.80000001;stroke-miterlimit:4;stroke-opacity:1;stroke-dasharray:none" />
      <path
         id="path7674"
         d="m 790.17918,545.78808 c -1.68973,1.41164 -3.76661,2.43612 -5.33435,3.96975 2.17871,1.12941 4.10156,2.51469 6.32679,3.5981 1.86288,-1.36305 3.89324,-2.55759 5.70651,-3.97027 -2.38237,-1.05032 -4.29229,-2.57206 -6.69895,-3.59758 z"
         style="fill:#e6e6e6;fill-opacity:1;fill-rule:evenodd;stroke:#000000;stroke-width:0.80000001;stroke-miterlimit:4;stroke-opacity:1;stroke-dasharray:none" />
      <path
         id="path7672"
         d="m 815.73443,548.39323 c -1.07462,-0.6058 -2.70852,-1.92078 -3.59758,-1.86082 -1.0555,0.0708 -1.78174,1.53414 -2.7292,2.10893 2.54001,1.18162 4.8097,2.63357 7.31922,3.84517 0.92111,-0.65025 1.74969,-1.39251 2.48109,-2.23246 -0.9149,-0.48588 -2.12702,-1.1015 -3.47353,-1.86082 z"
         style="fill:#e6e6e6;fill-opacity:1;fill-rule:evenodd;stroke:#000000;stroke-width:0.80000001;stroke-miterlimit:4;stroke-opacity:1;stroke-dasharray:none" />
      <path
         id="path7670"
         d="m 778.76615,546.78052 c -1.84117,1.34289 -3.8948,2.47334 -5.58246,3.97026 2.13426,1.17387 4.07106,2.54467 6.32679,3.59759 1.98281,-1.15991 3.94752,-2.33792 5.70651,-3.72164 -2.07946,-1.35323 -4.16151,-2.70336 -6.45084,-3.84621 z"
         style="fill:#e6e6e6;fill-opacity:1;fill-rule:evenodd;stroke:#000000;stroke-width:0.80000001;stroke-miterlimit:4;stroke-opacity:1;stroke-dasharray:none" />
      <path
         id="path7668"
         d="m 806.8025,547.77295 c -1.60703,1.41164 -3.67977,2.35756 -5.2103,3.8457 2.14873,1.28293 4.29643,2.56793 6.5749,3.72164 1.77191,-1.37081 3.8643,-2.42217 5.45892,-3.97027 -2.36634,-1.10719 -4.37861,-2.56845 -6.82352,-3.59707 z"
         style="fill:#e6e6e6;fill-opacity:1;fill-rule:evenodd;stroke:#000000;stroke-width:0.80000001;stroke-miterlimit:4;stroke-opacity:1;stroke-dasharray:none" />
      <path
         id="path7666"
         d="m 769.46206,549.13756 c -2.01796,1.37287 -4.25404,2.52709 -6.20274,3.96974 1.99832,1.35117 4.23182,2.46714 6.20274,3.8457 2.18749,-1.28604 4.29125,-2.65632 6.32678,-4.09432 -2.15803,-1.19093 -4.03488,-2.66408 -6.32678,-3.72112 z"
         style="fill:#e6e6e6;fill-opacity:1;fill-rule:evenodd;stroke:#000000;stroke-width:0.80000001;stroke-miterlimit:4;stroke-opacity:1;stroke-dasharray:none" />
      <path
         id="path7664"
         d="m 797.12624,549.75731 c -1.66285,1.47987 -3.8214,2.46507 -5.45892,3.97027 2.26038,1.3372 4.54712,2.64805 6.823,3.96974 1.72333,-1.46074 3.68339,-2.68474 5.33435,-4.21785 -2.30276,-1.17077 -4.22251,-2.72455 -6.69843,-3.72216 z"
         style="fill:#e6e6e6;fill-opacity:1;fill-rule:evenodd;stroke:#000000;stroke-width:0.80000001;stroke-miterlimit:4;stroke-opacity:1;stroke-dasharray:none" />
      <path
         id="path7662"
         d="m 819.58013,550.62621 c -0.69626,0.83375 -1.66389,1.39613 -2.35704,2.23247 0.89319,0.45176 1.95438,1.14544 3.22542,1.86133 0.93403,0.5262 2.59688,1.7807 3.34896,1.73677 0.45228,-0.0269 1.01828,-0.65646 1.48865,-0.99296 0.49984,-0.35717 1.03276,-0.65955 1.36512,-1.11597 -2.44594,-1.15164 -4.56418,-2.63151 -7.07111,-3.72164 z"
         style="fill:#e6e6e6;fill-opacity:1;fill-rule:evenodd;stroke:#000000;stroke-width:0.80000001;stroke-miterlimit:4;stroke-opacity:1;stroke-dasharray:none" />
      <path
         id="path7660"
         d="m 785.83727,550.99837 c -1.90476,1.27984 -4.11758,2.25056 -5.70652,3.8457 2.2547,1.30154 4.2985,2.81345 6.69895,3.96975 1.9244,-1.34238 3.94494,-2.58861 5.83057,-3.96975 -2.37461,-1.18162 -4.34191,-2.77055 -6.823,-3.8457 z"
         style="fill:#e6e6e6;fill-opacity:1;fill-rule:evenodd;stroke:#000000;stroke-width:0.80000001;stroke-miterlimit:4;stroke-opacity:1;stroke-dasharray:none" />
      <path
         id="path7658"
         d="m 830.99315,551.61865 c 0.15455,-0.25897 0.4864,-0.34012 0.62028,-0.62028 -0.59185,-0.18556 -1.18369,0.4068 -0.62028,0.62028 z"
         style="fill:#e6e6e6;fill-opacity:1;fill-rule:evenodd;stroke:#000000;stroke-width:0.80000001;stroke-miterlimit:4;stroke-opacity:1;stroke-dasharray:none" />
      <path
         id="path7656"
         d="m 814.12172,551.7427 c -1.69903,1.44369 -3.83535,2.44956 -5.45892,3.96975 2.28623,1.22918 4.40963,2.62014 6.82301,3.72164 1.72539,-1.41732 3.77488,-2.51056 5.33435,-4.0938 -2.37979,-1.05188 -4.32331,-2.54054 -6.69844,-3.59759 z"
         style="fill:#e6e6e6;fill-opacity:1;fill-rule:evenodd;stroke:#000000;stroke-width:0.80000001;stroke-miterlimit:4;stroke-opacity:1;stroke-dasharray:none" />
      <path
         id="path7654"
         d="m 682.74787,552.98325 c -0.25121,0.70504 0.55049,1.9244 0.37216,1.36512 0.0279,-0.23467 -0.14007,-0.27396 -0.12405,-0.49622 0,-0.28998 0,-0.57892 0,-0.8689 0.19332,0.0103 0.0863,-0.36028 0,-0.12406 -0.0274,0.0967 -0.1039,0.14422 -0.24811,0.12406 z"
         style="fill:#e6e6e6;fill-opacity:1;fill-rule:evenodd;stroke:#000000;stroke-width:0.80000001;stroke-miterlimit:4;stroke-opacity:1;stroke-dasharray:none" />
      <path
         id="path7652"
         d="m 776.28506,553.1073 c -1.93422,1.53983 -4.3569,2.59016 -6.20273,4.21786 2.23195,1.28242 4.21424,2.81501 6.57489,3.96975 1.82567,-1.60599 4.21011,-2.65477 5.83057,-4.46597 -2.07119,-1.23744 -4.11706,-2.49918 -6.20273,-3.72164 z"
         style="fill:#e6e6e6;fill-opacity:1;fill-rule:evenodd;stroke:#000000;stroke-width:0.80000001;stroke-miterlimit:4;stroke-opacity:1;stroke-dasharray:none" />
      <path
         id="path7650"
         d="m 804.32141,553.85163 c -1.7988,1.30258 -3.49989,2.70284 -5.33435,3.96975 1.89597,1.49486 4.08605,2.6956 6.32678,3.84569 1.89597,-1.2881 3.77592,-2.59274 5.45841,-4.09432 -2.02003,-1.3708 -4.24267,-2.53846 -6.45084,-3.72112 z"
         style="fill:#e6e6e6;fill-opacity:1;fill-rule:evenodd;stroke:#000000;stroke-width:0.80000001;stroke-miterlimit:4;stroke-opacity:1;stroke-dasharray:none" />
      <path
         id="path7646"
         d="m 827.0234,554.72001 c -0.7283,0.84306 -1.95024,1.19248 -2.60514,2.10893 2.45421,1.34961 4.71769,2.89099 7.44276,3.96975 0.73967,-0.83168 1.81326,-1.32945 2.48161,-2.23298 -2.56897,-1.15319 -4.69857,-2.74471 -7.31923,-3.8457 z"
         style="fill:#e6e6e6;fill-opacity:1;fill-rule:evenodd;stroke:#000000;stroke-width:0.80000001;stroke-miterlimit:4;stroke-opacity:1;stroke-dasharray:none" />
      <path
         id="path7644"
         d="m 792.90838,555.09218 c -1.56205,1.66388 -3.92323,2.52813 -5.58246,4.0938 2.17871,1.29534 4.2375,2.70956 6.5749,3.84569 1.88563,-1.38114 3.81881,-2.71472 5.58246,-4.21785 -2.28106,-1.15164 -4.27058,-2.5943 -6.5749,-3.72164 z"
         style="fill:#e6e6e6;fill-opacity:1;fill-rule:evenodd;stroke:#000000;stroke-width:0.80000001;stroke-miterlimit:4;stroke-opacity:1;stroke-dasharray:none" />
      <path
         id="path7640"
         d="m 821.19284,555.71245 c -1.63804,1.38063 -3.38825,2.64908 -5.2103,3.84569 1.98488,1.73625 4.62,2.82276 6.94706,4.21734 1.9704,-1.17179 3.57433,-2.71059 5.4584,-3.96974 -2.16216,-1.60031 -4.75284,-2.77262 -7.19516,-4.09329 z"
         style="fill:#e6e6e6;fill-opacity:1;fill-rule:evenodd;stroke:#000000;stroke-width:0.80000001;stroke-miterlimit:4;stroke-opacity:1;stroke-dasharray:none" />
      <path
         id="path7636"
         d="m 782.98401,557.20111 c -1.8634,1.61012 -4.08812,2.85894 -5.95462,4.46648 2.33119,1.18317 4.32175,2.70749 6.57489,3.96975 2.01021,-1.50468 4.29023,-2.73954 6.20273,-4.34191 -2.24125,-1.3982 -4.52644,-2.75247 -6.823,-4.09432 z"
         style="fill:#e6e6e6;fill-opacity:1;fill-rule:evenodd;stroke:#000000;stroke-width:0.80000001;stroke-miterlimit:4;stroke-opacity:1;stroke-dasharray:none" />
      <path
         id="path7634"
         d="m 811.26847,557.82138 c -1.6949,1.57136 -3.8152,2.71835 -5.45841,4.34191 2.54157,1.17955 4.60501,2.83775 7.19517,3.96975 1.91303,-1.27104 3.62808,-2.74057 5.58246,-3.96975 -2.0805,-1.80654 -4.78593,-2.98868 -7.31922,-4.34191 z"
         style="fill:#e6e6e6;fill-opacity:1;fill-rule:evenodd;stroke:#000000;stroke-width:0.80000001;stroke-miterlimit:4;stroke-opacity:1;stroke-dasharray:none" />
      <path
         id="path7630"
         d="m 832.2337,560.92275 c 2.03811,1.80706 4.75026,2.94009 7.19517,4.34191 0.87665,-0.65336 1.55533,-1.50468 2.48109,-2.10893 -2.09032,-1.71402 -4.82366,-2.78554 -7.19517,-4.21786 -0.78878,0.69988 -1.51657,1.46126 -2.48109,1.98488 z"
         style="fill:#e6e6e6;fill-opacity:1;fill-rule:evenodd;stroke:#000000;stroke-width:0.80000001;stroke-miterlimit:4;stroke-opacity:1;stroke-dasharray:none" />
      <path
         id="path7628"
         d="m 799.85544,559.18598 c -1.70317,1.56309 -3.92633,2.60722 -5.4584,4.34191 2.37202,1.22556 4.48974,2.70543 6.823,3.96975 1.92285,-1.34392 3.74438,-2.78916 5.4584,-4.34139 -2.31103,-1.28759 -4.41892,-2.77676 -6.823,-3.97027 z"
         style="fill:#e6e6e6;fill-opacity:1;fill-rule:evenodd;stroke:#000000;stroke-width:0.80000001;stroke-miterlimit:4;stroke-opacity:1;stroke-dasharray:none" />
      <path
         id="path7626"
         d="m 828.88422,559.93031 c -1.69024,1.49434 -3.70406,2.66407 -5.33383,4.21786 2.59481,1.37442 4.90636,3.03261 7.69139,4.21785 1.67422,-1.42714 3.47715,-2.72558 4.96218,-4.34191 -2.44956,-1.35478 -4.8221,-2.78761 -7.31974,-4.0938 z"
         style="fill:#e6e6e6;fill-opacity:1;fill-rule:evenodd;stroke:#000000;stroke-width:0.80000001;stroke-miterlimit:4;stroke-opacity:1;stroke-dasharray:none" />
      <path
         id="path7622"
         d="m 854.56353,561.41896 c -0.13491,0.42799 0.63733,1.01363 1.11598,1.24055 0.31065,-0.37733 0.10544,-0.49932 0.12405,-1.11649 -0.31737,-0.12871 -0.85494,-0.44712 -1.24003,-0.12406 z"
         style="fill:#e6e6e6;fill-opacity:1;fill-rule:evenodd;stroke:#000000;stroke-width:0.80000001;stroke-miterlimit:4;stroke-opacity:1;stroke-dasharray:none" />
      <path
         id="path7620"
         d="m 790.30323,561.54302 c -1.82412,1.64889 -4.25249,2.69509 -6.07867,4.34139 1.77294,1.41164 4.4334,3.00988 6.823,4.21786 1.89804,-1.57549 4.21993,-2.72662 5.83057,-4.59002 -2.14511,-1.36977 -4.42772,-2.60153 -6.5749,-3.96923 z"
         style="fill:#e6e6e6;fill-opacity:1;fill-rule:evenodd;stroke:#000000;stroke-width:0.80000001;stroke-miterlimit:4;stroke-opacity:1;stroke-dasharray:none" />
      <path
         id="path7618"
         d="m 813.50145,566.5052 c 2.39374,1.41061 4.71873,2.88996 7.19517,4.21786 1.82774,-1.56309 3.93511,-2.84654 5.70651,-4.46597 -2.48368,-1.27983 -4.89964,-2.62634 -7.19517,-4.0938 -1.85358,1.49589 -3.92167,2.77727 -5.70651,4.34191 z"
         style="fill:#e6e6e6;fill-opacity:1;fill-rule:evenodd;stroke:#000000;stroke-width:0.80000001;stroke-miterlimit:4;stroke-opacity:1;stroke-dasharray:none" />
      <path
         id="path7614"
         d="m 842.28212,563.27978 c -0.64715,0.92421 -1.73676,1.40596 -2.35703,2.35756 2.59532,1.25037 4.79677,2.89461 7.44276,4.0938 0.9578,-0.73864 2.06189,-1.32893 2.7292,-2.35755 -2.79175,-1.17801 -5.00819,-2.93079 -7.81493,-4.09381 z"
         style="fill:#e6e6e6;fill-opacity:1;fill-rule:evenodd;stroke:#000000;stroke-width:0.80000001;stroke-miterlimit:4;stroke-opacity:1;stroke-dasharray:none" />
      <path
         id="path7612"
         d="m 807.29872,563.52789 c -1.89649,1.37029 -3.78419,2.74885 -5.45841,4.34191 2.19009,1.53105 4.57659,2.86618 6.94655,4.21735 1.83704,-1.55379 4.02092,-2.76022 5.83056,-4.3414 -2.43974,-1.40595 -4.85829,-2.83258 -7.3187,-4.21786 z"
         style="fill:#e6e6e6;fill-opacity:1;fill-rule:evenodd;stroke:#000000;stroke-width:0.80000001;stroke-miterlimit:4;stroke-opacity:1;stroke-dasharray:none" />
      <path
         id="path7610"
         d="m 836.69966,564.39627 c -1.63493,1.50779 -3.54847,2.73696 -4.96218,4.46649 3.42132,1.8298 6.55577,3.94752 10.04791,5.70651 1.64837,-1.53569 3.45802,-2.91063 5.08624,-4.46648 -3.34844,-1.94404 -6.70981,-3.87568 -10.17197,-5.70652 z"
         style="fill:#e6e6e6;fill-opacity:1;fill-rule:evenodd;stroke:#000000;stroke-width:0.80000001;stroke-miterlimit:4;stroke-opacity:1;stroke-dasharray:none" />
      <path
         id="path7606"
         d="m 797.4984,566.00899 c -2.11203,1.40285 -4.06382,2.96593 -6.07867,4.46596 1.58634,1.05447 2.97059,1.86444 4.59002,2.85378 0.43574,0.2662 1.96626,1.51036 2.35703,1.48865 0.39646,-0.0222 1.43232,-1.14389 1.73677,-1.3646 1.28345,-0.92886 3.22542,-2.22988 4.46597,-3.34948 -2.49764,-1.224 -4.49647,-2.94733 -7.07112,-4.09431 z"
         style="fill:#e6e6e6;fill-opacity:1;fill-rule:evenodd;stroke:#000000;stroke-width:0.80000001;stroke-miterlimit:4;stroke-opacity:1;stroke-dasharray:none" />
      <path
         id="path7604"
         d="m 783.35617,566.25709 c -0.0295,0.17678 -0.20417,0.20883 -0.24811,0.37217 -1.24778,0.50552 -2.31361,1.57859 -3.47352,2.35704 -1.15216,0.77379 -2.63151,1.30619 -3.22543,2.35755 2.88376,1.74814 5.59383,3.66943 8.43572,5.4584 2.39115,-1.74348 4.82521,-3.44458 7.07111,-5.33383 -2.75763,-1.83342 -5.55247,-3.6286 -8.55977,-5.21133 z"
         style="fill:#e6e6e6;fill-opacity:1;fill-rule:evenodd;stroke:#000000;stroke-width:0.80000001;stroke-miterlimit:4;stroke-opacity:1;stroke-dasharray:none" />
      <path
         id="path7602"
         d="m 826.77529,566.62926 c -1.7993,1.591 -3.9563,2.82483 -5.70651,4.46596 2.7659,1.28655 5.05368,3.05123 7.81544,4.34192 1.59721,-1.71144 3.69993,-2.91632 5.2103,-4.71408 -2.44801,-1.35633 -4.76835,-2.84033 -7.31923,-4.0938 z"
         style="fill:#e6e6e6;fill-opacity:1;fill-rule:evenodd;stroke:#000000;stroke-width:0.80000001;stroke-miterlimit:4;stroke-opacity:1;stroke-dasharray:none" />
      <path
         id="path7598"
         d="m 814.9901,568.11791 c -1.83083,1.55999 -4.04728,2.73437 -5.83056,4.34192 2.68113,1.32996 4.98441,3.0383 7.69138,4.34139 1.8112,-1.49692 3.61826,-2.99799 5.33435,-4.59002 -2.45886,-1.30412 -4.55435,-2.97163 -7.19517,-4.09329 z"
         style="fill:#e6e6e6;fill-opacity:1;fill-rule:evenodd;stroke:#000000;stroke-width:0.80000001;stroke-miterlimit:4;stroke-opacity:1;stroke-dasharray:none" />
      <path
         id="path7594"
         d="m 804.94168,570.47443 c -1.91664,1.68146 -4.28712,2.90857 -6.07919,4.71408 2.42216,1.25864 4.53626,2.82431 6.823,4.21786 2.23298,-1.44731 4.20597,-3.15512 6.20273,-4.83762 -2.33222,-1.34754 -4.5373,-2.82327 -6.94654,-4.09432 z"
         style="fill:#e6e6e6;fill-opacity:1;fill-rule:evenodd;stroke:#000000;stroke-width:0.80000001;stroke-miterlimit:4;stroke-opacity:1;stroke-dasharray:none" />
      <path
         id="path7592"
         d="m 834.46616,571.09522 c -1.5605,1.74762 -3.67046,2.94579 -5.21029,4.71408 2.25883,1.132 4.21527,2.56638 6.45084,3.72164 1.79052,-1.55895 3.69786,-3.00109 5.4584,-4.59002 -2.15286,-1.36202 -4.3264,-2.70284 -6.69895,-3.8457 z"
         style="fill:#e6e6e6;fill-opacity:1;fill-rule:evenodd;stroke:#000000;stroke-width:0.80000001;stroke-miterlimit:4;stroke-opacity:1;stroke-dasharray:none" />
      <path
         id="path7590"
         d="m 792.41216,571.7155 c -2.24384,1.93215 -4.86397,3.48903 -7.07111,5.45892 2.4692,1.41732 4.58175,3.19234 7.19517,4.46597 2.38546,-1.79104 4.66497,-3.68805 6.94706,-5.58246 -2.3281,-1.47677 -4.69289,-2.91632 -7.07112,-4.34243 z"
         style="fill:#e6e6e6;fill-opacity:1;fill-rule:evenodd;stroke:#000000;stroke-width:0.80000001;stroke-miterlimit:4;stroke-opacity:1;stroke-dasharray:none" />
      <path
         id="path7588"
         d="m 822.43338,572.58388 c -1.57084,1.65458 -3.5552,2.89616 -5.08624,4.59054 3.99818,2.5762 8.22379,4.92548 12.28141,7.44276 1.79414,-1.63804 3.97182,-2.89254 5.4584,-4.83813 -4.20493,-2.41183 -8.13023,-5.10226 -12.65357,-7.19517 z"
         style="fill:#e6e6e6;fill-opacity:1;fill-rule:evenodd;stroke:#000000;stroke-width:0.80000001;stroke-miterlimit:4;stroke-opacity:1;stroke-dasharray:none" />
      <path
         id="path7586"
         d="m 812.2609,574.94092 c -1.87115,1.68456 -4.07312,3.03934 -5.83005,4.83761 5.5225,3.40944 11.00416,6.85971 16.62281,10.173 2.17457,-1.58842 4.1641,-3.3624 6.20273,-5.08624 -5.813,-3.16081 -11.05896,-6.88762 -16.99549,-9.92437 z"
         style="fill:#e6e6e6;fill-opacity:1;fill-rule:evenodd;stroke:#000000;stroke-width:0.80000001;stroke-miterlimit:4;stroke-opacity:1;stroke-dasharray:none" />
      <path
         id="path7584"
         d="m 799.85544,576.42957 c -1.05757,0.92731 -2.29088,1.67888 -3.2249,2.72921 2.51831,1.40957 4.89085,2.96542 7.3187,4.46596 1.03896,-0.98727 2.33533,-1.71764 3.34948,-2.7292 -2.59585,-1.37442 -4.75853,-3.18097 -7.44328,-4.46597 z"
         style="fill:#e6e6e6;fill-opacity:1;fill-rule:evenodd;stroke:#000000;stroke-width:0.80000001;stroke-miterlimit:4;stroke-opacity:1;stroke-dasharray:none" />
      <path
         id="path7582"
         d="m 796.13328,579.40689 c -0.93971,1.00329 -2.36737,1.51966 -3.10136,2.7292 2.40718,1.43851 4.57503,3.11635 7.07111,4.46596 1.01467,-0.93454 2.7628,-1.7776 3.22542,-2.85325 -2.44697,-1.3982 -4.71821,-2.97318 -7.19517,-4.34191 z"
         style="fill:#e6e6e6;fill-opacity:1;fill-rule:evenodd;stroke:#000000;stroke-width:0.80000001;stroke-miterlimit:4;stroke-opacity:1;stroke-dasharray:none" />
      <path
         id="path7580"
         d="m 807.67088,581.2677 c -0.96194,1.02242 -2.39787,1.57136 -3.22542,2.72869 2.57569,1.27001 4.71201,2.9799 7.31922,4.21786 1.02087,-0.92266 2.34567,-1.54086 3.10137,-2.7292 -2.48885,-1.31498 -4.65205,-2.95612 -7.19517,-4.21735 z"
         style="fill:#e6e6e6;fill-opacity:1;fill-rule:evenodd;stroke:#000000;stroke-width:0.80000001;stroke-miterlimit:4;stroke-opacity:1;stroke-dasharray:none" />
      <path
         id="path7576"
         d="m 803.82519,584.24502 c -0.98055,1.0038 -2.29139,1.67835 -3.22542,2.7292 2.27485,1.61167 4.54918,3.22438 7.07111,4.59002 1.14337,-1.00691 2.50332,-1.79776 3.47353,-2.97783 -2.37461,-1.51191 -4.71666,-3.05743 -7.31922,-4.34139 z"
         style="fill:#e6e6e6;fill-opacity:1;fill-rule:evenodd;stroke:#000000;stroke-width:0.80000001;stroke-miterlimit:4;stroke-opacity:1;stroke-dasharray:none" />
      <path
         id="path7574"
         d="m 815.36227,585.98126 c -1.06274,0.88079 -2.19215,1.69438 -3.2249,2.60515 2.58964,1.33876 4.81848,3.03831 7.44276,4.34191 0.95367,-0.94902 2.22316,-1.58118 2.97731,-2.7292 -2.57207,-1.23176 -4.56728,-3.04089 -7.19517,-4.21786 z"
         style="fill:#e6e6e6;fill-opacity:1;fill-rule:evenodd;stroke:#000000;stroke-width:0.80000001;stroke-miterlimit:4;stroke-opacity:1;stroke-dasharray:none" />
      <path
         id="path7572"
         d="m 811.64063,588.95909 c -1.19454,0.99761 -2.40821,1.97454 -3.59758,2.97731 2.41699,1.47005 4.65515,3.11843 7.19516,4.46597 1.35789,-0.91594 2.63203,-1.91613 3.72113,-3.10137 -2.33843,-1.54809 -4.69444,-3.07914 -7.31871,-4.34191 z"
         style="fill:#e6e6e6;fill-opacity:1;fill-rule:evenodd;stroke:#000000;stroke-width:0.80000001;stroke-miterlimit:4;stroke-opacity:1;stroke-dasharray:none" />
      <path
         id="path5369"
         d="m 766.85691,575.18903 c -5.50803,3.29985 -10.54051,7.07525 -15.87899,10.54464 -0.29463,0.0775 0.0191,0.76397 -0.24811,0.86838 -2.5302,1.25554 -4.95133,3.35775 -7.31923,4.59002 -0.77585,0.4037 -2.67027,0.67197 -3.84569,0.12406 -0.74226,-0.3458 -1.54396,-1.3584 -2.35704,-1.98487 -5.39689,-4.1579 -12.20491,-8.88025 -17.36765,-12.90169 -0.25276,-0.32616 -0.35614,-0.8017 -0.62027,-1.11649 0.13439,-0.81617 0.35045,-1.55171 0.62027,-2.23298 5.36071,-3.67305 11.62186,-7.12125 17.49171,-10.6687 1.93163,-1.16715 3.77849,-2.69664 5.70651,-3.59758 1.09426,-0.51121 2.63461,-0.49674 4.0938,-0.37217 5.50079,3.89325 12.41684,8.31683 18.6082,12.40547 0.73605,0.48588 2.24745,1.44575 2.35703,1.98487 0.26,1.27776 -0.84925,1.58687 -1.24054,2.35704 z m -3.72164,1.61271 c 0.98468,-0.71021 3.95889,-1.90631 4.0938,-2.97731 0.1773,-1.40544 -3.50092,-3.14117 -4.71407,-3.96975 -4.73631,-3.23421 -8.56391,-5.68067 -13.14979,-8.68434 -0.96194,-0.6301 -1.96575,-1.51915 -2.72921,-1.73625 -2.13787,-0.60838 -3.86533,0.87872 -5.08624,1.61271 -4.45511,2.677 -9.32994,5.59486 -13.52195,8.31166 7.44018,5.46099 14.96822,10.83514 22.702,16.00305 4.08294,-2.80105 8.28891,-5.58918 12.40546,-8.55977 z m -28.40851,-12.15736 c 2.8729,-1.67577 5.75407,-3.34378 8.43571,-5.21029 -2.88168,1.66698 -5.76078,3.33655 -8.43571,5.21029 z m -2.35704,1.36461 c 0.42696,-0.19332 0.81721,-0.42282 1.11649,-0.74382 -0.43264,0.18712 -0.88957,0.35046 -1.11649,0.74382 z m -2.7292,1.61271 c 0.42592,-0.28016 1.47367,-0.5903 1.3646,-0.99244 -0.36183,0.42333 -1.05188,0.51948 -1.3646,0.99244 z m -1.61271,1.11649 c 0.30135,-0.44557 1.45712,-0.69006 1.3646,-1.11649 -0.30135,0.44556 -1.45712,0.68953 -1.3646,1.11649 z m -1.3646,0.49622 c -1.72074,1.13251 -3.57226,2.13425 -5.08624,3.47353 2.6465,0.0827 5.62329,-0.16489 8.06355,0.12405 -2.59378,0.90818 -9.95125,-1.45816 -9.67626,1.73676 0.0543,0.63165 1.18007,1.5512 2.10893,2.23247 5.32401,3.90514 10.33737,7.71982 15.25872,11.53708 1.51553,1.1749 3.18975,2.7137 5.4584,1.86082 1.17438,-0.44143 2.5028,-1.49124 3.72164,-2.23247 1.36512,-0.83064 2.67596,-1.57549 3.59758,-2.35755 -7.90331,-5.37002 -15.48201,-11.06516 -23.44632,-16.37469 z m -1.24055,10.54412 c -1.68766,-1.12476 -3.47456,-2.81035 -5.08624,-3.59758 1.63029,1.18265 3.51798,2.76745 5.08624,3.59758 z m 1.24055,0.8689 c -0.47709,-0.0238 -0.84512,-0.80274 -1.11649,-0.62027 0.29049,0.21037 0.79188,0.85546 1.11649,0.62027 z m 0.99244,0.99244 c 0.0331,-0.3856 -0.95109,-0.86373 -0.74433,-0.62027 0.23312,0.22226 0.46675,0.44297 0.74433,0.62027 z m 2.10892,1.3646 c -0.46727,0.045 -0.96659,-1.03172 -1.11649,-0.49622 0.46934,-0.009 0.74847,0.81566 1.11649,0.49622 z m 9.55221,7.44328 c 0.88854,1.19971 4.00025,0.73709 4.34191,-0.24811 -0.83375,0.93144 -3.56037,0.63113 -4.34191,0.24811 z"
         clip-rule="evenodd"
         style="fill:#000000;fill-rule:evenodd" />
      <path
         id="path5075"
         d="m 892.6483,468.99826 c -0.0894,2.12444 -1.19609,4.00594 -1.98487,5.83057 -10.92146,25.26528 -21.73386,50.93373 -32.75042,76.54171 -0.61407,1.42663 -1.63339,4.83503 -2.60515,5.08676 -1.10719,0.28584 -4.98441,-2.16838 -5.83057,-2.60515 -12.90788,-6.66639 -25.34849,-13.71786 -38.20882,-20.46953 -10.49296,-5.50854 -21.79123,-11.62702 -32.75043,-17.49171 -1.72281,-0.92213 -3.82036,-1.84634 -5.58245,-2.85325 -1.21677,-0.69522 -4.84899,-2.23557 -5.08624,-3.22542 -0.26724,-1.11339 1.14337,-3.61723 1.61271,-4.83813 1.80137,-4.68462 3.56502,-9.71038 5.21029,-14.14223 4.66962,-12.57862 9.49948,-24.84142 14.26628,-37.21639 1.70937,-4.43754 3.49834,-9.20434 5.33435,-14.01817 0.57117,-1.49745 1.30206,-3.84415 1.98488,-4.46597 1.77139,-0.14059 4.40393,1.0219 6.69895,1.86082 13.91427,5.08676 28.24723,9.93626 42.05452,14.7625 14.20477,4.9658 27.7505,10.00707 41.93046,14.88656 1.9368,0.66627 4.01834,1.12683 5.70651,2.35703 z m -96.39044,-33.12258 c -9.35682,24.55144 -18.96434,48.85168 -27.9123,73.8125 3.34793,2.3405 7.05509,4.0323 10.6687,5.95463 25.33868,13.4806 50.63083,27.17778 76.04549,40.4418 1.28345,-1.48813 1.72022,-3.44975 2.48161,-5.21029 5.45168,-12.6117 10.97728,-25.22289 16.25064,-37.9602 6.02182,-14.5454 12.76574,-28.83908 18.48466,-43.54317 -1.66285,-1.27828 -3.79504,-1.67474 -5.70652,-2.35704 -1.99107,-0.71073 -3.96561,-1.40647 -5.95514,-2.10893 -23.94306,-8.45743 -47.56513,-17.08801 -71.70357,-25.30715 -3.50196,-1.19247 -8.78152,-3.28641 -12.28141,-4.0938 -0.17833,0.0688 -0.3029,0.1928 -0.37216,0.37165 z"
         clip-rule="evenodd"
         style="fill:#000000;fill-rule:evenodd" />
    </g>
    <g
       style="overflow:visible"
       id="g5765"
       transform="matrix(0.19777025,0.74610374,-0.75003122,0.19767925,251.52868,317.39193)">
      <g
         id="g6119"
         transform="matrix(-0.89442948,1.3537356,1.3537356,0.89442948,209.94285,-122.53995)">
        <path
           style="fill:#d70751;fill-opacity:1;fill-rule:nonzero;stroke:none;stroke-width:2.05599999;marker:none;visibility:visible;display:inline;overflow:visible;enable-background:accumulate"
           d="M 62.847911,48.022093 88.647144,56.556135 59.0991,84.95281 42.78404,68.86765 62.847911,48.022093 z"
           id="rect3356"
           sodipodi:nodetypes="ccccc" />
        <path
           style="fill:none;stroke:#000000;stroke-width:4.06772089;stroke-linecap:round;stroke-linejoin:round;stroke-miterlimit:4;stroke-opacity:1;stroke-dasharray:none"
           d="m 104.86282,4.33306 -4.5625,4.46875 5.65625,5.78125 -12.656247,12.4375 8.312497,8.5 12.6875,-12.4375 5.65625,5.78125 4.5625,-4.46875 -19.65625,-20.0625 z m -16.218747,18.21875 -47.031253,46.0625 17.34375,17.71875 47,-46.09375 -17.312497,-17.6875 z m -40.906253,52.40625 -10.34375,10.125 1.3125,1.34375 -32.1250001,30.25 -1.59375,5.96875 35.8437501,-34.0625 1.71875,1.75 10.34375,-10.09375 -5.15625,-5.28125 z"
           id="path3284" />
        <path
           style="fill:#c0c0c0;fill-opacity:1;fill-rule:evenodd;stroke:none;display:inline"
           d="M 39.36646,85.81679 6.58138,116.6794 4.9851,122.65515 41.42188,87.9924 39.36646,85.81679 z"
           id="path3218"
           sodipodi:nodetypes="ccccc" />
        <rect
           style="fill:#d70751;fill-opacity:1;fill-rule:nonzero;stroke:#000000;stroke-width:2.25633836;stroke-linecap:round;stroke-linejoin:round;stroke-miterlimit:4;stroke-opacity:1;stroke-dasharray:none;stroke-dashoffset:0;marker:none;visibility:visible;display:inline;overflow:visible;enable-background:accumulate"
           id="rect2410"
           width="7.3671365"
           height="14.463974"
           x="86.947876"
           y="18.370602"
           transform="matrix(0.69984972,0.71429012,-0.71429012,0.69984972,0,0)" />
        <path
           style="fill:#00ffff;fill-rule:evenodd;stroke:#000000;stroke-width:2.25633836;stroke-linecap:round;stroke-linejoin:round;stroke-miterlimit:4;stroke-opacity:1;stroke-dasharray:none;display:inline"
           d="M 65.95313,78.74601 C 57.78649,70.41085 57.93232,70.55969 57.93232,70.55969"
           id="path3182" />
        <path
           id="path3200"
           d="M 74.54876,70.32415 C 66.38211,61.98899 66.52795,62.13784 66.52795,62.13784"
           style="fill:#00ffff;fill-rule:evenodd;stroke:#000000;stroke-width:2.25633836;stroke-linecap:round;stroke-linejoin:round;stroke-miterlimit:4;stroke-opacity:1;stroke-dasharray:none;display:inline" />
        <path
           style="fill:#00ffff;fill-rule:evenodd;stroke:#000000;stroke-width:2.25633836;stroke-linecap:round;stroke-linejoin:round;stroke-miterlimit:4;stroke-opacity:1;stroke-dasharray:none;display:inline"
           d="M 83.144388,61.90229 C 74.97774,53.56714 75.12358,53.71598 75.12358,53.71598"
           id="path3202" />
        <path
           id="path3204"
           d="M 91.740015,53.48044 C 83.573369,45.14528 83.719204,45.29413 83.719204,45.29413"
           style="fill:#00ffff;fill-rule:evenodd;stroke:#000000;stroke-width:2.25633836;stroke-linecap:round;stroke-linejoin:round;stroke-miterlimit:4;stroke-opacity:1;stroke-dasharray:none;display:inline" />
      </g>
    </g>
    <g
       style="overflow:visible;stroke:#000000"
       transform="matrix(0.16835727,0.09568156,-0.09568156,0.16835727,362.202,366.52998)"
       inkscape:label="Brain"
       id="layer2">
      <g
         inkscape:export-ydpi="2.8800001"
         inkscape:export-xdpi="2.8800001"
         transform="matrix(1.0155304,0,0,1.0155304,1.7573634,71.31895)"
         id="g2725"
         style="stroke:#000000">
        <path
           style="fill:#d70751;display:inline;stroke:#000000"
           i:knockout="Off"
           d="m 215.74201,479.87605 -5.79253,0.36503 c -5.62491,7.03748 -12.11799,13.1655 -15.81469,21.20531 7.96444,-7.20864 10.83957,-11.74277 21.60722,-21.57034"
           id="path2596" />
        <path
           style="fill:#d70751;display:inline;stroke:#000000"
           i:knockout="Off"
           d="m 219.47886,491.93252 c 2.2921,-3.53965 5.49405,-6.11913 8.61876,-8.90297 -5.89247,3.43544 -10.40595,8.44794 -15.08808,13.22997 l 6.46932,-4.327"
           id="path2598" />
        <path
           style="fill:#d70751;stroke:#000000"
           d="m 352.14351,592.05711 c -13.144,3.795 -46.927,17.762 -59.547,17.341 l -5.69,-5.079 c -13.061,-2.014 -7,2.31 -17.246,1.094 -10.821,-5.587 -33.582,-16.727 -36.944,-21.293 -1.213,-3.654 5.979,1.16 8.219,1.458 -12.019,-8.093 -9.475,6.986 -20.178,-7.346 l 1.053,-0.762 c -32.59205,-22.7974 -3.68564,-76.57793 52.596,-97.519 -3.844,0.534 -3.195,-0.464 -4.987,-0.937 26.72448,-1.31405 18.16469,-5.19537 43.49128,-11.85424 12.39572,-4.09959 9.1069,-8.15071 12.96087,-9.32035 -14.41207,0.0228 -18.69607,-1.1748 -37.58515,5.53259 -55.915,7.507 -72.738,31.092 -89.261,67.96 -2.083,5.657 -3.876,2.429 -6.522,3.788 1.957,-11.348 7.044,-22.574 14.588,-32.667 -5.485,5.735 -10.666,11.73 -13.953,18.617 0.392,-10.34 19.147,-28.779 18.78,-32.668 -28.616,24.913 -36.788,80.905 -14.591,103.509 -4.839,-11.841 -10.077,-27.108 -9.003,-42.057 1.422,-6.544 5.819,-16.034 7.65,-15.001 -2.976,39.294 1.963,48.786 42.094,71.924 10.008,5.944 25.318,11.318 26.367,13.732 -7.944,-2.013 -2.953,1.441 -9.813,0.087 17.645,3.952 4.84,-4.91 28.543,1.475 l -5.367,5.947 c 11.782,-4.711 57.961,-10.07 76.943,-16.5 7.158,1.799 -25.097,17.328 -40.085,17.303 16.981,1.007 38.138,-15.203 51.155,-17.149 -3.742,2.419 -7.582,5.349 -11.716,7.394 13.573,-6.923 45.947,-11.048 55.079,-11.623 0.256,-1.792 -8.27,-3.253 8.83,-8.438 7.591,-1.803 4.594,0.766 6.682,0.926 0.406,-1.456 5.018,-6.196 15.402,-11.001 3.128,0.765 -5.377,5.566 -5.051,7.623 8.365,-3.504 14.314,-7.383 21.054,-9.198 12.187,-9.356 -2.634,-1.546 3.717,-8.227 20.439,-11.858 7.076,3.722 17.627,1.868 -12.604,13.287 -35.413,24.834 -44.768,29.861 11.808,-5.02 22.823,-11.075 33.202,-17.695 -0.401,3.175 24.028,-11.049 9.047,1.692 35.07,-18.449 109.63656,-35.57999 116.90656,-66.16899 -2.349,4.104 -5.287,9.288 -6.503,8.012 4.554,-15.46 6.115,-13.344 9.356,-16.217 1.33,-11.971 -4.516,-11.262 -6.642,-18.418 5.459,-23.341 -4.44256,-33.43401 -3.16056,-53.96301 l -4.385,2.034 c 0.486,-14.664 -7.58,-15.016 -10.781,-29.913 0.494,-1.079 4.611,3.865 7.014,8.19 -6.662,-12.367 -1.394,-13.05 -9.514,-24.743 3.709,2.443 6.616,5.298 10.009,8.049 -4.54,-10.307 -16.303,-23.23 -8.752,-20.239 -15.268,-14.817 -38.993,-41.998 -64.195,-54.23 l 4.077,-1.621 c -13.991,-4.983 -45.66,-25.634 -60.901,-24.045 l -1.332,-1.948 c -9.667,-1.979 -19.911,-2.256 -29.508,-3.339 -12.717,-2.576 -6.97,-6.748 -8.391,-5.558 -29.037,-4.05 -52.141,-3.865 -71.178,-3.926 -6.33264,5.84009 -34.262,8.796 -56.711,15.82 -114.931,23.483 -188.380251,90.08316 -184.815805,194.81921 4.006775,15.15819 24.500405,27.00274 36.446855,36.79889 -10.4753,-15.69627 -4.05981,-9.10136 -16.09703,-23.20978 -7.11475,-10.82227 -5.70567,-15.43227 0.0543,-26.24227 l -5.906,5.2 c 1.029,-18.581 5.235,-11.984 5.463,-26.95 2.307,0.73 4.614,1.461 6.921,2.192 -1.464,-5.568 -4.283,-17.184 0.618,-21.105 l -2.425,-5.884 c 7.914,-9.814 10.118,-21.554 16.09,-22.765 l -4.775,-0.885 c 3.668,-3.31 29.913,-36.325 26.288,-21.737 1.683,-2.967 2.16,-6.464 8.21,-11.661 l 4.379,1.668 c 7.061,-8.361 17.06,-16.439 21.139,-17.052 -4.004,4.525 -4.17,7 -4.26,9.435 39.443,-26.635 -3.316,-16.7 35.792,-39.212 0.369,0.791 0.737,1.582 1.106,2.373 2.691,-2.718 5.906,-4.782 8.938,-7.188 4.319,-0.71 8.637,-1.421 12.956,-2.132 11.112,-14.776 67.90165,-10.56005 95.35165,-15.80705 11.319,-1.691 25.856,3.405 46.309,4.882 l -0.582,-3.919 c 17.357,3.369 74.071,25.592 77.382,41.728 13.969,4.67 -0.496,-1.51 1.801,-3.703 26.333,11.368 22.225,18.09 29.915,28.323 12.833,9.874 -7.044,-9.489 1.574,-5.452 13.818,19.213 19.693,11.093 32.677,37.432 -0.905,3.359 -5.385,-5.883 -8.759,-7.63 16.344,14.771 36.5012,61.8442 31.8852,89.6442 -5.56,32.285 -91.5722,52.9568 -134.8792,65.3388 l 0.057,1.544 c -17.658,3.702 -76.714,31.776 -97.04,31.336"
           id="path2490"
           sodipodi:nodetypes="ccccccccccccccccccccccccccccccccccccccccccccccccccccccccccccccccccccccccccccccccccccccccccccc" />
        <path
           style="fill:#d70751;display:inline;stroke:#000000"
           i:knockout="Off"
           d="m 409.46096,437.09419 c 7.26669,-7.07473 2.33738,5.03485 -5.58209,15.84382 -4.62208,0.5712 -8.98983,0.86871 -13.06965,0.97439 7.24762,-4.39653 13.21362,-10.2954 18.65174,-16.81821"
           id="path2584" />
        <path
           style="fill:#d70751;display:inline;stroke:#000000"
           i:knockout="Off"
           d="m 382.16943,461.30713 c -9.6974,3.50652 -19.6828,5.19858 -29.17847,4.07174 6.83451,0.55544 13.41827,-1.32159 20.27063,-2.9301 16.73493,-14.89706 -6.31008,-3.68937 -13.76173,-3.99218 30.32696,-12.44476 15.56966,1.57539 22.66957,2.85054"
           id="path2586" />
        <path
           style="fill:#d70751;display:inline;stroke:#000000"
           i:knockout="Off"
           d="m 342.63854,465.30284 c -18.27936,1.01777 -12.43907,-3.73926 -5.46269,-5.27853 0.96848,1.89875 12.84191,3.54031 5.46269,5.27853"
           id="path2588" />
        <path
           style="fill:#d70751;display:inline;stroke:#000000"
           i:knockout="Off"
           d="m 530.20382,347.62316 c 23.47676,14.90397 20.07236,37.02155 18.64946,8.83781 -18.01001,-28.36583 -9.63957,-1.73775 -18.64946,-8.83781"
           id="path2604" />
        <path
           style="fill:#d70751;display:inline;stroke:#000000"
           i:knockout="Off"
           d="m 416.40084,297.82351 c 21.30349,6.95292 34.08262,8.19821 46.43183,10.85188 -24.52052,-19.16869 -29.75373,-8.83568 -46.43183,-10.85188"
           id="path2606" />
      </g>
    </g>
  </g>
</svg>
