<?xml version="1.0" encoding="UTF-8" standalone="no"?>
<svg
   xmlns:i="http://ns.adobe.com/AdobeIllustrator/10.0/"
   xmlns:dc="http://purl.org/dc/elements/1.1/"
   xmlns:cc="http://creativecommons.org/ns#"
   xmlns:rdf="http://www.w3.org/1999/02/22-rdf-syntax-ns#"
   xmlns:svg="http://www.w3.org/2000/svg"
   xmlns="http://www.w3.org/2000/svg"
   xmlns:xlink="http://www.w3.org/1999/xlink"
   xmlns:sodipodi="http://sodipodi.sourceforge.net/DTD/sodipodi-0.dtd"
   xmlns:inkscape="http://www.inkscape.org/namespaces/inkscape"
   inkscape:export-ydpi="28.83"
   inkscape:export-xdpi="28.83"
   inkscape:export-filename="/tmp/debneuro.png"
   version="1.0"
   inkscape:output_extension="org.inkscape.output.svg.inkscape"
   sodipodi:docname="nd_freeze.svg"
   inkscape:version="1.0alpha (e25c9f7d36, 2019-01-13)"
   sodipodi:version="0.32"
   id="svg2"
   height="354.33069"
   width="513.77954">
  <defs
     id="defs4">
    <inkscape:perspective
       id="perspective49"
       inkscape:persp3d-origin="285.23621 : 134.29133 : 1"
       inkscape:vp_z="570.47241 : 201.437 : 1"
       inkscape:vp_y="0 : 1000 : 0"
       inkscape:vp_x="0 : 201.437 : 1"
       sodipodi:type="inkscape:persp3d" />
    <filter
       y="-0.25"
       x="-0.25"
       height="1.5"
       width="1.5"
       color-interpolation-filters="sRGB"
       inkscape:menu-tooltip="Adds a colorizable drop shadow inside"
       inkscape:menu="Shadows and Glows"
       inkscape:label="Drop shadow"
       id="filter3138">
      <feGaussianBlur
         result="result8"
         stdDeviation="4"
         id="feGaussianBlur3140" />
      <feOffset
         result="result11"
         dy="4"
         dx="4"
         id="feOffset3142" />
      <feComposite
         operator="in"
         in="SourceGraphic"
         result="result6"
         in2="result11"
         id="feComposite3144" />
      <feFlood
         flood-color="rgb(0,0,0)"
         flood-opacity="1"
         in="result6"
         result="result10"
         id="feFlood3146" />
      <feBlend
         result="result12"
         in="result6"
         mode="normal"
         in2="result10"
         id="feBlend3148" />
      <feComposite
         operator="in"
         result="fbSourceGraphic"
         in2="SourceGraphic"
         id="feComposite3150" />
      <feColorMatrix
         id="feColorMatrix3250"
         values="0 0 0 -1 0 0 0 0 -1 0 0 0 0 -1 0 0 0 0 1 0"
         in="fbSourceGraphic"
         result="fbSourceGraphicAlpha" />
      <feGaussianBlur
         result="blur"
         stdDeviation="10"
         in="fbSourceGraphicAlpha"
         id="feGaussianBlur3252" />
      <feColorMatrix
         values="1 0 0 0 0 0 1 0 0 0 0 0 1 0 0 0 0 0 0.5 0 "
         type="matrix"
         result="bluralpha"
         id="feColorMatrix3254" />
      <feOffset
         result="offsetBlur"
         dy="12"
         dx="12"
         in="bluralpha"
         id="feOffset3256" />
      <feMerge
         id="feMerge3258">
        <feMergeNode
           in="offsetBlur"
           id="feMergeNode3260" />
        <feMergeNode
           in="fbSourceGraphic"
           id="feMergeNode3262" />
      </feMerge>
    </filter>
    <filter
       y="-0.25"
       x="-0.25"
       height="1.5"
       width="1.5"
       color-interpolation-filters="sRGB"
       inkscape:menu-tooltip="Adds a colorizable drop shadow inside"
       inkscape:menu="Shadows and Glows"
       inkscape:label="Drop shadow"
       id="filter3152">
      <feGaussianBlur
         result="result8"
         stdDeviation="4"
         id="feGaussianBlur3154" />
      <feOffset
         result="result11"
         dy="4"
         dx="4"
         id="feOffset3156" />
      <feComposite
         operator="in"
         in="SourceGraphic"
         result="result6"
         in2="result11"
         id="feComposite3158" />
      <feFlood
         flood-color="rgb(0,0,0)"
         flood-opacity="1"
         in="result6"
         result="result10"
         id="feFlood3160" />
      <feBlend
         result="result12"
         in="result6"
         mode="normal"
         in2="result10"
         id="feBlend3162" />
      <feComposite
         operator="in"
         result="fbSourceGraphic"
         in2="SourceGraphic"
         id="feComposite3164" />
      <feColorMatrix
         id="feColorMatrix3264"
         values="0 0 0 -1 0 0 0 0 -1 0 0 0 0 -1 0 0 0 0 1 0"
         in="fbSourceGraphic"
         result="fbSourceGraphicAlpha" />
      <feGaussianBlur
         result="blur"
         stdDeviation="10"
         in="fbSourceGraphicAlpha"
         id="feGaussianBlur3266" />
      <feColorMatrix
         values="1 0 0 0 0 0 1 0 0 0 0 0 1 0 0 0 0 0 0.5 0 "
         type="matrix"
         result="bluralpha"
         id="feColorMatrix3268" />
      <feOffset
         result="offsetBlur"
         dy="12"
         dx="12"
         in="bluralpha"
         id="feOffset3270" />
      <feMerge
         id="feMerge3272">
        <feMergeNode
           in="offsetBlur"
           id="feMergeNode3274" />
        <feMergeNode
           in="fbSourceGraphic"
           id="feMergeNode3276" />
      </feMerge>
    </filter>
    <filter
       y="-0.25"
       x="-0.25"
       height="1.5"
       width="1.5"
       color-interpolation-filters="sRGB"
       inkscape:menu-tooltip="Adds a colorizable drop shadow inside"
       inkscape:menu="Shadows and Glows"
       inkscape:label="Drop shadow"
       id="filter3166">
      <feGaussianBlur
         result="result8"
         stdDeviation="4"
         id="feGaussianBlur3168" />
      <feOffset
         result="result11"
         dy="4"
         dx="4"
         id="feOffset3170" />
      <feComposite
         operator="in"
         in="SourceGraphic"
         result="result6"
         in2="result11"
         id="feComposite3172" />
      <feFlood
         flood-color="rgb(0,0,0)"
         flood-opacity="1"
         in="result6"
         result="result10"
         id="feFlood3174" />
      <feBlend
         result="result12"
         in="result6"
         mode="normal"
         in2="result10"
         id="feBlend3176" />
      <feComposite
         operator="in"
         result="fbSourceGraphic"
         in2="SourceGraphic"
         id="feComposite3178" />
      <feColorMatrix
         id="feColorMatrix3278"
         values="0 0 0 -1 0 0 0 0 -1 0 0 0 0 -1 0 0 0 0 1 0"
         in="fbSourceGraphic"
         result="fbSourceGraphicAlpha" />
      <feGaussianBlur
         result="blur"
         stdDeviation="10"
         in="fbSourceGraphicAlpha"
         id="feGaussianBlur3280" />
      <feColorMatrix
         values="1 0 0 0 0 0 1 0 0 0 0 0 1 0 0 0 0 0 0.5 0 "
         type="matrix"
         result="bluralpha"
         id="feColorMatrix3282" />
      <feOffset
         result="offsetBlur"
         dy="12"
         dx="12"
         in="bluralpha"
         id="feOffset3284" />
      <feMerge
         id="feMerge3286">
        <feMergeNode
           in="offsetBlur"
           id="feMergeNode3288" />
        <feMergeNode
           in="fbSourceGraphic"
           id="feMergeNode3290" />
      </feMerge>
    </filter>
    <filter
       y="-0.25"
       x="-0.25"
       height="1.5"
       width="1.5"
       color-interpolation-filters="sRGB"
       inkscape:menu-tooltip="Adds a colorizable drop shadow inside"
       inkscape:menu="Shadows and Glows"
       inkscape:label="Drop shadow"
       id="filter3180">
      <feGaussianBlur
         result="result8"
         stdDeviation="4"
         id="feGaussianBlur3182" />
      <feOffset
         result="result11"
         dy="4"
         dx="4"
         id="feOffset3184" />
      <feComposite
         operator="in"
         in="SourceGraphic"
         result="result6"
         in2="result11"
         id="feComposite3186" />
      <feFlood
         flood-color="rgb(0,0,0)"
         flood-opacity="1"
         in="result6"
         result="result10"
         id="feFlood3188" />
      <feBlend
         result="result12"
         in="result6"
         mode="normal"
         in2="result10"
         id="feBlend3190" />
      <feComposite
         operator="in"
         result="fbSourceGraphic"
         in2="SourceGraphic"
         id="feComposite3192" />
      <feColorMatrix
         id="feColorMatrix3292"
         values="0 0 0 -1 0 0 0 0 -1 0 0 0 0 -1 0 0 0 0 1 0"
         in="fbSourceGraphic"
         result="fbSourceGraphicAlpha" />
      <feGaussianBlur
         result="blur"
         stdDeviation="10"
         in="fbSourceGraphicAlpha"
         id="feGaussianBlur3294" />
      <feColorMatrix
         values="1 0 0 0 0 0 1 0 0 0 0 0 1 0 0 0 0 0 0.5 0 "
         type="matrix"
         result="bluralpha"
         id="feColorMatrix3296" />
      <feOffset
         result="offsetBlur"
         dy="12"
         dx="12"
         in="bluralpha"
         id="feOffset3298" />
      <feMerge
         id="feMerge3300">
        <feMergeNode
           in="offsetBlur"
           id="feMergeNode3302" />
        <feMergeNode
           in="fbSourceGraphic"
           id="feMergeNode3304" />
      </feMerge>
    </filter>
    <filter
       y="-0.25"
       x="-0.25"
       height="1.5"
       width="1.5"
       color-interpolation-filters="sRGB"
       inkscape:menu-tooltip="Adds a colorizable drop shadow inside"
       inkscape:menu="Shadows and Glows"
       inkscape:label="Drop shadow"
       id="filter3194">
      <feGaussianBlur
         result="result8"
         stdDeviation="4"
         id="feGaussianBlur3196" />
      <feOffset
         result="result11"
         dy="4"
         dx="4"
         id="feOffset3198" />
      <feComposite
         operator="in"
         in="SourceGraphic"
         result="result6"
         in2="result11"
         id="feComposite3200" />
      <feFlood
         flood-color="rgb(0,0,0)"
         flood-opacity="1"
         in="result6"
         result="result10"
         id="feFlood3202" />
      <feBlend
         result="result12"
         in="result6"
         mode="normal"
         in2="result10"
         id="feBlend3204" />
      <feComposite
         operator="in"
         result="fbSourceGraphic"
         in2="SourceGraphic"
         id="feComposite3206" />
      <feColorMatrix
         id="feColorMatrix3306"
         values="0 0 0 -1 0 0 0 0 -1 0 0 0 0 -1 0 0 0 0 1 0"
         in="fbSourceGraphic"
         result="fbSourceGraphicAlpha" />
      <feGaussianBlur
         result="blur"
         stdDeviation="10"
         in="fbSourceGraphicAlpha"
         id="feGaussianBlur3308" />
      <feColorMatrix
         values="1 0 0 0 0 0 1 0 0 0 0 0 1 0 0 0 0 0 0.5 0 "
         type="matrix"
         result="bluralpha"
         id="feColorMatrix3310" />
      <feOffset
         result="offsetBlur"
         dy="12"
         dx="12"
         in="bluralpha"
         id="feOffset3312" />
      <feMerge
         id="feMerge3314">
        <feMergeNode
           in="offsetBlur"
           id="feMergeNode3316" />
        <feMergeNode
           in="fbSourceGraphic"
           id="feMergeNode3318" />
      </feMerge>
    </filter>
    <filter
       y="-0.25"
       x="-0.25"
       height="1.5"
       width="1.5"
       color-interpolation-filters="sRGB"
       inkscape:menu-tooltip="Adds a colorizable drop shadow inside"
       inkscape:menu="Shadows and Glows"
       inkscape:label="Drop shadow"
       id="filter3208">
      <feGaussianBlur
         result="result8"
         stdDeviation="4"
         id="feGaussianBlur3210" />
      <feOffset
         result="result11"
         dy="4"
         dx="4"
         id="feOffset3212" />
      <feComposite
         operator="in"
         in="SourceGraphic"
         result="result6"
         in2="result11"
         id="feComposite3214" />
      <feFlood
         flood-color="rgb(0,0,0)"
         flood-opacity="1"
         in="result6"
         result="result10"
         id="feFlood3216" />
      <feBlend
         result="result12"
         in="result6"
         mode="normal"
         in2="result10"
         id="feBlend3218" />
      <feComposite
         operator="in"
         result="fbSourceGraphic"
         in2="SourceGraphic"
         id="feComposite3220" />
      <feColorMatrix
         id="feColorMatrix3320"
         values="0 0 0 -1 0 0 0 0 -1 0 0 0 0 -1 0 0 0 0 1 0"
         in="fbSourceGraphic"
         result="fbSourceGraphicAlpha" />
      <feGaussianBlur
         result="blur"
         stdDeviation="10"
         in="fbSourceGraphicAlpha"
         id="feGaussianBlur3322" />
      <feColorMatrix
         values="1 0 0 0 0 0 1 0 0 0 0 0 1 0 0 0 0 0 0.5 0 "
         type="matrix"
         result="bluralpha"
         id="feColorMatrix3324" />
      <feOffset
         result="offsetBlur"
         dy="12"
         dx="12"
         in="bluralpha"
         id="feOffset3326" />
      <feMerge
         id="feMerge3328">
        <feMergeNode
           in="offsetBlur"
           id="feMergeNode3330" />
        <feMergeNode
           in="fbSourceGraphic"
           id="feMergeNode3332" />
      </feMerge>
    </filter>
    <filter
       y="-0.25"
       x="-0.25"
       height="1.5"
       width="1.5"
       color-interpolation-filters="sRGB"
       inkscape:menu-tooltip="Adds a colorizable drop shadow inside"
       inkscape:menu="Shadows and Glows"
       inkscape:label="Drop shadow"
       id="filter3222">
      <feGaussianBlur
         result="result8"
         stdDeviation="4"
         id="feGaussianBlur3224" />
      <feOffset
         result="result11"
         dy="4"
         dx="4"
         id="feOffset3226" />
      <feComposite
         operator="in"
         in="SourceGraphic"
         result="result6"
         in2="result11"
         id="feComposite3228" />
      <feFlood
         flood-color="rgb(0,0,0)"
         flood-opacity="1"
         in="result6"
         result="result10"
         id="feFlood3230" />
      <feBlend
         result="result12"
         in="result6"
         mode="normal"
         in2="result10"
         id="feBlend3232" />
      <feComposite
         operator="in"
         result="fbSourceGraphic"
         in2="SourceGraphic"
         id="feComposite3234" />
      <feColorMatrix
         id="feColorMatrix3334"
         values="0 0 0 -1 0 0 0 0 -1 0 0 0 0 -1 0 0 0 0 1 0"
         in="fbSourceGraphic"
         result="fbSourceGraphicAlpha" />
      <feGaussianBlur
         result="blur"
         stdDeviation="10"
         in="fbSourceGraphicAlpha"
         id="feGaussianBlur3336" />
      <feColorMatrix
         values="1 0 0 0 0 0 1 0 0 0 0 0 1 0 0 0 0 0 0.5 0 "
         type="matrix"
         result="bluralpha"
         id="feColorMatrix3338" />
      <feOffset
         result="offsetBlur"
         dy="12"
         dx="12"
         in="bluralpha"
         id="feOffset3340" />
      <feMerge
         id="feMerge3342">
        <feMergeNode
           in="offsetBlur"
           id="feMergeNode3344" />
        <feMergeNode
           in="fbSourceGraphic"
           id="feMergeNode3346" />
      </feMerge>
    </filter>
    <filter
       y="-0.25"
       x="-0.25"
       height="1.5"
       width="1.5"
       color-interpolation-filters="sRGB"
       inkscape:menu-tooltip="Adds a colorizable drop shadow inside"
       inkscape:menu="Shadows and Glows"
       inkscape:label="Drop shadow"
       id="filter3236">
      <feGaussianBlur
         result="result8"
         stdDeviation="4"
         id="feGaussianBlur3238" />
      <feOffset
         result="result11"
         dy="4"
         dx="4"
         id="feOffset3240" />
      <feComposite
         operator="in"
         in="SourceGraphic"
         result="result6"
         in2="result11"
         id="feComposite3242" />
      <feFlood
         flood-color="rgb(0,0,0)"
         flood-opacity="1"
         in="result6"
         result="result10"
         id="feFlood3244" />
      <feBlend
         result="result12"
         in="result6"
         mode="normal"
         in2="result10"
         id="feBlend3246" />
      <feComposite
         operator="in"
         result="fbSourceGraphic"
         in2="SourceGraphic"
         id="feComposite3248" />
      <feColorMatrix
         id="feColorMatrix3348"
         values="0 0 0 -1 0 0 0 0 -1 0 0 0 0 -1 0 0 0 0 1 0"
         in="fbSourceGraphic"
         result="fbSourceGraphicAlpha" />
      <feGaussianBlur
         result="blur"
         stdDeviation="10"
         in="fbSourceGraphicAlpha"
         id="feGaussianBlur3350" />
      <feColorMatrix
         values="1 0 0 0 0 0 1 0 0 0 0 0 1 0 0 0 0 0 0.5 0 "
         type="matrix"
         result="bluralpha"
         id="feColorMatrix3352" />
      <feOffset
         result="offsetBlur"
         dy="12"
         dx="12"
         in="bluralpha"
         id="feOffset3354" />
      <feMerge
         id="feMerge3356">
        <feMergeNode
           in="offsetBlur"
           id="feMergeNode3358" />
        <feMergeNode
           in="fbSourceGraphic"
           id="feMergeNode3360" />
      </feMerge>
    </filter>
    <filter
       id="filter1411"
       style="color-interpolation-filters:sRGB;"
       inkscape:label="Dark and Glow"
       inkscape:menu="Shadows and Glows"
       inkscape:menu-tooltip="Darkens the edge with an inner blur and adds a flexible glow"
       height="1.5"
       y="-0.25">
      <feGaussianBlur
         id="feGaussianBlur1401"
         result="result6"
         stdDeviation="5" />
      <feComposite
         id="feComposite1403"
         in2="result6"
         operator="atop"
         in="SourceGraphic"
         result="result8" />
      <feComposite
         id="feComposite1405"
         in="result8"
         in2="SourceAlpha"
         operator="over"
         result="result9" />
      <feColorMatrix
         id="feColorMatrix1407"
         result="result10"
         values="1 0 0 0 0 0 1 0 0 0 0 0 1 0 0 0 0 0 1 0 " />
      <feBlend
         id="feBlend1409"
         in2="result6"
         mode="normal"
         in="result10" />
    </filter>
    <filter
       id="filter1423"
       style="color-interpolation-filters:sRGB;"
       inkscape:label="Dark and Glow"
       inkscape:menu="Shadows and Glows"
       inkscape:menu-tooltip="Darkens the edge with an inner blur and adds a flexible glow"
       height="1.5"
       y="-0.25">
      <feGaussianBlur
         id="feGaussianBlur1413"
         result="result6"
         stdDeviation="5" />
      <feComposite
         id="feComposite1415"
         in2="result6"
         operator="atop"
         in="SourceGraphic"
         result="result8" />
      <feComposite
         id="feComposite1417"
         in="result8"
         in2="SourceAlpha"
         operator="over"
         result="result9" />
      <feColorMatrix
         id="feColorMatrix1419"
         result="result10"
         values="1 0 0 0 0 0 1 0 0 0 0 0 1 0 0 0 0 0 1 0 " />
      <feBlend
         id="feBlend1421"
         in2="result6"
         mode="normal"
         in="result10" />
    </filter>
    <filter
       id="filter1435"
       style="color-interpolation-filters:sRGB;"
       inkscape:label="Dark and Glow"
       inkscape:menu="Shadows and Glows"
       inkscape:menu-tooltip="Darkens the edge with an inner blur and adds a flexible glow"
       height="1.5"
       y="-0.25">
      <feGaussianBlur
         id="feGaussianBlur1425"
         result="result6"
         stdDeviation="5" />
      <feComposite
         id="feComposite1427"
         in2="result6"
         operator="atop"
         in="SourceGraphic"
         result="result8" />
      <feComposite
         id="feComposite1429"
         in="result8"
         in2="SourceAlpha"
         operator="over"
         result="result9" />
      <feColorMatrix
         id="feColorMatrix1431"
         result="result10"
         values="1 0 0 0 0 0 1 0 0 0 0 0 1 0 0 0 0 0 1 0 " />
      <feBlend
         id="feBlend1433"
         in2="result6"
         mode="normal"
         in="result10" />
    </filter>
    <filter
       id="filter1447"
       style="color-interpolation-filters:sRGB;"
       inkscape:label="Dark and Glow"
       inkscape:menu="Shadows and Glows"
       inkscape:menu-tooltip="Darkens the edge with an inner blur and adds a flexible glow"
       height="1.5"
       y="-0.25">
      <feGaussianBlur
         id="feGaussianBlur1437"
         result="result6"
         stdDeviation="5" />
      <feComposite
         id="feComposite1439"
         in2="result6"
         operator="atop"
         in="SourceGraphic"
         result="result8" />
      <feComposite
         id="feComposite1441"
         in="result8"
         in2="SourceAlpha"
         operator="over"
         result="result9" />
      <feColorMatrix
         id="feColorMatrix1443"
         result="result10"
         values="1 0 0 0 0 0 1 0 0 0 0 0 1 0 0 0 0 0 1 0 " />
      <feBlend
         id="feBlend1445"
         in2="result6"
         mode="normal"
         in="result10" />
    </filter>
    <filter
       id="filter1459"
       style="color-interpolation-filters:sRGB;"
       inkscape:label="Dark and Glow"
       inkscape:menu="Shadows and Glows"
       inkscape:menu-tooltip="Darkens the edge with an inner blur and adds a flexible glow"
       height="1.5"
       y="-0.25">
      <feGaussianBlur
         id="feGaussianBlur1449"
         result="result6"
         stdDeviation="5" />
      <feComposite
         id="feComposite1451"
         in2="result6"
         operator="atop"
         in="SourceGraphic"
         result="result8" />
      <feComposite
         id="feComposite1453"
         in="result8"
         in2="SourceAlpha"
         operator="over"
         result="result9" />
      <feColorMatrix
         id="feColorMatrix1455"
         result="result10"
         values="1 0 0 0 0 0 1 0 0 0 0 0 1 0 0 0 0 0 1 0 " />
      <feBlend
         id="feBlend1457"
         in2="result6"
         mode="normal"
         in="result10" />
    </filter>
    <filter
       id="filter1471"
       style="color-interpolation-filters:sRGB;"
       inkscape:label="Dark and Glow"
       inkscape:menu="Shadows and Glows"
       inkscape:menu-tooltip="Darkens the edge with an inner blur and adds a flexible glow"
       height="1.5"
       y="-0.25">
      <feGaussianBlur
         id="feGaussianBlur1461"
         result="result6"
         stdDeviation="5" />
      <feComposite
         id="feComposite1463"
         in2="result6"
         operator="atop"
         in="SourceGraphic"
         result="result8" />
      <feComposite
         id="feComposite1465"
         in="result8"
         in2="SourceAlpha"
         operator="over"
         result="result9" />
      <feColorMatrix
         id="feColorMatrix1467"
         result="result10"
         values="1 0 0 0 0 0 1 0 0 0 0 0 1 0 0 0 0 0 1 0 " />
      <feBlend
         id="feBlend1469"
         in2="result6"
         mode="normal"
         in="result10" />
    </filter>
    <filter
       id="filter1483"
       style="color-interpolation-filters:sRGB;"
       inkscape:label="Dark and Glow"
       inkscape:menu="Shadows and Glows"
       inkscape:menu-tooltip="Darkens the edge with an inner blur and adds a flexible glow"
       height="1.5"
       y="-0.25">
      <feGaussianBlur
         id="feGaussianBlur1473"
         result="result6"
         stdDeviation="5" />
      <feComposite
         id="feComposite1475"
         in2="result6"
         operator="atop"
         in="SourceGraphic"
         result="result8" />
      <feComposite
         id="feComposite1477"
         in="result8"
         in2="SourceAlpha"
         operator="over"
         result="result9" />
      <feColorMatrix
         id="feColorMatrix1479"
         result="result10"
         values="1 0 0 0 0 0 1 0 0 0 0 0 1 0 0 0 0 0 1 0 " />
      <feBlend
         id="feBlend1481"
         in2="result6"
         mode="normal"
         in="result10" />
    </filter>
    <filter
       id="filter1495"
       style="color-interpolation-filters:sRGB;"
       inkscape:label="Dark and Glow"
       inkscape:menu="Shadows and Glows"
       inkscape:menu-tooltip="Darkens the edge with an inner blur and adds a flexible glow"
       height="1.5"
       y="-0.25">
      <feGaussianBlur
         id="feGaussianBlur1485"
         result="result6"
         stdDeviation="5" />
      <feComposite
         id="feComposite1487"
         in2="result6"
         operator="atop"
         in="SourceGraphic"
         result="result8" />
      <feComposite
         id="feComposite1489"
         in="result8"
         in2="SourceAlpha"
         operator="over"
         result="result9" />
      <feColorMatrix
         id="feColorMatrix1491"
         result="result10"
         values="1 0 0 0 0 0 1 0 0 0 0 0 1 0 0 0 0 0 1 0 " />
      <feBlend
         id="feBlend1493"
         in2="result6"
         mode="normal"
         in="result10" />
    </filter>
  </defs>
  <sodipodi:namedview
     inkscape:document-rotation="0"
     inkscape:window-maximized="0"
     inkscape:snap-nodes="true"
     inkscape:object-paths="true"
     inkscape:bbox-nodes="false"
     inkscape:bbox-paths="false"
     inkscape:snap-bbox="true"
     inkscape:object-nodes="true"
     guidetolerance="10"
     gridtolerance="11"
     objecttolerance="12"
     inkscape:guide-bbox="true"
     showguides="false"
     units="cm"
     inkscape:window-y="19"
     inkscape:window-x="61"
     inkscape:window-height="1179"
     inkscape:window-width="805"
     showgrid="false"
     inkscape:current-layer="g2725"
     inkscape:document-units="px"
     inkscape:cy="131.32735"
     inkscape:cx="310.83087"
     inkscape:zoom="1.0356496"
     inkscape:pageshadow="2"
     inkscape:pageopacity="0.0"
     borderopacity="1.0"
     bordercolor="#666666"
     pagecolor="#ffffff"
     id="base">
    <sodipodi:guide
       id="guide2475"
       position="-24.611336,151.32855"
       orientation="1,0" />
    <sodipodi:guide
       id="guide2477"
       position="275.76468,383.37258"
       orientation="0,1" />
    <sodipodi:guide
       id="guide2479"
       position="523.46813,256.67369"
       orientation="1,0" />
    <sodipodi:guide
       id="guide2481"
       position="335.55517,1.8523273"
       orientation="0,1" />
  </sodipodi:namedview>
  <metadata
     id="metadata7">
    <rdf:RDF>
      <cc:Work
         rdf:about="">
        <dc:format>image/svg+xml</dc:format>
        <dc:type
           rdf:resource="http://purl.org/dc/dcmitype/StillImage" />
        <dc:title></dc:title>
      </cc:Work>
    </rdf:RDF>
  </metadata>
  <g
     transform="translate(-36,-40.43053)"
     sodipodi:insensitive="true"
     style="display:none"
     inkscape:label="fMRI"
     id="layer3"
     inkscape:groupmode="layer">
    <rect
       ry="0.89940047"
       rx="0.70528102"
       y="365.11572"
       x="11.388664"
       height="31.793367"
       width="548.07941"
       id="rect3255"
       style="fill:#000000;fill-opacity:0.05882353;fill-rule:nonzero;stroke:none" />
    <rect
       style="fill:#000000;fill-opacity:0.21568627;fill-rule:nonzero;stroke:none"
       id="rect3257"
       width="548.07941"
       height="31.793367"
       x="11.388723"
       y="333.32236"
       rx="0.70528102"
       ry="0.89940047" />
    <use
       height="402.87399"
       width="570.47241"
       transform="translate(0,-63.586745)"
       id="use3261"
       xlink:href="#rect3255"
       y="0"
       x="0" />
    <use
       height="402.87399"
       width="570.47241"
       transform="translate(0,-63.58674)"
       id="use3263"
       xlink:href="#rect3257"
       y="0"
       x="0" />
    <use
       height="402.87399"
       width="570.47241"
       transform="translate(0,-63.58674)"
       id="use3265"
       xlink:href="#use3261"
       y="0"
       x="0" />
    <use
       height="402.87399"
       width="570.47241"
       transform="translate(0,-63.58674)"
       id="use3267"
       xlink:href="#use3263"
       y="0"
       x="0" />
    <use
       height="402.87399"
       width="570.47241"
       transform="translate(0,-63.586752)"
       id="use3269"
       xlink:href="#use3265"
       y="0"
       x="0" />
    <use
       height="402.87399"
       width="570.47241"
       transform="translate(0,-63.586734)"
       id="use3271"
       xlink:href="#use3267"
       y="0"
       x="0" />
    <use
       height="402.87399"
       width="570.47241"
       transform="translate(0,-63.586729)"
       id="use3273"
       xlink:href="#use3269"
       y="0"
       x="0" />
    <use
       height="402.87399"
       width="570.47241"
       transform="translate(0,-63.586729)"
       id="use3275"
       xlink:href="#use3271"
       y="0"
       x="0" />
    <use
       height="402.87399"
       width="570.47241"
       transform="translate(0,-63.586733)"
       id="use3277"
       xlink:href="#use3273"
       y="0"
       x="0" />
    <use
       height="402.87399"
       width="570.47241"
       transform="translate(0,-63.586737)"
       id="use3279"
       xlink:href="#use3275"
       y="0"
       x="0" />
  </g>
  <g
     style="display:inline"
     transform="translate(-131.38553,-337.24064)"
     inkscape:label="Brain"
     id="layer2"
     inkscape:groupmode="layer">
    <g
       inkscape:export-ydpi="2.8800001"
       inkscape:export-xdpi="2.8800001"
       transform="translate(36,50)"
       id="g2725">
      <path
         inkscape:export-ydpi="30.030001"
         inkscape:export-xdpi="30.030001"
         inkscape:export-filename="/tmp/ndhackergotchi.png"
         inkscape:connector-curvature="0"
         style="display:inline;fill:#c9fdfd;fill-opacity:0.999889;filter:url(#filter1495)"
         i:knockout="Off"
         d="m 227.07069,484.11145 -5.79253,0.36503 c -5.62491,7.03748 -12.11799,13.1655 -15.81469,21.20531 7.96444,-7.20864 10.83957,-11.74277 21.60722,-21.57034"
         id="path2596" />
      <path
         inkscape:export-ydpi="30.030001"
         inkscape:export-xdpi="30.030001"
         inkscape:export-filename="/tmp/ndhackergotchi.png"
         inkscape:connector-curvature="0"
         style="display:inline;fill:#c9fdfd;fill-opacity:0.999889;filter:url(#filter1483)"
         i:knockout="Off"
         d="m 230.80754,496.16792 c 2.2921,-3.53965 5.49405,-6.11913 8.61876,-8.90297 -5.89247,3.43544 -10.40595,8.44794 -15.08808,13.22997 l 6.46932,-4.327"
         id="path2598" />
      <path
         inkscape:export-ydpi="30.030001"
         inkscape:export-xdpi="30.030001"
         inkscape:export-filename="/tmp/ndhackergotchi.png"
         inkscape:connector-curvature="0"
         style="fill:#c9fdfd;fill-opacity:0.999889;filter:url(#filter1471)"
         d="m 363.47219,596.29251 c -13.144,3.795 -46.927,17.762 -59.547,17.341 l -5.69,-5.079 c -13.061,-2.014 -7,2.31 -17.246,1.094 -10.821,-5.587 -33.582,-16.727 -36.944,-21.293 -1.213,-3.654 5.979,1.16 8.219,1.458 -12.019,-8.093 -9.475,6.986 -20.178,-7.346 l 1.053,-0.762 c -32.59205,-22.7974 -3.68564,-76.57793 52.596,-97.519 -3.844,0.534 -3.195,-0.464 -4.987,-0.937 26.72448,-1.31405 18.16469,-5.19537 43.49128,-11.85424 12.39572,-4.09959 9.1069,-8.15071 12.96087,-9.32035 -14.41207,0.0228 -18.69607,-1.1748 -37.58515,5.53259 -55.915,7.507 -72.738,31.092 -89.261,67.96 -2.083,5.657 -3.876,2.429 -6.522,3.788 1.957,-11.348 7.044,-22.574 14.588,-32.667 -5.485,5.735 -10.666,11.73 -13.953,18.617 0.392,-10.34 19.147,-28.779 18.78,-32.668 -28.616,24.913 -36.788,80.905 -14.591,103.509 -4.839,-11.841 -10.077,-27.108 -9.003,-42.057 1.422,-6.544 5.819,-16.034 7.65,-15.001 -2.976,39.294 1.963,48.786 42.094,71.924 10.008,5.944 25.318,11.318 26.367,13.732 -7.944,-2.013 -2.953,1.441 -9.813,0.087 17.645,3.952 4.84,-4.91 28.543,1.475 l -5.367,5.947 c 11.782,-4.711 57.961,-10.07 76.943,-16.5 7.158,1.799 -25.097,17.328 -40.085,17.303 16.981,1.007 38.138,-15.203 51.155,-17.149 -3.742,2.419 -7.582,5.349 -11.716,7.394 13.573,-6.923 45.947,-11.048 55.079,-11.623 0.256,-1.792 -8.27,-3.253 8.83,-8.438 7.591,-1.803 4.594,0.766 6.682,0.926 0.406,-1.456 5.018,-6.196 15.402,-11.001 3.128,0.765 -5.377,5.566 -5.051,7.623 8.365,-3.504 14.314,-7.383 21.054,-9.198 12.187,-9.356 -2.634,-1.546 3.717,-8.227 20.439,-11.858 7.076,3.722 17.627,1.868 -12.604,13.287 -35.413,24.834 -44.768,29.861 11.808,-5.02 22.823,-11.075 33.202,-17.695 -0.401,3.175 24.028,-11.049 9.047,1.692 35.07,-18.449 109.63656,-35.57999 116.90656,-66.16899 -2.349,4.104 -5.287,9.288 -6.503,8.012 4.554,-15.46 6.115,-13.344 9.356,-16.217 1.33,-11.971 -4.516,-11.262 -6.642,-18.418 5.459,-23.341 -4.44256,-33.43401 -3.16056,-53.96301 l -4.385,2.034 c 0.486,-14.664 -7.58,-15.016 -10.781,-29.913 0.494,-1.079 4.611,3.865 7.014,8.19 -6.662,-12.367 -1.394,-13.05 -9.514,-24.743 3.709,2.443 6.616,5.298 10.009,8.049 -4.54,-10.307 -16.303,-23.23 -8.752,-20.239 -15.268,-14.817 -38.993,-41.998 -64.195,-54.23 l 4.077,-1.621 c -13.991,-4.983 -45.66,-25.634 -60.901,-24.045 l -1.332,-1.948 c -9.667,-1.979 -19.911,-2.256 -29.508,-3.339 -12.717,-2.576 -6.97,-6.748 -8.391,-5.558 -29.037,-4.05 -52.141,-3.865 -71.178,-3.926 -6.33264,5.84009 -34.262,8.796 -56.711,15.82 -114.931,23.483 -188.38025,90.08316 -184.8158,194.81921 4.00677,15.15819 24.5004,27.00274 36.44685,36.79889 -10.4753,-15.69627 -4.05981,-9.10136 -16.09703,-23.20978 -7.11475,-10.82227 -5.70567,-15.43227 0.0543,-26.24227 l -5.906,5.2 c 1.029,-18.581 5.235,-11.984 5.463,-26.95 2.307,0.73 4.614,1.461 6.921,2.192 -1.464,-5.568 -4.283,-17.184 0.618,-21.105 l -2.425,-5.884 c 7.914,-9.814 10.118,-21.554 16.09,-22.765 l -4.775,-0.885 c 3.668,-3.31 29.913,-36.325 26.288,-21.737 1.683,-2.967 2.16,-6.464 8.21,-11.661 l 4.379,1.668 c 7.061,-8.361 17.06,-16.439 21.139,-17.052 -4.004,4.525 -4.17,7 -4.26,9.435 39.443,-26.635 -3.316,-16.7 35.792,-39.212 0.369,0.791 0.737,1.582 1.106,2.373 2.691,-2.718 5.906,-4.782 8.938,-7.188 4.319,-0.71 8.637,-1.421 12.956,-2.132 11.112,-14.776 67.90165,-10.56005 95.35165,-15.80705 11.319,-1.691 25.856,3.405 46.309,4.882 l -0.582,-3.919 c 17.357,3.369 74.071,25.592 77.382,41.728 13.969,4.67 -0.496,-1.51 1.801,-3.703 26.333,11.368 22.225,18.09 29.915,28.323 12.833,9.874 -7.044,-9.489 1.574,-5.452 13.818,19.213 19.693,11.093 32.677,37.432 -0.905,3.359 -5.385,-5.883 -8.759,-7.63 16.344,14.771 36.5012,61.8442 31.8852,89.6442 -5.56,32.285 -91.5722,52.9568 -134.8792,65.3388 l 0.057,1.544 c -17.658,3.702 -76.714,31.776 -97.04,31.336"
         id="path2490"
         sodipodi:nodetypes="ccccccccccccccccccccccccccccccccccccccccccccccccccccccccccccccccccccccccccccccccccccccccccccc" />
      <path
         inkscape:export-ydpi="30.030001"
         inkscape:export-xdpi="30.030001"
         inkscape:export-filename="/tmp/ndhackergotchi.png"
         inkscape:connector-curvature="0"
         style="display:inline;fill:#c9fdfd;fill-opacity:0.999889;filter:url(#filter1459)"
         i:knockout="Off"
         d="m 420.78964,441.32959 c 7.26669,-7.07473 2.33738,5.03485 -5.58209,15.84382 -4.62208,0.5712 -8.98983,0.86871 -13.06965,0.97439 7.24762,-4.39653 13.21362,-10.2954 18.65174,-16.81821"
         id="path2584" />
      <path
         inkscape:export-ydpi="30.030001"
         inkscape:export-xdpi="30.030001"
         inkscape:export-filename="/tmp/ndhackergotchi.png"
         inkscape:connector-curvature="0"
         style="display:inline;fill:#c9fdfd;fill-opacity:0.999889;filter:url(#filter1447)"
         i:knockout="Off"
         d="m 393.49811,465.54253 c -9.6974,3.50652 -19.6828,5.19858 -29.17847,4.07174 6.83451,0.55544 13.41827,-1.32159 20.27063,-2.9301 16.73493,-14.89706 -6.31008,-3.68937 -13.76173,-3.99218 30.32696,-12.44476 15.56966,1.57539 22.66957,2.85054"
         id="path2586" />
      <path
         inkscape:export-ydpi="30.030001"
         inkscape:export-xdpi="30.030001"
         inkscape:export-filename="/tmp/ndhackergotchi.png"
         inkscape:connector-curvature="0"
         style="display:inline;fill:#c9fdfd;fill-opacity:0.999889;filter:url(#filter1435)"
         i:knockout="Off"
         d="m 353.96722,469.53824 c -18.27936,1.01777 -12.43907,-3.73926 -5.46269,-5.27853 0.96848,1.89875 12.84191,3.54031 5.46269,5.27853"
         id="path2588" />
      <path
         inkscape:export-ydpi="30.030001"
         inkscape:export-xdpi="30.030001"
         inkscape:export-filename="/tmp/ndhackergotchi.png"
         inkscape:connector-curvature="0"
         style="display:inline;fill:#c9fdfd;fill-opacity:0.999889;filter:url(#filter1423)"
         i:knockout="Off"
         d="m 541.5325,351.85856 c 23.47676,14.90397 20.07236,37.02155 18.64946,8.83781 -18.01001,-28.36583 -9.63957,-1.73775 -18.64946,-8.83781"
         id="path2604" />
      <path
         inkscape:export-ydpi="30.030001"
         inkscape:export-xdpi="30.030001"
         inkscape:export-filename="/tmp/ndhackergotchi.png"
         inkscape:connector-curvature="0"
         style="display:inline;fill:#c9fdfd;fill-opacity:0.999889;filter:url(#filter1411)"
         i:knockout="Off"
         d="m 427.72952,302.05891 c 21.30349,6.95292 34.08262,8.19821 46.43183,10.85188 -24.52052,-19.16869 -29.75373,-8.83568 -46.43183,-10.85188"
         id="path2606" />
    </g>
  </g>
  <g
     transform="translate(-36,-40.43053)"
     sodipodi:insensitive="true"
     style="display:none"
     inkscape:label="Debian"
     id="layer4"
     inkscape:groupmode="layer">
    <g
       transform="matrix(1.0864996,-0.3715245,0.3715245,1.0864996,-437.39782,-27.53813)"
       id="g3504">
      <path
         inkscape:connector-curvature="0"
         id="path3402"
         d="m 586.7443,568.51986 c -0.045,0.047 -0.045,7.506 -0.138,9.453 -0.092,1.574 -0.232,4.957 -3.568,4.957 -3.429,0 -4.263,-3.939 -4.541,-5.652 -0.324,-1.9 -0.324,-3.477 -0.324,-4.17 0,-2.225 0.139,-8.436 5.375,-8.436 1.576,0 2.456,0.465 3.151,0.834 l 0.045,3.014 z m -13.437,5.469 c 0,13.066 6.951,13.066 7.97,13.066 2.873,0 4.727,-1.576 5.514,-4.309 l 0.093,4.123 c 0.881,-0.047 1.761,-0.139 3.197,-0.139 0.51,0 0.926,0 1.298,0.047 0.371,0 0.741,0.045 1.158,0.092 -0.741,-1.482 -1.297,-4.818 -1.297,-12.049 0,-7.043 0,-18.951 0.602,-22.566 -1.667,0.789 -3.105,1.299 -6.256,1.576 1.251,1.344 1.251,2.039 1.251,8.154 -0.879,-0.277 -1.992,-0.602 -3.892,-0.602 -8.294,0.001 -9.638,7.23 -9.638,12.607"
         i:knockout="Off" />
      <path
         inkscape:connector-curvature="0"
         id="path3404"
         d="m 598.4373,571.62286 c 0.047,-3.846 0.835,-7.275 4.124,-7.275 3.615,0 3.891,3.984 3.799,7.275 l -7.923,0 z m 12.51,0.465 c 0,-5.422 -1.065,-10.752 -7.923,-10.752 -9.452,0 -9.452,10.475 -9.452,12.697 0,9.406 4.216,13.113 11.306,13.113 3.149,0 4.68,-0.461 5.514,-0.695 -0.046,-1.668 0.185,-2.734 0.465,-4.17 -0.975,0.604 -2.226,1.391 -5.006,1.391 -7.229,0 -7.322,-6.582 -7.322,-8.852 l 12.328,0 0.09,-2.732"
         i:knockout="Off" />
      <path
         inkscape:connector-curvature="0"
         id="path3406"
         d="m 626.0223,574.07986 c 0,4.309 -0.787,10.102 -6.162,10.102 -0.742,0 -1.668,-0.141 -2.27,-0.279 -0.093,-1.668 -0.093,-4.541 -0.093,-7.877 0,-3.986 0.416,-6.068 0.742,-7.09 0.972,-3.289 3.15,-3.334 3.566,-3.334 3.522,0 4.217,4.865 4.217,8.478 z m -13.298,5.051 c 0,3.43 0,5.375 -0.556,6.857 1.9,0.742 4.262,1.158 7.09,1.158 1.807,0 7.043,0 9.869,-5.791 1.344,-2.688 1.807,-6.303 1.807,-9.037 0,-1.668 -0.186,-5.328 -1.529,-7.646 -1.296,-2.176 -3.382,-3.289 -5.605,-3.289 -4.449,0 -5.746,3.707 -6.44,5.607 0,-2.363 0.045,-10.611 0.415,-14.828 -3.011,1.391 -4.866,1.621 -6.857,1.807 1.807,0.74 1.807,3.801 1.807,13.764 l 0,11.398"
         i:knockout="Off" />
      <path
         inkscape:connector-curvature="0"
         id="path3408"
         d="m 639.8423,586.86886 c -0.928,-0.139 -1.578,-0.232 -2.922,-0.232 -1.48,0 -2.502,0.094 -3.566,0.232 0.463,-0.881 0.648,-1.299 0.787,-4.309 0.186,-4.125 0.232,-15.154 -0.092,-17.471 -0.232,-1.762 -0.648,-2.039 -1.297,-2.502 3.799,-0.371 4.865,-0.648 6.625,-1.482 -0.369,2.037 -0.418,3.059 -0.418,6.162 -0.091,15.989 -0.138,17.702 0.883,19.602"
         i:knockout="Off" />
      <path
         inkscape:connector-curvature="0"
         id="path3410"
         d="m 654.6803,573.75386 c -0.092,2.92 -0.139,4.959 -0.928,6.58 -0.973,2.086 -2.594,2.688 -3.799,2.688 -2.783,0 -3.383,-2.316 -3.383,-4.586 0,-4.355 3.893,-4.682 5.652,-4.682 l 2.458,0 z m -12.744,5.701 c 0,2.92 0.881,5.838 3.477,7.09 1.158,0.51 2.316,0.51 2.688,0.51 4.264,0 5.699,-3.152 6.58,-5.098 -0.047,2.039 0,3.289 0.139,4.912 0.834,-0.047 1.668,-0.139 3.059,-0.139 0.787,0 1.529,0.092 2.316,0.139 -0.51,-0.787 -0.787,-1.252 -0.928,-3.059 -0.092,-1.76 -0.092,-3.521 -0.092,-5.977 l 0.047,-9.453 c 0,-3.523 -0.928,-6.998 -7.879,-6.998 -4.586,0 -7.273,1.391 -8.617,2.086 0.557,1.02 1.02,1.898 1.436,3.893 1.809,-1.576 4.172,-2.41 6.58,-2.41 3.848,0 3.848,2.549 3.848,6.162 -0.881,-0.045 -1.623,-0.137 -2.875,-0.137 -5.887,10e-4 -9.779,2.268 -9.779,8.479"
         i:knockout="Off" />
      <path
         inkscape:connector-curvature="0"
         id="path3412"
         d="m 681.3703,582.28186 c 0.047,1.576 0.047,3.244 0.695,4.588 -1.021,-0.092 -1.623,-0.232 -3.521,-0.232 -1.113,0 -1.715,0.094 -2.596,0.232 0.184,-0.602 0.279,-0.834 0.371,-1.623 0.139,-1.064 0.232,-4.633 0.232,-5.885 l 0,-5.004 c 0,-2.178 0,-5.33 -0.141,-6.441 -0.092,-0.787 -0.322,-2.918 -3.012,-2.918 -2.641,0 -3.521,1.945 -3.846,3.521 -0.369,1.621 -0.369,3.383 -0.369,10.24 0.045,5.932 0.045,6.486 0.508,8.109 -0.787,-0.092 -1.76,-0.184 -3.15,-0.184 -1.113,0 -1.854,0.045 -2.779,0.184 0.324,-0.742 0.51,-1.113 0.602,-3.707 0.094,-2.549 0.279,-15.061 -0.141,-18.025 -0.23,-1.809 -0.695,-2.225 -1.203,-2.688 3.754,-0.186 4.957,-0.789 6.117,-1.389 l 0,4.91 c 0.555,-1.438 1.713,-4.635 6.348,-4.635 5.793,0 5.838,4.217 5.885,6.996 l 0,13.951"
         i:knockout="Off" />
      <path
         inkscape:connector-curvature="0"
         id="path3414"
         d="m 640.2333,554.54686 -3.838,3.836 -3.836,-3.836 3.836,-3.836 3.838,3.836"
         i:knockout="Off"
         style="fill:#d70751" />
    </g>
  </g>
  <g
     transform="translate(-36,-40.43053)"
     style="display:none"
     sodipodi:insensitive="true"
     inkscape:label="EEG"
     id="layer5"
     inkscape:groupmode="layer">
    <path
       inkscape:connector-curvature="0"
       sodipodi:nodetypes="cccccccc"
       d="M 144.4234,78.975388 C 266.02989,-77.854986 517.89394,31.598913 544.30928,206.19246 M 235.52123,47.182022 C 346.11429,-52.460919 514.87505,31.449949 544.30928,206.19246 M 332.17381,47.182022 C 422.50525,-23.52659 511.10143,30.082837 544.30928,206.19246 M 429.58867,66.478997 C 483.92989,13.647221 520.15812,42.230553 544.30928,206.19246"
       style="fill:none;stroke:#000000;stroke-width:2.65748024;stroke-linecap:butt;stroke-linejoin:miter;stroke-miterlimit:4;stroke-opacity:1;stroke-dasharray:none"
       id="path3525" />
    <path
       inkscape:connector-curvature="0"
       id="path3514"
       d="m 139.95489,62.706883 c -5.85467,2.570988 -7.09795,12.718367 -2.97518,22.983152 l -9.29976,4.083851 c -1.62417,0.713228 -2.35632,2.591831 -1.64308,4.216006 l 0.88109,2.006431 c 0.71323,1.62417 2.59184,2.356307 4.21601,1.643077 l 38.61807,-16.958534 c 1.62417,-0.713229 2.35631,-2.591833 1.64308,-4.216005 l -0.88109,-2.006431 c -0.71323,-1.62417 -2.59184,-2.356307 -4.21601,-1.643078 l -7.40014,3.249658 C 154.12984,66.083576 145.80956,60.135897 139.95489,62.706883 z"
       style="fill:#ffffff;fill-opacity:1;fill-rule:nonzero;stroke:#000000;stroke-width:3.77901149;stroke-linecap:butt;stroke-linejoin:round;stroke-miterlimit:4;stroke-opacity:1;stroke-dasharray:none;stroke-dashoffset:0" />
    <path
       inkscape:connector-curvature="0"
       style="fill:#ffffff;fill-opacity:1;fill-rule:nonzero;stroke:#000000;stroke-width:3.77901149;stroke-linecap:butt;stroke-linejoin:round;stroke-miterlimit:4;stroke-opacity:1;stroke-dasharray:none;stroke-dashoffset:0"
       d="m 232.97728,34.179007 c -6.25476,1.328559 -9.53269,11.012061 -7.58021,21.900167 l -9.93528,2.110333 c -1.73517,0.36856 -2.83354,2.059351 -2.46497,3.79452 l 0.45531,2.143545 c 0.36856,1.735162 2.05936,2.833521 3.79452,2.464959 l 41.25714,-8.763326 c 1.73516,-0.368561 2.83352,-2.059355 2.46496,-3.794519 l -0.4553,-2.143545 c -0.36857,-1.735162 -2.05937,-2.833521 -3.79453,-2.46496 l -7.90585,1.679261 C 246.17123,40.363753 239.23205,32.850451 232.97728,34.179007 z"
       id="path3519" />
    <path
       inkscape:connector-curvature="0"
       id="path3521"
       d="m 333.85888,26.48456 c -6.3721,-0.532394 -12.3043,7.793715 -13.57599,18.782155 l -10.12167,-0.845669 c -1.76772,-0.147698 -3.30717,1.154329 -3.45486,2.922052 l -0.18245,2.183759 c -0.1477,1.767713 1.15434,3.307158 2.92205,3.454851 l 42.03112,3.51174 c 1.76772,0.147694 3.30716,-1.15434 3.45486,-2.922055 l 0.18246,-2.183756 c 0.14768,-1.767716 -1.15436,-3.307161 -2.92207,-3.454855 l -8.05416,-0.672934 c 0.5694,-11.047125 -3.90718,-20.242889 -10.27929,-20.775288 z"
       style="fill:#ffffff;fill-opacity:1;fill-rule:nonzero;stroke:#000000;stroke-width:3.77901149;stroke-linecap:butt;stroke-linejoin:round;stroke-miterlimit:4;stroke-opacity:1;stroke-dasharray:none;stroke-dashoffset:0" />
    <path
       inkscape:connector-curvature="0"
       style="fill:#ffffff;fill-opacity:1;fill-rule:nonzero;stroke:#000000;stroke-width:3.77901149;stroke-linecap:butt;stroke-linejoin:round;stroke-miterlimit:4;stroke-opacity:1;stroke-dasharray:none;stroke-dashoffset:0"
       d="m 436.78602,52.620877 c -5.74315,-2.811278 -14.29516,2.790344 -19.47253,12.565713 l -9.12264,-4.46553 c -1.59323,-0.779895 -3.50056,-0.126207 -4.28044,1.467038 l -0.96344,1.968216 c -0.7799,1.593232 -0.1262,3.500553 1.46704,4.280441 l 37.88251,18.543527 c 1.59324,0.779892 3.50056,0.126194 4.28045,-1.46704 l 0.96345,-1.96821 c 0.77988,-1.593242 0.12617,-3.500563 -1.46706,-4.280452 l -7.25919,-3.553381 c 4.54441,-10.085216 3.71501,-20.279036 -2.02815,-23.090322 z"
       id="path3523" />
    <path
       inkscape:connector-curvature="0"
       sodipodi:nodetypes="ccc"
       id="path3538"
       d="m 544.30928,206.19246 c 11.2601,72.34335 23.16011,139.63781 -29.38309,159.0433 l -95.76795,31.92265"
       style="fill:none;stroke:#000000;stroke-width:2.65748024;stroke-linecap:butt;stroke-linejoin:miter;stroke-miterlimit:4;stroke-opacity:1;stroke-dasharray:none" />
  </g>
</svg>
