<?xml version="1.0" encoding="UTF-8" standalone="no"?>
<!-- Created with Inkscape (http://www.inkscape.org/) -->

<svg
   xmlns:i="http://ns.adobe.com/AdobeIllustrator/10.0/"
   xmlns:dc="http://purl.org/dc/elements/1.1/"
   xmlns:cc="http://creativecommons.org/ns#"
   xmlns:rdf="http://www.w3.org/1999/02/22-rdf-syntax-ns#"
   xmlns:svg="http://www.w3.org/2000/svg"
   xmlns="http://www.w3.org/2000/svg"
   xmlns:sodipodi="http://sodipodi.sourceforge.net/DTD/sodipodi-0.dtd"
   xmlns:inkscape="http://www.inkscape.org/namespaces/inkscape"
   width="932.01465"
   height="792.47455"
   id="svg2878"
   version="1.1"
   inkscape:version="0.48.1 r9760"
   sodipodi:docname="neurodebian_back.svg">
  <defs
     id="defs2880">
    <inkscape:perspective
       sodipodi:type="inkscape:persp3d"
       inkscape:vp_x="0 : 526.18109 : 1"
       inkscape:vp_y="0 : 1000 : 0"
       inkscape:vp_z="744.09448 : 526.18109 : 1"
       inkscape:persp3d-origin="372.04724 : 350.78739 : 1"
       id="perspective2886" />
    <inkscape:perspective
       id="perspective3060"
       inkscape:persp3d-origin="17.759468 : 14.569191 : 1"
       inkscape:vp_z="35.518936 : 21.853786 : 1"
       inkscape:vp_y="0 : 1000 : 0"
       inkscape:vp_x="0 : 21.853786 : 1"
       sodipodi:type="inkscape:persp3d" />
  </defs>
  <sodipodi:namedview
     id="base"
     pagecolor="#000000"
     bordercolor="#666666"
     borderopacity="1.0"
     inkscape:pageopacity="0.39215686"
     inkscape:pageshadow="2"
     inkscape:zoom="0.5"
     inkscape:cx="401.35407"
     inkscape:cy="366.74194"
     inkscape:document-units="mm"
     inkscape:current-layer="g3902"
     showgrid="false"
     inkscape:window-width="1857"
     inkscape:window-height="1179"
     inkscape:window-x="61"
     inkscape:window-y="19"
     inkscape:window-maximized="0"
     units="mm"
     showguides="true"
     fit-margin-top="1"
     fit-margin-left="1"
     fit-margin-right="1"
     fit-margin-bottom="1"
     showborder="true" />
  <metadata
     id="metadata2883">
    <rdf:RDF>
      <cc:Work
         rdf:about="">
        <dc:format>image/svg+xml</dc:format>
        <dc:type
           rdf:resource="http://purl.org/dc/dcmitype/StillImage" />
        <dc:title />
      </cc:Work>
    </rdf:RDF>
  </metadata>
  <g
     inkscape:label="Layer 1"
     inkscape:groupmode="layer"
     id="layer1"
     transform="translate(-164.23723,-115.44164)">
    <g
       id="g3063"
       transform="matrix(18.11552,0,0,18.11552,-664.75845,93.250972)">
      <g
         transform="matrix(1.583466,0,0,1.583466,-20.013661,-84.959016)"
         style="display:inline"
         inkscape:label="NeuroDebian-brain"
         id="layer4">
        <g
           inkscape:export-ydpi="2.8800001"
           inkscape:export-xdpi="2.8800001"
           transform="matrix(0.06447637,0,0,0.06447637,35.55119,35.413705)"
           id="g2725"
           style="display:inline;enable-background:new">
          <path
             style="fill:#d70751;display:inline"
             i:knockout="Off"
             d="m 215.74201,479.87605 -5.79253,0.36503 c -5.62491,7.03748 -12.11799,13.1655 -15.81469,21.20531 7.96444,-7.20864 10.83957,-11.74277 21.60722,-21.57034"
             id="path2596"
             inkscape:connector-curvature="0" />
          <path
             style="fill:#d70751;display:inline"
             i:knockout="Off"
             d="m 219.47886,491.93252 c 2.2921,-3.53965 5.49405,-6.11913 8.61876,-8.90297 -5.89247,3.43544 -10.40595,8.44794 -15.08808,13.22997 l 6.46932,-4.327"
             id="path2598"
             inkscape:connector-curvature="0" />
          <path
             style="fill:#d70751"
             d="m 352.14351,592.05711 c -13.144,3.795 -46.927,17.762 -59.547,17.341 l -5.69,-5.079 c -13.061,-2.014 -7,2.31 -17.246,1.094 -10.821,-5.587 -33.582,-16.727 -36.944,-21.293 -1.213,-3.654 5.979,1.16 8.219,1.458 -12.019,-8.093 -9.475,6.986 -20.178,-7.346 l 1.053,-0.762 c -32.59205,-22.7974 -3.68564,-76.57793 52.596,-97.519 -3.844,0.534 -3.195,-0.464 -4.987,-0.937 26.72448,-1.31405 18.16469,-5.19537 43.49128,-11.85424 12.39572,-4.09959 9.1069,-8.15071 12.96087,-9.32035 -14.41207,0.0228 -18.69607,-1.1748 -37.58515,5.53259 -55.915,7.507 -72.738,31.092 -89.261,67.96 -2.083,5.657 -3.876,2.429 -6.522,3.788 1.957,-11.348 7.044,-22.574 14.588,-32.667 -5.485,5.735 -10.666,11.73 -13.953,18.617 0.392,-10.34 19.147,-28.779 18.78,-32.668 -28.616,24.913 -36.788,80.905 -14.591,103.509 -4.839,-11.841 -10.077,-27.108 -9.003,-42.057 1.422,-6.544 5.819,-16.034 7.65,-15.001 -2.976,39.294 1.963,48.786 42.094,71.924 10.008,5.944 25.318,11.318 26.367,13.732 -7.944,-2.013 -2.953,1.441 -9.813,0.087 17.645,3.952 4.84,-4.91 28.543,1.475 l -5.367,5.947 c 11.782,-4.711 57.961,-10.07 76.943,-16.5 7.158,1.799 -25.097,17.328 -40.085,17.303 16.981,1.007 38.138,-15.203 51.155,-17.149 -3.742,2.419 -7.582,5.349 -11.716,7.394 13.573,-6.923 45.947,-11.048 55.079,-11.623 0.256,-1.792 -8.27,-3.253 8.83,-8.438 7.591,-1.803 4.594,0.766 6.682,0.926 0.406,-1.456 5.018,-6.196 15.402,-11.001 3.128,0.765 -5.377,5.566 -5.051,7.623 8.365,-3.504 14.314,-7.383 21.054,-9.198 12.187,-9.356 -2.634,-1.546 3.717,-8.227 20.439,-11.858 7.076,3.722 17.627,1.868 -12.604,13.287 -35.413,24.834 -44.768,29.861 11.808,-5.02 22.823,-11.075 33.202,-17.695 -0.401,3.175 24.028,-11.049 9.047,1.692 35.07,-18.449 109.63656,-35.57999 116.90656,-66.16899 -2.349,4.104 -5.287,9.288 -6.503,8.012 4.554,-15.46 6.115,-13.344 9.356,-16.217 1.33,-11.971 -4.516,-11.262 -6.642,-18.418 5.459,-23.341 -4.44256,-33.43401 -3.16056,-53.96301 l -4.385,2.034 c 0.486,-14.664 -7.58,-15.016 -10.781,-29.913 0.494,-1.079 4.611,3.865 7.014,8.19 -6.662,-12.367 -1.394,-13.05 -9.514,-24.743 3.709,2.443 6.616,5.298 10.009,8.049 -4.54,-10.307 -16.303,-23.23 -8.752,-20.239 -15.268,-14.817 -38.993,-41.998 -64.195,-54.23 l 4.077,-1.621 c -13.991,-4.983 -45.66,-25.634 -60.901,-24.045 l -1.332,-1.948 c -9.667,-1.979 -19.911,-2.256 -29.508,-3.339 -12.717,-2.576 -6.97,-6.748 -8.391,-5.558 -29.037,-4.05 -52.141,-3.865 -71.178,-3.926 -6.33264,5.84009 -34.262,8.796 -56.711,15.82 -114.931,23.483 -188.380251,90.08316 -184.815805,194.81921 4.006775,15.15819 24.500405,27.00274 36.446855,36.79889 -10.4753,-15.69627 -4.05981,-9.10136 -16.09703,-23.20978 -7.11475,-10.82227 -5.70567,-15.43227 0.0543,-26.24227 l -5.906,5.2 c 1.029,-18.581 5.235,-11.984 5.463,-26.95 2.307,0.73 4.614,1.461 6.921,2.192 -1.464,-5.568 -4.283,-17.184 0.618,-21.105 l -2.425,-5.884 c 7.914,-9.814 10.118,-21.554 16.09,-22.765 l -4.775,-0.885 c 3.668,-3.31 29.913,-36.325 26.288,-21.737 1.683,-2.967 2.16,-6.464 8.21,-11.661 l 4.379,1.668 c 7.061,-8.361 17.06,-16.439 21.139,-17.052 -4.004,4.525 -4.17,7 -4.26,9.435 39.443,-26.635 -3.316,-16.7 35.792,-39.212 0.369,0.791 0.737,1.582 1.106,2.373 2.691,-2.718 5.906,-4.782 8.938,-7.188 4.319,-0.71 8.637,-1.421 12.956,-2.132 11.112,-14.776 67.90165,-10.56005 95.35165,-15.80705 11.319,-1.691 25.856,3.405 46.309,4.882 l -0.582,-3.919 c 17.357,3.369 74.071,25.592 77.382,41.728 13.969,4.67 -0.496,-1.51 1.801,-3.703 26.333,11.368 22.225,18.09 29.915,28.323 12.833,9.874 -7.044,-9.489 1.574,-5.452 13.818,19.213 19.693,11.093 32.677,37.432 -0.905,3.359 -5.385,-5.883 -8.759,-7.63 16.344,14.771 36.5012,61.8442 31.8852,89.6442 -5.56,32.285 -91.5722,52.9568 -134.8792,65.3388 l 0.057,1.544 c -17.658,3.702 -76.714,31.776 -97.04,31.336"
             id="path2490"
             sodipodi:nodetypes="ccccccccccccccccccccccccccccccccccccccccccccccccccccccccccccccccccccccccccccccccccccccccccccc"
             inkscape:connector-curvature="0" />
          <path
             style="fill:#d70751;display:inline"
             i:knockout="Off"
             d="m 409.46096,437.09419 c 7.26669,-7.07473 2.33738,5.03485 -5.58209,15.84382 -4.62208,0.5712 -8.98983,0.86871 -13.06965,0.97439 7.24762,-4.39653 13.21362,-10.2954 18.65174,-16.81821"
             id="path2584"
             inkscape:connector-curvature="0" />
          <path
             style="fill:#d70751;display:inline"
             i:knockout="Off"
             d="m 382.16943,461.30713 c -9.6974,3.50652 -19.6828,5.19858 -29.17847,4.07174 6.83451,0.55544 13.41827,-1.32159 20.27063,-2.9301 16.73493,-14.89706 -6.31008,-3.68937 -13.76173,-3.99218 30.32696,-12.44476 15.56966,1.57539 22.66957,2.85054"
             id="path2586"
             inkscape:connector-curvature="0" />
          <path
             style="fill:#d70751;display:inline"
             i:knockout="Off"
             d="m 342.63854,465.30284 c -18.27936,1.01777 -12.43907,-3.73926 -5.46269,-5.27853 0.96848,1.89875 12.84191,3.54031 5.46269,5.27853"
             id="path2588"
             inkscape:connector-curvature="0" />
          <path
             style="fill:#d70751;display:inline"
             i:knockout="Off"
             d="m 530.20382,347.62316 c 23.47676,14.90397 20.07236,37.02155 18.64946,8.83781 -18.01001,-28.36583 -9.63957,-1.73775 -18.64946,-8.83781"
             id="path2604"
             inkscape:connector-curvature="0" />
          <path
             style="fill:#d70751;display:inline"
             i:knockout="Off"
             d="m 416.40084,297.82351 c 21.30349,6.95292 34.08262,8.19821 46.43183,10.85188 -24.52052,-19.16869 -29.75373,-8.83568 -46.43183,-10.85188"
             id="path2606"
             inkscape:connector-curvature="0" />
        </g>
      </g>
      <g
         transform="matrix(1.5801928,0,0,1.5801928,-19.841359,-98.444624)"
         style="display:inline"
         inkscape:label="NeuroDebian-text"
         id="layer3">
        <g
           id="g2488">
          <g
             id="g3885"
             transform="matrix(0.700036,0,0,0.7872628,8.8169518,11.740131)">
            <g
               id="g3902">
              <path
                 id="text2950"
                 d="m 51.959073,94.482231 c -0.128006,0.362672 -0.208006,1.024005 -0.24,1.984 -0.0053,0.229337 -0.008,0.93867 -0.008,2.128 -5e-6,0.656001 0.032,1.189334 0.096,1.599999 -0.213339,-0.032 -0.378672,-0.048 -0.496,-0.048 -0.144005,0 -0.296005,0.016 -0.456,0.048 -0.261338,-0.474665 -0.616004,-1.066664 -1.064,-1.775999 -0.36267,-0.575997 -0.725336,-1.151997 -1.088,-1.728 -0.154669,-0.234663 -0.309335,-0.469329 -0.464,-0.704 -0.181335,-0.277328 -0.314668,-0.522662 -0.4,-0.736 0.05866,0.469338 0.09333,1.021338 0.104,1.656 -0.0053,-0.202663 -0.008,0.349337 -0.008,1.656 -2e-6,0.741335 0.06667,1.288001 0.2,1.639999 -0.234668,-0.0427 -0.416001,-0.064 -0.544,-0.064 -0.133335,0 -0.322668,0.0213 -0.568,0.064 0.159999,-0.431998 0.239999,-1.314664 0.24,-2.647999 -10e-7,-0.879996 -0.01867,-1.562662 -0.056,-2.048 -0.02133,-0.266661 -0.04267,-0.450661 -0.064,-0.552 -0.048,-0.186661 -0.133334,-0.349327 -0.256,-0.488 0.261332,0.03201 0.495999,0.04801 0.704,0.048 0.287998,6e-6 0.554665,-0.01599 0.8,-0.048 0.165331,0.410672 0.370664,0.816005 0.616,1.216 l 1.288,2.104 c 0.143996,0.218669 0.290662,0.437336 0.44,0.656 0.170662,0.266669 0.287995,0.501335 0.352,0.704 -0.01067,-0.149332 -0.016,-0.919998 -0.016,-2.312 -5e-6,-1.247995 -0.08,-2.031994 -0.24,-2.352 0.133329,0.02134 0.333328,0.03201 0.6,0.032 0.122661,6e-6 0.298661,-0.01066 0.528,-0.032"
                 style="font-size:8px;font-style:normal;font-variant:normal;font-weight:bold;font-stretch:normal;text-align:start;line-height:700%;writing-mode:lr-tb;text-anchor:start;fill:#d70a53;fill-opacity:1;stroke:none;font-family:LaudatioC;-inkscape-font-specification:LaudatioC Bold"
                 inkscape:connector-curvature="0" />
              <path
                 id="text2971"
                 d="m 56.007933,97.498229 c -4e-6,0.144003 -0.008,0.301336 -0.024,0.472 l -2.888,0 c 0.08533,1.136001 0.623998,1.704001 1.616,1.704 0.495996,10e-7 0.882663,-0.149332 1.16,-0.448 -0.09067,0.266668 -0.146671,0.538667 -0.168,0.816001 -0.368004,0.10667 -0.74667,0.16 -1.136,0.16 -0.725336,0 -1.296002,-0.202667 -1.712,-0.608001 -0.416001,-0.405332 -0.624001,-0.970665 -0.624,-1.696 -10e-7,-0.682663 0.162666,-1.22133 0.488,-1.616 0.357332,-0.426662 0.869331,-0.639995 1.536,-0.64 0.570664,5e-6 1.00533,0.165338 1.304,0.496 0.298662,0.330671 0.447996,0.784004 0.448,1.36 m -0.84,0 c 0.0053,-0.933329 -0.320003,-1.399996 -0.976,-1.4 -0.677335,4e-6 -1.045335,0.466671 -1.104,1.4 l 2.08,0"
                 style="font-size:8px;font-style:normal;font-variant:normal;font-weight:bold;font-stretch:normal;text-align:start;line-height:700%;writing-mode:lr-tb;text-anchor:start;fill:#d70a53;fill-opacity:1;stroke:none;font-family:LaudatioC;-inkscape-font-specification:LaudatioC Bold"
                 inkscape:connector-curvature="0" />
              <path
                 id="text2975"
                 d="m 67.562515,97.874234 c -4e-6,0.698668 -0.170671,1.253334 -0.512,1.664 -0.36267,0.442667 -0.888003,0.663996 -1.576,0.663996 -0.693335,0 -1.226667,-0.205329 -1.6,-0.615996 -0.357333,-0.394666 -0.536,-0.941332 -0.536,-1.64 0,-0.703997 0.173333,-1.26133 0.52,-1.672 0.367999,-0.431996 0.898665,-0.647996 1.592,-0.648 0.677331,4e-6 1.202663,0.208004 1.576,0.624 0.357329,0.400003 0.535996,0.941336 0.536,1.624 m -0.848,0.048 c -3e-6,-1.18933 -0.405336,-1.783996 -1.216,-1.784 -0.885335,4e-6 -1.328001,0.59467 -1.328,1.784 -10e-7,1.184001 0.431999,1.776 1.296,1.776 0.831997,0 1.247997,-0.591999 1.248,-1.776"
                 style="font-size:8px;font-style:normal;font-variant:normal;font-weight:bold;font-stretch:normal;text-align:start;line-height:700%;writing-mode:lr-tb;text-anchor:start;fill:#d70a53;fill-opacity:1;stroke:none;font-family:LaudatioC;-inkscape-font-specification:LaudatioC Bold"
                 inkscape:connector-curvature="0" />
              <path
                 id="text2979"
                 d="m 63.152097,95.674231 c -0.09067,0.245338 -0.149336,0.514671 -0.176,0.808 -0.08,-0.02133 -0.152003,-0.032 -0.216,-0.032 -0.314669,4e-6 -0.576002,0.146671 -0.784,0.44 -0.192002,0.272003 -0.288002,0.693336 -0.288,1.264 l 0,0.984 c -2e-6,0.394668 0.04,0.749334 0.12,1.063999 -0.240001,-0.0373 -0.405335,-0.056 -0.496,-0.056 -0.08533,0 -0.258668,0.0187 -0.52,0.056 0.07467,-0.282665 0.111999,-0.663998 0.112,-1.143999 l 0,-2.024 c -10e-7,-0.559996 -0.101334,-0.959995 -0.304,-1.2 0.389332,-0.016 0.762665,-0.09066 1.12,-0.224 -0.016,0.325338 -0.024,0.546671 -0.024,0.664 l 0,0.528 c 0.325331,-0.714662 0.810664,-1.090662 1.456,-1.128"
                 style="font-size:8px;font-style:normal;font-variant:normal;font-weight:bold;font-stretch:normal;text-align:start;line-height:700%;writing-mode:lr-tb;text-anchor:start;fill:#d70a53;fill-opacity:1;stroke:none;font-family:LaudatioC;-inkscape-font-specification:LaudatioC Bold"
                 inkscape:connector-curvature="0" />
              <path
                 id="text2983"
                 d="m 60.240798,100.17823 c -0.160005,-0.032 -0.322671,-0.048 -0.488,-0.048 -0.122671,0 -0.301337,0.016 -0.536,0.048 l -0.008,-0.959997 c -0.272003,0.656 -0.736003,0.983997 -1.392,0.983997 -0.848002,0 -1.272001,-0.418664 -1.272,-1.255997 l 0,-2 c -10e-7,-0.54933 -0.088,-0.927996 -0.264,-1.136 0.506665,4e-6 0.882665,-0.07733 1.128,-0.232 -0.05867,0.218671 -0.088,0.520004 -0.088,0.904 l 0,2.208 c -2e-6,0.576 0.263998,0.864 0.792,0.864 0.714663,0 1.071996,-0.541333 1.072,-1.624 l 0,-0.912 c -4e-6,-0.634663 -0.08534,-1.03733 -0.256,-1.208 0.437329,4e-6 0.815996,-0.07733 1.136,-0.232 -0.06401,0.293337 -0.09601,0.648004 -0.096,1.064 l 0,2.232 c -5e-6,0.650667 0.09066,1.085333 0.272,1.303997"
                 style="font-size:8px;font-style:normal;font-variant:normal;font-weight:bold;font-stretch:normal;text-align:start;line-height:700%;writing-mode:lr-tb;text-anchor:start;fill:#d70a53;fill-opacity:1;stroke:none;font-family:LaudatioC;-inkscape-font-specification:LaudatioC Bold"
                 inkscape:connector-curvature="0" />
            </g>
          </g>
          <g
             id="g2478">
            <path
               class="st1"
               d="m 61.055138,88.360478 c 0.01103,-0.5558 0.13264,-1.059213 0.629911,-1.059213 0.552561,0 0.596764,0.57684 0.585735,1.059213 l -1.215646,0 z m 1.922906,0.0734 c 0,-0.796958 -0.165757,-1.573065 -1.215674,-1.573065 -1.458724,0 -1.458724,1.531146 -1.458724,1.856198 0,1.363279 0.651998,1.908612 1.735033,1.908612 0.486241,0 0.718318,-0.07332 0.8509,-0.104907 -0.011,-0.241159 0.03317,-0.398533 0.06632,-0.608131 -0.143612,0.09439 -0.331542,0.209598 -0.762493,0.209598 -1.105094,0 -1.127267,-0.964746 -1.127267,-1.289771 l 1.88976,0 0.02214,-0.398534 z"
               id="path3777"
               style="fill:#ffffff"
               inkscape:export-filename="/home/alrferreira/Desktop/debian-gnu-banner.png"
               inkscape:export-xdpi="64.494591"
               inkscape:export-ydpi="64.494591"
               inkscape:connector-curvature="0" />
            <path
               class="st1"
               d="m 65.287697,88.71701 c 0,0.6292 -0.121553,1.478734 -0.939337,1.478734 -0.121553,0 -0.265194,-0.0211 -0.353601,-0.04195 -0.01103,-0.241213 -0.01103,-0.660761 -0.01103,-1.1536 0,-0.576813 0.0552,-0.880878 0.110495,-1.027705 0.154698,-0.482481 0.486241,-0.482481 0.552561,-0.482481 0.530387,0 0.640911,0.702707 0.640911,1.226999 z m -2.04443,0.734053 c 0,0.503441 0,0.786546 -0.07735,1.006745 0.287339,0.104827 0.651998,0.167787 1.083006,0.167787 0.276252,0 1.082949,0 1.514015,-0.849425 0.210017,-0.388013 0.276252,-0.912387 0.276252,-1.310839 0,-0.241268 -0.02206,-0.776107 -0.232049,-1.111654 -0.198902,-0.325024 -0.519444,-0.482372 -0.861987,-0.482372 -0.685144,0 -0.884076,0.53484 -0.983541,0.817919 0,-0.346067 0,-1.551999 0.06632,-2.160184 -0.464154,0.199213 -0.751465,0.230666 -1.060891,0.262146 0.276252,0.10488 0.276252,0.5558 0.276252,2.002972 l 0,1.656905 -2.8e-5,0 z"
               id="path3779"
               style="fill:#ffffff"
               inkscape:export-filename="/home/alrferreira/Desktop/debian-gnu-banner.png"
               inkscape:export-xdpi="64.494591"
               inkscape:export-ydpi="64.494591"
               inkscape:connector-curvature="0" />
            <path
               class="st1"
               d="m 67.409534,90.583676 c -0.143697,-0.02104 -0.243163,-0.03137 -0.453152,-0.03137 -0.220962,0 -0.375689,0.01033 -0.541417,0.03137 0.06626,-0.125868 0.09944,-0.188692 0.121552,-0.629172 0.02209,-0.597801 0.03309,-2.202293 -0.01111,-2.548359 -0.04418,-0.251707 -0.09941,-0.293626 -0.198875,-0.356506 0.574677,-0.05247 0.740406,-0.09436 1.016658,-0.220226 -0.06626,0.293626 -0.06626,0.450973 -0.06626,0.901865 -0.01109,2.328106 -0.02209,2.579732 0.13261,2.852398 z"
               id="path3781"
               style="fill:#ffffff"
               inkscape:export-filename="/home/alrferreira/Desktop/debian-gnu-banner.png"
               inkscape:export-xdpi="64.494591"
               inkscape:export-ydpi="64.494591"
               inkscape:connector-curvature="0" />
            <path
               class="st1"
               d="m 69.686013,88.675064 c -0.01097,0.419493 -0.02206,0.723586 -0.143583,0.954333 -0.143727,0.304038 -0.39792,0.388013 -0.585707,0.388013 -0.419951,0 -0.508444,-0.335546 -0.508444,-0.66068 0,-0.63972 0.596823,-0.681666 0.862045,-0.681666 l 0.375689,0 0,0 z m -1.956051,0.828466 c 0,0.419466 0.132639,0.849507 0.53053,1.027733 0.187759,0.0734 0.364603,0.0734 0.419864,0.0734 0.652027,0 0.873017,-0.450892 1.005629,-0.734079 -0.01097,0.293627 0,0.471934 0.02209,0.713093 0.132669,-0.01052 0.254193,-0.02104 0.475241,-0.02104 0.110551,0 0.232104,0.01052 0.353601,0.02104 -0.07735,-0.115401 -0.121497,-0.17828 -0.143612,-0.450974 -0.01109,-0.25168 -0.01109,-0.503305 -0.01109,-0.870358 l 0,-1.373826 c 0,-0.513745 -0.143612,-1.017186 -1.204559,-1.017186 -0.707203,0 -1.116181,0.199294 -1.326084,0.304174 0.08838,0.146827 0.154727,0.272586 0.220962,0.566212 0.276251,-0.230666 0.640997,-0.356533 1.005685,-0.356533 0.596793,0 0.596793,0.377574 0.596793,0.901893 -0.13264,-0.01055 -0.254278,-0.02107 -0.442095,-0.02107 -0.906162,0 -1.502955,0.335735 -1.502955,1.23752 z"
               id="path3783"
               style="fill:#ffffff"
               inkscape:export-filename="/home/alrferreira/Desktop/debian-gnu-banner.png"
               inkscape:export-xdpi="64.494591"
               inkscape:export-ydpi="64.494591"
               inkscape:connector-curvature="0" />
            <path
               class="st1"
               d="m 73.786047,89.912584 c 0,0.230693 0,0.471825 0.09941,0.671092 -0.154699,-0.01052 -0.243192,-0.03137 -0.530531,-0.03137 -0.176786,0 -0.265136,0.01033 -0.39769,0.03137 0.02206,-0.08392 0.033,-0.125868 0.05518,-0.241159 0.02217,-0.1468 0.03312,-0.671092 0.03312,-0.849507 l 0,-0.734107 c 0,-0.314505 0,-0.776026 -0.02206,-0.933238 -0.01106,-0.115346 -0.05529,-0.430041 -0.464126,-0.430041 -0.408948,0 -0.541559,0.283215 -0.585706,0.513961 -0.05529,0.241187 -0.05529,0.492894 -0.05529,1.489065 0,0.870385 0,0.943894 0.07735,1.185052 -0.121496,-0.01052 -0.276166,-0.03137 -0.486156,-0.03137 -0.176872,0 -0.287453,0.01033 -0.431008,0.03137 0.05529,-0.104879 0.07735,-0.16784 0.09941,-0.545332 0.01114,-0.366918 0.04415,-2.191745 -0.02206,-2.62165 -0.04415,-0.262227 -0.110581,-0.325134 -0.187901,-0.388014 0.574648,-0.03148 0.762578,-0.1154 0.939336,-0.209787 l 0,0.723559 c 0.08838,-0.209598 0.265137,-0.681639 0.972454,-0.681639 0.895133,0 0.895133,0.618868 0.906277,1.017294 l 0,2.034451 0,0 z"
               id="path3785"
               style="fill:#ffffff"
               inkscape:export-filename="/home/alrferreira/Desktop/debian-gnu-banner.png"
               inkscape:export-xdpi="64.494591"
               inkscape:export-ydpi="64.494591"
               inkscape:connector-curvature="0" />
            <path
               class="st0"
               d="m 67.464825,85.875107 -0.585678,0.555826 -0.585793,-0.555826 0.585793,-0.555827 0.585678,0.555827 z"
               id="path3787"
               style="fill:#d70751;fill-opacity:1"
               inkscape:export-filename="/home/alrferreira/Desktop/debian-gnu-banner.png"
               inkscape:export-xdpi="64.494591"
               inkscape:export-ydpi="64.494591"
               inkscape:connector-curvature="0" />
            <path
               id="text3769"
               d="m 63.697582,83.280325 c -4e-6,1.457025 -0.785925,2.185536 -2.357765,2.185536 -0.09898,0 -0.245478,-0.004 -0.439482,-0.01188 -0.190048,-0.0079 -0.334562,-0.01188 -0.433544,-0.01188 -0.03563,0 -0.209844,0.0079 -0.522628,0.02376 0.126697,-0.162332 0.190046,-0.821555 0.190047,-1.977672 -1e-6,-0.716631 -0.002,-1.098704 -0.0059,-1.146219 -0.01584,-0.455316 -0.06929,-0.82749 -0.160352,-1.116523 0.182127,0.03564 0.395929,0.05345 0.641407,0.05345 0.122737,4e-6 0.304865,-0.0079 0.546384,-0.02376 0.245475,-0.01979 0.429582,-0.02969 0.552323,-0.0297 0.700793,4e-6 1.207584,0.166295 1.520372,0.498872 0.312781,0.332585 0.469173,0.851253 0.469177,1.556006 m -0.700796,0.01188 c -4e-6,-1.108601 -0.502835,-1.662903 -1.508495,-1.662907 -0.150455,4e-6 -0.393952,0.0198 -0.730491,0.05939 -0.0198,0.455324 -0.0297,0.886887 -0.0297,1.294693 l 0,1.668846 c -10e-7,0.182128 0.06137,0.300907 0.184108,0.356337 0.07918,0.03563 0.221719,0.05345 0.427604,0.05345 0.582016,0 1.00764,-0.152433 1.276876,-0.4573 0.253392,-0.285068 0.380089,-0.722571 0.380093,-1.312509"
               style="font-size:5.93895483px;font-style:normal;font-variant:normal;font-weight:bold;font-stretch:normal;text-align:start;line-height:700%;writing-mode:lr-tb;text-anchor:start;fill:#ffffff;fill-opacity:1;stroke:none;font-family:LaudatioC;-inkscape-font-specification:LaudatioC Bold"
               transform="scale(0.9429753,1.0604732)"
               inkscape:connector-curvature="0" />
          </g>
        </g>
      </g>
      <g
         transform="translate(-40.044329,-50.107571)"
         style="display:none"
         inkscape:label="Debian-text"
         id="layer5">
        <g
           transform="matrix(0.04585734,0,0,0.05070038,37.456067,81.452516)"
           id="g6679"
           style="display:inline;enable-background:new">
          <path
             class="st1"
             d="m 269.84799,136.25108 c -0.30551,0.26427 -0.30551,27.32302 -0.61339,34.41853 -0.61102,5.779 -1.22363,18.12839 -15.30407,18.12839 -14.69303,0 -18.06159,-14.44985 -19.28521,-20.49514 -1.22442,-7.09484 -1.22442,-12.87452 -1.22442,-15.23787 0,-8.14304 0.30551,-30.74068 22.65295,-30.74068 6.73314,0 10.40639,1.57807 13.46863,2.89187 l 0.30551,11.0349 z m -57.24224,19.96732 c 0,47.55389 29.38608,47.55389 33.97747,47.55389 12.2442,0 19.89702,-5.51813 23.26477,-15.50281 l 0.61182,14.97702 c 3.67327,-0.26358 7.34731,-0.52715 13.46862,-0.52715 2.14334,0 3.97955,0 5.51028,0.26357 1.52994,0 3.06147,0 4.8977,0.26358 -3.06145,-5.51746 -5.51029,-17.60395 -5.51029,-43.87537 0,-25.74766 0,-69.36082 2.44962,-82.498905 -7.04101,2.890524 -13.1631,4.729448 -26.63253,5.781037 5.51029,4.992329 5.51029,7.357048 5.51029,29.689078 -3.67403,-1.05225 -8.57174,-2.10317 -16.53007,-2.10317 -35.20268,0 -41.01768,26.27618 -41.01768,45.97923 z"
             id="path6681"
             style="fill:#000000"
             inkscape:export-filename="/home/alrferreira/Desktop/debian-gnu-banner.png"
             inkscape:export-xdpi="64.494591"
             inkscape:export-ydpi="64.494591"
             inkscape:connector-curvature="0" />
          <path
             class="st1"
             d="m 319.43741,147.54753 c 0.30552,-13.92475 3.67405,-26.53703 17.44819,-26.53703 15.30564,0 16.53006,14.45189 16.22455,26.53703 l -33.67274,0 z m 53.26347,1.83892 c 0,-19.96662 -4.59138,-39.41086 -33.67353,-39.41086 -40.40588,0 -40.40588,38.36063 -40.40588,46.50434 0,34.15496 18.06001,47.81748 48.05949,47.81748 13.46861,0 19.89704,-1.83689 23.56949,-2.62829 -0.30472,-6.04189 0.91891,-9.98468 1.83703,-15.23585 -3.97798,2.36473 -9.18354,5.25117 -21.12065,5.25117 -30.61051,0 -31.2247,-24.17028 -31.2247,-32.31331 l 52.34535,0 0.6134,-9.98468 z"
             id="path6683"
             style="fill:#000000"
             inkscape:export-filename="/home/alrferreira/Desktop/debian-gnu-banner.png"
             inkscape:export-xdpi="64.494591"
             inkscape:export-ydpi="64.494591"
             inkscape:connector-curvature="0" />
          <path
             class="st1"
             d="m 436.67703,156.47993 c 0,15.76367 -3.36695,37.04751 -26.01913,37.04751 -3.36695,0 -7.34573,-0.52851 -9.79456,-1.05092 -0.30551,-6.04325 -0.30551,-16.55439 -0.30551,-28.90175 0,-14.45121 1.52913,-22.06913 3.06065,-25.74766 4.28507,-12.08786 13.46862,-12.08786 15.30566,-12.08786 14.69144,0 17.75289,17.60531 17.75289,30.74068 z m -56.62963,18.39061 c 0,12.61298 0,19.70577 -2.14253,25.22254 7.95911,2.62627 18.05999,4.20365 29.99868,4.20365 7.65204,0 29.9971,0 41.93739,-21.28111 5.81737,-9.7211 7.65203,-22.85851 7.65203,-32.84115 0,-6.0446 -0.61103,-19.44423 -6.42761,-27.85085 -5.50949,-8.14302 -14.38833,-12.08514 -23.87658,-12.08514 -18.97813,0 -24.48843,13.39963 -27.24357,20.49176 0,-8.67018 0,-38.883042 1.83705,-54.120226 -12.85682,4.990977 -20.81516,5.778993 -29.38611,6.567679 7.65204,2.627622 7.65204,13.924749 7.65204,50.181527 l 0,41.51132 -7.9e-4,0 z"
             id="path35079"
             style="fill:#000000"
             inkscape:export-filename="/home/alrferreira/Desktop/debian-gnu-banner.png"
             inkscape:export-xdpi="64.494591"
             inkscape:export-ydpi="64.494591"
             inkscape:connector-curvature="0" />
          <path
             class="st1"
             d="m 495.45079,203.2465 c -3.98035,-0.52715 -6.7355,-0.78598 -12.55209,-0.78598 -6.12052,0 -10.40638,0.25883 -14.99696,0.78598 1.83543,-3.15342 2.75433,-4.7274 3.36694,-15.76298 0.61182,-14.97702 0.91655,-55.17521 -0.30787,-63.84541 -1.22364,-6.30614 -2.75356,-7.35636 -5.50871,-8.93172 15.91825,-1.31449 20.50884,-2.36405 28.16087,-5.51745 -1.83543,7.35638 -1.83543,11.29847 -1.83543,22.59492 -0.3071,58.32727 -0.61182,64.63139 3.67325,71.46264 z"
             id="path6687"
             style="fill:#000000"
             inkscape:export-filename="/home/alrferreira/Desktop/debian-gnu-banner.png"
             inkscape:export-xdpi="64.494591"
             inkscape:export-ydpi="64.494591"
             inkscape:connector-curvature="0" />
          <path
             class="st1"
             d="m 558.50803,155.42903 c -0.30393,10.50979 -0.61102,18.12839 -3.97718,23.90942 -3.98116,7.61723 -11.02216,9.72108 -16.22377,9.72108 -11.6324,0 -14.08361,-8.4066 -14.08361,-16.55236 0,-16.02724 16.53166,-17.07814 23.87817,-17.07814 l 10.40639,0 0,0 z m -54.18158,20.756 c 0,10.5091 3.67404,21.28316 14.69541,25.74834 5.20083,1.83892 10.09931,1.83892 11.63001,1.83892 18.0608,0 24.1821,-11.29645 27.85538,-18.39128 -0.30393,7.35639 0,11.8236 0.6118,17.86549 3.67485,-0.26358 7.04102,-0.52715 13.16391,-0.52715 3.06223,0 6.42918,0.26357 9.79457,0.52715 -2.14255,-2.89119 -3.36539,-4.46654 -3.97798,-11.29849 -0.30709,-6.30546 -0.30709,-12.60956 -0.30709,-21.80555 l 0,-34.4192 c 0,-12.87112 -3.97797,-25.48409 -33.36566,-25.48409 -19.58913,0 -30.9176,4.99302 -36.73181,7.62063 2.44805,3.67854 4.28586,6.82923 6.12052,14.1856 7.65203,-5.77898 17.75528,-8.9324 27.85695,-8.9324 16.53086,0 16.53086,9.45957 16.53086,22.59561 -3.67406,-0.26425 -7.04338,-0.52784 -12.2458,-0.52784 -25.10021,0 -41.63107,8.41136 -41.63107,31.00426 z"
             id="path6689"
             style="fill:#000000"
             inkscape:export-filename="/home/alrferreira/Desktop/debian-gnu-banner.png"
             inkscape:export-xdpi="64.494591"
             inkscape:export-ydpi="64.494591"
             inkscape:connector-curvature="0" />
          <path
             class="st1"
             d="m 672.07677,186.43327 c 0,5.77968 0,11.82089 2.75357,16.81323 -4.28508,-0.26358 -6.7363,-0.78598 -14.69543,-0.78598 -4.89688,0 -7.34414,0.25883 -11.01582,0.78598 0.61102,-2.1025 0.91416,-3.15342 1.52835,-6.04189 0.61418,-3.67785 0.91732,-16.81322 0.91732,-21.28315 l 0,-18.39198 c 0,-7.87945 0,-19.44218 -0.61101,-23.3809 -0.30631,-2.88983 -1.53153,-10.77404 -12.85604,-10.77404 -11.32765,0 -15.00091,7.09552 -16.22375,12.87654 -1.53151,6.04258 -1.53151,12.34873 -1.53151,37.30634 0,21.80621 0,23.64788 2.14253,29.68975 -3.36537,-0.26357 -7.64965,-0.78596 -13.46625,-0.78596 -4.89926,0 -7.96229,0.25882 -11.93869,0.78596 1.53151,-2.62761 2.14254,-4.205 2.75357,-13.66251 0.30866,-9.1926 1.22283,-54.91096 -0.61103,-65.68161 -1.22284,-6.56971 -3.06303,-8.14574 -5.20476,-9.7211 15.91745,-0.78869 21.12302,-2.89119 26.01911,-5.25591 l 0,18.1277 c 2.44805,-5.25116 7.34415,-17.07747 26.93645,-17.07747 24.79472,0 24.79472,15.50484 25.10339,25.48681 l 0,50.97019 0,0 z"
             id="path6691"
             style="fill:#000000"
             inkscape:export-filename="/home/alrferreira/Desktop/debian-gnu-banner.png"
             inkscape:export-xdpi="64.494591"
             inkscape:export-ydpi="64.494591"
             inkscape:connector-curvature="0" />
          <path
             class="st0"
             d="M 496.9823,85.280203 480.75933,99.205621 464.53319,85.280203 480.75933,71.354772 496.9823,85.280203 z"
             id="path6693"
             style="fill:#d70751;fill-opacity:1"
             inkscape:export-filename="/home/alrferreira/Desktop/debian-gnu-banner.png"
             inkscape:export-xdpi="64.494591"
             inkscape:export-ydpi="64.494591"
             inkscape:connector-curvature="0" />
        </g>
      </g>
    </g>
  </g>
</svg>
