<?xml version="1.0" encoding="UTF-8" standalone="no"?>
<!-- Generator: Adobe Illustrator 10.0, SVG Export Plug-In . SVG Version: 3.0.0 Build 77)  -->

<svg
   xmlns:ns0="http://ns.adobe.com/SaveForWeb/1.0/"
   xmlns:ns="http://ns.adobe.com/Variables/1.0/"
   xmlns:i="http://ns.adobe.com/AdobeIllustrator/10.0/"
   xmlns:dc="http://purl.org/dc/elements/1.1/"
   xmlns:cc="http://creativecommons.org/ns#"
   xmlns:rdf="http://www.w3.org/1999/02/22-rdf-syntax-ns#"
   xmlns:svg="http://www.w3.org/2000/svg"
   xmlns="http://www.w3.org/2000/svg"
   xmlns:xlink="http://www.w3.org/1999/xlink"
   xmlns:sodipodi="http://sodipodi.sourceforge.net/DTD/sodipodi-0.dtd"
   xmlns:inkscape="http://www.inkscape.org/namespaces/inkscape"
   i:viewOrigin="270 467"
   i:rulerOrigin="0 0"
   i:pageBounds="0 792 612 0"
   width="71.73"
   height="143.242"
   viewBox="0 0 71.73 143.242"
   overflow="visible"
   enable-background="new 0 0 71.73 143.242"
   xml:space="preserve"
   id="svg2"
   version="1.1"
   inkscape:version="0.47 r22583"
   sodipodi:docname="openlogo-vsop.svg"><defs
   id="defs17"><inkscape:perspective
     sodipodi:type="inkscape:persp3d"
     inkscape:vp_x="0 : 71.621002 : 1"
     inkscape:vp_y="0 : 1000 : 0"
     inkscape:vp_z="71.730003 : 71.621002 : 1"
     inkscape:persp3d-origin="35.865002 : 47.747335 : 1"
     id="perspective19" /><inkscape:perspective
     id="perspective2884"
     inkscape:persp3d-origin="0.5 : 0.33333333 : 1"
     inkscape:vp_z="1 : 0.5 : 1"
     inkscape:vp_y="0 : 1000 : 0"
     inkscape:vp_x="0 : 0.5 : 1"
     sodipodi:type="inkscape:persp3d" /><inkscape:perspective
     id="perspective2927"
     inkscape:persp3d-origin="0.5 : 0.33333333 : 1"
     inkscape:vp_z="1 : 0.5 : 1"
     inkscape:vp_y="0 : 1000 : 0"
     inkscape:vp_x="0 : 0.5 : 1"
     sodipodi:type="inkscape:persp3d" /><inkscape:perspective
     id="perspective2950"
     inkscape:persp3d-origin="0.5 : 0.33333333 : 1"
     inkscape:vp_z="1 : 0.5 : 1"
     inkscape:vp_y="0 : 1000 : 0"
     inkscape:vp_x="0 : 0.5 : 1"
     sodipodi:type="inkscape:persp3d" /><inkscape:perspective
     id="perspective2950-4"
     inkscape:persp3d-origin="0.5 : 0.33333333 : 1"
     inkscape:vp_z="1 : 0.5 : 1"
     inkscape:vp_y="0 : 1000 : 0"
     inkscape:vp_x="0 : 0.5 : 1"
     sodipodi:type="inkscape:persp3d" /></defs><sodipodi:namedview
   pagecolor="#ffffff"
   bordercolor="#666666"
   borderopacity="1"
   objecttolerance="10"
   gridtolerance="10"
   guidetolerance="10"
   inkscape:pageopacity="0"
   inkscape:pageshadow="2"
   inkscape:window-width="640"
   inkscape:window-height="480"
   id="namedview15"
   showgrid="false"
   showguides="true"
   inkscape:guide-bbox="true"
   inkscape:zoom="4.6600074"
   inkscape:cx="42.608319"
   inkscape:cy="47.205518"
   inkscape:current-layer="g3767" />
	<metadata
   id="metadata4">
		<ns:variableSets>
			<ns:variableSet
   varSetName="binding1"
   locked="none">
				<ns:variables />
				<ns:sampleDataSets />
			</ns:variableSet>
		</ns:variableSets>
		<ns0:sfw>
			<ns0:slices />
			<ns0:sliceSourceBounds
   y="323.758"
   x="270"
   width="71.73"
   height="143.242"
   bottomLeftOrigin="true" />
		</ns0:sfw>
	<rdf:RDF><cc:Work
     rdf:about=""><dc:format>image/svg+xml</dc:format><dc:type
       rdf:resource="http://purl.org/dc/dcmitype/StillImage" /><dc:title></dc:title></cc:Work></rdf:RDF></metadata>
	<g
   id="Layer_1"
   i:layer="yes"
   i:dimmedPercent="50"
   i:rgbTrio="#4F008000FFFF">
		<g
   id="g7">
			<path
   i:knockout="Off"
   d="M71.73,122.035c0-6.387-8.371-11.897-20.48-14.469c-6.877-3.049-11.961-10.388-11.961-27.736     c0-16.084,4.369-13.968,10.488-19.169H47.67c-2.172,2.322-6.543,3.912-11.595,3.912c-5.052,0-9.423-1.59-11.595-3.912h-2.76     c6.119,5.201,10.486,3.085,10.486,19.169c0,17.536-5.193,24.849-12.184,27.836C8.164,110.278,0,115.729,0,122.035     c0,5.446,6.094,10.254,15.4,13.148c-2.572,0.82-4.073,1.807-4.073,2.865c0,2.869,10.985,5.193,24.538,5.193     c13.553,0,24.539-2.324,24.539-5.193c0-1.059-1.504-2.045-4.074-2.865C65.635,132.289,71.73,127.481,71.73,122.035"
   id="path9" />
			<path
   i:knockout="Off"
   d="M43.549,60.874c0,0.717-3.377,1.298-7.548,1.298c-4.172,0-7.55-0.581-7.55-1.298     c0-0.716,3.378-1.298,7.55-1.298C40.172,59.576,43.549,60.158,43.549,60.874"
   id="path11" />
			
		<path
   style="fill:#d70751"
   i:knockout="Off"
   d="m 53.322816,24.37964 c 0.05691,1.527749 -0.445803,2.270123 -0.90046,3.582874 l -0.817623,0.406599 c -0.668391,1.298839 0.06639,0.824579 -0.41229,1.857201 -1.044636,0.927652 -3.165525,2.901836 -3.844666,3.082688 -0.496391,-0.01074 0.335776,-0.585553 0.44454,-0.810036 -1.396853,0.958637 -1.12115,1.43922 -3.257848,2.022875 l -0.06198,-0.139748 c -5.267443,2.478797 -12.584954,-2.432637 -12.488838,-9.132977 -0.05564,0.424937 -0.159984,0.318703 -0.276336,0.489436 -0.271908,-3.44692 1.592248,-6.909016 4.736274,-8.324839 3.0751,-1.521425 6.680106,-0.897932 8.881304,1.156561 -1.209046,-1.584659 -3.617654,-3.264803 -6.470168,-3.109245 -2.795603,0.04552 -5.41162,1.821789 -6.284258,3.751077 -1.431631,0.901093 -1.59857,3.475375 -2.222063,3.947106 -0.840389,6.171699 1.578969,8.837039 5.672145,11.974109 0.642464,0.433789 0.180851,0.500185 0.26685,0.83027 -1.359545,-0.63614 -2.604002,-1.597307 -3.628403,-2.774103 0.543818,0.794859 1.130004,1.567586 1.888186,2.174639 -1.28303,-0.433157 -2.996055,-3.106717 -3.494978,-3.215481 2.210051,3.957223 8.965406,6.94 12.504648,5.459678 -1.637777,0.06071 -3.717563,0.03351 -5.556427,-0.646258 -0.774624,-0.397745 -1.823687,-1.220428 -1.63588,-1.374089 4.828596,1.80282 9.81528,1.364604 13.992559,-1.983669 1.063608,-0.828375 2.224594,-2.23661 2.56037,-2.25558 -0.505245,0.76008 0.08663,0.365496 -0.301629,1.036416 1.057284,-1.707967 -0.460981,-0.695582 1.093959,-2.949263 l 0.57417,0.790433 c -0.214998,-1.418986 1.761085,-3.140231 1.559998,-5.382532 0.453393,-0.685464 0.505246,0.738581 0.02467,2.315652 0.667126,-1.749702 0.176425,-2.031096 0.347159,-3.475374 0.184013,0.485641 0.42873,1.001003 0.553302,1.513836 -0.435053,-1.691526 0.44454,-2.847455 0.663332,-3.830754 -0.216263,-0.09486 -0.67092,0.747434 -0.775889,-1.249516 0.01582,-0.867579 0.242188,-0.454657 0.32882,-0.66839 -0.169469,-0.09801 -0.616539,-0.763242 -0.887815,-2.038684 0.195395,-0.300365 0.526113,0.777153 0.794227,0.820784 -0.17263,-1.01365 -0.469201,-1.787009 -0.481847,-2.565427 -0.78411,-1.637778 -0.2776,0.218791 -0.912476,-0.703171 -0.834699,-2.601472 0.691787,-0.60389 0.795491,-1.785112 1.263427,1.830642 1.983671,4.669877 2.315652,5.845408 -0.252938,-1.433528 -0.660801,-2.822794 -1.159723,-4.16653 0.385099,0.162513 -0.619068,-2.948631 0.500186,-0.888446 C 56.754553,9.5764138 52.840961,5.4724865 49.23975,3.5476241 49.679231,3.9504287 50.235064,4.4563057 50.036507,4.5359813 48.244444,3.4704778 48.559352,3.3863757 48.302619,2.9361458 46.845062,2.3423725 46.747681,2.9848364 45.783353,2.937412 43.032646,1.4779551 42.502739,1.6328799 39.971458,0.71977178 l 0.115086,0.53875912 c -1.82179,-0.60705247 -2.122786,0.2289094 -4.09128,0.00126 C 35.875751,1.1668414 36.626345,0.92085798 37.24478,0.83169719 35.483064,1.0644006 35.565269,0.4839067 33.841493,0.89556415 34.265796,0.59772908 34.716028,0.39980465 35.168788,0.14686616 33.732729,0.23413031 31.738942,0.98282802 32.354215,0.30115862 30.011371,1.3470595 25.849901,2.8147352 23.514646,5.0045502 L 23.441293,4.5138493 C 22.371364,5.7981449 18.77521,8.3496624 18.488758,10.01463 l -0.286454,0.06639 c -0.555831,0.942827 -0.916902,2.010859 -1.358279,2.980246 -0.727831,1.241296 -1.067401,0.478054 -0.963697,0.672816 -1.432265,2.903736 -2.144918,5.343327 -2.758926,7.345336 0.437583,0.654479 0.01074,3.940781 0.175792,6.570711 -0.718346,12.99092 9.11717,25.603066 19.86832,28.514389 1.575806,0.564685 3.91865,0.54445 5.911806,0.600097 -2.351065,-0.672816 -2.654591,-0.356011 -4.946213,-1.154665 -1.652322,-0.779051 -2.014023,-1.667497 -3.185129,-2.683678 l 0.463511,0.818889 C 29.114072,52.932604 30.074606,52.739739 28.206655,52.148495 L 28.701782,51.50287 C 27.957511,51.44596 26.73076,50.249559 26.395616,49.584963 l -0.814463,0.03226 c -0.977607,-1.205255 -1.499292,-2.075995 -1.460719,-2.750708 l -0.263056,0.469201 c -0.297835,-0.511569 -3.598683,-4.526336 -1.88629,-3.591728 -0.31807,-0.289615 -0.741109,-0.472362 -1.199561,-1.306427 l 0.348423,-0.397746 c -0.822682,-1.060444 -1.516366,-2.419357 -1.463249,-2.872116 0.43948,0.59314 0.744272,0.704433 1.046533,0.80624 -2.081051,-5.162477 -2.198035,-0.283925 -3.77321,-5.2548 l 0.332614,-0.02656 C 17.007802,34.30621 16.851613,33.889495 16.646733,33.479102 l 0.145438,-1.444912 c -1.497396,-1.730099 -0.418612,-7.363671 -0.201718,-10.452683 0.148602,-1.25584 1.25015,-2.593252 2.086744,-4.690745 L 18.167526,16.8035 c 0.975077,-1.699747 5.565911,-6.8287065 7.693125,-6.565651 1.030092,-1.2937802 -0.20488,-0.0051 -0.406599,-0.3300847 2.263167,-2.3415782 2.974557,-1.6542173 4.501673,-2.0759927 1.645997,-0.976975 -1.413293,0.381937 -0.632979,-0.3724517 2.847455,-0.726566 2.017186,-1.6529536 5.730954,-2.0216121 0.392055,0.2225864 -0.908681,0.3439967 -1.234972,0.6329793 2.371298,-1.1609886 7.505318,-0.8960354 10.841577,0.6437285 3.868063,1.8091435 8.216708,7.1543654 8.388705,12.1834154 l 0.195396,0.05248 c -0.09865,1.99948 0.306055,4.31197 -0.396481,6.435389 l 0.474891,-1.006063"
   id="path2842" /><g
   id="g3767"
   transform="matrix(0.48383579,0,0,0.48383579,16.482924,26.697294)"><g
     id="g2933"
     transform="matrix(1,0,0,0.74179105,-14.319797,98.193545)"><path
       i:knockout="Off"
       d="m 13.437,125.506 c -0.045,0.047 -0.045,7.506 -0.138,9.453 -0.092,1.574 -0.232,4.957 -3.568,4.957 -3.429,0 -4.263,-3.939 -4.541,-5.652 -0.324,-1.9 -0.324,-3.477 -0.324,-4.17 0,-2.225 0.139,-8.436 5.375,-8.436 1.576,0 2.456,0.465 3.151,0.834 l 0.045,3.014 z M 0,130.975 c 0,13.066 6.951,13.066 7.97,13.066 2.873,0 4.727,-1.576 5.514,-4.309 l 0.093,4.123 c 0.881,-0.047 1.761,-0.139 3.197,-0.139 0.51,0 0.926,0 1.298,0.047 0.371,0 0.741,0.045 1.158,0.092 -0.741,-1.482 -1.297,-4.818 -1.297,-12.049 0,-7.043 0,-18.951 0.602,-22.566 -1.667,0.789 -3.105,1.299 -6.256,1.576 1.251,1.344 1.251,2.039 1.251,8.154 -0.879,-0.277 -1.992,-0.602 -3.892,-0.602 C 1.344,118.369 0,125.598 0,130.975"
       id="path2856"
       style="fill:#ffffff;fill-opacity:1" /><path
       i:knockout="Off"
       d="m 25.13,128.609 c 0.047,-3.846 0.835,-7.275 4.124,-7.275 3.615,0 3.891,3.984 3.799,7.275 H 25.13 z m 12.51,0.465 c 0,-5.422 -1.065,-10.752 -7.923,-10.752 -9.452,0 -9.452,10.475 -9.452,12.697 0,9.406 4.216,13.113 11.306,13.113 3.149,0 4.68,-0.461 5.514,-0.695 -0.046,-1.668 0.185,-2.734 0.465,-4.17 -0.975,0.604 -2.226,1.391 -5.006,1.391 -7.229,0 -7.322,-6.582 -7.322,-8.852 H 37.55 l 0.09,-2.732"
       id="path2858"
       style="fill:#ffffff;fill-opacity:1" /><path
       i:knockout="Off"
       d="m 52.715,131.066 c 0,4.309 -0.787,10.102 -6.162,10.102 -0.742,0 -1.668,-0.141 -2.27,-0.279 -0.093,-1.668 -0.093,-4.541 -0.093,-7.877 0,-3.986 0.416,-6.068 0.742,-7.09 0.972,-3.289 3.15,-3.334 3.566,-3.334 3.522,0 4.217,4.865 4.217,8.478 z m -13.298,5.051 c 0,3.43 0,5.375 -0.556,6.857 1.9,0.742 4.262,1.158 7.09,1.158 1.807,0 7.043,0 9.869,-5.791 1.344,-2.688 1.807,-6.303 1.807,-9.037 0,-1.668 -0.186,-5.328 -1.529,-7.646 -1.296,-2.176 -3.382,-3.289 -5.605,-3.289 -4.449,0 -5.746,3.707 -6.44,5.607 0,-2.363 0.045,-10.611 0.415,-14.828 -3.011,1.391 -4.866,1.621 -6.857,1.807 1.807,0.74 1.807,3.801 1.807,13.764 v 11.398"
       id="path2860"
       style="fill:#ffffff;fill-opacity:1" /><path
       i:knockout="Off"
       d="m 66.535,143.855 c -0.928,-0.139 -1.578,-0.232 -2.922,-0.232 -1.48,0 -2.502,0.094 -3.566,0.232 0.463,-0.881 0.648,-1.299 0.787,-4.309 0.186,-4.125 0.232,-15.154 -0.092,-17.471 -0.232,-1.762 -0.648,-2.039 -1.297,-2.502 3.799,-0.371 4.865,-0.648 6.625,-1.482 -0.369,2.037 -0.418,3.059 -0.418,6.162 -0.091,15.989 -0.138,17.702 0.883,19.602"
       id="path2862"
       style="fill:#ffffff;fill-opacity:1" /><path
       i:knockout="Off"
       d="m 81.373,130.74 c -0.092,2.92 -0.139,4.959 -0.928,6.58 -0.973,2.086 -2.594,2.688 -3.799,2.688 -2.783,0 -3.383,-2.316 -3.383,-4.586 0,-4.355 3.893,-4.682 5.652,-4.682 h 2.458 z m -12.744,5.701 c 0,2.92 0.881,5.838 3.477,7.09 1.158,0.51 2.316,0.51 2.688,0.51 4.264,0 5.699,-3.152 6.58,-5.098 -0.047,2.039 0,3.289 0.139,4.912 0.834,-0.047 1.668,-0.139 3.059,-0.139 0.787,0 1.529,0.092 2.316,0.139 -0.51,-0.787 -0.787,-1.252 -0.928,-3.059 -0.092,-1.76 -0.092,-3.521 -0.092,-5.977 l 0.047,-9.453 c 0,-3.523 -0.928,-6.998 -7.879,-6.998 -4.586,0 -7.273,1.391 -8.617,2.086 0.557,1.02 1.02,1.898 1.436,3.893 1.809,-1.576 4.172,-2.41 6.58,-2.41 3.848,0 3.848,2.549 3.848,6.162 -0.881,-0.045 -1.623,-0.137 -2.875,-0.137 -5.887,10e-4 -9.779,2.268 -9.779,8.479"
       id="path2864"
       style="fill:#ffffff;fill-opacity:1" /><path
       i:knockout="Off"
       d="m 108.063,139.268 c 0.047,1.576 0.047,3.244 0.695,4.588 -1.021,-0.092 -1.623,-0.232 -3.521,-0.232 -1.113,0 -1.715,0.094 -2.596,0.232 0.184,-0.602 0.279,-0.834 0.371,-1.623 0.139,-1.064 0.232,-4.633 0.232,-5.885 v -5.004 c 0,-2.178 0,-5.33 -0.141,-6.441 -0.092,-0.787 -0.322,-2.918 -3.012,-2.918 -2.641,0 -3.521,1.945 -3.846,3.521 -0.369,1.621 -0.369,3.383 -0.369,10.24 0.045,5.932 0.045,6.486 0.508,8.109 -0.787,-0.092 -1.76,-0.184 -3.15,-0.184 -1.113,0 -1.854,0.045 -2.779,0.184 0.324,-0.742 0.51,-1.113 0.602,-3.707 0.094,-2.549 0.279,-15.061 -0.141,-18.025 -0.23,-1.809 -0.695,-2.225 -1.203,-2.688 3.754,-0.186 4.957,-0.789 6.117,-1.389 v 4.91 c 0.555,-1.438 1.713,-4.635 6.348,-4.635 5.793,0 5.838,4.217 5.885,6.996 v 13.951"
       id="path2866"
       style="fill:#ffffff;fill-opacity:1" /><path
       i:knockout="Off"
       d="m 66.926,111.533 -3.838,3.836 -3.836,-3.836 3.836,-3.836 3.838,3.836"
       id="path2868"
       style="fill:#d70751" /></g><path
     sodipodi:nodetypes="cccc"
     id="path3757"
     d="m -14.270364,177.14752 108.690812,0 -53.487733,-1.95551 -55.203079,1.95551 z"
     style="fill:#aa9e50;fill-opacity:1;stroke:none" /><use
     height="143.242"
     width="71.730003"
     transform="matrix(1,0,0,-1,-4.7489344e-7,393.34054)"
     id="use3765"
     xlink:href="#path3757"
     y="0"
     x="0" /><text
     xml:space="preserve"
     style="font-size:10.33408451px;font-style:normal;font-variant:normal;font-weight:bold;font-stretch:normal;text-align:start;line-height:100%;writing-mode:lr-tb;text-anchor:start;fill:#ffffff;fill-opacity:1;stroke:none;font-family:Free Paladin;-inkscape-font-specification:Free Paladin Medium"
     x="21.526798"
     y="213.99942"
     id="text3822"
     sodipodi:linespacing="100%"><tspan
       sodipodi:role="line"
       id="tspan3824"
       x="21.526798"
       y="213.99942">V.S.O.P</tspan></text>
</g></g>
	</g>
</svg>