<?xml version="1.0" encoding="UTF-8" standalone="no"?>
<!-- Created with Inkscape (http://www.inkscape.org/) -->

<svg
   xmlns:i="http://ns.adobe.com/AdobeIllustrator/10.0/"
   xmlns:dc="http://purl.org/dc/elements/1.1/"
   xmlns:cc="http://creativecommons.org/ns#"
   xmlns:rdf="http://www.w3.org/1999/02/22-rdf-syntax-ns#"
   xmlns:svg="http://www.w3.org/2000/svg"
   xmlns="http://www.w3.org/2000/svg"
   xmlns:xlink="http://www.w3.org/1999/xlink"
   xmlns:sodipodi="http://sodipodi.sourceforge.net/DTD/sodipodi-0.dtd"
   xmlns:inkscape="http://www.inkscape.org/namespaces/inkscape"
   width="241.22"
   height="240.27565"
   id="svg2"
   version="1.1"
   inkscape:version="0.47 r22583"
   sodipodi:docname="package.svg"
   inkscape:export-filename="/home/michael/hacking/neurodebian/sphinx/_static/package.png"
   inkscape:export-xdpi="18.65"
   inkscape:export-ydpi="18.65">
  <defs
     id="defs4">
    <inkscape:perspective
       sodipodi:type="inkscape:persp3d"
       inkscape:vp_x="0 : 120.13783 : 1"
       inkscape:vp_y="0 : 1000 : 0"
       inkscape:vp_z="241.22 : 120.13783 : 1"
       inkscape:persp3d-origin="120.61 : 80.091883 : 1"
       id="perspective3617" />
    <linearGradient
       inkscape:collect="always"
       id="linearGradient3182">
      <stop
         style="stop-color:#ffffff;stop-opacity:1"
         offset="0"
         id="stop3184" />
      <stop
         style="stop-color:#ffffff;stop-opacity:0"
         offset="1"
         id="stop3186" />
    </linearGradient>
    <linearGradient
       id="linearGradient3157">
      <stop
         style="stop-color:#ffffff;stop-opacity:1"
         offset="0"
         id="stop3159" />
      <stop
         style="stop-color:#31494f;stop-opacity:1"
         offset="1"
         id="stop3161" />
    </linearGradient>
    <linearGradient
       gradientUnits="userSpaceOnUse"
       y2="60.985897"
       x2="179.59641"
       y1="86.987061"
       x1="212.28732"
       gradientTransform="scale(0.673357,1.485096)"
       id="linearGradient2453"
       xlink:href="#linearGradient2446"
       inkscape:collect="always" />
    <linearGradient
       gradientUnits="userSpaceOnUse"
       y2="115.26358"
       x2="164.58022"
       y1="162.05029"
       x1="211.84027"
       gradientTransform="scale(1.140232,0.877015)"
       id="linearGradient2449"
       xlink:href="#linearGradient2446"
       inkscape:collect="always" />
    <linearGradient
       gradientUnits="userSpaceOnUse"
       y2="112.79904"
       x2="137.29349"
       y1="96.167511"
       x1="118.92645"
       gradientTransform="scale(0.88075,1.135396)"
       id="linearGradient2445"
       xlink:href="#linearGradient2414"
       inkscape:collect="always" />
    <linearGradient
       gradientUnits="userSpaceOnUse"
       y2="142.41504"
       x2="272.26962"
       y1="118.48305"
       x1="286.47586"
       gradientTransform="scale(1.080123,0.92582)"
       id="linearGradient2441"
       xlink:href="#linearGradient2414"
       inkscape:collect="always" />
    <linearGradient
       gradientUnits="userSpaceOnUse"
       y2="114.86623"
       x2="146.54892"
       y1="33.315296"
       x1="77.193398"
       gradientTransform="scale(1.367131,0.731459)"
       id="linearGradient2437"
       xlink:href="#linearGradient2414"
       inkscape:collect="always" />
    <linearGradient
       gradientUnits="userSpaceOnUse"
       y2="119.48067"
       x2="201.4973"
       y1="44.553894"
       x1="293.39136"
       gradientTransform="scale(1.183216,0.845154)"
       id="linearGradient2433"
       xlink:href="#linearGradient2414"
       inkscape:collect="always" />
    <linearGradient
       gradientUnits="userSpaceOnUse"
       y2="158.9174"
       x2="154.06703"
       y1="219.26735"
       x1="59.088074"
       gradientTransform="scale(1.126112,0.888011)"
       id="linearGradient2429"
       xlink:href="#linearGradient2414"
       inkscape:collect="always" />
    <linearGradient
       gradientUnits="userSpaceOnUse"
       y2="210.24693"
       x2="155.25755"
       y1="281.30658"
       x1="242.88925"
       gradientTransform="scale(1.464905,0.682638)"
       id="linearGradient2425"
       xlink:href="#linearGradient2414"
       inkscape:collect="always" />
    <linearGradient
       gradientUnits="userSpaceOnUse"
       y2="184.14174"
       x2="181.91243"
       y1="249.09824"
       x1="105.50127"
       gradientTransform="scale(0.923936,1.082326)"
       id="linearGradient2421"
       xlink:href="#linearGradient2414"
       inkscape:collect="always" />
    <linearGradient
       gradientUnits="userSpaceOnUse"
       y2="206.95964"
       x2="185.43509"
       y1="292.6955"
       x1="278.57925"
       gradientTransform="scale(1.074789,0.930415)"
       id="linearGradient2417"
       xlink:href="#linearGradient2414"
       inkscape:collect="always" />
    <linearGradient
       id="linearGradient2414">
      <stop
         id="stop2415"
         offset="0"
         style="stop-color:#a7a7a7;stop-opacity:1;" />
      <stop
         id="stop2416"
         offset="1"
         style="stop-color:#e4e4e4;stop-opacity:1;" />
    </linearGradient>
    <linearGradient
       id="linearGradient2446">
      <stop
         id="stop2447"
         offset="0.0000000"
         style="stop-color:#e0e0e0;stop-opacity:1.0000000;" />
      <stop
         id="stop2448"
         offset="1.0000000"
         style="stop-color:#ffffff;stop-opacity:1.0000000;" />
    </linearGradient>
    <filter
       id="filter3283"
       inkscape:label="Drop shadow"
       width="1.5"
       height="1.5"
       x="-0.25"
       y="-0.25"
       color-interpolation-filters="sRGB">
      <feGaussianBlur
         id="feGaussianBlur3285"
         in="SourceAlpha"
         stdDeviation="5.000000"
         result="blur" />
      <feColorMatrix
         id="feColorMatrix3287"
         result="bluralpha"
         type="matrix"
         values="1 0 0 0 0 0 1 0 0 0 0 0 1 0 0 0 0 0 0.500000 0 " />
      <feOffset
         id="feOffset3289"
         in="bluralpha"
         dx="10.000000"
         dy="5.000000"
         result="offsetBlur" />
      <feMerge
         id="feMerge3291">
        <feMergeNode
           id="feMergeNode3293"
           in="offsetBlur" />
        <feMergeNode
           id="feMergeNode3295"
           in="SourceGraphic" />
      </feMerge>
    </filter>
    <radialGradient
       inkscape:collect="always"
       xlink:href="#linearGradient3157"
       id="radialGradient3297"
       gradientUnits="userSpaceOnUse"
       gradientTransform="matrix(1.5951398,-0.2633269,0.1199966,0.7441248,23.784203,13.054503)"
       cx="271.95456"
       cy="227.65692"
       fx="271.95456"
       fy="227.65692"
       r="153.54318" />
    <linearGradient
       inkscape:collect="always"
       xlink:href="#linearGradient3182"
       id="linearGradient3299"
       gradientUnits="userSpaceOnUse"
       gradientTransform="matrix(1.0002415,0,0,1,196.38123,-91.428569)"
       x1="281.60837"
       y1="119.86061"
       x2="281.60837"
       y2="161.84015" />
    <linearGradient
       inkscape:collect="always"
       xlink:href="#linearGradient3182"
       id="linearGradient3301"
       gradientUnits="userSpaceOnUse"
       gradientTransform="matrix(1.0021732,0,0,1,193.14533,-94.285722)"
       x1="257.53381"
       y1="197.40852"
       x2="200.00002"
       y2="123.79076" />
    <inkscape:perspective
       id="perspective4505"
       inkscape:persp3d-origin="43.5205 : 36.148333 : 1"
       inkscape:vp_z="87.041 : 54.2225 : 1"
       inkscape:vp_y="0 : 1000 : 0"
       inkscape:vp_x="0 : 54.2225 : 1"
       sodipodi:type="inkscape:persp3d" />
    <inkscape:perspective
       id="perspective4530"
       inkscape:persp3d-origin="0.5 : 0.33333333 : 1"
       inkscape:vp_z="1 : 0.5 : 1"
       inkscape:vp_y="0 : 1000 : 0"
       inkscape:vp_x="0 : 0.5 : 1"
       sodipodi:type="inkscape:persp3d" />
    <inkscape:perspective
       id="perspective4591"
       inkscape:persp3d-origin="0.5 : 0.33333333 : 1"
       inkscape:vp_z="1 : 0.5 : 1"
       inkscape:vp_y="0 : 1000 : 0"
       inkscape:vp_x="0 : 0.5 : 1"
       sodipodi:type="inkscape:persp3d" />
  </defs>
  <sodipodi:namedview
     id="base"
     pagecolor="#ffffff"
     bordercolor="#666666"
     borderopacity="1.0"
     inkscape:pageopacity="0.0"
     inkscape:pageshadow="2"
     inkscape:zoom="1.7577315"
     inkscape:cx="21.903229"
     inkscape:cy="120.13783"
     inkscape:document-units="px"
     inkscape:current-layer="layer1"
     showgrid="false"
     inkscape:window-width="1377"
     inkscape:window-height="879"
     inkscape:window-x="61"
     inkscape:window-y="19"
     inkscape:window-maximized="0" />
  <metadata
     id="metadata7">
    <rdf:RDF>
      <cc:Work
         rdf:about="">
        <dc:format>image/svg+xml</dc:format>
        <dc:type
           rdf:resource="http://purl.org/dc/dcmitype/StillImage" />
        <dc:title></dc:title>
      </cc:Work>
    </rdf:RDF>
  </metadata>
  <g
     inkscape:label="Layer 1"
     inkscape:groupmode="layer"
     id="layer1"
     transform="translate(-210.10584,-400.79583)">
    <g
       id="g3240"
       transform="matrix(2.7112743,0,0,2.7112743,-845.76238,332.54413)"
       inkscape:export-filename="C:\Users\Anne Menini\Desktop\interface.png"
       inkscape:export-xdpi="200"
       inkscape:export-ydpi="200">
      <rect
         rx="12.121831"
         style="fill:#1a1a1a;fill-opacity:0.44705882;stroke:#000000;stroke-width:0.73766053;stroke-linecap:round;stroke-linejoin:round;stroke-miterlimit:4;stroke-opacity:1;stroke-dasharray:none;stroke-dashoffset:0"
         id="rect3165"
         width="88.266106"
         height="87.88327"
         x="389.91888"
         y="25.542122"
         ry="12.121831" />
      <path
         id="path3155"
         d="m 476.22748,52.879463 c -83.45204,0.48174 -33.78189,4.12964 -82.40158,28.1875 l 0,20.093747 c 0,2.48247 1.10767,4.69086 2.84375,6.1875 l 76.71408,0 c 1.73843,-1.49668 2.84375,-3.70309 2.84375,-6.1875 l 0,-48.281247 z"
         style="fill:url(#radialGradient3297);fill-opacity:1;fill-rule:evenodd;stroke:none"
         sodipodi:nodetypes="ccccccc" />
      <rect
         rx="8.1736317"
         ry="8.1736317"
         y="29.545734"
         x="393.83136"
         height="79.784973"
         width="80.311104"
         id="rect3194"
         style="opacity:0.6143791;fill:none;stroke:#ffffff;stroke-width:4.04099989;stroke-linecap:round;stroke-linejoin:round;stroke-miterlimit:4;stroke-opacity:1;stroke-dasharray:none;stroke-dashoffset:0" />
      <rect
         rx="8.1736317"
         style="opacity:0.6143791;fill:none;stroke:#ffffff;stroke-width:4.04099989;stroke-linecap:round;stroke-linejoin:round;stroke-miterlimit:4;stroke-opacity:1;stroke-dasharray:none;stroke-dashoffset:0"
         id="rect3196"
         width="80.311104"
         height="79.784973"
         x="393.83136"
         y="29.545734"
         ry="8.1736317" />
      <path
         id="rect3190"
         d="m 402.73214,30.959821 c -4.52819,0 -8.1875,3.65931 -8.1875,8.1875 l 0,63.437499 c 0,4.52819 3.65931,8.18749 8.1875,8.1875 l 64.19427,0 c 4.52819,0 8.15627,-3.6593 8.15625,-8.1875 l 0,-63.437499 c 0,-4.52819 -3.62806,-8.1875 -8.15625,-8.1875 l -64.19427,0 z"
         style="opacity:0.6143791;fill:url(#linearGradient3299);fill-opacity:1;stroke:none"
         sodipodi:nodetypes="ccccccccc" />
      <path
         id="rect3178"
         d="m 400.20536,28.107138 c -4.52819,0 -8.15625,3.65931 -8.15625,8.1875 l 0,63.437502 c 0,4.52819 3.62806,8.15625 8.15625,8.15625 l 67.25381,0 c 4.52819,0 8.15625,-3.62806 8.15625,-8.15625 l 0,-63.437502 c 0,-4.52819 -3.62804,-8.1875 -8.15625,-8.1875 l -67.25381,0 z"
         style="opacity:0.6143791;fill:url(#linearGradient3301);fill-opacity:1;stroke:none"
         sodipodi:nodetypes="ccccccccc" />
    </g>
    <g
       id="g3168"
       transform="matrix(0.57168921,0,0,0.57168921,222.33624,434.48817)"
       style="filter:url(#filter3283)">
      <g
         id="layer1-0"
         inkscape:label="Layer 1" />
      <path
         sodipodi:nodetypes="ccccccc"
         id="path2405"
         d="m 149.46429,63.214286 c 0,0 -38.57143,-6.428572 -38.03572,-2.678572 0.53572,3.75 6.42857,16.071429 7.5,28.928572 1.07143,12.857144 3.75,37.500004 5.89286,43.928574 2.14286,6.42857 4.28571,4.82143 4.28571,4.82143 0,0 16.60159,5.68281 19.28572,5.35714 3.21428,2.67857 -1.07143,-71.250001 1.07143,-80.357144 z"
         style="fill:url(#linearGradient2453);fill-opacity:1;fill-rule:evenodd;stroke:none" />
      <path
         sodipodi:nodetypes="ccccccccccc"
         id="path1782"
         d="m 149.46429,47.142857 c 0,0 69.10714,5.892857 73.92857,5.357143 4.82143,-0.535714 53.03571,-3.75 56.25,-3.75 3.21428,0 -4.28572,28.392857 -3.21429,31.607143 1.07143,3.214286 0,48.749997 0.53572,50.357147 0.53571,1.60714 -66.78306,13.63183 -74.52752,15.2335 -5.4368,1.14013 -17.61534,4.05221 -18.15106,6.73078 -0.53571,2.67857 -28.92857,-3.75 -31.07142,-8.03571 -2.14286,-4.28572 -11.78572,-26.78572 -10.71429,-30.53572 1.07143,-3.75 1.60714,-43.928569 2.67857,-48.749997 C 146.25,60.535714 150,51.964286 149.46429,47.142857 z"
         style="fill:url(#linearGradient2449);fill-opacity:1;fill-rule:evenodd;stroke:none" />
      <g
         i:rgbTrio="#4F008000FFFF"
         i:dimmedPercent="50"
         i:layer="yes"
         id="Layer_1"
         transform="matrix(1.3257174,0,0,1.3546265,155.3364,56.094205)">
        <g
           id="g4475">
          <path
             id="path4477"
             d="m 51.986,57.297 c -1.797,0.025 0.34,0.926 2.686,1.287 0.648,-0.506 1.236,-1.018 1.76,-1.516 -1.461,0.358 -2.948,0.366 -4.446,0.229"
             i:knockout="Off"
             style="fill:#d70751" />
          <path
             id="path4479"
             d="m 61.631,54.893 c 1.07,-1.477 1.85,-3.094 2.125,-4.766 -0.24,1.192 -0.887,2.221 -1.496,3.307 -3.359,2.115 -0.316,-1.256 -0.002,-2.537 -3.612,4.546 -0.496,2.726 -0.627,3.996"
             i:knockout="Off"
             style="fill:#d70751" />
          <path
             id="path4481"
             d="m 65.191,45.629 c 0.217,-3.236 -0.637,-2.213 -0.924,-0.978 0.335,0.174 0.6,2.281 0.924,0.978"
             i:knockout="Off"
             style="fill:#d70751" />
          <path
             id="path4483"
             d="m 45.172,1.399 c 0.959,0.172 2.072,0.304 1.916,0.533 1.049,-0.23 1.287,-0.442 -1.916,-0.533"
             i:knockout="Off"
             style="fill:#d70751" />
          <path
             id="path4485"
             d="M 47.088,1.932 46.41,2.072 47.041,2.016 47.088,1.932"
             i:knockout="Off"
             style="fill:#d70751" />
          <path
             id="path4487"
             d="m 76.992,46.856 c 0.107,2.906 -0.85,4.316 -1.713,6.812 l -1.553,0.776 c -1.271,2.468 0.123,1.567 -0.787,3.53 -1.984,1.764 -6.021,5.52 -7.313,5.863 -0.943,-0.021 0.639,-1.113 0.846,-1.541 -2.656,1.824 -2.131,2.738 -6.193,3.846 L 60.16,65.878 C 50.142,70.591 36.226,61.251 36.409,48.507 c -0.107,0.809 -0.304,0.607 -0.526,0.934 -0.517,-6.557 3.028,-13.143 9.007,-15.832 5.848,-2.895 12.704,-1.707 16.893,2.197 -2.301,-3.014 -6.881,-6.209 -12.309,-5.91 -5.317,0.084 -10.291,3.463 -11.951,7.131 -2.724,1.715 -3.04,6.611 -4.227,7.507 -1.597,11.737 3.004,16.808 10.787,22.773 1.225,0.826 0.345,0.951 0.511,1.58 -2.586,-1.211 -4.954,-3.039 -6.901,-5.277 1.033,1.512 2.148,2.982 3.589,4.137 -2.438,-0.826 -5.695,-5.908 -6.646,-6.115 4.203,7.525 17.052,13.197 23.78,10.383 -3.113,0.115 -7.068,0.064 -10.566,-1.229 -1.469,-0.756 -3.467,-2.322 -3.11,-2.615 9.182,3.43 18.667,2.598 26.612,-3.771 2.021,-1.574 4.229,-4.252 4.867,-4.289 -0.961,1.445 0.164,0.695 -0.574,1.971 2.014,-3.248 -0.875,-1.322 2.082,-5.609 l 1.092,1.504 c -0.406,-2.696 3.348,-5.97 2.967,-10.234 0.861,-1.304 0.961,1.403 0.047,4.403 1.268,-3.328 0.334,-3.863 0.66,-6.609 0.352,0.923 0.814,1.904 1.051,2.878 -0.826,-3.216 0.848,-5.416 1.262,-7.285 -0.408,-0.181 -1.275,1.422 -1.473,-2.377 0.029,-1.65 0.459,-0.865 0.625,-1.271 -0.324,-0.186 -1.174,-1.451 -1.691,-3.877 0.375,-0.57 1.002,1.478 1.512,1.562 -0.328,-1.929 -0.893,-3.4 -0.916,-4.88 -1.49,-3.114 -0.527,0.415 -1.736,-1.337 -1.586,-4.947 1.316,-1.148 1.512,-3.396 2.404,3.483 3.775,8.881 4.404,11.117 -0.48,-2.726 -1.256,-5.367 -2.203,-7.922 0.73,0.307 -1.176,-5.609 0.949,-1.691 C 83.519,18.706 76.074,10.902 69.225,7.24 70.063,8.007 71.121,8.97 70.741,9.121 67.335,7.093 67.934,6.935 67.446,6.078 64.671,4.949 64.489,6.169 62.651,6.08 57.421,3.306 56.413,3.601 51.6,1.863 l 0.219,1.023 c -3.465,-1.154 -4.037,0.438 -7.782,0.004 -0.228,-0.178 1.2,-0.644 2.375,-0.815 -3.35,0.442 -3.193,-0.66 -6.471,0.122 0.808,-0.567 1.662,-0.942 2.524,-1.424 -2.732,0.166 -6.522,1.59 -5.352,0.295 -4.456,1.988 -12.37,4.779 -16.811,8.943 l -0.14,-0.933 c -2.035,2.443 -8.874,7.296 -9.419,10.46 l -0.544,0.127 c -1.059,1.793 -1.744,3.825 -2.584,5.67 -1.385,2.36 -2.03,0.908 -1.833,1.278 -2.724,5.523 -4.077,10.164 -5.246,13.97 0.833,1.245 0.02,7.495 0.335,12.497 -1.368,24.704 17.338,48.69 37.785,54.228 2.997,1.072 7.454,1.031 11.245,1.141 -4.473,-1.279 -5.051,-0.678 -9.408,-2.197 -3.143,-1.48 -3.832,-3.17 -6.058,-5.102 l 0.881,1.557 c -4.366,-1.545 -2.539,-1.912 -6.091,-3.037 l 0.941,-1.229 C 28.751,98.334 26.418,96.056 25.78,94.795 l -1.548,0.061 c -1.86,-2.295 -2.851,-3.949 -2.779,-5.23 l -0.5,0.891 c -0.567,-0.973 -6.843,-8.607 -3.587,-6.83 -0.605,-0.553 -1.409,-0.9 -2.281,-2.484 l 0.663,-0.758 c -1.567,-2.016 -2.884,-4.6 -2.784,-5.461 0.836,1.129 1.416,1.34 1.99,1.533 -3.957,-9.818 -4.179,-0.541 -7.176,-9.994 L 8.412,66.472 C 7.926,65.74 7.631,64.945 7.24,64.165 l 0.276,-2.75 C 4.667,58.121 6.719,47.409 7.13,41.534 7.415,39.145 9.508,36.602 11.1,32.614 l -0.97,-0.167 c 1.854,-3.234 10.586,-12.988 14.63,-12.486 1.959,-2.461 -0.389,-0.009 -0.772,-0.629 4.303,-4.453 5.656,-3.146 8.56,-3.947 3.132,-1.859 -2.688,0.725 -1.203,-0.709 5.414,-1.383 3.837,-3.144 10.9,-3.846 0.745,0.424 -1.729,0.655 -2.35,1.205 4.511,-2.207 14.275,-1.705 20.617,1.225 7.359,3.439 15.627,13.605 15.953,23.17 l 0.371,0.1 c -0.188,3.802 0.582,8.199 -0.752,12.238 l 0.908,-1.912"
             i:knockout="Off"
             style="fill:#d70751" />
          <path
             id="path4489"
             d="m 32.372,59.764 -0.252,1.26 c 1.181,1.604 2.118,3.342 3.626,4.596 -1.085,-2.118 -1.891,-2.993 -3.374,-5.856"
             i:knockout="Off"
             style="fill:#d70751" />
          <path
             id="path4491"
             d="m 35.164,59.654 c -0.625,-0.691 -0.995,-1.523 -1.409,-2.352 0.396,1.457 1.207,2.709 1.962,3.982 l -0.553,-1.63"
             i:knockout="Off"
             style="fill:#d70751" />
          <path
             id="path4493"
             d="m 84.568,48.916 -0.264,0.662 c -0.484,3.438 -1.529,6.84 -3.131,9.994 1.77,-3.328 2.915,-6.968 3.395,-10.656"
             i:knockout="Off"
             style="fill:#d70751" />
          <path
             id="path4495"
             d="M 45.527,0.537 C 46.742,0.092 48.514,0.293 49.803,0 48.123,0.141 46.451,0.225 44.8,0.438 l 0.727,0.099"
             i:knockout="Off"
             style="fill:#d70751" />
          <path
             id="path4497"
             d="m 2.872,23.219 c 0.28,2.592 -1.95,3.598 0.494,1.889 1.31,-2.951 -0.512,-0.815 -0.494,-1.889"
             i:knockout="Off"
             style="fill:#d70751" />
          <path
             id="path4499"
             d="M 0,35.215 C 0.563,33.487 0.665,32.449 0.88,31.449 -0.676,33.438 0.164,33.862 0,35.215"
             i:knockout="Off"
             style="fill:#d70751" />
        </g>
      </g>
      <path
         id="path2406"
         d="m 179.51768,154.58594 c 0.94732,5.68394 -7.57858,66.3126 -7.57858,66.3126 L 129.30957,201.95208 107.99481,193.89984 67.733584,165.00649 46.41882,152.6913 l -12.788859,-8.52591 8.999567,-9.47323 23.20941,-14.20984 20.367442,-14.68351 19.42012,17.52548 16.57815,12.31519 c 0,0 23.20941,9.47323 25.10405,8.05225 1.89465,-1.42099 32.20898,10.89421 32.20898,10.89421 z"
         style="fill:url(#linearGradient2429);fill-opacity:1;fill-rule:evenodd;stroke:none" />
      <path
         id="path2407"
         d="m 184.72796,150.79665 19.42012,-5.21028 42.15586,-7.57858 39.3139,-7.57858 26.52504,-5.68394 12.3152,3.78929 8.5259,11.36788 10.89422,9.47323 19.42011,11.84153 8.99957,3.78929 -10.89421,3.31563 -20.36744,3.31563 -26.05138,7.57859 -42.62953,13.26252 -28.41969,9.94689 -29.367,6.63126 -13.73618,3.31563 -16.57815,-49.26079 0.47366,-12.3152 z"
         style="fill:url(#linearGradient2425);fill-opacity:1;fill-rule:evenodd;stroke:none" />
      <path
         sodipodi:nodetypes="cccccccccccccccc"
         id="path2408"
         d="m 315.45851,122.37696 -24.63039,-18.47279 -15.15717,-3.31563 1.89465,-52.102758 -46.41882,3.31563 4.26295,-7.104921 8.5259,-11.841536 15.15717,-9.94689 24.15673,9.94689 32.68264,10.420552 26.05138,8.052244 28.41969,13.26252 -3.7893,13.26252 -13.73618,11.841535 c 0,0 -18.99752,15.429214 -26.52504,23.683074 -4.26295,8.5259 -10.89421,8.99956 -10.89421,8.99956 z"
         style="fill:url(#linearGradient2433);fill-opacity:1;fill-rule:evenodd;stroke:none" />
      <path
         sodipodi:nodetypes="cccccccccccccccccccc"
         id="path2409"
         d="m 210.53571,50.357143 -20.35714,-37.5 -24.64286,10.178571 -21.42857,8.035715 L 117.85714,37.5 99.642857,41.25 78.75,46.071429 l -36.428571,4.821428 11.25,9.642857 16.071428,16.607143 15,17.678572 4.821429,8.035711 12.485264,-4.821426 15.90759,-6.428571 L 111.42857,60 l 33.21429,2.678571 0.53571,-15.535714 9.64286,-1.071428 30,3.75 25.71428,0.535714 z"
         style="fill:url(#linearGradient2437);fill-opacity:1;fill-rule:evenodd;stroke:none" />
      <path
         id="path2410"
         d="m 83.035714,176.78571 1.607143,27.32143 -1.607143,37.5 L 112.5,266.25 l 45,18.75 16.07143,1.60714 3.21428,-60.53571 -1.60714,-12.32143 -8.57143,6.96429 -36.96428,-19.28572 -25.71429,-9.10714 -20.892856,-15.53572 z"
         style="fill:url(#linearGradient2421);fill-opacity:1;fill-rule:evenodd;stroke:none" />
      <path
         id="path2411"
         d="m 183.75,161.78571 17.67857,49.82143 18.75,-2.14285 36.42857,-10.17858 L 303.21429,183.75 315,180.53571 l -1.60714,23.57143 1.07143,46.07143 -1.60715,4.82143 -18.75,4.82143 -43.39285,15.53571 -36.42858,3.75 -34.82142,6.96429 -8.03572,0 4.82143,-63.75 L 177.85714,172.5 183.75,161.78571 z"
         style="fill:url(#linearGradient2417);fill-opacity:1;fill-rule:evenodd;stroke:none" />
      <path
         sodipodi:nodetypes="cccccccc"
         id="path2412"
         d="M 118.39286,91.607143 102.05357,97.5 c -5.357141,1.607143 -8.30357,3.48215 -9.374999,4.28571 -1.339285,6.42857 4.285715,14.46429 4.285715,14.46429 l 17.142854,14.46429 12.85715,5.35714 -4.82143,-27.32143 c 0,0 -3.75,-16.071429 -3.75,-17.142857 z"
         style="fill:url(#linearGradient2445);fill-opacity:1;fill-rule:evenodd;stroke:none" />
      <path
         id="path2413"
         d="m 278.03571,98.303571 1.60715,32.142859 35.89285,-5.89286 -21.16071,-18.21428 -16.33929,-8.035719 z"
         style="fill:url(#linearGradient2441);fill-opacity:1;fill-rule:evenodd;stroke:none" />
      <path
         sodipodi:nodetypes="cccccccccccccccccccccccccccccccccccccccccccccccccccccccccccccccccccccccccccccccccccccccccccccccccccccccccccccccccccccccccccccccccccccccccccccccccccccccccccccccccccccccccccccccccccccccccccccccccccccccccccccccc"
         id="path1088"
         d="m 200.4349,9.5646629 c -2.96725,1.9859031 -6.75104,1.2528871 -10.04549,2.2567651 -5.54783,1.021056 -10.59697,3.602791 -15.53905,6.200374 -19.05174,9.259082 -39.2101,16.617222 -60.22527,19.774483 -18.647265,3.731876 -37.10027,9.406674 -56.254064,9.745768 -3.689178,-0.0744 -7.49911,-0.07386 -11.04993,-1.107087 -1.16522,-2.68001 -4.004421,0.968721 -5.908053,1.462014 -1.759118,1.261139 -5.413885,2.331033 -5.96844,3.713688 1.98411,2.062192 4.386529,3.549007 6.819224,4.992283 5.796036,3.602378 11.85412,6.976006 16.60859,11.967269 6.990502,6.437413 14.675502,12.621361 19.116878,21.218064 2.185871,5.012369 3.228469,10.437796 3.800761,15.851216 -1.091562,1.82959 -0.873997,1.57907 -1.248847,1.77465 0.264983,2.40964 -4.012162,2.88148 -5.466155,5.08141 -10.764703,9.32686 -23.590384,15.7686 -35.382768,23.62306 -3.739294,2.9268 -6.927037,6.63834 -11.243067,8.76753 -0.38918,1.88394 3.420949,1.54393 4.635102,2.7338 14.739317,6.5156 28.073348,15.70825 41.25242,24.87522 2.484402,2.55892 7.35605,3.99383 6.689374,8.23058 0.994796,12.19426 2.940299,24.54872 0.648896,36.72212 -0.552939,4.46067 -1.919981,8.74971 -3.327609,12.99264 -1.145112,4.54741 -1.531331,9.27972 -3.114693,13.7158 0.941442,-0.6741 2.964764,-1.14349 0.77197,-0.18636 -2.009337,2.04696 3.087903,1.72054 4.133888,2.83374 17.147487,7.09857 30.392973,20.66372 46.467073,29.61252 11.7287,6.70524 26.01659,6.88401 37.54441,14.03988 1.97394,2.55942 4.76674,-0.14522 6.55046,-1.40087 2.44092,-0.74959 -4.44949,2.59809 -0.59963,1.25442 8.44639,-2.62881 17.16398,-4.24702 25.69536,-6.55446 17.03093,-3.43825 34.90561,-0.58881 51.60036,-6.03703 17.76425,-5.26224 35.3673,-11.11251 52.57166,-17.99866 2.57485,-0.51936 6.47085,-2.43013 8.37961,-1.33883 2.84014,-0.43553 5.9841,-2.93154 8.96029,-4.10509 1.99338,-0.65316 3.26463,-1.56391 2.18757,-3.6974 -0.70302,-4.39414 -0.77416,-8.91948 -2.18154,-13.17225 -2.48573,-18.4003 -1.80558,-37.02325 -1.85305,-55.52856 1.334,-2.31625 4.6821,-2.05571 6.83879,-3.34018 8.16609,-2.93607 16.54092,-5.38153 25.12528,-6.73052 5.83163,-2.09243 11.89801,0.53588 17.8297,0.31348 3.08439,-0.77246 4.83423,-4.40575 8.34283,-3.84064 1.52027,-1.08124 5.82208,-3.47588 1.48496,-3.88508 -5.2665,-1.46566 -10.25323,-3.79904 -15.17719,-6.14817 -10.14446,-5.10659 -19.7356,-11.69651 -27.19744,-20.33149 -3.99755,-4.81817 -7.14685,-10.65914 -7.54017,-17.01059 0.99687,-2.25217 2.41312,-4.30101 3.04888,-6.69722 4.23673,-8.52177 12.32787,-12.4791 19.89222,-19.446446 6.99329,-4.882345 14.45762,-9.514528 19.74131,-16.347118 3.08025,-4.356398 4.81076,-9.459794 7.41947,-14.082103 2.35702,-0.99397 -0.51947,-2.015681 -1.74503,-1.922136 -16.26547,-5.186311 -30.62683,-15.607724 -47.64886,-18.52622 -5.71801,-0.745564 -11.26792,-2.290625 -16.78212,-3.930019 -9.03923,-2.689479 -18.05281,-5.567057 -26.78574,-9.126886 -4.81741,-2.278951 -10.62446,-3.855231 -13.57687,-8.670509 -0.71606,-1.813785 -0.90988,-5.196469 -3.34063,-2.83866 -2.2154,1.381801 -2.00961,0.01198 -0.1256,-0.895352 0.78405,-0.508248 2.89053,-2.108809 0.91803,-0.68877 -2.69513,2.170496 -5.8797,3.480297 -9.07862,4.683159 -6.87279,3.098769 -12.57041,8.283914 -17.25529,14.108609 -3.36159,3.609297 -6.64411,7.404088 -8.84128,11.845693 -2.18195,2.174697 -5.47816,0.844674 -8.18126,1.070031 -2.76323,-0.04075 -5.52693,0.01734 -8.29012,-0.03042 -4.67959,-3.74328 -8.18866,-8.88434 -9.91574,-14.625687 -1.55206,-3.210632 -2.97263,-6.631237 -2.55367,-10.28048 0.19229,-4.616059 1.21817,-9.643664 -1.26227,-13.863761 l -0.21475,-0.526868 -0.15506,-0.5483441 z m -10.39845,6.9478851 c 2.02264,6.909958 7.27799,12.540367 8.33666,19.783293 1.68536,4.599071 4.89267,8.378711 7.64946,12.354028 -1.75521,1.512929 -4.87296,0.18772 -7.25483,0.5595 -13.3237,-0.314048 -26.82842,-0.608039 -39.79958,-3.970778 -3.04965,-0.311639 -5.25837,-3.354932 -8.02245,-3.515631 -2.3094,1.413735 -4.35836,3.256748 -6.77295,4.540051 -2.13462,1.256273 -4.34179,2.382304 -6.53696,3.527471 0.10998,2.409253 2.88046,3.750158 3.19395,6.263721 1.7571,3.191309 -2.26273,2.456103 -4.1245,2.627981 -6.07861,0.291591 -12.40142,0.271235 -18.10781,-2.121302 -1.80257,-2.911844 -4.53566,-0.501219 -6.56052,0.650157 -2.57096,1.389404 -5.14192,2.7788 -7.71287,4.168204 1.43824,1.730597 3.06312,3.340434 4.34464,5.172154 4.11496,6.966827 5.08802,15.142094 7.03007,22.847852 0.32171,3.305244 -4.15307,2.605289 -6.11426,4.031361 -4.84824,2.016249 -9.55583,4.362625 -14.153364,6.89606 C 83.447811,87.763285 70.307902,76.385335 57.796277,64.365997 54.252232,60.747583 50.723553,56.951831 48.535252,52.327355 c 25.3403,-5.222034 50.946204,-9.116108 76.184938,-14.83115 17.05843,-4.072946 34.03497,-9.108142 49.67637,-17.175134 4.93813,-2.185195 10.29702,-3.2279 15.63989,-3.808523 z m 66.67352,9.005133 c 9.15983,2.174207 17.51851,6.767814 26.64016,9.081318 14.68551,4.346908 29.79421,7.438219 43.95299,13.415577 13.06985,4.815856 27.14067,8.558863 37.83187,17.964315 2.34606,1.345411 2.87706,3.331917 1.34189,5.541491 -2.75136,6.521151 -7.70234,11.738903 -12.87825,16.420967 -11.61149,10.936732 -24.77216,20.185651 -35.60139,31.957221 -3.62396,-0.0792 -7.51003,-1.12716 -9.69812,-4.2286 -6.4123,-6.53228 -14.41459,-11.36577 -23.0287,-14.39766 -2.11481,-1.06683 -5.71824,-1.06005 -4.67592,-4.328824 -0.32016,-14.064794 -1.83476,-28.614823 2.72832,-42.205204 0.85833,-2.675488 2.1851,-5.451393 1.85677,-8.300356 -1.23335,-2.535175 -4.49377,-1.700249 -6.67064,-1.178194 -14.05204,2.779642 -28.35513,4.427547 -42.6894,4.439956 -0.58636,-4.845501 1.94543,-9.740825 6.00816,-12.358328 2.94627,-2.306297 5.79771,-4.750785 8.43671,-7.390636 2.09417,-1.552451 4.1332,-3.207411 6.44555,-4.433043 z M 151.45371,48.671064 c 25.61555,0.293356 50.99194,5.295146 76.64408,4.480687 13.95336,1.210824 27.78607,-2.538825 41.74043,-1.533384 3.62758,-0.610185 4.49908,3.782012 3.83434,6.452852 0.209,6.56973 0.86205,13.126602 0.57334,19.707445 -0.23117,12.312472 -0.90199,24.616786 -0.81014,36.934066 -0.14508,5.55124 -0.45839,11.10099 -1.06266,16.62227 -20.88105,4.17424 -41.82262,8.05298 -62.62663,12.60415 -6.23894,1.30628 -12.56367,2.24517 -18.78463,3.59228 -2.76197,0.55912 -6.21011,2.98506 -8.15877,3.32432 1.0511,-0.50429 -0.27975,1.16562 -2.47597,-0.70511 -4.92029,-2.97755 -10.75002,-3.94667 -16.31379,-5.0489 -2.75677,-0.92109 -6.95699,-0.17953 -8.84975,-1.91041 -1.84872,-8.79686 -5.43829,-17.08881 -7.99841,-25.67421 -1.647,-7.29018 -1.68176,-14.84833 -1.40429,-22.285443 0.47383,-11.609333 2.59858,-23.07361 3.21073,-34.670071 1.08576,-2.205059 -0.25108,-4.692074 0.37765,-7.01796 0.54248,-1.866922 -1.18954,-5.843276 2.10447,-4.872582 z m -34.45889,15.410654 c 7.87121,0.41416 15.7901,0.559705 23.57334,1.921232 3.10437,0.01676 1.59116,4.17278 1.9199,6.138794 -0.11438,6.545432 1.46612,12.981614 1.17256,19.528345 -0.18672,9.319441 -1.91585,18.505221 -2.94902,27.746991 0.65816,7.282 3.08113,14.24469 4.53035,21.37494 0.81402,3.21673 -3.78123,0.40119 -5.45864,0.57619 -2.79103,-0.61237 -5.55346,-1.37555 -8.2288,-2.38399 -2.38741,-9.11056 -3.53261,-18.56253 -6.99027,-27.37496 -2.70758,-9.13698 -1.69682,-18.913154 -4.48567,-28.039673 -1.54728,-6.39741 -2.76169,-12.902626 -3.08375,-19.487869 z m -0.53302,29.016537 c 1.9672,9.111005 4.47042,18.331455 3.65576,27.739445 0.19831,4.24154 1.54,8.33576 1.73551,12.5776 -2.32378,-0.91222 -3.95704,-2.95893 -6.12026,-4.16817 -8.62852,-6.4899 -16.640545,-14.16565 -22.117249,-23.54587 -0.973119,-2.45534 0.895941,-4.53061 3.311942,-5.03081 2.765044,-0.49145 13.221287,-3.909469 19.534297,-7.572195 z m 164.29926,9.921535 c 5.6687,1.34707 10.76663,4.50155 14.82831,8.63461 4.464,4.07589 8.72241,8.68239 14.50032,10.89195 1.52472,0.59024 2.73887,1.15077 0.39425,1.27296 -8.39049,1.60538 -16.77355,3.24934 -25.15019,4.92542 -2.15182,-4.64717 -3.99165,-9.54182 -4.15087,-14.72041 -0.3037,-3.66048 -0.27258,-7.33686 -0.42182,-11.00453 z m -197.467682,5.98473 c 6.506734,4.159 11.564133,10.14643 17.901072,14.53727 9.24393,6.95373 19.5091,12.57963 30.34355,16.62747 12.5168,4.48235 26.01441,6.61773 37.53909,13.57246 3.3623,1.62296 4.18413,5.71483 4.90688,9.03996 1.1767,7.48367 -0.26075,15.0689 -1.74282,22.40128 -1.55098,6.14233 -2.53843,12.41172 -2.7824,18.74563 -0.24244,3.82853 -0.41519,7.66267 -0.78027,11.48236 -3.84796,-1.62207 -7.78757,-3.09075 -11.30222,-5.38461 -10.77123,-5.80909 -22.64415,-9.10085 -34.45698,-12.02327 C 106.76277,192.65918 93.42746,181.62699 80.415318,171.05849 73.0317,164.62278 63.748257,161.13522 55.633945,155.80045 49.310302,151.68479 43.087313,146.4571 40.54004,139.10578 c 9.282958,-8.74201 20.872001,-14.37314 31.171635,-21.74971 3.935311,-2.678 7.813443,-5.44236 11.581703,-8.35155 z m 229.859962,16.83202 c 12.74853,6.11174 21.36679,17.82147 32.63448,25.97813 7.07852,5.19449 15.5641,8.0699 22.51847,13.45557 -11.87009,1.68259 -23.32656,5.35168 -34.93069,8.24409 -21.85547,6.00518 -43.52563,12.66435 -65.23553,19.16518 -16.32983,5.48385 -32.19567,13.27356 -49.55871,14.88762 -2.70554,0.20652 -5.43076,0.21184 -8.13141,-0.0672 -1.62892,1.99819 -4.78485,3.10185 -5.37935,-0.31718 -4.15098,-6.69198 -8.898,-13.525 -9.57344,-21.61482 -1.62788,-9.58984 -5.87495,-18.44553 -8.35021,-27.80663 1.46015,-2.42939 0.4774,-6.95334 3.29981,-7.90777 19.97188,-5.96512 40.83575,-7.77883 61.18014,-12.03516 20.52573,-3.90702 40.98632,-8.14957 61.52644,-11.98181 z m -130.09283,46.64341 c 2.46037,6.96849 3.83284,14.31625 6.97765,21.03906 2.71986,7.82482 2.75995,16.50593 6.88457,23.84607 2.4978,0.9935 4.0228,-2.44336 6.52569,-2.44385 27.14319,-8.21842 54.91555,-14.17277 82.06583,-22.3669 9.09591,-2.99865 17.93133,-6.71027 26.82555,-10.24636 -0.96477,19.43035 2.30174,39.00005 -0.78361,58.32724 -0.88972,3.89282 -2.09169,7.77331 -2.05713,11.80391 -0.72075,2.80729 -4.18039,2.171 -6.28783,3.02828 -5.79464,1.93746 -11.34559,4.53462 -17.10702,6.57396 -15.05748,5.71313 -30.54089,10.45665 -46.46266,13.03923 -13.20754,2.39782 -26.76138,2.35129 -39.86513,5.41202 -6.91187,1.34106 -13.78759,2.8662 -20.62468,4.54684 -0.47393,-9.16743 1.64681,-18.31642 0.47711,-27.47202 -0.73846,-13.66413 -2.89941,-27.59264 0.38589,-41.10048 0.95442,-6.78845 0.8478,-13.67084 1.26929,-20.50387 0.33695,-7.84326 0.73737,-15.69604 1.77648,-23.48313 z m -97.878207,8.93967 c 7.652136,6.64316 16.217557,12.61084 26.091387,15.35758 9.12377,3.05957 18.14845,6.65883 26.22366,11.966 5.76653,3.51832 11.63139,6.90862 17.78891,9.69371 4.21555,2.43849 8.66374,4.53508 12.84558,6.98125 2.39228,0.0788 3.74311,-2.90143 5.98441,-2.99916 -0.95879,17.78887 -5.82293,35.40205 -4.53386,53.3379 -0.23316,2.47352 0.6911,6.60883 -0.65914,8.0218 -11.88493,-2.54431 -24.6776,-3.16511 -35.22838,-9.81389 -5.9893,-3.81774 -11.48008,-8.50771 -18.11862,-11.21891 -9.22472,-4.39876 -19.27814,-8.53879 -25.665538,-16.9101 -2.167539,-3.01626 -3.793241,-6.61003 -3.982684,-10.35068 0.755512,-4.47379 1.67603,-9.10527 0.732042,-13.63832 0.578799,-11.15783 -1.169551,-22.24508 -1.535794,-33.37349 -0.04232,-2.35121 -0.0216,-4.70348 0.05803,-7.05369 z"
         style="fill:#000000;fill-opacity:1;fill-rule:nonzero;stroke:none" />
    </g>
  </g>
</svg>
