<?xml version="1.0" encoding="UTF-8" standalone="no"?>
<!-- Created with Inkscape (http://www.inkscape.org/) -->

<svg
   xmlns:dc="http://purl.org/dc/elements/1.1/"
   xmlns:cc="http://creativecommons.org/ns#"
   xmlns:rdf="http://www.w3.org/1999/02/22-rdf-syntax-ns#"
   xmlns:svg="http://www.w3.org/2000/svg"
   xmlns="http://www.w3.org/2000/svg"
   xmlns:sodipodi="http://sodipodi.sourceforge.net/DTD/sodipodi-0.dtd"
   xmlns:inkscape="http://www.inkscape.org/namespaces/inkscape"
   id="svg2"
   version="1.1"
   inkscape:version="0.47 r22583"
   width="400"
   height="400"
   sodipodi:docname="psychophysics.png">
  <metadata
     id="metadata8">
    <rdf:RDF>
      <cc:Work
         rdf:about="">
        <dc:format>image/svg+xml</dc:format>
        <dc:type
           rdf:resource="http://purl.org/dc/dcmitype/StillImage" />
        <dc:title></dc:title>
      </cc:Work>
    </rdf:RDF>
  </metadata>
  <defs
     id="defs6">
    <inkscape:perspective
       sodipodi:type="inkscape:persp3d"
       inkscape:vp_x="0 : 0.5 : 1"
       inkscape:vp_y="0 : 1000 : 0"
       inkscape:vp_z="1 : 0.5 : 1"
       inkscape:persp3d-origin="0.5 : 0.33333333 : 1"
       id="perspective10" />
  </defs>
  <sodipodi:namedview
     pagecolor="#ffffff"
     bordercolor="#666666"
     borderopacity="1"
     objecttolerance="10"
     gridtolerance="10"
     guidetolerance="10"
     inkscape:pageopacity="0"
     inkscape:pageshadow="2"
     inkscape:window-width="640"
     inkscape:window-height="480"
     id="namedview4"
     showgrid="false"
     inkscape:zoom="1.18"
     inkscape:cx="272.88136"
     inkscape:cy="186.44068"
     inkscape:current-layer="svg2" />
  <path
     style="fill:#000000"
     d="m 148.65255,394.34216 c -11.44695,-2.98977 -23.48894,-7.42922 -35.27836,-13.00586 -13.09769,-6.19549 -26.22164,-14.3094 -26.22164,-16.21158 0,-0.87367 1.125,-3.06344 2.5,-4.86616 1.375,-1.80272 2.5,-3.51247 2.5,-3.79945 0,-0.28698 -3.7125,-3.33315 -8.25,-6.76927 -10.4739,-7.93159 -27.619405,-25.28125 -34.750005,-35.16379 -3.025,-4.19245 -6.12189,-7.63522 -6.88197,-7.65062 -0.76008,-0.0154 -2.909,0.91578 -4.77538,2.06927 -1.86638,1.15348 -3.99113,1.86788 -4.72167,1.58755 -3.17072,-1.21672 -16.00466,-26.20103 -22.03104,-42.88865 -4.0032498,-11.08539 -8.0302898,-27.20625 -7.2827898,-29.1542 0.47877,-1.24765 9.3319598,-3.33617 10.2500698,-2.41806 0.20566,0.20566 1.71911,5.59107 3.36323,11.96758 3.11925,12.09766 8.25231,26.08416 13.32528,36.30853 4.99644,10.07014 9.82162,17.5 11.36503,17.5 1.47222,0 19.38924,-11.60705 19.38924,-12.56078 0,-0.28006 -2.4517,-5.10596 -5.44821,-10.72421 -6.54375,-12.26909 -11.66633,-25.25693 -14.64351,-37.1273 -1.20858,-4.81879 -2.72866,-8.96529 -3.37794,-9.21444 -0.64928,-0.24915 -6.09672,0.41424 -12.10543,1.47421 -6.0087,1.05996 -11.0369,1.82842 -11.17377,1.70768 -2.51655,-2.22004 -4.05962,-40.69172 -2.22826,-55.55516 1.98146,-16.08178 2.12591,-15.21305 -2.7333098,-16.43832 -2.31573,-0.58393 -4.66233,-1.51828 -5.21467,-2.07635 -2.10698,-2.12885 5.8999798,-28.06214 13.9607898,-45.21679 6.34475,-13.5026 14.72397,-27.268532 16.59815,-27.268532 0.82478,0 3.11303,1.230622 5.085,2.734715 l 3.58539,2.734715 3.09788,-3.914952 C 61.881505,71.032624 73.65994,59.244919 87.40255,49.521914 c 3.1625,-2.237495 5.75,-4.713971 5.75,-5.503281 0,-0.789309 -0.94377,-2.962145 -2.09725,-4.828525 -1.15349,-1.866381 -1.86789,-3.991131 -1.58755,-4.721668 0.67485,-1.758637 13.88054,-9.447066 25.76648,-15.001396 16.2629,-7.599692 44.81314,-16.1652068 46.84994,-14.055703 0.49711,0.5148641 1.21248,3.0437207 1.58969,5.619681 l 0.68585,4.683565 -4.35358,1.056732 c -19.78785,4.803048 -38.10175,11.676408 -52.07938,19.54583 -5.10081,2.871761 -9.41494,5.941164 -9.58695,6.820896 -0.28413,1.453214 11.17707,19.709413 12.37353,19.709413 0.28006,0 5.10596,-2.450528 10.72421,-5.445617 11.81723,-6.299757 24.49127,-11.287883 37.06461,-14.587521 4.86729,-1.277328 9.04812,-2.839738 9.29075,-3.472024 0.24264,-0.632285 -0.44041,-6.064068 -1.51786,-12.070627 -1.07746,-6.00656 -1.79322,-11.08681 -1.59059,-11.289445 0.20264,-0.202635 5.00335,-0.9811 10.66826,-1.729922 13.41932,-1.773847 34.51037,-1.73703 48.19476,0.08413 5.99221,0.79746 11.24055,1.236317 11.66299,0.975237 0.42244,-0.261081 1.0674,-2.246428 1.43325,-4.411883 0.36585,-2.1654563 1.22523,-4.4019895 1.90973,-4.9700746 1.38261,-1.1474615 14.55379,2.0022697 27.59911,6.5999956 17.48253,6.16159 45,20.862327 45,24.040482 0,0.873668 -1.125,3.063438 -2.5,4.866156 -1.375,1.802718 -2.5,3.495343 -2.5,3.761388 0,0.266046 3.9375,3.548535 8.75,7.294422 11.12516,8.659448 25.05408,22.669 32.70606,32.895401 8.21444,10.9781 8.00181,10.847043 12.62968,7.784461 2.1256,-1.406651 4.485,-2.319523 5.24312,-2.028604 1.80905,0.694196 9.46436,13.819317 15.00657,25.728927 7.16397,15.39461 15.65887,42.94164 14.319,46.43327 -0.33508,0.87319 -2.60995,1.73236 -5.65715,2.13659 -4.8446,0.64266 -5.07048,0.80543 -4.56666,3.29068 2.83698,13.99428 3.32707,39.62784 1.08041,56.50949 -0.79746,5.99221 -1.21286,11.27852 -0.9231,11.74736 0.28976,0.46884 2.29252,1.13478 4.45058,1.47987 2.15805,0.34508 4.3801,1.17732 4.93789,1.84941 1.2768,1.53845 -4.31819,22.30732 -9.34733,34.6977 -6.86695,16.91826 -18.63687,37.83074 -21.29182,37.83074 -0.84068,0 -2.72298,-0.82622 -4.18288,-1.83603 -1.4599,-1.00982 -3.17769,-2.13717 -3.8173,-2.50521 -0.70598,-0.40623 -3.83513,2.77104 -7.96356,8.08603 -8.79739,11.32585 -21.55766,24.04346 -32.87351,32.7636 -4.95,3.81453 -9.29614,7.35778 -9.6581,7.87388 -0.36195,0.5161 0.47797,2.65507 1.8665,4.75327 1.38852,2.09821 2.28656,4.4352 1.99564,5.19332 -0.69177,1.80275 -13.76872,9.43598 -25.78572,15.05155 -15.66246,7.31911 -42.78988,15.65033 -46.42155,14.25672 -0.82169,-0.31531 -1.69902,-2.68106 -2.09152,-5.63985 -0.64402,-4.85483 -0.80018,-5.07014 -3.29068,-4.53693 -12.39458,2.65365 -39.45648,3.33165 -54.61457,1.36829 -14.17246,-1.8357 -13.72069,-1.91655 -14.93832,2.6734 -1.16,4.37264 -2.29815,6.54065 -3.3707,6.42064 -0.38004,-0.0425 -4.74098,-1.13511 -9.69098,-2.42797 z m 100.1202,-12.08233 c 5.01611,-1.32236 11.99111,-3.48797 15.5,-4.81245 16.44231,-6.20642 35.8798,-16.59827 35.8798,-19.1824 0,-1.49162 -11.59589,-19.41753 -12.56078,-19.41753 -0.28006,0 -5.10596,2.44432 -10.72421,5.43183 -12.59125,6.69539 -22.39576,10.60914 -35.29694,14.08977 -5.45494,1.4717 -10.30304,3.03887 -10.77355,3.48259 -0.71747,0.67662 1.57623,18.70077 2.89769,22.77037 0.4609,1.4194 1.13228,1.31422 15.07799,-2.36218 z m -88.86295,1.33762 c 1.29624,-1.61683 5.57055,-21.41059 4.86869,-22.54623 -0.29406,-0.47579 -3.14269,-1.43787 -6.3303,-2.13794 -12.32496,-2.70683 -31.20946,-10.73887 -45.12444,-19.19251 -3.50658,-2.13033 -6.49161,-3.87332 -6.63339,-3.87332 -0.14179,0 -3.33132,4.50036 -7.08785,10.00079 -7.81899,11.44882 -8.15791,9.83966 3.55004,16.85538 13.64672,8.17748 28.3443,14.50137 44.5,19.1469 11.90667,3.42373 11.01484,3.29663 12.25725,1.74693 z m 60.72101,-21.79807 c 3.83804,-0.55464 7.32764,-1.35783 7.75467,-1.78486 0.70366,-0.70366 -2.56608,-21.83355 -3.52739,-22.79486 -0.22353,-0.22354 -3.51123,0.0423 -7.30599,0.59087 -8.84246,1.27814 -29.17075,1.30844 -36.82571,0.0549 -3.77399,-0.61802 -6.34484,-0.62298 -7.07902,-0.0137 -1.68301,1.39678 -5.07921,20.81131 -3.85473,22.03579 2.62187,2.62187 36.98315,3.91407 50.83817,1.91184 z m -49.7261,-27.20193 c 0.54837,-0.6875 1.96858,-5.71883 3.156,-11.18073 2.54498,-11.70634 2.67633,-11.45596 -7.39223,-14.09058 -3.84124,-1.00513 -12.60486,-4.67402 -19.47473,-8.1531 -6.86986,-3.47907 -12.60782,-6.32559 -12.75102,-6.32559 -0.85997,0 -13.1008,19.4974 -12.67419,20.18767 0.96304,1.55824 15.79232,9.79536 23.37525,12.98409 7.10715,2.98866 21.19173,7.61291 23.63632,7.76027 0.62015,0.0374 1.57622,-0.49453 2.1246,-1.18203 z m 70.74784,-2.23241 c 11.51416,-3.70801 30.50102,-13.26247 30.49584,-15.34595 -0.006,-2.39502 -10.91189,-19.17164 -12.46286,-19.17164 -0.71364,0 -5.963,2.23656 -11.66525,4.97014 -5.70225,2.73357 -14.08023,5.95173 -18.61773,7.15146 -6.89169,1.82218 -8.25,2.51401 -8.25,4.20193 0,2.17265 2.79646,18.27331 3.57093,20.55969 0.62032,1.83129 6.40811,1.02252 16.92907,-2.36563 z m 55.63999,-2.16337 c 7.75031,-5.66135 24.95928,-22.75404 30.81389,-30.60567 3.70559,-4.96957 4.10615,-5.97129 2.94654,-7.36853 -1.39239,-1.67773 -14.91851,-11.06599 -17.21042,-11.94548 -0.75158,-0.28841 -2.74245,1.50307 -4.70076,4.22997 -5.43744,7.5715 -15.834,18.10184 -24.73924,25.05756 -4.5375,3.54417 -8.25,6.64885 -8.25,6.89929 0,1.52955 12.29926,18.37864 13.41578,18.37864 0.75031,0 4.22621,-2.0906 7.72421,-4.64578 z m -183.18067,-5.87146 c 3.73175,-5.54398 6.0168,-9.85263 5.47344,-10.32061 -0.51302,-0.44186 -3.85776,-3.0868 -7.43276,-5.87765 -7.60659,-5.93813 -16.64054,-15.23706 -23.35229,-24.03727 -5.47969,-7.18477 -4.35506,-7.25476 -16.39771,1.02059 -3.9875,2.74008 -7.250005,5.55127 -7.250005,6.24707 0,2.03291 8.422015,12.90175 16.776155,21.65007 7.90018,8.27295 22.80005,20.83504 24.71239,20.83504 0.58551,0 3.94736,-4.28276 7.47078,-9.51724 z m 104.93504,-12.98276 c 0.65763,-0.66231 0.31871,-4.4922 -1.00361,-11.34132 -1.0981,-5.68772 -1.84673,-10.79075 -1.66362,-11.34007 0.1831,-0.54931 4.14441,-2.23342 8.80289,-3.74246 9.99503,-3.23773 18.83864,-7.57031 19.62263,-9.61335 0.51104,-1.33176 -6.23034,-13.2498 -10.42444,-18.42929 l -1.75449,-2.16671 -6.06405,3.00869 c -3.33523,1.65478 -8.2102,3.54909 -10.83326,4.20959 -4.39679,1.10712 -4.72867,1.40448 -4.24997,3.80791 3.04802,15.30347 3.93055,21.18298 3.27738,21.83416 -0.42636,0.42507 -7.88212,0.77285 -16.56835,0.77285 l -15.79315,0 -1.87116,10 c -2.41106,12.88539 -2.41353,12.85559 1.12884,13.6705 4.56495,1.05016 36.24998,0.48203 37.39436,-0.6705 z M 358.30004,301.0887 c 8.20974,-12.92239 14.0513,-25.27668 19.2832,-40.78204 4.15989,-12.3283 5.58973,-19.20401 4.22108,-20.29799 -1.84869,-1.47767 -21.76176,-5.46195 -22.58585,-4.51905 -0.41236,0.4718 -1.5653,4.00783 -2.56209,7.85783 -3.67379,14.18969 -10.34853,29.67582 -18.60448,43.16445 -2.22082,3.62838 -3.66918,6.95306 -3.2186,7.38817 1.39451,1.34663 18.66082,12.9479 19.25673,12.93863 0.30939,-0.005 2.20389,-2.59231 4.21001,-5.75 z m -91.23829,-10.6746 c 5.18554,-3.80654 21.23136,-20.09226 22.93777,-23.28071 1.28749,-2.4057 1.10333,-2.59391 -10.07627,-10.29785 l -7.7293,-5.32632 -7.93598,8.48216 c -4.36479,4.66519 -9.54205,9.57879 -11.50504,10.91912 -1.96298,1.34032 -3.77422,2.96619 -4.02497,3.61303 -0.52904,1.36473 11.27487,19.32392 12.7009,19.32392 0.52565,0 3.06046,-1.54501 5.63289,-3.43335 z m -124.48482,-7.99883 5.87585,-8.56197 -8.46316,-7.9182 c -4.65474,-4.35501 -9.55979,-9.52428 -10.90012,-11.48727 -1.34032,-1.96298 -2.93934,-3.76392 -3.55338,-4.00208 -1.22885,-0.47662 -18.6762,10.7796 -19.21527,12.3968 -0.54452,1.63355 6.11855,9.94033 14.51575,18.09662 10.09143,9.80193 13.2831,12.18043 14.73158,10.9783 0.6231,-0.51712 3.77703,-4.79311 7.00875,-9.5022 z m 41.09726,-3.31782 c 0.91194,-4.2625 2.05076,-9.28277 2.53072,-11.15615 0.47996,-1.87339 0.65621,-3.75637 0.39167,-4.18442 -0.26455,-0.42804 -2.86027,-1.46993 -5.76828,-2.31531 -2.90801,-0.84539 -7.84119,-2.8999 -10.96262,-4.56559 -3.12144,-1.66569 -6.10028,-3.02853 -6.61965,-3.02853 -0.51937,0 -3.97217,4.34286 -7.6729,9.6508 -6.42312,9.21265 -6.64216,9.71573 -4.82459,11.08088 5.6977,4.27945 24.28125,12.08047 29.0858,12.20966 1.9228,0.0517 2.37861,-0.86132 3.83985,-7.69134 z m 132.85556,-5.5 c 6.51487,-10.20271 12.33491,-23.55969 16.17041,-37.11105 2.12285,-7.50035 1.81196,-7.79944 -10.97834,-10.56151 -11.64895,-2.51561 -11.47511,-2.60147 -14.01605,6.92256 -1.87385,7.02362 -9.12472,23.18511 -12.57755,28.03416 -1.17294,1.64725 -1.9633,3.50296 -1.75635,4.1238 0.37522,1.12565 17.59548,13.55233 19.0431,13.7421 0.41933,0.055 2.27098,-2.26256 4.11478,-5.15006 z M 93.50379,268.24494 c 4.75682,-3.08138 8.64876,-6.1784 8.64876,-6.88227 0,-0.70387 -2.23656,-5.94524 -4.97014,-11.64749 -2.73358,-5.70225 -5.95174,-14.08023 -7.15146,-18.61773 -2.53455,-9.5859 -1.68438,-9.2565 -16.3784,-6.34597 l -9.000005,1.78268 0.17363,4.40665 c 0.38863,9.86297 14.448095,42.90664 18.255975,42.90664 0.97509,0 5.66483,-2.52113 10.42164,-5.60251 z m 116.28419,-6.88982 c 0.31497,-0.82079 -0.2918,-6.10829 -1.34838,-11.75 l -1.92104,-10.25767 -7.36601,0 -7.36601,0 -1.92104,10.25767 c -1.05658,5.64171 -1.66335,10.92921 -1.34838,11.75 0.45523,1.1863 2.63621,1.49233 10.63543,1.49233 7.99922,0 10.1802,-0.30603 10.63543,-1.49233 z m 33.44026,-16.58336 c 3.25837,-3.25837 5.92431,-6.56974 5.92431,-7.3586 0,-1.22085 -14.27383,-11.94865 -17.62831,-13.24893 -0.62057,-0.24055 -3.46899,1.80686 -6.32982,4.5498 l -5.20151,4.98716 5.22214,7.82313 c 7.35488,11.01812 7.80032,11.46691 10.13906,10.21526 1.07241,-0.57394 4.61577,-3.70946 7.87413,-6.96782 z m -73.51847,-2.17431 c 3.12875,-4.5375 5.88545,-8.75774 6.126,-9.37831 0.24055,-0.62057 -1.78619,-3.44743 -4.50387,-6.28192 l -4.94123,-5.15361 -9.02617,5.9771 c -4.96438,3.28741 -9.28553,6.39678 -9.60255,6.90973 -1.27676,2.06584 11.85371,16.17701 15.05273,16.17701 0.66355,0 3.76634,-3.7125 6.89509,-8.25 z m 106.6413,0.67855 c 4.90473,-9.01437 10.41241,-25.39525 8.55148,-25.43372 -0.1375,-0.003 -5.32138,-1.08166 -11.51973,-2.39738 -12.47475,-2.64801 -12.07411,-2.76203 -13.67073,3.89056 -0.39441,1.64341 -2.25666,6.05566 -4.13833,9.80501 -1.88167,3.74934 -3.42121,7.21811 -3.42121,7.70836 0,1.20751 18.24961,13.99495 19.46434,13.63861 0.53039,-0.15559 2.66077,-3.40073 4.73418,-7.21144 z M 134.7579,241.72523 c 4.59395,-2.81723 8.81302,-5.67696 9.37572,-6.35497 0.72545,-0.87411 0.16426,-2.93537 -1.92906,-7.0854 -1.62368,-3.21896 -3.47799,-8.04462 -4.12068,-10.72367 -1.01049,-4.21216 -1.45684,-4.80615 -3.29994,-4.39143 -9.15207,2.05931 -21.74073,3.90126 -22.36731,3.27274 -0.42025,-0.42154 -0.76408,-7.86938 -0.76408,-16.55075 l 0,-15.78431 -11,-2.05752 c -7.17892,-1.34279 -11.34737,-1.71795 -12,-1.07999 -1.39401,1.36267 -1.3332,38.44433 0.0653,39.84286 0.75379,0.7538 3.92973,0.47598 10.86008,-0.95 12.14978,-2.49991 13.57458,-2.5199 13.57458,-0.19049 0,4.02334 7.1068,22.00992 10.24346,25.92515 1.53737,1.91897 2.39505,1.62666 11.36189,-3.87222 z m 58.24326,-8.62778 c 2.93011,-13.72118 3.426,-18.4618 2.0241,-19.34983 -0.75499,-0.47825 -2.08469,-0.87644 -2.95489,-0.88486 -1.57479,-0.0152 -13.91782,16.78694 -13.91782,18.94589 0,1.267 9.57961,6.01387 12.16714,6.02903 1.1825,0.007 1.962,-1.37104 2.68147,-4.74023 z m 21.21601,2.62686 c 2.71446,-1.16773 4.93538,-2.36829 4.93538,-2.66791 0,-1.45011 -12.45065,-20.20697 -13.40437,-20.19364 -3.38181,0.0473 -3.8647,1.61806 -2.64982,8.61954 3.16862,18.26098 2.81861,17.81265 11.11881,14.24201 z M 51.593805,228.90344 c 5.92905,-1.06921 10.97415,-2.13807 11.21134,-2.37526 0.23719,-0.23719 -0.0342,-3.29988 -0.60312,-6.80599 -1.28573,-7.92383 -1.32332,-28.20529 -0.0683,-36.87474 0.70005,-4.83603 0.63091,-6.78681 -0.27011,-7.62037 -1.77667,-1.64366 -20.58139,-4.90928 -21.71896,-3.77172 -4.09958,4.09959 -3.72951,59.39209 0.39752,59.39209 0.14936,0 5.12261,-0.8748 11.05166,-1.94401 z m 307.820705,-1.55599 c 2.57468,-8.64184 1.72195,-52.91609 -1.07301,-55.71105 -0.71861,-0.71861 -21.83723,2.526 -22.81674,3.50551 -0.22354,0.22353 0.0423,3.51123 0.59087,7.30599 1.25724,8.69788 1.28813,27.88287 0.0586,36.39133 -0.61389,4.24812 -0.59328,6.84023 0.0596,7.5 1.29625,1.30988 15.55517,4.38366 19.35279,4.17186 2.33219,-0.13007 3.11744,-0.77906 3.82788,-3.16364 z m -125.72572,-10.75 c 4.15515,-8.92493 4.53093,-8.60584 -13.90139,-11.80419 -7.22725,-1.25406 -8.58175,-0.76184 -8.61954,3.13228 -0.0158,1.62425 16.46335,13.80241 18.78069,13.87905 0.71281,0.0236 2.39591,-2.31964 3.74024,-5.20714 z m 76.74113,0.24135 c 1.07917,-5.84124 0.41893,-34.69695 -0.82209,-35.92971 -0.60296,-0.59895 -4.76932,-0.21258 -11.2966,1.04761 -5.68772,1.0981 -10.79075,1.84673 -11.34007,1.66362 -0.54931,-0.1831 -2.23342,-4.14441 -3.74246,-8.80289 -3.23773,-9.99503 -7.57031,-18.83864 -9.61335,-19.62263 -1.33176,-0.51104 -13.2498,6.23034 -18.42929,10.42444 l -2.16671,1.75449 3.00869,6.06405 c 1.65478,3.33523 3.54909,8.2102 4.20959,10.83326 1.10712,4.39679 1.40448,4.72867 3.80791,4.24997 15.30347,-3.04802 21.18298,-3.93055 21.83416,-3.27738 0.42507,0.42636 0.77285,7.87237 0.77285,16.54668 l 0,15.77147 10,2.03651 c 5.5,1.12008 10.66321,1.96796 11.4738,1.88418 0.91379,-0.0944 1.7891,-1.85893 2.30357,-4.64367 z m -133.10946,-2.14572 c 9.73766,-6.09527 10.61931,-7.05454 8.93192,-9.71834 -0.72066,-1.13767 -2.04498,-1.16874 -7.73468,-0.18148 -13.42089,2.32877 -16.36515,3.17465 -16.36515,4.70167 0,1.80467 4.02944,11.35252 4.79105,11.35252 0.29963,0 4.96921,-2.76947 10.37686,-6.15437 z m 23.35867,-3.09563 c 0.25509,-0.6875 0.0727,-2.6 -0.40544,-4.25 l -0.86924,-3 -1.16676,2.92245 c -1.24115,3.10874 -0.8362,5.57755 0.91486,5.57755 0.58452,0 1.27148,-0.5625 1.52658,-1.25 z m -49.02658,-1.63313 9,-1.76177 0,-7.36056 0,-7.36055 -10.25767,-1.92104 c -5.64171,-1.05658 -10.92921,-1.66335 -11.75,-1.34838 -1.18355,0.45417 -1.49233,2.61375 -1.49233,10.43738 0,5.42559 0.3,10.16472 0.66667,10.53138 0.98898,0.98898 3.85383,0.73706 13.83333,-1.21646 z m 109.28518,-8.88475 c 0.23516,-8.46686 0.0172,-10.3707 -1.24233,-10.85405 -0.84014,-0.32239 -6.14347,0.2783 -11.78518,1.33488 l -10.25767,1.92104 0,7.37653 0,7.37654 8.5,1.70591 c 4.675,0.93825 9.85,1.63867 11.5,1.55647 l 3,-0.14944 0.28518,-10.26788 z m -52.78518,7.32387 c 0,-1.17257 -4.05834,-4.55599 -5.46482,-4.55599 -1.25729,0 -0.3763,2.79342 1.52443,4.83361 2.09594,2.24973 3.94039,2.11978 3.94039,-0.27762 z m -13.5,-1.55599 c 1.70392,-3.29501 1.43998,-3.56397 -1.81574,-1.8503 -2.55742,1.34612 -3.75306,2.92997 -3.05926,4.05255 1.05874,1.71308 3.3964,0.65705 4.875,-2.20225 z m -1.5,-4.95936 2.5,-0.75999 -2.8151,-1.14033 c -1.5483,-0.62717 -3.20925,-1.14032 -3.69098,-1.14032 -1.28773,0 -2.20705,1.84613 -1.49392,3 0.69766,1.12885 1.89135,1.13767 5.5,0.0406 z m 17.55385,-0.12777 c 1.24959,-2.02189 -1.11502,-3.08677 -4.66772,-2.10208 l -3.38613,0.93853 2.5,1.06195 c 3.29057,1.39778 4.73642,1.42423 5.55385,0.1016 z m -24.16084,-5.49466 c 0.33385,-0.86998 0.60699,-2.14446 0.60699,-2.83218 0,-1.34528 -17.08367,-13.58603 -18.9612,-13.58603 -1.27023,0 -6.01392,9.58263 -6.02903,12.1791 -0.01,1.67135 1.09726,2.02032 14.99023,4.72553 6.8613,1.33603 8.73082,1.23921 9.39301,-0.48642 z m 9.60699,0.27035 c 0,-1.85146 -3.92808,-5.85104 -5.05961,-5.15172 -1.62018,1.00133 -1.0309,3.15608 1.30961,4.78874 2.79975,1.953 3.75,2.04498 3.75,0.36298 z m 10.83361,-0.74817 c 2.24973,-2.09594 2.11978,-3.94039 -0.27762,-3.94039 -1.17257,0 -4.55599,4.05834 -4.55599,5.46482 0,1.25729 2.79342,0.3763 4.83361,-1.52443 z m 18.38093,0.0626 c 5.657,-1.09834 10.39796,-1.99834 10.53546,-2 0.1375,-0.002 0.25,-0.70711 0.25,-1.56765 0,-1.86481 -4.00974,-11.43534 -4.79105,-11.43534 -1.12895,0 -20.20895,12.3423 -20.20895,13.07259 0,1.89158 1.33299,3.92741 2.57153,3.92741 0.74666,0 5.98601,-0.89864 11.64301,-1.99697 z m -24.70428,-3.14394 c 0.39497,-1.60033 0.19151,-2.92537 -0.51637,-3.36286 -1.9236,-1.18886 -3.06168,0.91482 -2.36889,4.37877 0.70809,3.54044 1.86092,3.13452 2.88526,-1.01591 z m -61.99258,-10.47666 c 1.1293,-3.27952 3.27481,-8.2989 4.7678,-11.15419 1.49298,-2.85529 2.71452,-5.61615 2.71452,-6.13525 0,-0.5191 -4.34286,-3.97168 -9.6508,-7.67241 -9.21265,-6.42312 -9.71573,-6.64216 -11.08088,-4.82459 -4.14611,5.52021 -12.26832,25.04866 -12.26832,29.49711 0,1.3906 1.97018,2.17792 9.75,3.89627 5.3625,1.18444 10.2,2.30888 10.75,2.49876 2.13928,0.73857 3.03706,-0.35386 5.01768,-6.10566 z m 56.35503,5.7174 c 1.13767,-0.72066 1.16874,-2.04498 0.18148,-7.73468 -2.32877,-13.42085 -3.17465,-16.36511 -4.70167,-16.36511 -1.80467,0 -11.35252,4.02944 -11.35252,4.79105 0,1.45011 12.45065,20.20697 13.40437,20.19364 0.6026,-0.008 1.71335,-0.40661 2.46834,-0.88486 z m 18.95947,-8.01503 c 3.3923,-4.90336 6.16782,-9.42406 6.16782,-10.046 0,-1.267 -9.57961,-6.01387 -12.16714,-6.02903 -1.74405,-0.0102 -2.46733,2.41036 -4.88705,16.35538 -0.98726,5.6897 -0.95619,7.01402 0.18148,7.73468 2.99035,1.89424 4.77246,0.55993 10.70489,-8.01503 z m 27.09696,-6.0915 c 6.20965,-4.11197 9.07086,-6.61426 9.07086,-7.93295 0,-2.25129 -12.25169,-15.06031 -14.40503,-15.06031 -1.23956,0 -11.95996,14.22778 -13.27357,17.61626 -0.32048,0.82668 8.23657,11.21512 9.35774,11.36051 0.0985,0.0128 4.26103,-2.67978 9.25,-5.98347 z m 83.57086,3.18134 c 8.50682,-1.61228 9.017,-1.85211 9.3103,-4.3767 0.75571,-6.50494 -13.38344,-41.24048 -17.96008,-44.12237 -1.29883,-0.81787 -3.50094,0.11659 -10.3519,4.3928 -4.78616,2.98742 -8.94255,6.02844 -9.23643,6.75782 -0.29387,0.72938 1.52764,5.67938 4.0478,11 4.4119,9.31451 7.64483,18.13734 9.13929,24.94156 0.84672,3.85507 1.70864,3.93564 15.05102,1.40689 z m -236.78762,-0.4246 c 0.52651,-0.6875 1.78509,-4.39283 2.79686,-8.23407 1.01176,-3.84124 4.68609,-12.60486 8.16516,-19.47473 3.47908,-6.86986 6.3256,-12.60782 6.3256,-12.75102 0,-0.8355 -19.48707,-13.10719 -20.15666,-12.69336 -0.44716,0.27636 -2.66946,3.62732 -4.93844,7.44658 -8.42621,14.18342 -17.364625,38.87419 -14.959145,41.32197 0.93012,0.94648 16.975045,5.24783 20.681795,5.54441 0.62016,0.0496 1.55833,-0.47228 2.08483,-1.15978 z m 85.20029,-3.57299 5.03028,-4.82299 -5.93472,-9.17701 c -4.17424,-6.45474 -6.51902,-9.17701 -7.90446,-9.17701 -2.2846,0 -15.10377,12.22893 -15.10377,14.40834 0,1.28924 16.39716,13.52334 18.19119,13.57266 0.38016,0.0104 2.95482,-2.15135 5.72148,-4.80399 z m 199.38252,-4.82265 c 5.61265,-0.90511 10.52905,-1.92685 10.92535,-2.27054 0.83822,-0.72696 -2.98651,-16.63632 -6.27074,-26.08382 -5.90764,-16.9941 -17.73458,-39.999995 -20.56331,-39.999995 -1.47033,0 -19.38649,11.608135 -19.38649,12.560775 0,0.28006 2.44838,5.10596 5.44084,10.72421 6.42273,12.05849 10.63859,22.66613 14.19444,35.71501 1.42382,5.225 2.78991,9.8375 3.03576,10.25 0.60345,1.01251 0.93922,0.98869 12.62415,-0.89564 z M 42.069075,156.84501 c 4.20396,-15.07341 9.84904,-28.04409 18.00391,-41.36758 2.13327,-3.48534 3.58637,-6.77345 3.22911,-7.30691 -0.99421,-1.48456 -19.05401,-13.7565 -19.5133,-13.25962 -4.28785,4.638805 -16.31636,27.65337 -21.04747,40.27086 -4.31256,11.50126 -7.68694,24.96497 -6.54829,26.12761 1.30438,1.33188 17.7073,5.42997 20.84266,5.20732 2.12503,-0.15091 2.67021,-1.19849 5.03338,-9.67168 z m 166.373635,-4.75523 c 1.05486,-5.64171 1.66024,-10.92921 1.34527,-11.75 -0.8506,-2.21664 -20.43339,-2.18241 -21.28514,0.0372 -0.48983,1.27649 1.8816,16.93414 3.22063,21.26457 0.29039,0.9391 2.37544,1.21342 7.60073,1 l 7.20058,-0.2941 1.91793,-10.25767 z m 76.95984,-8.06167 c 3.7125,-2.46075 6.75,-4.91028 6.75,-5.4434 0,-3.01927 -21.06871,-25.56293 -26.71406,-28.58423 -2.40424,-1.28671 -2.59856,-1.09691 -10.25747,10.01843 l -5.28593,7.67147 9.42434,9.32853 c 5.18339,5.1307 10.44309,10.60025 11.68823,12.15457 2.57534,3.21483 0.85331,3.83036 14.39489,-5.14537 z m -151.1972,-2.49371 c 4.27777,-4.57217 9.38383,-9.40967 11.34682,-10.75 1.96298,-1.34032 3.76392,-2.93934 4.00208,-3.55338 0.47662,-1.22885 -10.7796,-18.6762 -12.3968,-19.21527 -1.73967,-0.57989 -10.25349,6.34802 -19.17723,15.60498 -11.40715,11.83311 -11.71259,12.45993 -7.58331,15.56245 5.29535,3.97865 15.04953,10.66427 15.55895,10.66427 0.25946,0 3.97173,-3.74087 8.24949,-8.31305 z m 108.52662,-3.33775 c 6.42312,-9.21265 6.64216,-9.71573 4.82459,-11.08088 -5.52017,-4.14611 -25.04862,-12.26832 -29.49707,-12.26832 -1.38164,0 -2.17338,1.91674 -3.82088,9.25 -3.30718,14.7207 -3.50747,13.78279 3.46279,16.21567 3.32687,1.16119 8.27687,3.30802 11,4.77073 2.72313,1.4627 5.48009,2.68289 6.12656,2.71153 0.64648,0.0286 4.20328,-4.29079 7.90401,-9.59873 z m -70.85485,5.70871 c 3.26139,-1.61815 8.06585,-3.47995 10.67656,-4.13733 4.06528,-1.02365 4.67857,-1.49855 4.27186,-3.30791 -2.05853,-9.15794 -3.89587,-21.72269 -3.26804,-22.34859 0.42154,-0.42025 7.86938,-0.76408 16.55075,-0.76408 l 15.78431,0 2.05752,-11 c 1.34279,-7.178906 1.71795,-11.347363 1.07999,-11.999992 -1.36267,-1.394009 -38.44433,-1.333193 -39.84286,0.06534 -0.7538,0.753793 -0.47598,3.929738 0.95,10.860072 2.47953,12.05074 2.5097,13.57458 0.26875,13.57458 -5.80772,0 -26.47815,9.18231 -27.01336,12 -0.25461,1.34045 11.0536,20 12.12057,20 0.23877,0 3.10255,-1.32394 6.36395,-2.9421 z m 152.35563,-26.1672 c 4.90589,-3.3601 8.9198,-6.69051 8.9198,-7.40091 0,-1.90321 -8.49113,-12.907517 -16.5,-21.383637 -7.21721,-7.638273 -23.17984,-21.106155 -25.01579,-21.106155 -1.63609,0 -13.97277,18.930704 -12.91697,19.821164 0.51302,0.432682 4.12017,3.33955 8.0159,6.459707 8.13574,6.516061 14.76959,13.345831 22.31024,22.969121 2.90905,3.7125 5.5092,6.75 5.77811,6.75 0.2689,0 4.50283,-2.74918 9.40871,-6.10929 z m -235.04583,-0.5881 c 5.41403,-7.53891 15.82359,-18.079255 24.70911,-25.019588 9.44528,-7.377543 9.3684,-5.880287 0.92594,-18.033014 -2.7701,-3.9875 -5.57944,-7.25 -6.24298,-7.25 -1.98027,0 -12.94538,8.519704 -21.5914,16.77615 -8.43341,8.05342 -20.835045,22.812022 -20.835045,24.794822 0,1.01589 17.614085,13.4071 19.080485,13.4228 0.31926,0.003 2.09851,-2.10761 3.95389,-4.69117 z m 181.47391,-20.052602 6.53811,-9.75 -2.7732,-2.247565 c -5.13136,-4.15877 -22.01891,-12.090977 -33.74245,-15.849078 -9.97756,-3.198409 -11.82385,-3.528106 -12.9711,-2.316289 -0.73571,0.777113 -2.29694,5.855569 -3.4694,11.285458 -2.16226,10.013794 -1.86866,12.627474 1.41844,12.627474 4.56373,0 28.5055,10.132612 33.99132,14.385782 1.1,0.85283 2.55579,1.56491 3.23509,1.58241 0.6793,0.0175 4.17724,-4.3557 7.77319,-9.718192 z m -120.38681,1.825227 c 5.70819,-2.708627 14.09103,-5.929226 18.62853,-7.156887 9.58223,-2.592558 9.25138,-1.737127 6.35005,-16.41834 l -1.77861,-9 -3.94096,0.07007 c -9.29856,0.165332 -43.38048,14.589522 -43.38048,18.359537 0,2.418835 10.89182,19.070385 12.47398,19.070385 0.69793,0 5.9393,-2.21615 11.64749,-4.924765 z M 298.73752,55.79552 c 5.67357,-8.307425 6.60901,-10.223409 5.39001,-11.039957 -17.23168,-11.542687 -40.79272,-22.039745 -59.18406,-26.368039 -4.28899,-1.009388 -5.93858,-1.057105 -6.63169,-0.191833 -1.26226,1.575794 -5.45485,20.439719 -4.8768,21.942483 0.25583,0.665106 3.78444,2.058646 7.84136,3.096754 14.4243,3.69098 31.78759,11.215212 43.87621,19.013379 3.025,1.951378 5.7745,3.559477 6.10999,3.573555 0.33549,0.01408 3.69924,-4.497776 7.47498,-10.026342 z m -105.08497,7.418795 c 8.7549,-0.343841 18.12255,-0.144571 22.5,0.478623 5.72545,0.815101 7.76509,0.782243 8.62037,-0.138873 1.64296,-1.769416 4.90968,-20.57656 3.77172,-21.714522 -3.75548,-3.755478 -54.88803,-3.89615 -58.6229,-0.161278 -0.72794,0.727941 -0.1053,5.478702 2.36148,18.018285 1.00503,5.108953 1.17162,5.321208 3.7108,4.727983 1.46219,-0.341609 9.40853,-0.886207 17.65853,-1.210218 z"
     id="path2820" />
</svg>
