<?xml version="1.0" encoding="UTF-8" standalone="no"?>
<!-- Created with Inkscape (http://www.inkscape.org/) -->

<svg
   xmlns:dc="http://purl.org/dc/elements/1.1/"
   xmlns:cc="http://creativecommons.org/ns#"
   xmlns:rdf="http://www.w3.org/1999/02/22-rdf-syntax-ns#"
   xmlns:svg="http://www.w3.org/2000/svg"
   xmlns="http://www.w3.org/2000/svg"
   xmlns:xlink="http://www.w3.org/1999/xlink"
   xmlns:sodipodi="http://sodipodi.sourceforge.net/DTD/sodipodi-0.dtd"
   xmlns:inkscape="http://www.inkscape.org/namespaces/inkscape"
   inkscape:export-ydpi="18.728489"
   inkscape:export-xdpi="18.728489"
   inkscape:export-filename="/home/michael/hacking/neurodebian/sphinx/_static/machine.png"
   sodipodi:docname="workarea.svg"
   inkscape:version="0.47 r22583"
   version="1.1"
   id="svg2"
   height="240.27565"
   width="241.22">
  <defs
     id="defs4"><inkscape:perspective
   sodipodi:type="inkscape:persp3d"
   inkscape:vp_x="0 : 120.13783 : 1"
   inkscape:vp_y="0 : 1000 : 0"
   inkscape:vp_z="241.22 : 120.13783 : 1"
   inkscape:persp3d-origin="120.61 : 80.091883 : 1"
   id="perspective3283" />
<linearGradient
   inkscape:collect="always"
   id="linearGradient3182">
  <stop
     style="stop-color:#ffffff;stop-opacity:1"
     offset="0"
     id="stop3184" />
  <stop
     style="stop-color:#ffffff;stop-opacity:0"
     offset="1"
     id="stop3186" />
</linearGradient>
<linearGradient
   id="linearGradient3157">
  <stop
     style="stop-color:#ffffff;stop-opacity:1"
     offset="0"
     id="stop3159" />
  <stop
     style="stop-color:#31494f;stop-opacity:1"
     offset="1"
     id="stop3161" />
</linearGradient>
<radialGradient
   inkscape:collect="always"
   xlink:href="#linearGradient3157"
   id="radialGradient3297"
   gradientUnits="userSpaceOnUse"
   gradientTransform="matrix(1.5951398,-0.2633269,0.1199966,0.7441248,23.784203,13.054503)"
   cx="271.95456"
   cy="227.65692"
   fx="271.95456"
   fy="227.65692"
   r="153.54318" />
<linearGradient
   inkscape:collect="always"
   xlink:href="#linearGradient3182"
   id="linearGradient3299"
   gradientUnits="userSpaceOnUse"
   gradientTransform="matrix(1.0002415,0,0,1,196.38123,-91.428569)"
   x1="281.60837"
   y1="119.86061"
   x2="281.60837"
   y2="161.84015" />
<linearGradient
   inkscape:collect="always"
   xlink:href="#linearGradient3182"
   id="linearGradient3301"
   gradientUnits="userSpaceOnUse"
   gradientTransform="matrix(1.0021732,0,0,1,193.14533,-94.285722)"
   x1="257.53381"
   y1="197.40852"
   x2="200.00002"
   y2="123.79076" />

	<inkscape:perspective
   id="perspective3601"
   inkscape:persp3d-origin="256 : 151.33333 : 1"
   inkscape:vp_z="512 : 227 : 1"
   inkscape:vp_y="0 : 1000 : 0"
   inkscape:vp_x="0 : 227 : 1"
   sodipodi:type="inkscape:persp3d" />
</defs>
  <sodipodi:namedview
     id="base"
     pagecolor="#ffffff"
     bordercolor="#666666"
     borderopacity="1.0"
     inkscape:pageopacity="0.0"
     inkscape:pageshadow="2"
     inkscape:zoom="0.34407039"
     inkscape:cx="-76.297386"
     inkscape:cy="-66.597219"
     inkscape:document-units="px"
     inkscape:current-layer="layer1"
     showgrid="false"
     inkscape:window-width="1377"
     inkscape:window-height="879"
     inkscape:window-x="61"
     inkscape:window-y="19"
     inkscape:window-maximized="0" />
  <metadata
     id="metadata7">
    <rdf:RDF>
      <cc:Work
         rdf:about="">
        <dc:format>image/svg+xml</dc:format>
        <dc:type
           rdf:resource="http://purl.org/dc/dcmitype/StillImage" />
        <dc:title></dc:title>
      </cc:Work>
    </rdf:RDF>
  </metadata>
  <g
     inkscape:label="Layer 1"
     inkscape:groupmode="layer"
     id="layer1"
     transform="translate(-210.10584,-400.79583)">
    <g
       id="g3240"
       transform="matrix(2.7112743,0,0,2.7112743,-845.76238,332.54413)"
       inkscape:export-filename="C:\Users\Anne Menini\Desktop\interface.png"
       inkscape:export-xdpi="200"
       inkscape:export-ydpi="200">
      <rect
         rx="12.121831"
         style="fill:#1a1a1a;fill-opacity:0.44705882;stroke:#000000;stroke-width:0.73766053;stroke-linecap:round;stroke-linejoin:round;stroke-miterlimit:4;stroke-opacity:1;stroke-dasharray:none;stroke-dashoffset:0"
         id="rect3165"
         width="88.266106"
         height="87.88327"
         x="389.91888"
         y="25.542122"
         ry="12.121831" />
      <path
         id="path3155"
         d="m 476.22748,52.879463 c -83.45204,0.48174 -33.78189,4.12964 -82.40158,28.1875 l 0,20.093747 c 0,2.48247 1.10767,4.69086 2.84375,6.1875 l 76.71408,0 c 1.73843,-1.49668 2.84375,-3.70309 2.84375,-6.1875 l 0,-48.281247 z"
         style="fill:url(#radialGradient3297);fill-opacity:1;fill-rule:evenodd;stroke:none"
         sodipodi:nodetypes="ccccccc" />
      <rect
         rx="8.1736317"
         ry="8.1736317"
         y="29.545734"
         x="393.83136"
         height="79.784973"
         width="80.311104"
         id="rect3194"
         style="opacity:0.6143791;fill:none;stroke:#ffffff;stroke-width:4.04099989;stroke-linecap:round;stroke-linejoin:round;stroke-miterlimit:4;stroke-opacity:1;stroke-dasharray:none;stroke-dashoffset:0" />
      <rect
         rx="8.1736317"
         style="opacity:0.6143791;fill:none;stroke:#ffffff;stroke-width:4.04099989;stroke-linecap:round;stroke-linejoin:round;stroke-miterlimit:4;stroke-opacity:1;stroke-dasharray:none;stroke-dashoffset:0"
         id="rect3196"
         width="80.311104"
         height="79.784973"
         x="393.83136"
         y="29.545734"
         ry="8.1736317" />
      <path
         id="rect3190"
         d="m 402.73214,30.959821 c -4.52819,0 -8.1875,3.65931 -8.1875,8.1875 l 0,63.437499 c 0,4.52819 3.65931,8.18749 8.1875,8.1875 l 64.19427,0 c 4.52819,0 8.15627,-3.6593 8.15625,-8.1875 l 0,-63.437499 c 0,-4.52819 -3.62806,-8.1875 -8.15625,-8.1875 l -64.19427,0 z"
         style="opacity:0.6143791;fill:url(#linearGradient3299);fill-opacity:1;stroke:none"
         sodipodi:nodetypes="ccccccccc" />
      <path
         id="rect3178"
         d="m 400.20536,28.107138 c -4.52819,0 -8.15625,3.65931 -8.15625,8.1875 l 0,63.437502 c 0,4.52819 3.62806,8.15625 8.15625,8.15625 l 67.25381,0 c 4.52819,0 8.15625,-3.62806 8.15625,-8.15625 l 0,-63.437502 c 0,-4.52819 -3.62804,-8.1875 -8.15625,-8.1875 l -67.25381,0 z"
         style="opacity:0.6143791;fill:url(#linearGradient3301);fill-opacity:1;stroke:none"
         sodipodi:nodetypes="ccccccccc" />
    </g>
    <g
       id="g3579"
       transform="matrix(0.40316992,0,0,0.40316992,228.57123,427.44787)">
		<path
   id="path3581"
   d="M 41.184,453.06 C 18.504,453.06 0,434.556 0,411.804 0,404.532 1.872,397.476 5.544,391.212 L 219.528,20.628 c 15.912,-27.504 55.44,-27.504 71.352,0 l 213.984,370.584 c 3.6,6.264 5.472,13.392 5.472,20.592 0,22.752 -18.36,41.184 -41.112,41.256 H 41.184 z"
   style="fill:#d70751;fill-opacity:1" />

		<polygon
   id="polygon3583"
   points="458.136,405.468 255.168,53.892 52.2,405.468 "
   style="fill:#ffffff" />

		<path
   id="path3585"
   d="m 419.4,378.396 v 6.048 H 90.648 l 0.72,-2.88 c 1.08,-4.176 2.304,-8.208 3.672,-12.096 1.008,-3.168 2.52,-6.408 4.32,-9.36 1.224,-2.016 2.376,-3.816 3.528,-5.688 0.144,-0.216 0.432,-0.432 0.792,-0.648 l 0.72,-1.224 2.664,-5.832 c 0.648,-1.512 1.512,-2.952 2.376,-4.248 0.864,-1.224 1.728,-2.376 2.664,-3.456 1.8,-2.16 3.456,-4.464 4.896,-6.84 1.44,-2.52 3.168,-4.752 5.184,-6.84 0.792,-0.864 1.728,-1.656 2.736,-2.232 1.224,-0.792 2.16,-1.8 2.808,-3.024 1.44,-2.808 3.312,-5.472 5.4,-7.848 2.808,-3.24 7.2,-4.608 11.376,-3.528 2.16,0.576 4.248,1.368 6.192,2.304 3.6,1.8 6.912,4.032 9.864,6.696 l 2.016,-1.008 c 9.072,-4.392 17.568,-9.216 25.776,-14.472 l 3.672,1.44 4.464,-3.744 2.448,-2.664 4.68,-3.384 c 5.688,-4.176 11.808,-7.704 18.216,-10.584 l 3.744,-3.312 5.904,-5.544 c 0.648,-0.648 1.08,-1.44 1.296,-2.232 0.72,-2.304 1.152,-4.68 1.296,-6.984 0.216,-3.384 0.36,-6.48 0.504,-9.648 0.072,-2.448 0.288,-4.896 0.576,-7.344 0.432,-3.24 0.576,-6.336 0.576,-9.576 0,-0.648 0,-1.224 0,-1.944 0,-0.504 -0.072,-1.584 -0.072,-2.736 -0.072,-1.944 -0.288,-2.736 -0.72,-3.384 l -3.96,-8.496 -5.4,-9.216 c -1.152,-2.016 -1.872,-4.32 -2.016,-6.696 -0.144,-2.376 0.072,-4.752 0.576,-7.056 0.216,-0.936 0.504,-1.8 0.864,-2.664 0.144,-0.288 0.216,-0.648 0.216,-1.008 0,-0.504 -0.216,-1.008 -0.504,-1.44 -0.288,-0.432 -0.792,-0.648 -1.296,-0.648 -0.144,0 -0.288,0 -0.432,0.072 -1.584,0.36 -3.24,0 -4.464,-1.08 -2.808,-2.376 -4.752,-5.544 -5.688,-9.072 -0.36,-1.296 -0.792,-2.664 -1.224,-4.032 -0.288,-1.008 -0.864,-1.8 -1.656,-2.448 -1.512,-1.296 -2.592,-3.024 -3.096,-4.896 -0.504,-2.088 -0.504,-4.176 0,-6.264 0.576,-2.304 1.8,-4.464 3.672,-6.048 1.872,-1.584 4.032,-2.808 6.336,-3.6 2.52,-0.792 5.112,-1.44 7.704,-1.8 1.368,-0.216 2.808,0 4.032,0.648 1.584,0.864 3.096,1.8 4.392,2.952 1.368,1.08 2.376,2.592 2.952,4.32 0.576,1.656 1.08,3.312 1.44,4.968 0.288,1.08 0.504,2.088 0.648,3.096 0.432,2.376 1.296,4.608 2.52,6.696 0.936,1.728 1.728,3.024 2.592,4.32 -0.144,-0.216 1.008,0.648 2.376,1.08 0.72,0.216 1.584,0.36 2.376,0.36 0.648,0 1.224,-0.072 1.8,-0.216 2.376,-0.504 4.68,-0.792 7.056,-1.008 1.944,-0.144 3.888,-0.504 5.688,-1.08 3.672,-1.224 7.272,-2.232 10.944,-3.312 2.016,-0.576 4.32,-0.72 6.552,-0.36 11.52,1.8 22.464,5.688 32.4,11.52 1.008,0.576 2.016,1.152 2.952,1.8 1.44,0.936 2.592,2.232 3.24,3.816 0.792,1.8 1.224,3.672 1.44,5.544 0.504,5.4 1.08,10.224 1.8,15.048 0.432,3.168 2.016,6.48 4.536,9.144 0.648,0.72 1.44,1.368 2.304,1.872 1.728,1.008 3.168,2.448 4.248,4.176 0.504,0.72 0.72,1.584 0.72,2.448 0,1.368 -0.576,2.736 -1.656,3.6 -1.008,0.792 -2.088,1.584 -3.168,2.232 -0.864,0.576 -1.8,0.864 -2.808,1.008 -0.504,0.072 -0.864,0.432 -0.936,0.936 l 0.936,20.808 0.144,17.136 -0.288,8.208 0.144,7.128 -0.432,6.48 -0.792,7.776 c -0.288,2.376 -0.432,4.824 -0.432,7.2 0,3.6 0.288,7.128 0.792,10.656 0.36,2.232 0.576,4.68 0.576,6.984 0,0.72 -0.072,1.368 -0.072,2.016 l 0.144,9.36 -0.216,10.728 -0.288,9.936 0.144,4.752 c 0.072,1.728 1.512,3.096 3.24,3.096 l 0.72,-0.072 4.248,-3.456 c 0.648,-0.504 1.008,-1.296 1.008,-2.088 0,-0.216 0,-0.36 -0.072,-0.576 -0.144,-0.864 -0.288,-1.872 -0.288,-2.808 -0.072,-0.864 0.216,-1.656 0.792,-2.304 0.432,-0.432 0.936,-0.864 1.584,-1.224 l 2.664,-1.152 2.88,-1.584 c 2.52,-1.368 4.896,-2.952 7.056,-4.824 0.576,-0.504 1.08,-0.936 1.584,-1.296 0.792,-0.792 2.088,-1.224 3.384,-1.152 1.656,0 3.312,0.504 4.752,1.44 1.152,0.792 2.088,1.872 2.664,3.168 3.744,8.64 9.432,16.128 16.632,22.032 1.368,1.08 3.024,1.8 4.68,2.088 l 36.504,0.144 z" />

		<path
   id="path3587"
   d="m 247.248,264.636 c 0.072,0.072 0.144,0.072 0.288,0.072 0.288,0 0.576,-0.072 0.792,-0.36 1.44,-1.656 2.736,-3.24 3.96,-4.896 0.936,-1.152 1.728,-2.376 2.592,-3.6 0.648,-1.008 1.296,-2.088 2.016,-3.096 0.72,-1.008 1.368,-2.088 1.944,-3.168 0.936,-1.728 1.8,-3.312 2.664,-4.968 0.576,-1.152 1.08,-2.592 1.296,-4.104 0.216,-0.792 0.36,-1.656 0.576,-2.52 0.144,-0.36 0.216,-0.864 0.216,-1.368 l 0,0 c 0,-0.72 -0.288,-1.44 -0.792,-2.016 l -1.8,-2.016 -2.16,-1.656 c -0.432,-0.432 -0.936,-0.648 -1.512,-0.648 -0.72,0 -1.44,0.432 -1.8,1.08 l -1.44,2.376 c -0.288,0.72 -0.504,1.44 -0.576,2.232 0,1.368 -0.144,2.736 -0.432,4.104 -0.144,0.648 -0.576,2.52 -0.936,4.392 -1.008,4.824 -2.088,8.568 -3.24,12.096 l -0.864,2.448 -1.008,2.952 c -0.216,0.504 -0.36,1.08 -0.36,1.656 0,0.144 0,0.288 0.072,0.432 0,0.288 0.216,0.576 0.504,0.576 z"
   style="fill:#ffffff" />

		<line
   id="line3589"
   y2="264.63599"
   x2="247.17599"
   y1="263.98801"
   x1="246.744"
   style="fill:none;stroke:#000000;stroke-width:0.21600001" />

		<path
   id="path3591"
   d="m 291.96,199.836 3.528,0.072 3.096,0.36 4.824,0.936 c 0.216,0.072 0.504,0.216 0.576,0.504 l 1.296,2.808 0.936,2.088 0.648,1.8 1.008,2.376 1.656,3.312 1.008,1.8 1.152,2.808 1.08,3.24 0.576,2.448 0.216,0.936 c 0.072,0.144 0.072,0.36 0.072,0.504 0,1.008 -0.864,1.872 -1.872,1.872 0,0 0,0 -0.072,0 -0.36,0 -0.792,-0.144 -1.152,-0.36 l -2.304,-2.304 -2.448,-2.592 -1.44,-1.584 -1.152,-1.728 -0.864,-1.656 c -0.648,-1.368 -1.296,-2.736 -1.8,-4.176 l -3.24,-3.672 -4.032,-4.464 -3.24,-3.168 c -0.216,-0.216 -0.216,-0.504 0.072,-0.648 l 0.936,-1.152 c 0.216,-0.216 0.576,-0.36 0.936,-0.36 z"
   style="fill:#ffffff" />

		<path
   id="path3593"
   d="m 254.304,371.484 8.856,-6.048 0.432,-0.288 1.656,-0.504 3.312,-0.792 6.408,-3.816 -0.36,-1.296 c -0.504,-2.232 -1.584,-4.392 -2.952,-6.264 -1.152,-1.656 -2.232,-3.384 -3.096,-5.256 -0.72,-1.44 -1.08,-2.88 -1.152,-4.464 -0.288,-4.968 -1.152,-9.936 -2.448,-14.832 -1.512,-5.328 -3.312,-10.8 -5.256,-16.272 -1.008,-2.664 -1.512,-5.184 -1.728,-7.632 -0.072,-0.576 -0.144,-1.152 -0.072,-1.728 0,-0.36 0.144,-0.72 0.36,-1.008 l 1.944,-1.8 2.304,-1.8 2.16,-1.944 2.664,-2.376 1.656,-1.728 7.272,-7.92 0.936,-1.224 0.432,-0.648 c 0.432,-0.648 0.936,-1.296 1.44,-1.944 0.288,-0.36 0.576,-0.576 0.936,-0.792 l 2.952,-1.8 2.16,-0.792 c 0.72,-0.288 1.584,-0.216 2.16,0.288 0.936,0.72 1.584,1.872 1.872,3.024 l 0.36,3.888 0.432,3.816 1.08,7.632 c 0.216,1.872 0.36,3.672 0.36,5.472 0,1.728 -0.144,3.384 -0.36,5.04 -0.072,0.648 -0.072,1.296 -0.072,1.944 0,1.872 0.288,3.744 0.936,5.472 0.504,1.296 1.08,2.52 1.728,3.672 1.656,3.096 2.88,6.336 3.744,9.72 0.576,2.376 0.936,4.752 1.008,7.2 0.144,3.96 0.648,7.92 1.512,11.808 0.504,2.304 0.864,4.176 1.296,6.192 0.072,0.504 0.72,1.008 1.44,1.008 0.144,0 0.288,0 0.432,-0.072 l 1.728,0.072 c 0.36,0 0.72,0.288 0.792,0.648 0.504,1.728 0.72,3.456 0.72,5.184 0,1.656 -0.216,3.312 -0.648,4.896 -0.36,1.584 -1.512,2.808 -3.024,3.312 -1.296,0.432 -2.664,0.792 -4.032,0.936 -1.296,0.216 -2.376,1.152 -2.592,2.376 -0.144,0.576 -0.216,1.08 -0.216,1.584 v 0.072 l 0,0 c 0,1.224 -0.792,2.16 -1.872,2.448 -1.08,0.36 -2.232,0.576 -3.312,0.648 -1.656,0.144 -3.312,0.36 -5.04,0.648 l -5.256,0.144 -6.12,-0.288 -4.896,-0.792 -3.096,-0.72 -4.752,-0.936 -3.24,-0.648 -3.888,-0.72 z"
   style="fill:#ffffff" />

		<path
   id="path3595"
   d="m 163.224,321.372 1.872,-0.36 4.968,-1.08 c 3.384,-0.72 6.624,-1.728 9.792,-3.096 2.736,-1.152 4.824,-2.016 6.912,-2.88 2.52,-1.008 5.04,-2.664 7.272,-4.752 l 3.528,-2.952 3.024,-3.024 1.944,-1.656 2.232,-1.656 2.088,-1.512 2.592,-1.584 1.872,-1.008 2.016,-1.008 2.088,-1.008 2.232,-1.152 1.656,-0.864 1.512,-0.936 1.44,-0.792 3.096,-1.296 6.12,16.704 0.144,0.648 0.144,0.648 2.376,7.92 2.016,8.136 1.512,5.184 1.008,3.888 2.16,9.792 0.576,3.096 c 0.36,1.584 1.08,3.024 2.232,4.248 0.432,0.432 0.936,0.792 1.44,1.008 1.224,0.648 2.52,0.936 3.888,0.936 0.216,0 0.504,0 0.72,-0.072 0.936,-0.072 1.872,0.288 2.448,1.008 1.296,1.512 2.088,3.312 2.376,5.256 0,0.072 0,0.216 0,0.288 0,0.36 -0.072,0.72 -0.216,1.008 l -2.664,4.248 -0.504,0.792 -5.976,3.384 c -0.432,0.216 -0.72,0.72 -0.72,1.224 0,0.072 0,0.144 0,0.216 l 0.504,1.944 -2.016,-0.432 c -2.592,-0.648 -5.256,-0.936 -8.064,-0.936 -1.584,0 -3.24,0.072 -4.824,0.288 -3.096,0.432 -6.264,1.008 -9.504,1.8 -3.312,0.792 -6.696,1.224 -10.224,1.296 -2.376,0.072 -4.752,-0.216 -6.984,-0.864 -0.936,-0.216 -2.016,-0.504 -3.024,-0.72 -2.088,-0.36 -3.96,-1.368 -5.328,-2.88 -1.008,-1.008 -2.232,-2.376 -3.528,-3.6 l -3.24,-4.608 -1.8,-2.88 -1.944,-2.808 -1.728,-2.52 -2.736,-4.176 -1.296,-2.088 -1.872,-3.816 -1.368,-3.024 -0.936,-1.872 -0.792,-1.512 c -2.736,-4.968 -6.192,-9.576 -10.44,-13.536 h -0.072 z"
   style="fill:#ffffff" />

	</g>
  </g>
</svg>
